<svg width="141" height="88" viewBox="0 0 141 88" fill="none" xmlns="http://www.w3.org/2000/svg">
<g clip-path="url(#clip0_101_11747)">
<path d="M120.797 86.6406C124.563 84.9936 127.573 82.1185 130.356 79.1618C133.259 76.0772 136.102 72.3964 140.291 71.0547C140.798 70.8914 140.798 70.1851 140.291 70.0218C136.102 68.6801 133.263 64.9992 130.356 61.9147C127.552 58.9367 124.517 56.0367 120.712 54.3968C117.489 53.009 113.812 52.6647 110.528 54.0774C108.051 55.1458 106.762 57.0235 105.509 59.0609C105.396 59.2064 105.286 59.3555 105.176 59.5046C104.682 60.1896 104.249 60.9102 103.866 61.6556C103.813 61.7337 103.759 61.8118 103.706 61.8863C103.674 61.8437 103.635 61.8047 103.585 61.7692C99.8584 59.1567 95.0204 59.8347 92.0814 63.1322C91.439 62.6211 90.6865 62.4542 89.8985 62.4365C90.4415 61.8686 90.8604 61.2119 90.9491 60.3991C95.3541 60.644 99.2621 57.7192 100.043 53.2361C100.054 53.1758 100.054 53.1155 100.047 53.0622C100.157 53.08 100.27 53.1048 100.38 53.1261C100.444 53.1474 100.508 53.1687 100.572 53.1865C101.207 53.3817 101.853 53.5343 102.499 53.6479C103.614 53.9567 104.725 54.2726 105.878 54.4004C107.522 54.5814 109.158 54.2975 110.674 53.6443C113.772 52.3097 116.016 49.6369 117.283 46.5595C118.87 42.7118 118.997 38.5021 118.884 34.4024C118.763 30.104 118.128 25.4186 120.165 21.4467C120.414 20.964 119.917 20.4671 119.434 20.7155C115.462 22.7529 110.777 22.1211 106.478 21.9969C102.379 21.8798 98.1653 22.0076 94.3212 23.5977C91.2437 24.8685 88.5709 27.1082 87.2363 30.2069C86.5832 31.7226 86.2993 33.3589 86.4803 35.0023C86.6045 36.1346 86.9098 37.2279 87.215 38.3211C87.3464 39.063 87.5274 39.7942 87.7546 40.5112C87.7758 40.6176 87.7971 40.7277 87.8185 40.8342C87.7652 40.8271 87.7049 40.8271 87.6445 40.8377C83.1615 41.6186 80.2367 45.5266 80.4816 49.9316C79.6688 50.0203 79.0121 50.4391 78.4442 50.9822C78.4264 50.1978 78.2561 49.4417 77.7485 48.7993C81.046 45.8638 81.7204 41.0258 79.1115 37.2953C79.076 37.2456 79.037 37.2066 78.9944 37.1746C79.0796 37.1143 79.1647 37.0575 79.2499 36.9971C80.1089 36.557 80.9182 36.0388 81.6707 35.4602C83.7649 34.1753 85.7136 32.8833 86.8033 30.3489C88.216 27.0656 87.8752 23.3954 86.4838 20.1654C84.844 16.3567 81.944 13.3219 78.966 10.5213C75.8814 7.61783 72.2006 4.77467 70.8589 0.586251C70.6956 0.0786714 69.9893 0.0786714 69.826 0.586251C68.4843 4.77467 64.8034 7.61428 61.7189 10.5213C58.7409 13.3254 55.8409 16.3603 54.201 20.1654C52.8132 23.3883 52.4689 27.0656 53.8816 30.3489C54.95 32.8265 56.8277 34.1149 58.8651 35.3679C59.0106 35.4815 59.1597 35.5915 59.3088 35.7016C59.9938 36.1949 60.7144 36.628 61.4598 37.0113C61.5379 37.0646 61.616 37.1178 61.6905 37.1711C61.6479 37.203 61.6089 37.2421 61.5734 37.2917C58.9609 41.0187 59.6389 45.8567 62.9364 48.7957C62.4252 49.4382 62.2584 50.1907 62.2407 50.9787C61.6728 50.4356 61.0161 50.0167 60.1997 49.928C60.4446 45.5231 57.5198 41.6151 53.0368 40.8342C52.9764 40.8235 52.9161 40.8235 52.8629 40.8306C52.8806 40.7206 52.9055 40.607 52.9268 40.497C52.9481 40.4331 52.9693 40.3692 52.9871 40.3053C53.1823 39.6699 53.3349 39.0239 53.4485 38.3779C53.7573 37.2634 54.0732 36.1524 54.201 34.9988C54.3821 33.3553 54.0981 31.719 53.445 30.2034C52.1104 27.1046 49.4376 24.8614 46.3602 23.5942C42.5125 22.0076 38.3028 21.8798 34.2031 21.9934C29.9046 22.114 25.2193 22.7494 21.2474 20.712C20.7646 20.4635 20.2677 20.9604 20.5162 21.4432C22.5536 25.4151 21.9218 30.1004 21.7975 34.3989C21.6804 38.4986 21.8082 42.7118 23.3984 46.556C24.6691 49.6334 26.9088 52.3062 30.0076 53.6408C31.5232 54.2939 33.1595 54.5779 34.803 54.3968C35.9352 54.2726 37.0285 53.9673 38.1217 53.6621C38.8636 53.5308 39.5948 53.3497 40.3118 53.1226C40.4183 53.1013 40.5283 53.08 40.6348 53.0587C40.6277 53.1119 40.6277 53.1723 40.6383 53.2326C41.4192 57.7156 45.3273 60.6404 49.7322 60.3955C49.8209 61.2084 50.2398 61.865 50.7829 62.4329C49.9984 62.4507 49.2424 62.6211 48.5999 63.1286C45.6645 59.8311 40.8265 59.1567 37.0959 61.7656C37.0462 61.8011 37.0072 61.8402 36.9753 61.8828C36.9149 61.7976 36.8581 61.7124 36.7978 61.6272C36.3576 60.7682 35.8394 59.9589 35.2608 59.2029C33.9759 57.1087 32.6839 55.16 30.1495 54.0703C26.8662 52.6576 23.1961 52.9983 19.966 54.3897C16.1574 56.0296 13.1225 58.9296 10.322 61.9076C7.41848 64.9921 4.57532 68.673 0.386897 70.0147C-0.120683 70.178 -0.120683 70.8843 0.386897 71.0476C4.57532 72.3893 7.41493 76.0702 10.322 79.1547C13.1048 82.1079 16.1148 84.9901 19.8844 86.6335C14.2229 86.7293 9.48074 86.8429 6.05192 86.9317C2.19715 87.0488 0 87.1127 0 87.1127C0 87.1127 2.19715 87.1766 6.04482 87.2866C9.89249 87.386 15.3871 87.5138 21.9786 87.6167C25.2761 87.6735 28.8469 87.7303 32.6236 87.7693C36.4002 87.8119 40.3863 87.8687 44.5073 87.89C48.6283 87.9149 52.8877 87.9646 57.2146 87.9681C61.5414 87.9788 65.9393 87.9894 70.3336 88.0001C74.7279 87.9894 79.1257 87.9788 83.4526 87.9717C87.7794 87.9717 92.0388 87.9184 96.1598 87.8971C100.281 87.8758 104.263 87.8226 108.044 87.7764C111.82 87.7374 115.395 87.6806 118.689 87.6238C125.284 87.5209 130.778 87.3895 134.622 87.2902C138.47 87.1766 140.667 87.1127 140.667 87.1127C140.667 87.1127 138.47 87.0488 134.622 86.9352C131.197 86.85 126.455 86.7364 120.797 86.6406ZM118.664 22.2099C118.66 22.217 118.66 22.2241 118.657 22.2312C118.653 22.2276 118.653 22.2276 118.649 22.2276C118.646 22.2241 118.646 22.2241 118.642 22.2205C118.649 22.2134 118.657 22.2099 118.664 22.2099ZM22.0212 22.2205C22.0176 22.2241 22.0141 22.2241 22.0141 22.2276C22.0105 22.2205 22.007 22.2134 22.007 22.2099C22.0141 22.2134 22.0212 22.2134 22.0283 22.217C22.0247 22.217 22.0212 22.2205 22.0212 22.2205ZM99.6454 86.3566C98.3499 82.7255 94.8429 80.4609 90.9456 80.6774C90.8568 79.8646 90.438 79.2079 89.8949 78.64C90.6794 78.6223 91.4354 78.4519 92.0779 77.9443C95.0133 81.2418 99.8513 81.9162 103.582 79.3073C103.632 79.2718 103.671 79.2328 103.703 79.1902C103.763 79.2754 103.82 79.3605 103.88 79.4457C104.32 80.3047 104.838 81.114 105.417 81.8701C106.514 83.659 107.621 85.3415 109.499 86.4702C109.016 86.4631 108.533 86.4596 108.044 86.456C105.342 86.4205 102.531 86.385 99.6454 86.3566ZM83.8501 86.2572C84.1376 85.81 84.4606 85.3912 84.8262 85.0291C86.5051 83.3502 89.1992 82.4735 91.5525 82.406C92.5322 82.3776 93.4338 82.5658 94.2502 82.9207C94.1827 82.9207 94.1153 82.9172 94.0443 82.9243C92.7558 83.013 91.4106 83.6555 90.2783 84.2411C89.2099 84.7948 87.9675 85.4622 86.995 86.2679C85.9514 86.2608 84.9043 86.2572 83.8501 86.2572ZM82.4764 86.2537C80.5597 85.5367 79.399 82.9846 81.1454 81.3447C82.8882 79.7084 85.4048 80.6987 86.0934 82.7823C85.3338 83.2011 84.6416 83.7016 84.0737 84.2731C83.5129 84.8339 83.0231 85.5118 82.6078 86.2537C82.5616 86.2537 82.519 86.2537 82.4764 86.2537ZM73.3826 86.2324C72.6123 85.3983 71.3452 84.6316 70.3371 84.6316C69.3326 84.6316 68.0406 85.4231 67.2845 86.2324C66.5924 86.2324 65.9002 86.236 65.2081 86.236C65.6269 85.6148 66.1061 85.0398 66.5711 84.5499C67.8844 83.1727 69.2864 81.9304 70.3336 80.3544C71.3807 81.9268 72.7827 83.1727 74.096 84.5499C74.5646 85.0398 75.0402 85.6148 75.4591 86.236C74.7669 86.236 74.0747 86.236 73.3826 86.2324ZM58.0664 86.2572C57.6512 85.5154 57.1613 84.8374 56.6005 84.2731C56.029 83.7016 55.3369 83.2011 54.5773 82.7823C55.2375 80.8052 57.857 79.57 59.5253 81.3483C61.1368 83.0627 60.1997 85.5225 58.1871 86.2572C58.1481 86.2537 58.1055 86.2572 58.0664 86.2572ZM53.6722 86.2714C52.7599 85.519 51.5957 84.8871 50.6018 84.3547C49.4269 83.7264 48.0391 83.0556 46.6938 82.9349C46.5944 82.9243 46.495 82.9278 46.3992 82.9243C47.1588 82.5942 47.9929 82.4096 48.8981 82.406C51.3117 82.406 54.1229 83.3112 55.8409 85.0291C56.2065 85.3947 56.526 85.81 56.817 86.2608C55.7628 86.2608 54.7157 86.2644 53.6722 86.2714ZM32.6271 86.4525C32.1373 86.456 31.651 86.4631 31.1683 86.4667C32.9998 85.3663 34.0966 83.7477 35.165 82.012C35.2786 81.8665 35.3886 81.7174 35.4987 81.5683C35.992 80.8833 36.4251 80.1627 36.8084 79.4173C36.8617 79.3392 36.9149 79.2612 36.9682 79.1866C37.0001 79.2292 37.0391 79.2683 37.0888 79.3038C40.8158 81.9162 45.6538 81.2382 48.5928 77.9407C49.2353 78.4519 49.9878 78.6187 50.7758 78.6365C50.2327 79.2044 49.8138 79.861 49.7251 80.6774C45.8277 80.4609 42.3208 82.729 41.0252 86.3602C38.1359 86.385 35.3283 86.4241 32.6271 86.4525ZM26.9976 64.7224C27.1893 65.1625 27.6968 65.3506 28.1121 65.521C28.5168 65.6843 28.9285 65.7908 29.3509 65.8653C29.2338 66.3232 29.1379 66.7811 29.0669 67.239C27.5371 67.0899 24.8537 65.5423 25.7552 63.6753C26.5255 62.0851 28.996 62.4187 30.3164 63.1464C30.2028 63.3984 30.0892 63.6504 29.9863 63.9095C29.9117 64.0905 29.8514 64.2645 29.7875 64.442C29.0208 64.0338 27.9134 63.583 27.1893 63.9912C26.9159 64.1438 26.884 64.4632 26.9976 64.7224ZM28.9001 68.7866C28.8753 69.1451 28.8646 69.5142 28.8575 69.8869C28.854 69.8869 28.854 69.8869 28.8504 69.8905C27.924 70.2596 26.561 69.1486 25.9079 70.2667C25.812 70.4335 25.812 70.6394 25.9079 70.8062C26.561 71.9243 27.924 70.8133 28.8504 71.1825C28.854 71.1825 28.854 71.1825 28.8575 71.186C28.8646 71.5587 28.8788 71.9279 28.9037 72.2864C27.6542 72.5384 24.6727 72.2189 24.6727 70.5365C24.6691 68.8575 27.6649 68.5381 28.9001 68.7866ZM29.0705 73.8375C29.1415 74.2989 29.2373 74.7533 29.3509 75.2112C28.9285 75.2822 28.5168 75.3886 28.1121 75.5555C27.6968 75.7258 27.1893 75.914 26.9976 76.3541C26.884 76.6168 26.9124 76.9327 27.1893 77.0853C27.9134 77.4935 29.0208 77.0427 29.7875 76.6345C29.8514 76.812 29.9153 76.9895 29.9863 77.167C30.0892 77.4261 30.2028 77.6781 30.3164 77.9301C28.996 78.6577 26.5184 78.9949 25.7552 77.4012C24.8608 75.5271 27.5442 73.983 29.0705 73.8375ZM30.824 78.9417C31.0405 79.3464 31.2676 79.7474 31.5126 80.1379C31.1931 80.2834 30.8878 80.4502 30.6003 80.6561C30.217 80.9294 29.7414 81.2453 29.6491 81.7387C29.5958 82.0227 29.7236 82.3137 30.0218 82.3954C30.5222 82.5303 30.9943 82.2747 31.4274 82.0369C31.7575 81.8559 32.0698 81.6322 32.3609 81.3909C32.6307 81.7565 32.9111 82.115 33.2057 82.4664C32.1053 83.4531 29.8123 84.3654 28.712 83.0556C27.459 81.5577 29.397 79.6019 30.824 78.9417ZM36.6487 76.1411C36.3931 77.245 35.992 78.2921 35.4525 79.3002C34.7888 78.2744 34.2315 77.2415 33.7984 76.1802C34.7462 76.166 35.6974 76.1553 36.6487 76.1411ZM33.7239 75.1118C33.6068 75.1118 33.5109 75.1473 33.4364 75.2005C33.2021 74.4942 33.0211 73.7665 32.9004 73.014C32.9146 73.014 32.9288 73.0176 32.943 73.0176C34.3664 73.0176 35.7897 73.0176 37.2166 73.0176C37.0888 73.7062 36.9469 74.3912 36.8546 75.0656V75.0692C35.8075 75.0834 34.7675 75.0976 33.7239 75.1118ZM43.2934 85.9165C43.6519 85.3592 44.1062 84.8623 44.6777 84.5144C45.8277 83.8116 47.0168 83.9998 48.2166 84.4363C49.4056 84.8729 50.7225 85.5048 51.8655 86.2821C49.9558 86.2963 48.0639 86.3105 46.2004 86.3247C45.1675 85.9271 44.1524 85.7284 43.2934 85.9165ZM61.2504 84.7168C61.6124 83.4993 61.3001 81.437 60.3665 80.5035C59.4437 79.5806 57.3636 79.2541 56.1533 79.6197C54.8754 80.0066 54.0378 81.0927 53.6047 82.3031C52.8948 81.9943 52.1459 81.7565 51.3934 81.5896C51.7128 78.5761 55.2126 77.8485 57.7612 77.7846C59.6637 77.7349 61.5343 77.852 63.3872 77.4793C63.018 79.3322 63.1316 81.2063 63.0819 83.1053C63.0571 84.0885 62.9293 85.2101 62.6169 86.2395C61.8325 86.243 61.0516 86.243 60.2707 86.2466C60.7179 85.8384 61.0693 85.3273 61.2504 84.7168ZM52.586 77.8804C52.6108 77.8733 52.6357 77.8662 52.6605 77.8591C52.6392 77.8698 52.6179 77.884 52.5966 77.8946C52.5931 77.8911 52.5896 77.8875 52.5896 77.884C52.586 77.8875 52.586 77.8839 52.586 77.8804ZM62.3827 70.5365C62.411 70.3483 62.3436 70.1531 62.1271 70.0324C60.0897 68.9108 58.535 67.4413 57.0761 65.6523C56.7993 65.3116 56.5153 64.9886 56.2172 64.6904C56.5615 64.6904 56.9129 64.6727 57.2714 64.6407C59.6602 64.4207 61.836 64.4136 64.1681 65.088C64.4059 65.1554 64.594 65.0667 64.7076 64.914C64.8602 64.8005 64.9525 64.6123 64.8851 64.371C64.2142 62.0425 64.2248 59.856 64.4378 57.4743C64.4698 57.1158 64.4875 56.7644 64.4875 56.4201C64.7857 56.7182 65.1087 57.0022 65.4494 57.279C67.2348 58.7343 68.7114 60.2961 69.8295 62.33C69.9502 62.5465 70.1454 62.614 70.3336 62.5856C70.5217 62.614 70.7169 62.5465 70.8376 62.33C71.9592 60.2926 73.4287 58.7379 75.2177 57.279C75.5584 57.0022 75.8814 56.7182 76.1796 56.4201C76.1796 56.7644 76.1973 57.1158 76.2293 57.4743C76.4494 59.8631 76.4565 62.0389 75.7821 64.371C75.7146 64.6088 75.8034 64.7969 75.956 64.9105C76.0696 65.0631 76.2577 65.1554 76.4991 65.088C78.8275 64.4171 81.014 64.4278 83.3958 64.6407C83.7543 64.6727 84.1057 64.6904 84.45 64.6904C84.1518 64.9886 83.8678 65.3116 83.591 65.6523C82.1357 67.4377 80.5739 68.9143 78.54 70.0324C78.3235 70.1531 78.2561 70.3483 78.2845 70.5365C78.2561 70.7246 78.3235 70.9198 78.54 71.0405C80.5774 72.1621 82.1321 73.6316 83.591 75.4206C83.8678 75.7613 84.1518 76.0844 84.45 76.3825C84.1057 76.3825 83.7543 76.4003 83.3958 76.4322C81.0069 76.6523 78.8311 76.6594 76.4991 75.985C76.2612 75.9175 76.0731 76.0063 75.9595 76.1589C75.8069 76.2725 75.7146 76.4606 75.7821 76.702C76.4529 79.0304 76.4423 81.2134 76.2293 83.5987C76.1973 83.9572 76.1796 84.3086 76.1796 84.6529C75.8814 84.3547 75.5584 84.0707 75.2177 83.7939C73.4323 82.3386 71.9557 80.7768 70.8376 78.7429C70.7169 78.5264 70.5217 78.459 70.3336 78.4874C70.1454 78.459 69.9502 78.5264 69.8295 78.7429C68.7079 80.7804 67.2384 82.335 65.4494 83.7939C65.1087 84.0707 64.7857 84.3547 64.4875 84.6529C64.4875 84.3086 64.4698 83.9572 64.4378 83.5987C64.2178 81.2098 64.2107 79.034 64.8851 76.702C64.9525 76.4641 64.8638 76.276 64.7111 76.1589C64.5975 76.0063 64.4094 75.914 64.1681 75.9814C61.8396 76.6523 59.6566 76.6416 57.2714 76.4286C56.9129 76.3967 56.5615 76.379 56.2172 76.379C56.5153 76.0808 56.7993 75.7578 57.0761 75.417C58.5314 73.6316 60.0932 72.155 62.1271 71.0369C62.3436 70.9234 62.411 70.7246 62.3827 70.5365ZM66.8408 54.2584C67.462 55.2771 69.0912 56.4414 70.3371 56.4414C71.512 56.4414 73.0915 55.3552 73.7269 54.4252C74.5788 53.1829 74.4403 51.6921 73.8405 50.3894C74.561 50.1055 75.2638 49.7505 75.9134 49.3317C77.8159 51.6921 75.8566 54.6808 74.0996 56.5194C72.7863 57.8967 71.3842 59.139 70.3371 60.715C69.29 59.1425 67.8879 57.8967 66.5746 56.5194C64.8212 54.6808 62.8618 51.6886 64.7608 49.3317C65.4139 49.7505 66.1132 50.109 66.8337 50.393C66.2587 51.6318 66.099 53.0409 66.8408 54.2584ZM67.8489 50.7408C68.6866 50.9787 69.5278 51.1135 70.3336 51.1135C71.1428 51.11 71.9841 50.9751 72.8182 50.7373C73.3222 51.7453 73.4642 52.8563 72.8218 53.8183C72.3426 54.5388 71.2067 55.2807 70.3336 55.2523C67.9376 55.1742 66.8834 52.7108 67.8489 50.7408ZM77.5817 83.1088C77.532 81.2063 77.6491 79.3357 77.2764 77.4829C79.1292 77.852 81.0034 77.7384 82.9024 77.7881C85.4509 77.8556 88.9472 78.5761 89.2702 81.5932C88.5142 81.7565 87.7688 81.9978 87.0589 82.3066C86.6258 81.0998 85.7881 80.003 84.5103 79.6232C83.2928 79.2612 81.2306 79.5735 80.297 80.507C79.3742 81.4299 79.0476 83.5099 79.4132 84.7203C79.5978 85.3344 79.9492 85.842 80.3929 86.2537C79.612 86.2537 78.8275 86.2502 78.0466 86.2466C77.7343 85.2172 77.6101 84.092 77.5817 83.1088ZM88.0066 77.8591C88.0314 77.8662 88.0563 77.8733 88.0811 77.8804C88.0811 77.8839 88.0811 77.8839 88.0811 77.8875C88.0776 77.8911 88.074 77.8946 88.074 77.8981C88.0492 77.8839 88.0314 77.8733 88.0066 77.8591ZM92.4541 84.4363C93.6432 84.0033 94.8429 83.801 95.993 84.5144C96.5609 84.8694 97.0152 85.3592 97.3737 85.9165C96.5183 85.7319 95.5031 85.9271 94.4773 86.3211C92.6103 86.3069 90.7219 86.2927 88.8088 86.2785C89.9482 85.5048 91.2615 84.8694 92.4541 84.4363ZM103.805 75.0692C103.802 75.0692 103.802 75.0692 103.798 75.0692C103.678 74.4054 103.536 73.7133 103.419 73.0176C104.856 73.0176 106.29 73.0176 107.728 73.014C107.742 73.014 107.756 73.0105 107.77 73.0105C107.646 73.763 107.465 74.4906 107.234 75.197C107.156 75.1437 107.06 75.1118 106.947 75.1082C105.9 75.0976 104.853 75.0834 103.805 75.0692ZM106.872 76.1802C106.439 77.245 105.885 78.2744 105.218 79.3038C104.679 78.3028 104.263 77.2521 104.008 76.1411C104.963 76.1553 105.917 76.166 106.872 76.1802ZM111.018 81.7387C110.926 81.2453 110.454 80.9294 110.067 80.6561C109.779 80.4502 109.474 80.2834 109.155 80.1379C109.399 79.7474 109.627 79.3499 109.843 78.9453C111.27 79.6055 113.219 81.5648 111.955 83.0556C110.848 84.3618 108.565 83.4531 107.461 82.4664C107.753 82.115 108.036 81.7565 108.306 81.3909C108.597 81.6358 108.906 81.8559 109.24 82.0369C109.669 82.2747 110.145 82.5303 110.645 82.3954C110.94 82.3137 111.068 82.0227 111.018 81.7387ZM114.763 70.2667C114.11 69.1486 112.747 70.2596 111.82 69.8905C111.817 69.8905 111.817 69.8905 111.813 69.8869C111.806 69.5142 111.792 69.1451 111.767 68.7866C113.016 68.5345 115.998 68.854 115.998 70.54C115.998 72.2189 113.006 72.5384 111.771 72.2935C111.795 71.935 111.806 71.5658 111.813 71.1931C111.817 71.1931 111.817 71.1931 111.82 71.1896C112.747 70.8204 114.11 71.9314 114.763 70.8133C114.862 70.6429 114.862 70.4335 114.763 70.2667ZM111.6 67.239C111.529 66.7775 111.433 66.3232 111.316 65.8653C111.739 65.7943 112.15 65.6878 112.555 65.521C112.97 65.3506 113.478 65.1625 113.67 64.7224C113.783 64.4597 113.755 64.1438 113.478 63.9912C112.754 63.583 111.646 64.0338 110.88 64.442C110.816 64.2645 110.752 64.087 110.681 63.9095C110.578 63.6504 110.464 63.3984 110.351 63.1464C111.671 62.4187 114.149 62.0815 114.912 63.6753C115.806 65.5459 113.126 67.0899 111.6 67.239ZM113.478 77.0818C113.751 76.9291 113.783 76.6097 113.67 76.3506C113.478 75.9104 112.97 75.7223 112.555 75.5519C112.15 75.3886 111.739 75.2822 111.316 75.2076C111.433 74.7497 111.529 74.2918 111.6 73.834C113.13 73.983 115.813 75.5306 114.912 77.3977C114.142 78.9878 111.671 78.6542 110.351 77.9265C110.464 77.6745 110.578 77.4225 110.681 77.1634C110.755 76.9824 110.816 76.8085 110.88 76.631C111.646 77.0427 112.754 77.49 113.478 77.0818ZM125.94 80.9827C126.299 80.3367 126.618 79.6694 126.909 79.0021C126.927 78.9595 126.945 78.9133 126.966 78.8707C127.183 79.0375 127.42 79.1724 127.676 79.2718C127.108 79.8575 126.533 80.429 125.94 80.9827ZM128.503 78.4057C128.489 78.4022 128.478 78.3951 128.464 78.3915C128.038 78.3063 127.687 78.1147 127.385 77.8094C127.516 77.4474 127.637 77.0818 127.747 76.7091C128.244 77.0676 128.819 77.2734 129.415 77.4296C129.113 77.7562 128.808 78.0827 128.503 78.4057ZM130.249 76.5387C130.228 76.5316 130.207 76.5209 130.182 76.5174C129.444 76.3506 128.666 76.1837 128.112 75.63C128.091 75.6087 128.066 75.591 128.045 75.5732C128.098 75.3425 128.144 75.1118 128.187 74.8775C128.215 74.7142 128.24 74.5545 128.258 74.3912C128.833 74.984 129.603 75.2964 130.473 75.2609C130.888 75.2431 131.279 75.1757 131.655 75.0727C131.179 75.5555 130.711 76.0453 130.249 76.5387ZM138.665 70.5329C138.669 70.5365 138.672 70.5365 138.679 70.54C138.676 70.5436 138.672 70.5436 138.665 70.5471C138.665 70.5436 138.665 70.5436 138.665 70.5436C138.665 70.5365 138.665 70.5329 138.665 70.5329ZM135.02 69.5C135.556 69.9082 136.12 70.2525 136.709 70.5542C135.357 71.328 134.331 72.3645 133.021 73.2873C132.01 74.0008 130.068 74.7071 129.028 73.6742C128.113 72.7656 128.436 71.6439 128.436 70.5365C128.436 69.4326 128.134 68.2932 129.028 67.3987C129.976 66.4474 131.719 66.9657 132.727 67.5691C133.575 68.0802 134.235 68.9001 135.02 69.5ZM130.246 64.5342C130.707 65.0276 131.176 65.5175 131.648 66.0002C131.275 65.8973 130.885 65.8298 130.473 65.8121C129.61 65.7766 128.84 66.0783 128.262 66.671C128.251 66.593 128.244 66.5184 128.23 66.4403C128.176 66.1244 128.116 65.8121 128.045 65.4997C128.07 65.482 128.091 65.4642 128.116 65.4429C128.67 64.8892 129.447 64.7224 130.185 64.5555C130.207 64.552 130.224 64.5413 130.246 64.5342ZM128.503 62.6672C128.808 62.9902 129.113 63.3168 129.415 63.6433C128.819 63.7995 128.244 64.0089 127.747 64.3639C127.637 63.9947 127.516 63.6291 127.385 63.2671C127.683 62.9618 128.038 62.7666 128.464 62.6814C128.475 62.6778 128.489 62.6743 128.503 62.6672ZM127.672 61.8011C127.417 61.9005 127.179 62.0389 126.962 62.2022C126.952 62.1809 126.945 62.1561 126.934 62.1348C126.636 61.4426 126.306 60.754 125.937 60.0832C126.533 60.6404 127.108 61.2154 127.672 61.8011ZM112.118 55.4084C115.324 54.3116 118.628 55.0464 121.496 56.7005C121.588 56.7537 121.677 56.8105 121.77 56.8638C123.981 58.3013 125.376 60.9386 126.284 63.3487C127.197 65.773 127.264 68.0021 127.264 70.5329C127.264 73.0531 127.193 75.307 126.284 77.7171C125.376 80.1201 123.995 82.7432 121.794 84.1879C119.579 85.5225 117.081 86.3992 114.458 86.1721C113.396 86.0798 112.378 85.7994 111.412 85.3841C112.388 85.2882 113.276 84.6564 113.762 83.6874C114.351 82.509 114.234 81.1956 113.503 80.2089C114.912 80.1272 116.161 79.499 116.672 77.923C117.212 76.2689 116.463 74.6539 115.182 73.6387C116.594 73.2234 117.73 72.2296 117.73 70.5365C117.73 68.8433 116.591 67.8495 115.182 67.4342C116.459 66.419 117.208 64.804 116.672 63.1499C116.161 61.5775 114.912 60.9492 113.503 60.864C114.237 59.8773 114.351 58.5604 113.762 57.3855C113.276 56.413 112.385 55.7812 111.405 55.6889C111.639 55.5859 111.877 55.4901 112.118 55.4084ZM111.955 58.0209C113.208 59.5152 111.27 61.4746 109.843 62.1312C109.627 61.7266 109.399 61.3255 109.155 60.935C109.474 60.7895 109.779 60.6227 110.067 60.4168C110.45 60.1435 110.926 59.8276 111.018 59.3342C111.071 59.0502 110.944 58.7592 110.645 58.6776C110.145 58.5427 109.673 58.7982 109.24 59.036C108.91 59.2171 108.597 59.4407 108.306 59.6821C108.036 59.3165 107.756 58.958 107.461 58.6066C108.565 57.6233 110.855 56.7076 111.955 58.0209ZM105.932 60.289C106.162 59.9589 106.411 59.6359 106.67 59.3236C107.912 60.8144 108.934 62.4613 109.673 64.2609C110.532 66.3622 110.762 68.2861 110.755 70.54C110.748 72.6484 110.589 74.448 109.829 76.4393C109.087 78.3844 108.001 80.1663 106.67 81.76C106.627 81.7103 106.581 81.6606 106.542 81.6074C106.343 81.3625 106.155 81.1069 105.971 80.8478C105.896 80.7129 105.818 80.578 105.743 80.4467C107.852 77.387 109.059 74.2776 109.041 70.54C109.023 66.7917 107.866 63.7108 105.743 60.6333C105.804 60.5162 105.868 60.4026 105.932 60.289ZM105.218 61.7727C105.882 62.7985 106.439 63.8314 106.872 64.8927C105.921 64.9069 104.973 64.9176 104.022 64.9318C104.278 63.8279 104.679 62.7808 105.218 61.7727ZM103.82 66.0108V66.0073C104.86 65.9931 105.903 65.9789 106.943 65.9647C107.06 65.9647 107.156 65.9292 107.231 65.876C107.465 66.5823 107.646 67.31 107.767 68.0625C107.752 68.0625 107.738 68.0589 107.724 68.0589C106.301 68.0589 104.877 68.0589 103.451 68.0554C103.582 67.3703 103.724 66.6817 103.82 66.0108ZM103.28 69.1273C104.764 69.1273 106.244 69.1273 107.728 69.1309C107.792 69.1309 107.848 69.1202 107.902 69.1025C107.944 69.571 107.969 70.0502 107.969 70.54C107.969 71.0334 107.944 71.509 107.902 71.9776C107.848 71.9598 107.792 71.9492 107.728 71.9492C106.24 71.9492 104.753 71.9492 103.266 71.9527C103.209 71.4735 103.17 70.9979 103.17 70.54C103.17 70.0715 103.216 69.5994 103.28 69.1273ZM103.007 63.4658C103.017 63.4729 103.028 63.4765 103.039 63.4836C102.293 65.3932 101.818 67.4164 101.512 69.429C101.126 71.9989 101.935 75.0408 103.017 77.6071C103.014 77.6106 103.01 77.6106 103.003 77.6142C99.3828 79.8681 98.396 72.6804 98.396 70.54C98.3995 68.3926 99.3792 61.2083 103.007 63.4658ZM98.041 62.3655C98.79 62.1206 99.578 62.1312 100.338 62.298C98.1369 63.6717 97.3311 68.3961 97.3311 70.54C97.3311 72.6875 98.1369 77.4012 100.334 78.7784C99.578 78.9417 98.7935 78.9488 98.041 78.711C96.859 78.3383 96.2911 77.4083 95.8013 76.3435C95.0133 74.6397 94.3247 72.4284 94.3247 70.5365C94.3247 68.6446 95.0098 66.4332 95.8013 64.7295C96.2982 63.6611 96.8448 62.7524 98.041 62.3655ZM93.8846 63.7711C94.5235 63.1357 95.2405 62.6778 96.0072 62.3761C95.9575 62.4258 95.9078 62.472 95.8616 62.5252C95.0098 63.4907 94.5128 64.9069 94.1295 66.1173C93.7 67.4661 93.2066 69.1096 93.2066 70.5365C93.2066 71.8853 93.6716 73.44 94.062 74.7249C94.4454 75.9956 94.9565 77.4616 95.8226 78.4945C95.8865 78.569 95.9539 78.6329 96.0178 78.7039C95.3115 78.427 94.6442 78.0188 94.0407 77.458C92.2376 75.7755 90.8284 73.0105 90.8284 70.54C90.8284 68.1122 92.1772 65.4713 93.8846 63.7711ZM91.5383 64.9602C91.1195 65.6133 90.761 66.3125 90.477 67.0331C89.2383 66.4616 87.8291 66.3019 86.6116 67.0437C85.5929 67.6649 84.4287 69.2941 84.4287 70.54C84.4287 71.7149 85.5148 73.2944 86.4448 73.9298C87.6871 74.7817 89.1779 74.6397 90.4806 74.0434C90.7645 74.7639 91.1195 75.4667 91.5383 76.1163C89.1779 78.0188 86.1892 76.0595 84.3506 74.3025C82.9734 72.9892 81.731 71.5871 80.1551 70.54C81.7275 69.4929 82.9734 68.0909 84.3506 66.7775C86.1892 65.0205 89.1815 63.0612 91.5383 64.9602ZM90.1363 73.0211C89.1282 73.5252 88.0172 73.6671 87.0518 73.0247C86.3312 72.5455 85.5894 71.4096 85.6178 70.5365C85.6958 68.137 88.1592 67.0863 90.1292 68.0518C89.8914 68.8895 89.7565 69.7307 89.7565 70.5365C89.7636 71.3457 89.8985 72.187 90.1363 73.0211ZM88.0101 63.2138C88.0314 63.2032 88.0527 63.189 88.074 63.1783C88.0776 63.1819 88.0811 63.1854 88.0811 63.189C88.0811 63.1925 88.0811 63.1925 88.0811 63.1961C88.0563 63.1996 88.0314 63.2067 88.0101 63.2138ZM98.1191 50.6805C98.8006 50.0167 99.4786 49.3565 100.16 48.6928C100.604 49.7505 100.941 50.8686 101.2 52.0648C100.1 51.7347 99.081 51.2768 98.1191 50.6805ZM92.9865 41.4163C93.0682 41.3346 93.1108 41.2424 93.1285 41.1536C93.7958 41.4908 94.4347 41.8742 95.0559 42.3179C95.0452 42.3285 95.0346 42.3321 95.0239 42.3427C94.0265 43.3401 93.0256 44.3375 92.0282 45.3385C91.7371 44.9054 91.4461 44.4724 91.1266 44.0642C91.0201 43.9258 90.9172 43.7874 90.8178 43.6489C91.5383 42.9071 92.2624 42.1617 92.9865 41.4163ZM90.2002 42.7438C89.6039 41.7854 89.1424 40.7738 88.8052 39.6735C90.0014 39.929 91.1195 40.2662 92.1772 40.7099C91.5206 41.3914 90.8604 42.0658 90.2002 42.7438ZM95.78 43.0987C95.8261 43.0526 95.8581 43.0065 95.8829 42.9568C96.245 43.2585 96.5999 43.5779 96.9478 43.9258C97.2956 44.2736 97.6151 44.6286 97.9168 44.9906C97.8671 45.0155 97.821 45.0474 97.7748 45.0936C96.7277 46.1407 95.6842 47.1878 94.6371 48.2313C94.2537 47.9474 93.8846 47.6492 93.5545 47.3191C93.2208 46.9855 92.9262 46.6163 92.6458 46.2294C93.6893 45.1859 94.7329 44.1423 95.78 43.0987ZM98.5273 45.8496C98.538 45.839 98.5451 45.8283 98.5522 45.8177C98.9959 46.4353 99.3828 47.0777 99.7164 47.7451C99.6241 47.7628 99.5354 47.8054 99.4537 47.887C98.7084 48.6147 97.963 49.3388 97.214 50.0664C97.1324 50.0061 97.0472 49.9458 96.9655 49.8819C96.5041 49.5234 96.0107 49.1933 95.5173 48.8596C96.5254 47.8551 97.5264 46.8506 98.5273 45.8496ZM105.023 52.7179C104.98 52.2636 104.927 51.8092 104.856 51.362C105.261 51.3265 105.662 51.2555 106.052 51.1384C106.5 51.0035 106.975 50.8544 107.217 50.4285C107.369 50.1623 107.266 49.8606 107.025 49.6973C106.624 49.4204 106.102 49.5198 105.648 49.5908C105.275 49.6511 104.916 49.7541 104.569 49.8819C104.466 49.4311 104.349 48.9874 104.214 48.5472C105.672 48.0077 108.416 48.0042 108.615 49.9245C108.793 51.6495 106.507 52.6363 105.023 52.7179ZM105.094 44.0074C104.629 43.8264 104.111 44.0678 103.685 44.2523C103.305 44.4156 102.957 44.6215 102.627 44.8558C102.386 44.4476 102.127 44.0607 101.853 43.688C103.028 42.7154 105.623 42.009 106.549 43.6205C107.525 45.3207 105.389 47.021 103.855 47.4682C103.72 47.099 103.575 46.7334 103.415 46.3714C103.383 46.304 103.351 46.2401 103.319 46.1726C103.724 46.0413 104.114 45.8745 104.483 45.6615C104.902 45.4201 105.339 45.1539 105.474 44.6676C105.552 44.3659 105.364 44.1104 105.094 44.0074ZM101.942 39.3043C101.896 39.1268 101.747 38.9778 101.569 38.9316C100.969 38.7719 100.558 39.1304 100.231 39.5954C99.9791 39.9503 99.7696 40.5218 99.3366 40.6957C99.294 40.7135 99.255 40.7348 99.2159 40.7596C98.9426 40.497 98.6729 40.2449 98.396 40.0036C99.0633 39.0133 101.591 36.9332 102.623 38.2537C103.646 39.5599 102.052 41.7251 100.874 42.4847C100.632 42.2114 100.38 41.9381 100.118 41.6647C100.142 41.6257 100.164 41.5867 100.178 41.5441C100.352 41.111 100.923 40.898 101.278 40.6496C101.743 40.3159 102.098 39.9077 101.942 39.3043ZM117.045 38.598C116.829 37.8419 116.566 37.1001 116.271 36.3831C116.545 36.3476 116.807 36.273 117.059 36.163C117.074 36.9794 117.074 37.7887 117.045 38.598ZM116.988 33.6322C117.003 34.0759 117.02 34.5231 117.031 34.9668C117.013 34.9739 116.999 34.981 116.981 34.9917C116.619 35.233 116.239 35.3431 115.81 35.336C115.647 34.9846 115.476 34.6403 115.292 34.3031C115.902 34.2037 116.456 33.9446 116.988 33.6322ZM114.791 33.2843C114.759 33.2843 114.734 33.2879 114.706 33.295C114.525 33.011 114.337 32.7342 114.142 32.4609C114.11 32.4147 114.074 32.3757 114.042 32.3295C114.706 32.3757 115.384 32.1556 116.044 31.5096C116.371 31.1937 116.658 30.8174 116.903 30.4092C116.91 31.0766 116.928 31.7474 116.949 32.4183C116.924 32.4289 116.9 32.4396 116.878 32.4538C116.232 32.8549 115.572 33.2772 114.791 33.2843ZM112.363 24.3218C113.347 24.0734 114.408 24.1976 115.412 24.0556C116.044 23.9669 116.651 23.8178 117.251 23.6261C117.066 24.2011 116.921 24.7868 116.832 25.3938C116.68 26.416 116.822 27.5128 116.555 28.5138C116.254 29.6532 115.412 31.2576 114.06 31.2576C112.796 31.2576 112.204 30.2389 111.423 29.458C110.635 28.67 109.612 28.1163 109.623 26.8207C109.63 25.4896 111.224 24.6058 112.363 24.3218ZM107.589 26.0824C107.593 25.2979 108.015 24.6377 108.42 23.9953C108.434 23.974 108.445 23.9491 108.455 23.9278C109.133 23.9491 109.815 23.9669 110.493 23.974C110.152 24.1657 109.829 24.3928 109.52 24.6768C108.885 25.2589 108.551 26.0185 108.562 26.8455C108.242 26.6077 107.916 26.3876 107.582 26.1747C107.586 26.1427 107.589 26.1143 107.589 26.0824ZM105.878 23.8852C105.889 23.871 105.893 23.8568 105.9 23.8426C106.343 23.8568 106.791 23.871 107.234 23.8852C106.922 24.4177 106.663 24.9749 106.563 25.5784C106.223 25.3938 105.878 25.2199 105.531 25.0566C105.527 24.6306 105.637 24.2508 105.878 23.8852ZM104.703 23.8178C104.597 24.0663 104.522 24.3289 104.487 24.5987C103.777 24.3076 103.042 24.045 102.293 23.832C103.096 23.8036 103.898 23.8036 104.703 23.8178ZM89.3341 29.994C90.8213 27.1721 93.5509 25.4577 96.5573 24.6271C96.7206 24.5809 96.8874 24.5419 97.0543 24.4993C99.7732 23.9385 102.783 24.9111 105.229 26.0895C107.405 27.1366 108.913 28.6061 110.589 30.285C112.271 31.9675 113.733 33.4618 114.784 35.6448C115.963 38.0939 116.939 41.111 116.371 43.8335C115.781 46.1975 114.731 48.4692 112.899 50.1268C112.023 50.9219 111.018 51.5217 109.95 51.9583C111.274 50.2688 110.014 47.2055 107.717 46.847C108.604 45.8461 109.03 44.5966 108.402 43.1733C107.671 41.5121 105.932 40.8377 104.246 41.0258C104.948 39.7338 105.044 38.2217 103.852 37.0291C102.659 35.8364 101.147 35.9323 99.8548 36.6351C100.043 34.9455 99.3686 33.2134 97.7074 32.4751C96.284 31.8432 95.0311 32.2763 94.0336 33.1601C93.6751 30.8529 90.5906 29.5929 88.9081 30.9381C89.0324 30.6151 89.1744 30.2992 89.3341 29.994ZM96.8661 35.7761C96.7597 35.5099 96.5112 35.3182 96.2095 35.4034C95.7232 35.5418 95.457 35.9784 95.2156 36.3937C95.0027 36.7593 94.8323 37.1533 94.7045 37.558C94.6371 37.526 94.5732 37.4941 94.5057 37.4621C94.1437 37.3024 93.7745 37.1569 93.4089 37.022C93.8562 35.4886 95.5528 33.3482 97.2566 34.3279C98.8681 35.2543 98.1617 37.849 97.1892 39.0239C96.8165 38.7506 96.4296 38.4915 96.0214 38.2466C96.2556 37.9129 96.4615 37.5686 96.6248 37.1888C96.8058 36.7558 97.0472 36.2411 96.8661 35.7761ZM90.9527 32.255C92.8729 32.4609 92.8658 35.2011 92.3263 36.6564C91.8862 36.5215 91.4389 36.4044 90.9917 36.3014C91.1195 35.95 91.226 35.5951 91.2828 35.2188C91.3538 34.7645 91.4531 34.2463 91.1763 33.8416C91.013 33.6038 90.7113 33.4973 90.4451 33.6499C90.0191 33.8949 89.8701 34.367 89.7352 34.8142C89.618 35.2046 89.5471 35.6057 89.5116 36.0104C89.0608 35.9394 88.61 35.8861 88.1557 35.8435C88.2373 34.3599 89.2241 32.0704 90.9527 32.255ZM94.1898 38.4915C96.0888 39.354 97.4625 40.497 98.9142 41.9594C100.302 43.3579 101.427 44.6392 102.276 46.453C103.213 48.4514 103.756 50.5847 103.958 52.7783C103.795 52.7641 103.632 52.7463 103.468 52.7286C103.213 52.6966 102.961 52.6576 102.709 52.6114C102.599 52.5795 102.485 52.5475 102.375 52.5191C101.701 48.849 100.359 45.807 97.7003 43.1768C95.0346 40.5395 92.053 39.1836 88.3615 38.5021C88.3296 38.385 88.2976 38.2679 88.2657 38.1507C88.1947 37.7425 88.1379 37.3308 88.0989 36.919C90.2037 37.1072 92.2589 37.6112 94.1898 38.4915ZM88.4432 42.4314C88.4538 42.4279 88.4609 42.4243 88.4716 42.4208C89.2915 44.2985 90.3883 46.0697 91.5987 47.706C93.1356 49.786 95.8474 51.3727 98.4386 52.4233C97.5157 56.5975 91.7052 52.2103 90.1789 50.684C88.6597 49.172 84.276 43.3543 88.4432 42.4314ZM84.3115 44.8806C84.6665 44.3127 85.1563 43.8583 85.7136 43.4998C85.1634 46.0235 87.9143 49.9386 89.4228 51.4472C90.9314 52.9557 94.8465 55.7102 97.3737 55.1564C97.0152 55.7137 96.5609 56.2106 95.9894 56.5585C94.8394 57.2613 93.6503 57.0732 92.4506 56.6366C90.6864 55.9906 88.6348 54.9115 87.2967 53.5698C85.955 52.2281 84.8759 50.1836 84.2299 48.4159C83.8004 47.2268 83.5981 46.0271 84.3115 44.8806ZM82.7178 46.6199C82.7178 46.6873 82.7142 46.7547 82.7214 46.8257C82.8101 48.1142 83.4525 49.4595 84.0382 50.5918C84.6878 51.8483 85.4971 53.3568 86.5051 54.3649C87.4599 55.3197 88.8833 56.0864 90.0653 56.7182C91.2402 57.3465 92.628 58.0173 93.9733 58.138C94.0727 58.1487 94.1721 58.1451 94.2679 58.1487C93.5083 58.4788 92.6742 58.6634 91.7691 58.6669C89.3554 58.6705 86.5442 57.7618 84.8262 56.0438C83.1473 54.3649 82.2706 51.6708 82.2031 49.3175C82.1747 48.3414 82.3628 47.4362 82.7178 46.6199ZM86.0934 58.2942C85.4332 60.2713 82.8136 61.5065 81.1454 59.7282C79.509 57.9854 80.4994 55.4688 82.5829 54.7802C83.0018 55.5398 83.5022 56.2319 84.0737 56.7999C84.6416 57.3749 85.3338 57.8718 86.0934 58.2942ZM81.3903 51.5963C81.5571 52.3523 81.7949 53.0977 82.1037 53.8076C80.8969 54.2407 79.8001 55.0783 79.4203 56.3562C79.0583 57.5737 79.3706 59.6359 80.3041 60.5694C81.227 61.4923 83.307 61.8189 84.5174 61.4533C85.7952 61.0664 86.6329 59.9802 87.0659 58.7698C87.7758 59.0786 88.5248 59.3165 89.2773 59.4833C88.9578 62.4968 85.458 63.2245 82.9095 63.2884C81.0069 63.3381 79.1363 63.2209 77.2835 63.5936C77.6526 61.7408 77.5391 59.8666 77.5888 57.9676C77.6491 55.4156 78.3697 51.9193 81.3903 51.5963ZM77.6562 52.8634C77.6633 52.8386 77.6704 52.8138 77.6775 52.7889C77.681 52.7889 77.681 52.7889 77.6846 52.7889C77.6881 52.7925 77.6917 52.796 77.6952 52.796C77.681 52.8209 77.6704 52.8422 77.6562 52.8634ZM75.9382 36.8658C75.9524 35.911 75.9631 34.9562 75.9773 34.0014C77.0421 34.4344 78.0715 34.9881 79.1009 35.6554C78.0999 36.1949 77.0457 36.6102 75.9382 36.8658ZM69.2226 39.3576C71.7924 39.7445 74.8343 38.9352 77.4006 37.8526C77.4042 37.8561 77.4042 37.8632 77.4077 37.8668C79.6617 41.4873 72.4739 42.474 70.3336 42.474C68.1897 42.474 61.0054 41.4944 63.2594 37.8668C63.2665 37.8561 63.27 37.8455 63.2771 37.8348C65.1868 38.5802 67.21 39.0559 69.2226 39.3576ZM65.673 33.6393C66.3794 33.405 67.107 33.224 67.8595 33.1033C67.8595 33.1175 67.856 33.1317 67.856 33.1459C67.856 34.5693 67.856 35.9926 67.8524 37.4195C67.1638 37.2917 66.4788 37.1498 65.8079 37.0575H65.8044C65.7902 36.0175 65.776 34.9739 65.7618 33.9339C65.7582 33.8097 65.7227 33.7174 65.673 33.6393ZM71.7463 37.6041C71.2671 37.6609 70.7914 37.6999 70.3336 37.6999C69.8686 37.6999 69.3965 37.6538 68.9209 37.5899C68.9209 36.1062 68.9209 34.6261 68.9244 33.1424C68.9244 33.0785 68.9138 33.0217 68.896 32.9684C69.3645 32.9258 69.8437 32.901 70.3336 32.901C70.8269 32.901 71.3026 32.9258 71.7711 32.9684C71.7534 33.0217 71.7427 33.0785 71.7427 33.1424C71.7463 34.6296 71.7463 36.1169 71.7463 37.6041ZM74.8663 37.0717C74.2025 37.1924 73.5104 37.3343 72.8147 37.4515C72.8147 36.0175 72.8147 34.5799 72.8111 33.1424C72.8111 33.1282 72.8076 33.114 72.8076 33.0998C73.5601 33.224 74.2877 33.405 74.9941 33.6357C74.9408 33.7138 74.9089 33.8097 74.9053 33.9233C74.8911 34.9704 74.8769 36.0139 74.8627 37.061C74.8663 37.0681 74.8663 37.0681 74.8663 37.0717ZM82.2635 33.4086C81.9121 33.1175 81.5536 32.8336 81.188 32.5638C81.4329 32.2727 81.6529 31.9639 81.834 31.6303C82.0718 31.2008 82.3274 30.7252 82.1925 30.2247C82.1108 29.9301 81.8198 29.7987 81.5358 29.852C81.0424 29.9443 80.7265 30.4163 80.4532 30.8032C80.2473 31.0907 80.0805 31.396 79.935 31.7155C79.5445 31.4705 79.147 31.2434 78.7423 31.0269C79.4026 29.6 81.3619 27.6513 82.8527 28.9149C84.1589 30.0223 83.2502 32.3082 82.2635 33.4086ZM79.0689 13.1977C79.651 13.762 80.2225 14.3371 80.7762 14.9298C80.1302 14.5713 79.4629 14.2519 78.7956 13.9608C78.753 13.9431 78.7068 13.9253 78.6643 13.904C78.8346 13.691 78.9695 13.4532 79.0689 13.1977ZM77.2267 11.4549C77.5533 11.7601 77.8763 12.0618 78.2028 12.3671C78.1993 12.3813 78.1922 12.3919 78.1886 12.4061C78.1034 12.8321 77.9118 13.1835 77.6065 13.4852C77.2445 13.3538 76.8789 13.2332 76.5062 13.1231C76.8647 12.6262 77.0741 12.0512 77.2267 11.4549ZM74.8663 9.21866C75.349 9.69075 75.8388 10.1593 76.3358 10.6243C76.3287 10.6456 76.318 10.6669 76.3145 10.6917C76.1477 11.43 75.9808 12.2074 75.4271 12.7611C75.4058 12.7824 75.3881 12.8072 75.3703 12.8285C75.1396 12.7753 74.9089 12.7291 74.6746 12.6865C74.5113 12.6581 74.3516 12.6333 74.1883 12.6155C74.7811 12.0405 75.0935 11.2703 75.058 10.4007C75.0402 9.98536 74.9728 9.59136 74.8663 9.21866ZM70.3336 2.19418C70.3371 2.19773 70.3371 2.20128 70.3407 2.20838C70.3371 2.20838 70.3371 2.20838 70.3336 2.20838C70.33 2.20838 70.33 2.20838 70.3265 2.20838C70.33 2.20128 70.3336 2.19773 70.3336 2.19418ZM67.3697 8.14316C67.8773 7.29483 68.6972 6.63462 69.2971 5.85018C69.7053 5.3142 70.0496 4.74983 70.3513 4.16061C71.1251 5.51297 72.1616 6.53878 73.0844 7.84855C73.7979 8.86016 74.5042 10.8017 73.4713 11.8418C72.5627 12.7575 71.441 12.4345 70.3336 12.4345C69.2297 12.4345 68.0903 12.7362 67.1958 11.8418C66.2481 10.894 66.7663 9.15477 67.3697 8.14316ZM65.8008 9.22221C65.6979 9.59491 65.6305 9.98536 65.6127 10.3971C65.5772 11.2596 65.8789 12.0299 66.4717 12.6084C66.3936 12.6191 66.3191 12.6262 66.241 12.6404C65.9251 12.6936 65.6127 12.754 65.3004 12.825C65.2826 12.8001 65.2649 12.7788 65.2436 12.754C64.6898 12.2003 64.523 11.4229 64.3562 10.6846C64.3491 10.6598 64.342 10.642 64.3349 10.6207C64.8247 10.1628 65.3181 9.6943 65.8008 9.22221ZM63.4404 11.4584C63.5966 12.0547 63.806 12.6297 64.161 13.1267C63.7918 13.2367 63.4262 13.3574 63.0642 13.4887C62.7589 13.1906 62.5637 12.8356 62.4785 12.4097C62.4749 12.3955 62.4678 12.3848 62.4643 12.3706C62.7908 12.0654 63.1138 11.7601 63.4404 11.4584ZM61.5982 13.1977C61.6976 13.4532 61.836 13.691 62.0029 13.9076C61.9816 13.9182 61.9567 13.9253 61.9354 13.936C61.2433 14.2341 60.5547 14.5607 59.8838 14.9334C60.4375 14.3406 61.0125 13.7656 61.5982 13.1977ZM55.4824 29.4686C55.383 29.2344 55.2872 28.9965 55.2055 28.7552C54.1087 25.55 54.8435 22.2454 56.4976 19.3774C56.5508 19.2851 56.6076 19.1963 56.6608 19.1041C58.0984 16.8927 60.7357 15.4977 63.1458 14.5891C65.5701 13.6768 67.7992 13.6094 70.33 13.6094C72.8502 13.6094 75.1041 13.6804 77.5142 14.5891C79.9172 15.4977 82.5403 16.8785 83.985 19.0792C85.3196 21.2941 86.1963 23.793 85.9656 26.416C85.8733 27.4773 85.5929 28.4961 85.1776 29.4615C85.0818 28.4854 84.45 27.598 83.4809 27.1117C82.3025 26.5225 80.9892 26.6397 80.0024 27.3709C79.9208 25.9617 79.2925 24.7123 77.7165 24.2011C76.0625 23.6616 74.4474 24.4106 73.4323 25.6919C73.017 24.2792 72.0231 23.1434 70.33 23.1434C68.6369 23.1434 67.643 24.2828 67.2277 25.6919C66.2126 24.4141 64.5975 23.6652 62.9435 24.2011C61.371 24.7123 60.7428 25.9617 60.6576 27.3709C59.6708 26.6361 58.354 26.5225 57.1791 27.1117C56.2101 27.598 55.5782 28.489 55.4824 29.4686ZM76.8789 27.3922C76.7262 27.1188 76.4068 27.0869 76.1477 27.2005C75.7075 27.3922 75.5194 27.8997 75.349 28.315C75.1857 28.7197 75.0793 29.1314 75.0047 29.5538C74.5468 29.4367 74.0889 29.3408 73.6311 29.2699C73.7801 27.74 75.3277 25.0566 77.1948 25.9582C78.7849 26.7284 78.4513 29.1989 77.7236 30.5193C77.4716 30.4057 77.2196 30.2921 76.9605 30.1892C76.7795 30.1146 76.6055 30.0543 76.4281 29.9904C76.8398 29.2237 77.287 28.1198 76.8789 27.3922ZM70.6033 26.1072C70.4365 26.0114 70.2306 26.0114 70.0638 26.1072C68.9457 26.7603 70.0567 28.1234 69.6875 29.0498C69.6875 29.0533 69.6875 29.0533 69.684 29.0569C69.3113 29.064 68.9421 29.0782 68.5836 29.103C68.3316 27.8536 68.6511 24.872 70.3336 24.872C72.0125 24.872 72.3319 27.8642 72.087 29.0995C71.7285 29.0746 71.3594 29.064 70.9867 29.0569C70.9867 29.0533 70.9867 29.0533 70.9831 29.0498C70.6104 28.1234 71.725 26.7603 70.6033 26.1072ZM64.239 29.9904C64.0616 30.0543 63.8841 30.1182 63.7066 30.1892C63.4475 30.2921 63.1955 30.4057 62.9435 30.5193C62.2158 29.1989 61.8786 26.7213 63.4724 25.9582C65.3429 25.0637 66.887 27.7436 67.0361 29.2699C66.5746 29.3408 66.1203 29.4367 65.6624 29.5538C65.5914 29.1314 65.4849 28.7197 65.3181 28.315C65.1477 27.8997 64.9596 27.3922 64.5195 27.2005C64.2568 27.0869 63.9409 27.1153 63.7883 27.3922C63.3801 28.1198 63.8309 29.2237 64.239 29.9904ZM58.4072 33.4086C57.4204 32.3082 56.5082 30.0152 57.818 28.9149C59.3123 27.6619 61.2717 29.6 61.9283 31.0269C61.5237 31.2434 61.1226 31.4705 60.7321 31.7155C60.5866 31.396 60.4198 31.0907 60.2139 30.8032C59.9406 30.4199 59.6247 29.9443 59.1313 29.852C58.8473 29.7987 58.5563 29.9265 58.4746 30.2247C58.3398 30.7252 58.5953 31.1972 58.8331 31.6303C59.0142 31.9604 59.2378 32.2727 59.4792 32.5638C59.1136 32.8336 58.7586 33.1175 58.4072 33.4086ZM60.4269 35.1336C60.3133 35.0698 60.1997 35.0059 60.0826 34.9384C59.7525 34.7077 59.4295 34.4592 59.1171 34.2001C60.6079 32.9578 62.2549 31.9355 64.0545 31.1972C66.1558 30.3383 68.0796 30.1075 70.3336 30.1146C72.442 30.1217 74.2416 30.2815 76.2328 31.0411C78.178 31.7829 79.9598 32.8691 81.5536 34.2001C81.5039 34.2427 81.4542 34.2889 81.4009 34.3279C81.156 34.5267 80.9005 34.7148 80.6413 34.8994C80.5065 34.9739 80.3716 35.052 80.2402 35.1265C77.1806 33.0181 74.0712 31.8113 70.3336 31.829C66.5853 31.8539 63.5043 33.011 60.4269 35.1336ZM61.5698 35.6519C62.5956 34.9881 63.6285 34.4308 64.6898 33.9978C64.704 34.9491 64.7147 35.8968 64.7289 36.8481C63.625 36.596 62.5779 36.195 61.5698 35.6519ZM62.0916 40.536C63.4653 42.7367 68.1897 43.5424 70.3336 43.5424C72.481 43.5424 77.1948 42.7367 78.572 40.5395C78.7353 41.2956 78.7423 42.08 78.5045 42.8325C78.1318 44.0145 77.2019 44.5824 76.137 45.0723C74.4332 45.8603 72.2219 46.5489 70.33 46.5489C68.4381 46.5489 66.2268 45.8638 64.523 45.0723C63.4546 44.5753 62.5459 44.0252 62.1555 42.8325C61.9177 42.08 61.9283 41.292 62.0916 40.536ZM62.1768 44.8629C62.2265 44.9125 62.2726 44.9622 62.3259 45.0084C63.2913 45.8603 64.7076 46.3572 65.918 46.7405C67.2668 47.17 68.9102 47.6634 70.3371 47.6634C71.6859 47.6634 73.2406 47.1984 74.5255 46.808C75.7963 46.4246 77.2622 45.9135 78.2951 45.0474C78.3697 44.9835 78.4335 44.9161 78.5045 44.8522C78.2277 45.5586 77.8195 46.2259 77.2587 46.8293C75.5762 48.6324 72.8111 50.0416 70.3407 50.0416C67.9163 50.0416 65.2755 48.6963 63.5753 46.9855C62.9364 46.3501 62.4785 45.6295 62.1768 44.8629ZM63.0109 52.8634C63.0003 52.8422 62.9861 52.8209 62.9754 52.7996C62.979 52.796 62.9825 52.7925 62.9861 52.7925C62.9896 52.7925 62.9896 52.7925 62.9932 52.7925C62.9967 52.8138 63.0038 52.8386 63.0109 52.8634ZM59.2804 51.5963C62.2939 51.9157 63.0216 55.4155 63.0855 57.9641C63.1351 59.8666 63.018 61.7372 63.3907 63.5901C61.5379 63.2209 59.6637 63.3345 57.7647 63.2848C55.2162 63.2174 51.7199 62.4968 51.3969 59.4797C52.153 59.3165 52.8984 59.0751 53.6083 58.7663C54.0413 59.9731 54.879 61.0699 56.1568 61.4497C57.3743 61.8118 59.4366 61.4994 60.3701 60.5659C61.293 59.643 61.6195 57.563 61.2539 56.3526C60.867 55.0748 59.7809 54.2371 58.5705 53.8041C58.8722 53.1013 59.1136 52.3523 59.2804 51.5963ZM52.6605 63.2138C52.6357 63.2067 52.6108 63.1996 52.586 63.1925C52.586 63.189 52.586 63.189 52.586 63.1854C52.5896 63.1819 52.5931 63.1783 52.5931 63.1748C52.6179 63.189 52.6392 63.2032 52.6605 63.2138ZM54.5773 58.2906C55.3369 57.8718 56.029 57.3713 56.597 56.7999C57.1684 56.2284 57.6689 55.5362 58.0877 54.7766C60.0648 55.4368 61.3001 58.0564 59.5217 59.7247C57.7825 61.3645 55.2659 60.3707 54.5773 58.2906ZM49.3843 35.2224C49.4447 35.5951 49.5476 35.9536 49.6754 36.3014C49.2282 36.4044 48.7809 36.5215 48.3408 36.6564C47.7977 35.1975 47.7942 32.4538 49.718 32.255C51.4466 32.0775 52.4369 34.3634 52.5186 35.8471C52.0642 35.8897 51.6099 35.9429 51.1626 36.0139C51.1272 35.6093 51.0562 35.2082 50.939 34.8177C50.8041 34.3705 50.6551 33.8949 50.2291 33.6535C49.9629 33.5009 49.6612 33.6038 49.4979 33.8452C49.214 34.2463 49.3134 34.768 49.3843 35.2224ZM38.3951 23.8284C37.639 24.045 36.8972 24.3076 36.1802 24.6022C36.1447 24.3289 36.0701 24.0663 35.9601 23.8143C36.7765 23.7965 37.5858 23.8001 38.3951 23.8284ZM34.7639 23.8391C34.771 23.8568 34.7781 23.871 34.7888 23.8888C35.0301 24.2508 35.1402 24.6306 35.1331 25.0601C34.7817 25.2234 34.4374 25.3938 34.1002 25.5784C34.0008 24.9714 33.7416 24.4177 33.4293 23.8817C33.873 23.8675 34.3202 23.8497 34.7639 23.8391ZM32.2118 23.9243C32.2225 23.9491 32.2331 23.974 32.2473 23.9953C32.652 24.6377 33.0743 25.2979 33.0779 26.0824C33.0779 26.1143 33.0814 26.1392 33.0885 26.1676C32.8046 26.3486 32.5277 26.5367 32.2544 26.732C32.2083 26.7639 32.1692 26.7994 32.1231 26.8313C32.1692 26.1676 31.9491 25.4896 31.3031 24.8294C30.9872 24.5029 30.611 24.2153 30.2028 23.9704C30.8736 23.9633 31.541 23.9456 32.2118 23.9243ZM25.1873 24.045C26.2096 24.1976 27.3064 24.0592 28.3073 24.3218C29.4467 24.6235 31.0511 25.4648 31.0511 26.8171C31.0511 28.0808 30.0324 28.6735 29.2515 29.4544C28.4635 30.2424 27.9098 31.2647 26.6142 31.254C25.2867 31.2434 24.4064 29.6496 24.1189 28.5103C23.8705 27.527 23.9947 26.4657 23.8527 25.4612C23.764 24.8294 23.6149 24.2224 23.4232 23.6226C23.9982 23.8072 24.5804 23.9527 25.1873 24.045ZM23.7924 32.4502C23.7675 32.436 23.7462 32.4254 23.7249 32.4147C23.7462 31.7368 23.764 31.0553 23.7711 30.3773C23.9627 30.7181 24.1899 31.0411 24.4739 31.3499C25.056 31.9852 25.8156 32.3189 26.6426 32.3082C26.4048 32.6277 26.1847 32.9542 25.9718 33.2879C25.9434 33.2843 25.9114 33.2772 25.8795 33.2772C25.095 33.2772 24.4348 32.8549 23.7924 32.4502ZM25.379 34.3066C25.1944 34.6438 25.0205 34.9917 24.8572 35.3395C24.4277 35.3431 24.0479 35.233 23.6823 34.9952C23.6681 34.9846 23.6539 34.981 23.6397 34.9739C23.6539 34.5302 23.6681 34.083 23.6823 33.6393C24.2183 33.9481 24.772 34.2072 25.379 34.3066ZM23.6149 36.1665C23.8634 36.273 24.126 36.3476 24.3958 36.3831C24.1047 37.093 23.8421 37.8277 23.6291 38.5767C23.6007 37.7745 23.6007 36.9723 23.6149 36.1665ZM30.7317 51.9725C30.4122 51.8412 30.0963 51.6992 29.7875 51.5359C26.9656 50.0487 25.2512 47.3191 24.4206 44.3127C24.3745 44.1494 24.3354 43.9826 24.2929 43.8158C23.732 41.0968 24.7046 38.0868 25.883 35.6412C26.9301 33.4654 28.3996 31.9568 30.0786 30.2815C31.761 28.599 33.2554 27.1366 35.4383 26.0859C37.8875 24.9075 40.9046 23.9314 43.627 24.4993C45.991 25.0885 48.2627 26.1392 49.9203 27.9707C50.7154 28.8475 51.3153 29.852 51.7519 30.9204C50.0623 29.5964 46.9991 30.8565 46.6406 33.153C45.6396 32.2656 44.3902 31.8397 42.9668 32.468C41.3057 33.1992 40.6313 34.9384 40.8194 36.6244C39.5274 35.9216 38.0153 35.8258 36.8226 37.0184C35.63 38.2111 35.7258 39.7232 36.4286 41.0152C34.7391 40.8271 33.0069 41.5015 32.2686 43.1626C31.6368 44.586 32.0698 45.839 32.9537 46.8364C30.6465 47.2055 29.3899 50.2865 30.7317 51.9725ZM44.0494 37.1853C44.2127 37.5651 44.4186 37.9129 44.6528 38.243C44.2447 38.4844 43.8578 38.7435 43.4851 39.0168C42.5125 37.8419 41.8061 35.2472 43.4176 34.3208C45.1178 33.3447 46.8181 35.4815 47.2653 37.0149C46.8961 37.1498 46.5305 37.2953 46.1685 37.455C46.101 37.487 46.0372 37.5189 45.9697 37.5509C45.8384 37.1462 45.6716 36.7558 45.4586 36.3866C45.2172 35.9678 44.951 35.5312 44.4647 35.3963C44.1666 35.3111 43.911 35.5028 43.8081 35.769C43.6235 36.2411 43.8649 36.7593 44.0494 37.1853ZM39.3889 40.6425C39.7439 40.8945 40.3153 41.1039 40.4893 41.537C40.507 41.5796 40.5283 41.6186 40.5532 41.6576C40.2905 41.931 40.0385 42.2007 39.7971 42.4776C38.8068 41.8103 36.7268 39.283 38.0472 38.2501C39.3534 37.2279 41.5186 38.8216 42.2782 40C42.0049 40.2414 41.7316 40.4934 41.4583 40.7561C41.4192 40.7312 41.3802 40.7099 41.3376 40.6957C40.9046 40.5218 40.6916 39.9503 40.4431 39.5954C40.1166 39.1304 39.7048 38.7754 39.105 38.9316C38.9275 38.9778 38.7784 39.1268 38.7323 39.3043C38.569 39.9042 38.9275 40.3159 39.3889 40.6425ZM35.2005 44.6641C35.3389 45.1504 35.7755 45.4166 36.1908 45.6579C36.5564 45.8709 36.9504 46.0413 37.3551 46.1691C37.3231 46.2365 37.2912 46.3004 37.2592 46.3678C37.0995 46.7299 36.954 47.099 36.8191 47.4646C35.2821 47.0174 33.1453 45.3207 34.125 43.617C35.0514 42.0055 37.6461 42.7118 38.821 43.6844C38.5477 44.0571 38.2886 44.444 38.0437 44.8522C37.71 44.6179 37.3657 44.4121 36.9859 44.2488C36.5564 44.0642 36.0417 43.8228 35.5767 44.0039C35.307 44.1104 35.1153 44.3624 35.2005 44.6641ZM36.0985 49.8783C35.7471 49.7505 35.3922 49.644 35.0159 49.5873C34.5616 49.5163 34.0434 49.4169 33.6387 49.6937C33.4009 49.857 33.2944 50.1587 33.447 50.4249C33.692 50.8509 34.164 51 34.6113 51.1348C35.0017 51.252 35.4028 51.323 35.8075 51.3585C35.7365 51.8057 35.6832 52.26 35.6406 52.7144C34.1534 52.6327 31.864 51.6424 32.0485 49.9138C32.2544 47.9935 34.9946 48.0006 36.4499 48.5401C36.3221 48.9838 36.2015 49.4311 36.0985 49.8783ZM37.9443 52.6043C37.5361 52.6753 37.1243 52.7321 36.7126 52.7712C36.9043 50.6663 37.4118 48.6076 38.2886 46.6802C39.1511 44.7812 40.294 43.4076 41.7564 41.9558C43.155 40.5644 44.4363 39.4428 46.2501 38.5944C48.2485 37.6573 50.3818 37.1143 52.5754 36.9119C52.5612 37.0752 52.5434 37.2385 52.5257 37.4018C52.4937 37.6573 52.4547 37.9094 52.4085 38.1614C52.3766 38.2714 52.3446 38.385 52.3162 38.495C48.646 39.1694 45.6041 40.5112 42.9739 43.1697C40.3366 45.8354 38.9807 48.817 38.2992 52.5085C38.1785 52.5404 38.0614 52.5724 37.9443 52.6043ZM42.8958 45.0936C42.8497 45.0474 42.8036 45.0155 42.7539 44.9906C43.0556 44.6286 43.375 44.2736 43.7229 43.9258C44.0707 43.5779 44.4257 43.2585 44.7877 42.9568C44.8126 43.0065 44.8445 43.0526 44.8907 43.0987C45.9378 44.1459 46.9849 45.1894 48.0284 46.2365C47.7445 46.6199 47.4463 46.989 47.1162 47.3191C46.7826 47.6528 46.4134 47.9474 46.0265 48.2278C44.9829 47.1807 43.9394 46.1371 42.8958 45.0936ZM45.1356 48.8454C44.7025 49.1365 44.2695 49.4275 43.8613 49.747C43.7229 49.8535 43.5844 49.9564 43.446 50.0558C42.7006 49.3317 41.9552 48.6076 41.2134 47.8799C41.1317 47.7983 41.0394 47.7557 40.9507 47.738C41.2879 47.0706 41.6713 46.4317 42.1149 45.8106C42.1256 45.8212 42.1291 45.8319 42.1398 45.8425C43.1372 46.847 44.1382 47.848 45.1356 48.8454ZM45.6467 42.3427C45.6361 42.3321 45.6254 42.325 45.6148 42.3179C46.2324 41.8742 46.8748 41.4873 47.5421 41.1536C47.5599 41.2459 47.6025 41.3346 47.6841 41.4163C48.4118 42.1617 49.1359 42.9071 49.8635 43.656C49.8032 43.7377 49.7428 43.8228 49.679 43.9045C49.3205 44.3659 48.9903 44.8593 48.6567 45.3527C47.6522 44.3482 46.6477 43.3437 45.6467 42.3427ZM48.4899 40.7135C49.5476 40.2698 50.6657 39.9326 51.8619 39.6735C51.5318 40.7703 51.0704 41.7925 50.474 42.7544C49.8138 42.0729 49.1536 41.3914 48.4899 40.7135ZM39.4706 52.0648C39.7261 50.8686 40.0633 49.7505 40.5106 48.6928C41.1885 49.353 41.8665 50.0132 42.5444 50.6698C41.5825 51.2662 40.5709 51.7312 39.4706 52.0648ZM42.2285 52.4304C42.225 52.4198 42.2214 52.4127 42.2179 52.402C44.0956 51.5821 45.8668 50.4853 47.5031 49.2749C49.5831 47.738 51.1697 45.0261 52.2204 42.435C56.3946 43.3579 52.0074 49.1684 50.4811 50.6947C48.9691 52.2103 43.1514 56.5975 42.2285 52.4304ZM43.2969 55.1564C45.8206 55.7066 49.7357 52.9557 51.2443 51.4472C52.7528 49.9386 55.5073 46.0235 54.9535 43.4963C55.5108 43.8548 56.0077 44.3091 56.3556 44.8806C57.0584 46.0306 56.8703 47.2197 56.4337 48.4195C55.7877 50.1836 54.7086 52.2352 53.3669 53.5734C52.0252 54.9151 49.9807 55.9941 48.213 56.6401C47.0204 57.0732 45.8242 57.2755 44.6741 56.562C44.1098 56.2071 43.6554 55.7137 43.2969 55.1564ZM49.1146 58.6669C48.1349 58.6953 47.2333 58.5072 46.417 58.1522C46.4844 58.1522 46.5518 58.1558 46.6228 58.1487C47.9113 58.0599 49.2566 57.4175 50.3889 56.8318C51.6454 56.1822 53.1539 55.373 54.162 54.3649C55.1168 53.4101 55.8835 51.9867 56.5153 50.8047C57.1436 49.6298 57.8144 48.242 57.9351 46.8967C57.9458 46.7973 57.9422 46.6979 57.9458 46.6021C58.2759 47.3617 58.4604 48.1958 58.464 49.101C58.464 51.5146 57.5589 54.3259 55.8409 56.0438C54.1655 57.7227 51.4679 58.5995 49.1146 58.6669ZM56.3165 66.774C57.6938 68.0873 58.9361 69.4894 60.5121 70.5365C58.9396 71.5836 57.6938 72.9856 56.3165 74.299C54.4779 76.0524 51.4857 78.0117 49.1288 76.1127C49.5476 75.4596 49.9061 74.7604 50.1901 74.0398C51.4289 74.6113 52.838 74.771 54.0555 74.0292C55.0742 73.408 56.2384 71.7788 56.2384 70.5329C56.2384 69.358 55.1523 67.7785 54.2223 67.1431C52.98 66.2912 51.4892 66.4297 50.1865 67.0295C49.9026 66.309 49.5476 65.6062 49.1288 64.9566C51.4857 63.0576 54.4779 65.017 56.3165 66.774ZM50.5308 68.0518C51.5389 67.5478 52.6499 67.4058 53.6118 68.0483C54.3324 68.5274 55.0742 69.6633 55.0458 70.5365C54.9677 72.9359 52.5044 73.9866 50.5344 73.0211C50.7722 72.1834 50.9071 71.3422 50.9071 70.5365C50.9071 69.7307 50.7722 68.8859 50.5308 68.0518ZM46.6299 63.6185C48.4331 65.3009 49.8387 68.066 49.8387 70.5365C49.8387 72.9608 48.4934 75.6016 46.7826 77.3018C46.1436 77.9372 45.4266 78.3951 44.6599 78.6968C44.7096 78.6471 44.7593 78.601 44.8055 78.5477C45.6574 77.5822 46.1543 76.166 46.5376 74.9556C46.9671 73.6068 47.4605 71.9634 47.4605 70.5365C47.4605 69.1876 46.9955 67.633 46.6051 66.348C46.2217 65.0773 45.7106 63.6114 44.8445 62.5785C44.7806 62.5039 44.7132 62.44 44.6493 62.369C45.3592 62.6495 46.0301 63.0576 46.6299 63.6185ZM42.6261 62.3655C43.8081 62.7382 44.376 63.6682 44.8658 64.733C45.6538 66.4368 46.3424 68.6481 46.3424 70.54C46.3424 72.4319 45.6574 74.6432 44.8658 76.347C44.3689 77.4154 43.8187 78.3241 42.6261 78.7145C41.8771 78.9595 41.0891 78.9488 40.3295 78.782C42.5302 77.4083 43.336 72.6839 43.336 70.54C43.336 68.3926 42.5302 63.6753 40.3331 62.3016C41.0927 62.1348 41.8771 62.1277 42.6261 62.3655ZM37.6497 63.4729C37.6532 63.4694 37.6568 63.4694 37.6639 63.4658C41.2844 61.2119 42.2711 68.3997 42.2711 70.54C42.2711 72.6839 41.2915 79.8681 37.6639 77.6142C37.6532 77.6071 37.6426 77.6035 37.6319 77.5964C38.3773 75.6868 38.8529 73.6636 39.1582 71.651C39.538 69.0812 38.7323 66.0357 37.6497 63.4729ZM37.497 70.5365C37.497 71.0014 37.4509 71.4735 37.387 71.9492C35.9033 71.9492 34.4232 71.9492 32.9395 71.9456C32.8756 71.9456 32.8188 71.9563 32.7655 71.974C32.7229 71.5055 32.6981 71.0263 32.6981 70.5365C32.6981 70.0466 32.7229 69.5675 32.7655 69.0989C32.8188 69.1167 32.8756 69.1273 32.9395 69.1273C34.4267 69.1273 35.914 69.1273 37.4012 69.1238C37.4615 69.6065 37.497 70.0786 37.497 70.5365ZM36.8617 66.0037C36.8652 66.0037 36.8652 66.0037 36.8688 66.0037C36.9895 66.6675 37.1314 67.3597 37.2486 68.0554C35.811 68.0554 34.377 68.0554 32.9395 68.0589C32.9253 68.0589 32.9111 68.0625 32.8969 68.0625C33.0211 67.31 33.2021 66.5823 33.4328 65.876C33.5109 65.9292 33.6068 65.9611 33.7204 65.9647C34.771 65.9753 35.8146 65.9895 36.8617 66.0037ZM35.4525 61.7727C35.992 62.7737 36.4073 63.8243 36.6629 64.9353C35.7081 64.9211 34.7533 64.9105 33.7984 64.8963C34.2315 63.8314 34.7852 62.7985 35.4525 61.7727ZM34.1321 59.4691C34.3309 59.714 34.519 59.9696 34.7036 60.2287C34.7781 60.3636 34.8562 60.4984 34.9307 60.6298C32.8223 63.6895 31.6155 66.7988 31.6332 70.5365C31.651 74.2847 32.8081 77.3657 34.9307 80.4431C34.8668 80.5567 34.803 80.6703 34.7391 80.7875C34.5083 81.1176 34.2599 81.4406 34.0008 81.7529C32.7584 80.2621 31.7362 78.6152 30.9979 76.8156C30.1389 74.7142 29.9082 72.7904 29.9153 70.5365C29.9224 68.4281 30.0821 66.6285 30.8417 64.6372C31.5835 62.692 32.6697 60.9102 34.0008 59.3165C34.0434 59.3697 34.0895 59.4194 34.1321 59.4691ZM33.2057 58.6101C32.9146 58.9615 32.6307 59.32 32.3609 59.6856C32.0698 59.4407 31.761 59.2206 31.4274 59.0396C30.9979 58.8018 30.5222 58.5462 30.0218 58.6811C29.7272 58.7627 29.5958 59.0538 29.6491 59.3378C29.7414 59.8311 30.2134 60.147 30.6003 60.4204C30.8878 60.6262 31.1931 60.7931 31.5126 60.9386C31.2676 61.329 31.0405 61.7266 30.824 62.1312C29.397 61.471 27.4484 59.5117 28.712 58.0209C29.8194 56.7147 32.1053 57.6233 33.2057 58.6101ZM14.7269 60.0938C14.3684 60.7398 14.049 61.4071 13.7579 62.0744C13.7402 62.117 13.7224 62.1632 13.7011 62.2058C13.4846 62.0389 13.2468 61.9041 12.9912 61.8047C13.5591 61.219 14.1342 60.6475 14.7269 60.0938ZM12.1677 62.6672C12.1819 62.6707 12.1926 62.6778 12.2068 62.6814C12.6327 62.7666 12.9841 62.9583 13.2858 63.2635C13.1545 63.6256 13.0338 63.9912 12.9238 64.3639C12.4268 64.0054 11.8518 63.7995 11.2555 63.6433C11.5572 63.3168 11.8625 62.9938 12.1677 62.6672ZM10.4214 64.5342C10.4427 64.5413 10.464 64.552 10.4888 64.5555C11.2271 64.7224 12.0044 64.8892 12.5582 65.4429C12.5795 65.4642 12.6043 65.482 12.6256 65.4997C12.5724 65.7304 12.5262 65.9611 12.4836 66.1954C12.4552 66.3587 12.4304 66.5184 12.4126 66.6817C11.8376 66.0889 11.0674 65.7766 10.1977 65.8121C9.78245 65.8298 9.39201 65.8973 9.01576 66.0002C9.48784 65.521 9.95638 65.0312 10.4214 64.5342ZM2.00192 70.5436C1.99837 70.54 1.99483 70.54 1.98773 70.5365C1.99128 70.5329 1.99483 70.5329 2.00192 70.5294C2.00192 70.5329 2.00192 70.5329 2.00192 70.5365C2.00547 70.54 2.00192 70.54 2.00192 70.5436ZM5.65082 71.5765C5.11485 71.1683 4.55047 70.824 3.96125 70.5223C5.31362 69.7485 6.33943 68.712 7.6492 67.7891C8.66081 67.0757 10.6024 66.3693 11.6424 67.4023C12.5582 68.3109 12.2352 69.4326 12.2352 70.54C12.2352 71.6439 12.5369 72.7833 11.6424 73.6778C10.6947 74.6291 8.95187 74.1108 7.9438 73.5074C7.09192 72.9963 6.43526 72.1763 5.65082 71.5765ZM10.4214 76.5387C9.95993 76.0453 9.49139 75.5555 9.01931 75.0727C9.39201 75.1757 9.78245 75.2431 10.1942 75.2609C11.0567 75.2964 11.827 74.9947 12.4055 74.4019C12.4162 74.48 12.4233 74.5545 12.4375 74.6326C12.4907 74.9485 12.5511 75.2609 12.6221 75.5732C12.5972 75.591 12.5759 75.6087 12.5511 75.63C11.9973 76.1837 11.22 76.3506 10.4817 76.5174C10.464 76.5245 10.4427 76.5316 10.4214 76.5387ZM12.1677 78.4057C11.8625 78.0827 11.5572 77.7562 11.2555 77.4296C11.8518 77.2734 12.4268 77.064 12.9238 76.7091C13.0338 77.0782 13.1545 77.4438 13.2858 77.8059C12.9877 78.1111 12.6327 78.3063 12.2068 78.3915C12.1926 78.3951 12.1819 78.4022 12.1677 78.4057ZM12.9948 79.2718C13.2503 79.1724 13.4881 79.034 13.7047 78.8707C13.7153 78.892 13.7224 78.9169 13.7331 78.9382C14.0312 79.6303 14.3578 80.3189 14.7305 80.9898C14.1377 80.4325 13.5627 79.8575 12.9948 79.2718ZM18.9011 84.2092C16.6898 82.7681 15.2948 80.1343 14.3862 77.7242C13.4739 75.2999 13.4065 73.0708 13.4065 70.54C13.4065 68.0163 13.4775 65.7659 14.3862 63.3558C15.2948 60.9528 16.6756 58.3297 18.8763 56.885C21.0912 55.5504 23.59 54.6737 26.2131 54.9044C27.2744 54.9967 28.2932 55.2771 29.2586 55.6924C28.2825 55.7882 27.3951 56.4201 26.9088 57.3891C26.3196 58.5675 26.4368 59.8808 27.168 60.8676C25.7588 60.9492 24.5094 61.5775 23.9982 63.1535C23.4587 64.8076 24.2077 66.4226 25.489 67.4377C24.0763 67.853 22.9405 68.8469 22.9405 70.54C22.9405 72.2331 24.0799 73.227 25.489 73.6423C24.2112 74.6574 23.4623 76.2725 23.9982 77.9265C24.5094 79.499 25.7588 80.1272 27.168 80.2124C26.4332 81.1992 26.3196 82.5161 26.9088 83.691C27.3951 84.6635 28.2861 85.2953 29.2657 85.3876C29.0314 85.487 28.7936 85.5828 28.5523 85.6645C25.3471 86.7613 22.0425 86.0265 19.1745 84.3725C19.0822 84.3192 18.9899 84.2624 18.9011 84.2092ZM68.9989 86.2289C69.4355 85.9733 69.9147 85.8065 70.3371 85.8207C70.8944 85.8384 71.3771 85.9875 71.7818 86.2289C71.299 86.2289 70.8198 86.2253 70.3371 86.2253C69.8899 86.2289 69.4426 86.2289 68.9989 86.2289Z" fill="#FCC889"/>
<path d="M62.5672 73.7594C63.2878 75.4951 65.2719 74.8633 66.3261 73.7807C66.5569 74.0611 66.8124 74.3166 67.0928 74.5403C66.0102 75.5909 65.3713 77.5786 67.1141 78.3027C68.8676 79.0304 69.8047 77.1705 69.794 75.6619C70.1525 75.7045 70.5146 75.7081 70.8766 75.6726C70.8695 77.1776 71.803 79.0304 73.5565 78.3027C75.2922 77.5822 74.6604 75.598 73.5778 74.5438C73.8582 74.3131 74.1138 74.054 74.3374 73.7736C75.388 74.8562 77.3793 75.4951 78.0999 73.7558C78.8311 71.9988 76.964 71.0653 75.4555 71.0759C75.4945 70.7174 75.4981 70.3554 75.459 69.9933C76.9676 70.004 78.8275 69.0705 78.0963 67.3135C77.3758 65.5813 75.4023 66.206 74.348 67.2815C74.1173 66.9976 73.8547 66.7491 73.5742 66.5255C74.6533 65.4713 75.2887 63.4906 73.5494 62.7665C71.7853 62.0318 70.8482 63.9166 70.8695 65.4322C70.511 65.3932 70.149 65.3932 69.7869 65.4251C69.8082 63.913 68.8711 62.0353 67.107 62.7665C65.3678 63.4906 66.0067 65.4784 67.0893 66.529C66.8089 66.7597 66.5533 67.0189 66.3297 67.2957C65.279 66.2096 63.2878 65.5671 62.5601 67.3099C61.8289 69.0669 63.696 70.0004 65.2045 69.9898C65.1619 70.3483 65.1548 70.7103 65.1903 71.0724C63.6924 71.0724 61.8396 72.0059 62.5672 73.7594ZM67.533 77.3053C66.5001 76.8794 67.4407 75.6371 68.0264 75.1366C68.2464 75.2466 68.4736 75.3389 68.7079 75.4205C68.7647 76.1659 68.5694 77.7348 67.533 77.3053ZM73.1341 77.3053C72.1083 77.7313 71.906 76.1979 71.9557 75.4383C72.0764 75.3992 72.197 75.3602 72.3142 75.307C72.4313 75.2573 72.5413 75.2005 72.6514 75.1437C73.237 75.6548 74.1599 76.8829 73.1341 77.3053ZM77.1025 67.7358C77.5284 68.7617 75.9915 68.964 75.2319 68.9143C75.1999 68.8149 75.1715 68.7155 75.1325 68.6197C75.0757 68.4777 75.0118 68.3464 74.9479 68.2115C75.459 67.6294 76.6801 66.7136 77.1025 67.7358ZM75.2141 72.1585C75.9595 72.1053 77.532 72.3005 77.1025 73.337C76.673 74.3699 75.4306 73.4257 74.9302 72.84C75.0402 72.62 75.136 72.3928 75.2141 72.1585ZM73.1341 63.7675C74.167 64.197 73.2228 65.4393 72.6336 65.9398C72.4136 65.8333 72.1899 65.7375 71.9557 65.6629C71.9024 64.9211 72.0941 63.338 73.1341 63.7675ZM67.533 63.7675C68.5623 63.3416 68.7611 64.8891 68.7114 65.6416C68.612 65.67 68.5126 65.6984 68.4168 65.7339C68.3884 65.7446 68.3671 65.7588 68.3423 65.7694C68.3245 65.7765 68.3068 65.7801 68.289 65.7872C68.1967 65.8298 68.108 65.8795 68.0157 65.9256C67.4336 65.4216 66.5072 64.1934 67.533 63.7675ZM68.7576 66.7491C70.7453 66.0427 72.9957 66.742 74.0002 68.6729C75.0899 70.7742 74.0286 73.5074 71.8385 74.345C69.7656 75.1366 67.3271 74.1356 66.5285 72.0414C65.7192 69.9224 66.7556 67.6791 68.7576 66.7491ZM63.5646 67.7358C63.9941 66.7029 65.2364 67.6471 65.7369 68.2328C65.6269 68.4529 65.5346 68.68 65.4565 68.9107C64.7111 68.9675 63.1351 68.7759 63.5646 67.7358ZM65.4317 72.1585C65.4778 72.3005 65.5275 72.4425 65.5878 72.5809C65.6304 72.6768 65.6766 72.7655 65.7227 72.8542C65.2152 73.4399 63.9906 74.3592 63.5646 73.337C63.1422 72.3147 64.6721 72.1124 65.4317 72.1585Z" fill="#FCC889"/>
<path d="M66.7237 61.6343C67.0929 61.4319 67.3094 60.9847 67.178 60.5765C67.0432 60.1612 66.603 59.9553 66.1877 59.9979C66.1558 60.0015 66.1238 60.0086 66.0919 60.0157C66.0883 60.0157 66.0883 60.0157 66.0848 60.0157C66.0777 60.0157 66.0741 60.0192 66.0706 60.0192C65.9783 60.0405 65.8896 60.0867 65.8079 60.1541C65.4743 60.431 65.3004 60.9244 65.5453 61.3148C65.7831 61.6946 66.3262 61.8472 66.7237 61.6343Z" fill="#FCC889"/>
<path d="M73.9434 61.6343C74.3445 61.8366 74.8627 61.7053 75.1112 61.329C75.3703 60.9386 75.1964 60.431 74.8591 60.1541C74.8272 60.1257 74.7882 60.1045 74.7527 60.0832C74.6746 60.037 74.5823 60.0086 74.4829 59.998C74.0889 59.9589 73.6807 60.1364 73.521 60.5126C73.34 60.9244 73.5458 61.432 73.9434 61.6343Z" fill="#FCC889"/>
<path d="M80.297 67.3809C80.7123 67.246 80.9182 66.8059 80.8756 66.3906C80.8721 66.3587 80.865 66.3267 80.8579 66.2983C80.8579 66.2948 80.8579 66.2948 80.8579 66.2912C80.8579 66.2877 80.8543 66.2806 80.8543 66.277C80.833 66.1847 80.7869 66.096 80.7194 66.0144C80.4426 65.6807 79.9492 65.5068 79.5587 65.7517C79.1789 65.986 79.0228 66.529 79.2393 66.9266C79.4381 67.2993 79.8853 67.5122 80.297 67.3809Z" fill="#FCC889"/>
<path d="M79.541 75.3142C79.9315 75.5733 80.4391 75.3994 80.7159 75.0622C80.7443 75.0302 80.7656 74.9912 80.7869 74.9521C80.8331 74.8741 80.8614 74.7818 80.8721 74.6824C80.9111 74.2884 80.7337 73.8802 80.3574 73.7205C79.9421 73.5465 79.4381 73.7489 79.2358 74.1464C79.0334 74.5475 79.1683 75.0657 79.541 75.3142Z" fill="#FCC889"/>
<path d="M73.9434 79.4421C73.5743 79.6444 73.3577 80.0917 73.4891 80.4999C73.6239 80.9152 74.0641 81.121 74.4794 81.0784C74.5113 81.0749 74.5433 81.0678 74.5752 81.0607C74.5788 81.0607 74.5788 81.0607 74.5823 81.0607C74.5894 81.0607 74.593 81.0571 74.5965 81.0571C74.6888 81.0358 74.7775 80.9897 74.8592 80.9223C75.1928 80.6454 75.3668 80.152 75.1218 79.7616C74.884 79.3818 74.3409 79.2256 73.9434 79.4421Z" fill="#FCC889"/>
<path d="M66.7237 79.4423C66.3226 79.24 65.8044 79.3713 65.5559 79.7476C65.2968 80.138 65.4707 80.6456 65.8079 80.9225C65.8399 80.9508 65.8789 80.9721 65.918 80.9934C65.9961 81.0396 66.0883 81.068 66.1877 81.0786C66.5817 81.1177 66.9899 80.9402 67.1496 80.5639C67.3271 80.1487 67.1248 79.6446 66.7237 79.4423Z" fill="#FCC889"/>
<path d="M60.3736 73.6919C59.9583 73.8268 59.7525 74.267 59.7951 74.6823C59.7986 74.7142 59.8057 74.7461 59.8128 74.7745C59.8128 74.7781 59.8128 74.7781 59.8128 74.7816C59.8128 74.7852 59.8163 74.7923 59.8163 74.7958C59.8376 74.8881 59.8838 74.9769 59.9512 75.0585C60.2281 75.3922 60.7215 75.5661 61.1119 75.3212C61.4917 75.0869 61.6479 74.5438 61.4314 74.1463C61.2291 73.7771 60.7818 73.5606 60.3736 73.6919Z" fill="#FCC889"/>
<path d="M61.1262 65.7625C60.7357 65.5033 60.2281 65.6773 59.9513 66.0145C59.9229 66.0464 59.9016 66.0855 59.8803 66.1245C59.8341 66.2026 59.8057 66.2949 59.7951 66.3943C59.756 66.7883 59.9335 67.1965 60.3098 67.3562C60.7251 67.5301 61.2291 67.3278 61.4314 66.9302C61.6337 66.5292 61.4989 66.0074 61.1262 65.7625Z" fill="#FCC889"/>
<path d="M67.6927 71.2606C68.0619 71.257 68.4452 71.1683 68.8179 71.1009C68.825 71.1221 68.8321 71.1399 68.8392 71.1612C68.8463 71.1789 68.857 71.1967 68.8641 71.2144C68.5907 71.4097 68.3174 71.5978 68.0583 71.8072C67.7176 72.0841 67.4797 72.6591 67.8453 73.0247C68.2109 73.3903 68.786 73.156 69.0628 72.8117C69.2758 72.549 69.471 72.2686 69.6662 71.9918C69.7017 72.006 69.7372 72.0237 69.7727 72.0379C69.7053 72.4 69.6272 72.7691 69.613 73.1276C69.5953 73.5429 69.8544 74.054 70.3336 74.054C70.7808 74.054 71.0612 73.5749 71.0577 73.1773C71.0541 72.8082 70.9654 72.4248 70.8979 72.0521C70.9192 72.045 70.937 72.0379 70.9583 72.0308C70.976 72.0237 70.9902 72.0095 71.008 72.0024C71.2032 72.2757 71.3949 72.5526 71.6043 72.8117C71.8811 73.1525 72.4562 73.3903 72.8218 73.0247C73.1874 72.6591 72.9531 72.0841 72.6088 71.8072C72.3461 71.5942 72.0657 71.399 71.7889 71.2038C71.8031 71.1683 71.8173 71.1328 71.8279 71.0973C72.1899 71.1647 72.5591 71.2428 72.9247 71.257C73.34 71.2748 73.8511 71.0157 73.8511 70.5365C73.8511 70.0892 73.3719 69.8088 72.9744 69.8124C72.6052 69.8159 72.2219 69.9011 71.8527 69.9721C71.8385 69.9331 71.8172 69.9011 71.7995 69.8621C72.0728 69.6668 72.3497 69.4752 72.6088 69.2658C72.9495 68.9889 73.1874 68.4139 72.8218 68.0483C72.4562 67.6827 71.8811 67.9169 71.6043 68.2612C71.3913 68.5275 71.1961 68.8079 70.9973 69.0883C70.9618 69.0741 70.9263 69.067 70.8908 69.0563C70.9583 68.6907 71.0399 68.3145 71.0541 67.9489C71.0719 67.5336 70.8127 67.0225 70.3336 67.0225C69.8863 67.0225 69.6059 67.5016 69.6095 67.8992C69.613 68.2648 69.6982 68.6481 69.7692 69.0173C69.7514 69.0244 69.7337 69.0315 69.7159 69.0386C69.6946 69.0457 69.6698 69.0528 69.652 69.0634C69.4604 68.7937 69.2687 68.5204 69.0628 68.2612C68.786 67.9205 68.2109 67.6827 67.8453 68.0483C67.4797 68.4139 67.714 68.9889 68.0583 69.2658C68.3245 69.4787 68.6085 69.6775 68.8889 69.8763C68.8712 69.9082 68.857 69.9437 68.8428 69.9792C68.4807 69.9118 68.108 69.8337 67.746 69.8195C67.3307 69.8017 66.8195 70.0608 66.8195 70.54C66.816 70.9837 67.2952 71.2641 67.6927 71.2606ZM68.2606 72.1196C68.1861 72.1338 68.2322 72.2012 68.2606 72.1196V72.1196ZM68.7505 72.6094C68.6688 72.6378 68.7398 72.6875 68.7505 72.6094V72.6094ZM72.4065 72.1196C72.4349 72.2012 72.4846 72.1338 72.4065 72.1196V72.1196ZM71.9166 72.6094C71.9308 72.6875 71.9983 72.6378 71.9166 72.6094V72.6094ZM72.4065 68.9534C72.4349 68.8718 72.4846 68.9427 72.4065 68.9534V68.9534ZM71.9166 68.4636C71.9308 68.389 71.9983 68.4352 71.9166 68.4636V68.4636ZM70.1277 70.0324C70.3833 69.9828 70.6495 70.0005 70.7985 70.2596C70.9618 70.5436 70.834 70.9092 70.5359 71.0334C70.259 71.147 69.9502 71.0157 69.8366 70.7388C69.7124 70.4264 69.8828 70.1957 70.1277 70.0324ZM68.2606 68.9534C68.1861 68.9427 68.2322 68.8718 68.2606 68.9534V68.9534ZM68.7505 68.4636C68.6688 68.4352 68.7398 68.389 68.7505 68.4636V68.4636Z" fill="#FCC889"/>
<path d="M66.4149 22.6357C67.2881 22.4547 67.9412 21.5567 67.8879 20.6871C67.8134 19.4873 66.6137 18.4331 65.8008 17.6416C65.7724 17.6061 65.7369 17.5741 65.7015 17.5493C65.5027 17.3825 65.2684 17.4002 65.0945 17.5173C64.988 17.5741 64.8957 17.6735 64.846 17.8155C64.4946 18.8449 63.9373 20.2043 64.2462 21.3118C64.4946 22.2098 65.492 22.8274 66.4149 22.6357ZM65.5843 18.9478C65.8647 19.2389 66.138 19.5406 66.3759 19.86C66.7663 20.3782 67.0893 21.4928 66.1132 21.5851C64.8744 21.7022 65.2329 20.0588 65.5843 18.9478Z" fill="#FCC889"/>
<path d="M31.2605 40.0603C32.0911 40.5111 33.3086 40.1774 33.7558 39.3255C34.2173 38.4524 33.912 37.3094 33.0637 36.8089C32.1266 36.2588 30.8062 36.3298 29.7484 36.344C29.6916 36.3369 29.6348 36.3404 29.5745 36.3511C29.3083 36.3795 29.1557 36.5782 29.1237 36.7983C29.1024 36.9083 29.1095 37.0255 29.1699 37.1497C29.6668 38.1436 30.2312 39.4995 31.2605 40.0603ZM32.8329 38.7612C32.3893 39.7089 31.4593 38.9422 31.1043 38.4204C30.8843 38.0974 30.689 37.7531 30.5045 37.4017C31.6723 37.4159 33.3831 37.5863 32.8329 38.7612Z" fill="#FCC889"/>
<path d="M22.4329 74.4587C22.2519 73.5856 21.3539 72.9325 20.4842 72.9857C19.2845 73.0602 18.2303 74.26 17.4388 75.0728C17.4033 75.1012 17.3713 75.1367 17.3465 75.1722C17.1796 75.371 17.1974 75.6017 17.3145 75.7792C17.3713 75.8857 17.4707 75.9779 17.6162 76.0276C18.6456 76.379 20.005 76.9363 21.1125 76.6275C22.007 76.379 22.6246 75.3816 22.4329 74.4587ZM18.745 75.2858C19.036 75.0054 19.3377 74.7321 19.6572 74.4942C20.1754 74.1038 21.29 73.7808 21.3823 74.7569C21.4994 75.9957 19.856 75.6372 18.745 75.2858Z" fill="#FCC889"/>
<path d="M118.234 66.6178C118.415 67.491 119.313 68.1441 120.183 68.0909C121.383 68.0163 122.437 66.8166 123.228 66.0038C123.264 65.9754 123.296 65.9399 123.321 65.9044C123.487 65.7056 123.47 65.4749 123.353 65.2974C123.296 65.1909 123.196 65.0987 123.051 65.049C122.022 64.6976 120.662 64.1403 119.555 64.4491C118.664 64.6976 118.046 65.695 118.234 66.6178ZM121.926 65.7873C121.635 66.0677 121.333 66.341 121.013 66.5788C120.495 66.9692 119.381 67.2922 119.288 66.3161C119.171 65.0774 120.811 65.4359 121.926 65.7873Z" fill="#FCC889"/>
<path d="M101.548 33.9624C102.421 34.4238 103.564 34.1185 104.065 33.2702C104.615 32.3331 104.544 31.0127 104.53 29.955C104.537 29.8982 104.533 29.8414 104.522 29.781C104.494 29.5148 104.295 29.3622 104.075 29.3303C103.965 29.309 103.848 29.3161 103.724 29.3764C102.726 29.8662 101.371 30.427 100.813 31.46C100.362 32.2941 100.696 33.5116 101.548 33.9624ZM102.45 31.3073C102.773 31.0873 103.117 30.892 103.468 30.7075C103.458 31.8788 103.284 33.5861 102.109 33.0395C101.161 32.5923 101.928 31.6623 102.45 31.3073Z" fill="#FCC889"/>
<path d="M74.2558 22.6358C75.1396 22.8169 76.098 22.256 76.3855 21.4219C76.7759 20.2932 76.1867 18.8734 75.8247 17.8156C75.775 17.6736 75.6898 17.5778 75.5833 17.521C75.4058 17.4003 75.1715 17.379 74.9692 17.5494C74.9302 17.5742 74.8947 17.6097 74.8663 17.6452C74.0641 18.4297 72.9141 19.4448 72.7934 20.6162C72.6975 21.5142 73.3471 22.4513 74.2558 22.6358ZM75.0828 18.9585C75.4342 20.0802 75.7892 21.7343 74.5504 21.5852C73.0738 21.4077 74.2416 19.8779 75.0828 18.9585Z" fill="#FCC889"/>
<path d="M39.1191 33.9622C39.971 33.5114 40.3047 32.2975 39.8539 31.4669C39.2966 30.434 37.9407 29.8732 36.9433 29.3833C36.819 29.323 36.7019 29.3124 36.5919 29.3372C36.3718 29.3691 36.173 29.5182 36.1446 29.7844C36.1304 29.8412 36.1269 29.9016 36.1375 29.9584C36.1233 31.0161 36.0523 32.3365 36.6025 33.2736C37.103 34.1184 38.2459 34.4236 39.1191 33.9622ZM38.2175 31.3072C38.7393 31.6621 39.506 32.5956 38.5583 33.0358C37.3834 33.586 37.2095 31.8751 37.1988 30.7038C37.5502 30.8883 37.8945 31.0836 38.2175 31.3072Z" fill="#FCC889"/>
<path d="M17.4423 66.0038C18.2267 66.806 19.2419 67.956 20.4132 68.0767C21.3112 68.169 22.2483 67.5194 22.4329 66.6143C22.6139 65.7305 22.0531 64.7721 21.219 64.4846C20.0902 64.0941 18.6704 64.6834 17.6127 65.0454C17.4707 65.0951 17.3748 65.1803 17.318 65.2868C17.2009 65.4643 17.1761 65.6985 17.3464 65.9008C17.3748 65.9399 17.4068 65.9754 17.4423 66.0038ZM21.3822 66.3197C21.2048 67.7963 19.6749 66.632 18.7556 65.7873C19.8772 65.4359 21.5313 65.0809 21.3822 66.3197Z" fill="#FCC889"/>
<path d="M123.225 75.0692C122.44 74.267 121.425 73.117 120.254 72.9963C119.356 72.904 118.419 73.5536 118.234 74.4587C118.053 75.3425 118.614 76.3009 119.448 76.5884C120.577 76.9788 121.997 76.3896 123.054 76.0276C123.196 75.9779 123.292 75.8927 123.349 75.7862C123.466 75.6087 123.488 75.3745 123.321 75.1721C123.292 75.1331 123.26 75.0976 123.225 75.0692ZM119.285 74.7568C119.462 73.2802 120.992 74.4445 121.912 75.2893C120.793 75.6371 119.136 75.9921 119.285 74.7568Z" fill="#FCC889"/>
<path d="M109.407 40.0603C110.439 39.503 111 38.1471 111.49 37.1497C111.55 37.0255 111.561 36.9083 111.54 36.7983C111.508 36.5782 111.359 36.3794 111.093 36.351C111.036 36.3369 110.975 36.3333 110.919 36.344C109.861 36.3298 108.54 36.2623 107.603 36.8089C106.755 37.3059 106.453 38.4488 106.911 39.3255C107.358 40.1774 108.576 40.5075 109.407 40.0603ZM110.166 37.4017C109.982 37.7531 109.786 38.0974 109.566 38.4204C109.211 38.9422 108.278 39.7089 107.838 38.7612C107.284 37.5863 108.995 37.4159 110.166 37.4017Z" fill="#FCC889"/>
<path d="M59.93 25.0496C60.7393 24.432 60.8564 23.1897 60.2494 22.4123C59.5431 21.5072 58.1978 21.1061 57.1649 20.7157C56.9626 20.6411 56.7958 20.6908 56.6822 20.8009C56.5544 20.8825 56.4692 21.0245 56.487 21.2304C56.5828 22.313 56.6147 23.676 57.2536 24.6059C57.8358 25.4436 59.1029 25.6814 59.93 25.0496ZM59.2378 24.1481C58.1339 24.9786 57.7719 23.2074 57.637 22.0361C58.7302 22.4798 60.3488 23.3104 59.2378 24.1481Z" fill="#FCC889"/>
<path d="M29.4041 43.681C28.2186 43.3864 26.8343 44.1495 25.7907 44.6216C25.5919 44.7104 25.5103 44.8666 25.5138 45.0263C25.4854 45.1718 25.528 45.328 25.6807 45.4593C26.529 46.1692 27.6152 47.2234 28.7723 47.3228C29.7165 47.4045 30.6784 46.7016 30.8097 45.7291C30.9375 44.8204 30.2773 43.894 29.4041 43.681ZM29.6881 45.58C29.4999 46.9288 27.995 45.9456 27.065 45.218C28.1547 44.7672 29.8762 44.2241 29.6881 45.58Z" fill="#FCC889"/>
<path d="M22.2093 80.6207C21.3042 81.3271 20.8995 82.6724 20.5126 83.7053C20.4381 83.9076 20.4878 84.0744 20.5978 84.188C20.6794 84.3158 20.8214 84.401 21.0273 84.3832C22.1099 84.2874 23.4729 84.2554 24.4029 83.6165C25.237 83.0415 25.4748 81.7743 24.843 80.9473C24.229 80.1309 22.9866 80.0138 22.2093 80.6207ZM21.833 83.2332C22.2803 82.1399 23.1073 80.5214 23.945 81.6324C24.7756 82.7363 23.0008 83.0983 21.833 83.2332Z" fill="#FCC889"/>
<path d="M118.458 60.4557C119.363 59.7494 119.764 58.4041 120.155 57.3712C120.229 57.1689 120.179 57.0021 120.069 56.8885C119.988 56.7607 119.846 56.6755 119.64 56.6933C118.557 56.7891 117.194 56.821 116.264 57.4599C115.43 58.035 115.192 59.3021 115.824 60.1292C116.438 60.942 117.684 61.0627 118.458 60.4557ZM118.838 57.8397C118.39 58.933 117.563 60.5516 116.726 59.4406C115.892 58.3367 117.666 57.9746 118.838 57.8397Z" fill="#FCC889"/>
<path d="M95.1411 31.0163C96.0533 31.1405 96.9797 30.4803 97.1927 29.6107C97.4873 28.4251 96.7242 27.0408 96.2521 25.9972C96.1633 25.7985 96.0072 25.7168 95.8474 25.7204C95.7019 25.692 95.5457 25.7346 95.4144 25.8872C94.7045 26.7355 93.6503 27.8217 93.5509 28.9788C93.4622 29.923 94.165 30.8849 95.1411 31.0163ZM95.6522 27.268C96.103 28.3577 96.6496 30.0792 95.2901 29.8911C93.9413 29.6994 94.9246 28.1979 95.6522 27.268Z" fill="#FCC889"/>
<path d="M80.7372 25.0494C81.5429 25.6635 82.7782 25.4541 83.3674 24.6625C84.0524 23.7432 84.0808 22.3269 84.1767 21.2337C84.1944 21.0278 84.1092 20.8858 83.9814 20.8042C83.8679 20.6906 83.701 20.6409 83.4987 20.719C82.48 21.1024 81.1844 21.4964 80.4568 22.3589C79.8072 23.1327 79.9102 24.4176 80.7372 25.0494ZM83.0337 22.0359C82.8988 23.2072 82.5368 24.9784 81.4329 24.1478C80.3219 23.3102 81.9405 22.4796 83.0337 22.0359Z" fill="#FCC889"/>
<path d="M45.5296 31.0162C46.4418 30.892 47.1553 30.0082 47.1304 29.1101C47.0949 27.8927 45.991 26.7604 45.2598 25.8872C45.1285 25.731 44.9723 25.6884 44.8268 25.7204C44.667 25.7168 44.5109 25.7985 44.4186 25.9972C43.9607 27.0088 43.2366 28.3328 43.446 29.4828C43.6199 30.4128 44.557 31.1476 45.5296 31.0162ZM45.0185 27.2679C45.7461 28.1944 46.7293 29.6994 45.3805 29.891C44.021 30.0792 44.5677 28.3576 45.0185 27.2679Z" fill="#FCC889"/>
<path d="M22.1561 60.4131C22.9299 61.0663 24.2148 60.9633 24.8466 60.1327C25.4607 59.327 25.2512 58.0918 24.4597 57.5025C23.5404 56.8175 22.1241 56.7891 21.0309 56.6933C20.825 56.6755 20.683 56.7607 20.6014 56.8885C20.4878 57.0021 20.4381 57.1689 20.5162 57.3712C20.896 58.3935 21.2935 59.6855 22.1561 60.4131ZM23.945 59.4406C23.1073 60.5516 22.2803 58.933 21.8331 57.8397C23.0009 57.9746 24.7756 58.3367 23.945 59.4406Z" fill="#FCC889"/>
<path d="M118.515 80.6596C117.741 80.0065 116.456 80.1094 115.824 80.94C115.21 81.7457 115.419 82.981 116.211 83.5702C117.13 84.2552 118.547 84.2836 119.64 84.3795C119.846 84.3972 119.988 84.312 120.069 84.1843C120.183 84.0707 120.233 83.9038 120.154 83.7015C119.771 82.6828 119.377 81.3872 118.515 80.6596ZM116.726 81.6357C117.563 80.5247 118.39 82.1433 118.838 83.2365C117.666 83.0981 115.892 82.7361 116.726 81.6357Z" fill="#FCC889"/>
<path d="M109.857 45.7325C109.982 46.6447 110.865 47.3582 111.763 47.3334C112.981 47.2979 114.113 46.194 114.986 45.4628C115.143 45.3314 115.185 45.1752 115.153 45.0297C115.157 44.87 115.075 44.7138 114.876 44.6215C113.865 44.1636 112.541 43.4395 111.391 43.649C110.457 43.8229 109.722 44.76 109.857 45.7325ZM113.602 45.2214C112.676 45.949 111.171 46.9323 110.979 45.5834C110.791 44.224 112.512 44.7706 113.602 45.2214Z" fill="#FCC889"/>
<path d="M70.3336 11.7673C71.3097 11.7673 72.4704 11.4088 72.5201 10.2339C72.5414 9.67661 72.2539 9.15838 72.0125 8.68275C71.6398 7.948 71.2281 7.231 70.795 6.52819C70.6779 6.34007 70.504 6.26908 70.3336 6.27618C70.1632 6.26553 69.9858 6.33652 69.8722 6.52819C69.4427 7.231 69.0309 7.948 68.6582 8.68275C68.4169 9.15838 68.1294 9.68016 68.1507 10.2339C68.1968 11.4088 69.3575 11.7673 70.3336 11.7673ZM69.7231 8.94541C69.9183 8.57271 70.1242 8.20711 70.3336 7.84506C70.543 8.20711 70.7489 8.57271 70.9441 8.94541C71.1429 9.32521 71.4517 9.72275 71.3523 10.1664C71.2281 10.7131 70.8589 10.6953 70.3336 10.6953C70.0461 10.6953 69.5634 10.7237 69.3468 10.4717C68.9954 10.0529 69.5314 9.31456 69.7231 8.94541Z" fill="#FCC889"/>
<path d="M114.599 29.362C114.976 28.9645 115.132 28.393 115.292 27.8854C115.529 27.1329 115.739 26.3734 115.923 25.6067C115.977 25.3901 115.902 25.2162 115.774 25.0991C115.657 24.9713 115.483 24.8968 115.263 24.95C114.543 25.1239 113.826 25.3191 113.116 25.5392C112.59 25.7025 112.008 25.8516 111.582 26.2172C110.617 27.0442 111.142 28.2297 111.891 28.9822C112.612 29.6992 113.755 30.2494 114.599 29.362ZM112.264 27.03C112.459 26.8206 112.874 26.739 113.134 26.6538C113.638 26.4905 114.149 26.345 114.66 26.2101C114.536 26.6786 114.404 27.1436 114.259 27.605C114.17 27.8819 114.099 28.283 113.904 28.5066C113.485 28.9964 112.999 28.5776 112.647 28.2226C112.356 27.9351 111.881 27.4418 112.264 27.03Z" fill="#FCC889"/>
<path d="M129.106 70.5366C129.106 71.5127 129.465 72.6734 130.64 72.7231C131.197 72.7444 131.715 72.4569 132.191 72.2155C132.926 71.8428 133.643 71.4311 134.345 71.0016C134.534 70.8845 134.605 70.7105 134.597 70.5402C134.608 70.3698 134.537 70.1923 134.345 70.0787C133.643 69.6492 132.926 69.2375 132.191 68.8612C131.715 68.6199 131.193 68.3324 130.64 68.3537C129.465 68.3998 129.106 69.5605 129.106 70.5366ZM130.398 69.5534C130.817 69.1984 131.559 69.7344 131.925 69.9261C132.297 70.1213 132.663 70.3272 133.025 70.5366C132.663 70.746 132.297 70.9519 131.925 71.1471C131.545 71.3459 131.147 71.6547 130.704 71.5553C130.157 71.4311 130.175 71.0619 130.175 70.5366C130.175 70.2491 130.143 69.7664 130.398 69.5534Z" fill="#FCC889"/>
<path d="M11.5643 70.5365C11.5643 69.5604 11.2058 68.3997 10.0309 68.35C9.47367 68.3287 8.95544 68.6162 8.4798 68.8576C7.74506 69.2303 7.02805 69.642 6.32525 70.0751C6.13713 70.1922 6.06614 70.3661 6.07324 70.5365C6.06259 70.7069 6.13358 70.8843 6.32525 70.9979C7.02805 71.4274 7.74506 71.8392 8.4798 72.2119C8.95544 72.4532 9.47722 72.7407 10.0309 72.7194C11.2058 72.6733 11.5643 71.5126 11.5643 70.5365ZM10.2688 71.5233C9.84992 71.8782 9.10807 71.3422 8.74247 71.1506C8.36977 70.9553 8.00417 70.7495 7.64212 70.54C8.00417 70.3306 8.36977 70.1247 8.74247 69.9295C9.12227 69.7308 9.51981 69.4219 9.9635 69.5213C10.5101 69.6456 10.4924 70.0147 10.4924 70.54C10.4959 70.824 10.5243 71.3067 10.2688 71.5233Z" fill="#FCC889"/>
<path d="M25.3364 27.7542C25.4997 28.2796 25.6488 28.8617 26.0144 29.2876C26.8414 30.2531 28.027 29.7278 28.7795 28.9788C29.5 28.2583 30.0502 27.1153 29.1628 26.2706C28.7653 25.8943 28.1938 25.7381 27.6862 25.5784C26.9337 25.3406 26.1741 25.1312 25.4074 24.9466C25.1909 24.8933 25.017 24.9679 24.8999 25.0957C24.7721 25.2128 24.6975 25.3867 24.7508 25.6068C24.9212 26.3309 25.1128 27.0479 25.3364 27.7542ZM27.4023 26.6113C27.6791 26.7 28.0802 26.771 28.3038 26.9663C28.7937 27.3851 28.3748 27.8714 28.0199 28.2228C27.7288 28.5138 27.239 28.9895 26.8237 28.6061C26.6143 28.4109 26.5326 27.9956 26.4474 27.7365C26.2842 27.2325 26.1386 26.7213 26.0038 26.2102C26.4758 26.3344 26.9408 26.4658 27.4023 26.6113Z" fill="#FCC889"/>
</g>
<defs>
<clipPath id="clip0_101_11747">
<rect width="140.672" height="87.7945" fill="white" transform="translate(0 0.205566)"/>
</clipPath>
</defs>
</svg>
