<svg width="158" height="22" viewBox="0 0 158 22" fill="none" xmlns="http://www.w3.org/2000/svg">
<path d="M67.6482 18.326C67.6482 11.0513 73.4652 5.15535 80.6423 5.15535C87.8195 5.15535 93.6364 11.0513 93.6364 18.326H152.204L122.917 16.9033C125.847 16.0087 127.778 13.5153 127.93 10.8753C128.133 7.46535 125.579 4.98668 122.982 4.82535C120.674 4.67868 118.749 6.16735 118.619 8.30868C118.532 9.80468 119.639 11.242 121.108 11.33C122.164 11.396 123.401 10.6553 123.459 9.68002C123.474 9.45268 123.293 9.24735 123.097 9.23268C122.678 9.20335 122.613 10.3107 121.397 10.2373C120.399 10.1787 119.813 9.32068 119.871 8.35268C119.957 6.92268 121.108 5.91802 122.808 6.02068C124.921 6.15268 126.795 8.25735 126.643 10.7947C126.462 13.8527 123.481 16.28 120.08 16.0673C114.083 15.7007 109.365 6.30668 102.311 5.87402C98.1077 5.61735 95.5031 7.73668 95.2932 11.22C95.286 11.3594 95.2788 11.4914 95.2788 11.6234C93.347 7.33335 88.4055 2.93335 80.6496 2.93335C73.0166 2.93335 68.0823 7.22335 66.071 11.4767C66.071 11.3007 66.071 11.1247 66.0565 10.9413C65.8105 7.46535 63.1842 5.36802 58.9879 5.67602C51.9337 6.18202 47.3178 15.62 41.32 16.0527C37.9267 16.2947 34.917 13.904 34.7072 10.8533C34.5263 8.32335 36.3784 6.19668 38.4911 6.04268C40.1913 5.91802 41.3561 6.91535 41.4574 8.34535C41.5298 9.32068 40.9437 10.1787 39.9525 10.252C38.7371 10.34 38.6575 9.23268 38.2379 9.26202C38.0425 9.27668 37.8689 9.48202 37.8833 9.70935C37.9484 10.6847 39.1929 11.4107 40.2492 11.3373C41.7251 11.2347 42.8104 9.78268 42.7091 8.28668C42.5572 6.14535 40.6182 4.68602 38.3102 4.84735C35.7128 5.03068 33.1806 7.53868 33.4266 10.9487C33.6074 13.5594 35.5175 16.0014 38.4043 16.896L8.4585 18.326H67.6482ZM111.413 12.21C113.67 14.564 115.522 15.928 117.288 16.632L108.772 16.2214C110.465 16.2654 111.413 14.9234 111.5 13.4274C111.529 13.0387 111.507 12.7747 111.413 12.21ZM107.101 9.46735C109.054 9.58468 110.566 11.2787 110.451 13.2294C110.393 14.2414 109.655 15.202 108.504 15.1287C107.347 15.0627 107.832 13.948 107.325 13.9114C107.13 13.8967 106.956 14.0873 106.934 14.4467C106.884 15.334 107.571 16.1114 108.591 16.2067L101.045 15.84C102.362 15.3854 103.223 14.3147 103.512 12.9287C103.954 13.64 104.561 14.234 105.458 14.2853C106.102 14.322 106.963 13.86 107 13.244C107.014 13.0167 106.898 12.848 106.732 12.8334C106.508 12.8187 106.225 13.2587 105.712 13.2294C104.88 13.178 104.38 12.3347 104.431 11.5207C104.518 10.2227 105.625 9.37935 107.101 9.46735ZM96.364 11.3887C96.516 8.78535 98.6648 6.82735 102.224 7.04735C103.765 7.14268 104.901 7.56802 106.551 8.45535C104.576 8.66068 103.787 9.46002 103.302 11.1247C102.767 10.4427 102.275 10.054 101.436 10.0027C100.727 9.95868 99.7066 10.3547 99.6632 11.1027C99.656 11.2347 99.7428 11.3667 99.873 11.374C100.126 11.3887 100.416 10.9487 101.023 10.9853C101.696 11.0293 102.369 11.6233 102.297 12.76C102.217 14.124 100.915 14.96 99.4027 14.8647C97.3914 14.7473 96.241 13.4347 96.364 11.3887ZM97.6301 15.6787L96.2483 15.6127C96.2483 15.2607 96.2193 14.8867 96.1687 14.5127C96.5449 15.0113 97.0369 15.4073 97.6301 15.6787ZM65.0436 15.6127L62.902 15.7154C63.8571 15.5027 64.6167 15.026 65.1521 14.344C65.0798 14.784 65.0436 15.2094 65.0436 15.6127ZM59.1037 6.84202C62.6633 6.58535 64.8266 8.52135 65.0074 11.1173C65.1521 13.1634 64.0235 14.4833 61.9977 14.63C60.4928 14.74 59.176 13.9187 59.082 12.5547C59.0024 11.418 59.668 10.8167 60.3408 10.7653C60.9486 10.7214 61.238 11.1613 61.4912 11.1393C61.6214 11.132 61.7083 10.9927 61.701 10.8607C61.6504 10.1127 60.623 9.73135 59.9212 9.78268C59.0892 9.84135 58.5972 10.2373 58.069 10.9267C57.5698 9.26935 56.774 8.47735 54.7916 8.28668C56.4339 7.39202 57.5626 6.95202 59.1037 6.84202ZM49.9658 12.1C49.8718 12.6647 49.8645 12.9213 49.8862 13.3173C49.9948 14.8427 50.9932 16.2067 52.7513 16.082C53.8076 16.0087 54.5239 15.202 54.466 14.2927C54.4443 13.9333 54.2634 13.75 54.0753 13.7647C53.5616 13.8014 54.0608 14.9087 52.9032 14.9894C51.7529 15.07 51.0077 14.1167 50.9353 13.1047C50.7978 11.154 52.2883 9.44535 54.2417 9.30602C55.7177 9.19602 56.8391 10.032 56.9259 11.33C56.9838 12.144 56.499 12.9947 55.6598 13.0533C55.1461 13.09 54.8567 12.6573 54.6324 12.672C54.4732 12.6867 54.3575 12.8553 54.3719 13.0827C54.4154 13.6987 55.2836 14.1607 55.9275 14.1093C56.8246 14.0433 57.4251 13.4493 57.8592 12.7307C58.221 14.3733 59.3931 15.5687 61.1512 15.7887L44.0548 16.6173C45.8346 15.906 47.7013 14.52 49.9658 12.1Z" fill="#FCC889"/>
</svg>
