<svg width="158" height="22" viewBox="0 0 158 22" fill="none" xmlns="http://www.w3.org/2000/svg">
<path d="M90.4241 3.67398C90.4241 10.9487 84.57 16.8447 77.3472 16.8447C70.1243 16.8447 64.2703 10.9487 64.2703 3.67398L5.32977 3.67398L34.8037 5.09665C31.8548 5.99132 29.9108 8.48465 29.7579 11.1247C29.554 14.5347 32.1242 17.0133 34.7382 17.1747C37.0608 17.3213 38.9976 15.8327 39.1287 13.6913C39.216 12.1953 38.102 10.758 36.624 10.67C35.5609 10.604 34.3158 11.3447 34.2576 12.32C34.243 12.5473 34.4251 12.7527 34.6217 12.7673C35.044 12.7966 35.1095 11.6893 36.3327 11.7627C37.3375 11.8213 37.9273 12.6793 37.869 13.6473C37.7817 15.0773 36.624 16.082 34.9129 15.9793C32.7868 15.8473 30.901 13.7427 31.0539 11.2053C31.2359 8.14732 34.2358 5.71998 37.6579 5.93265C43.6939 6.29932 48.4412 15.6933 55.5403 16.126C59.7706 16.3827 62.3918 14.2633 62.603 10.78C62.6102 10.6406 62.6175 10.5086 62.6175 10.3766C64.5616 14.6666 69.5346 19.0667 77.3399 19.0667C85.0215 19.0667 89.9872 14.7767 92.0113 10.5233C92.0113 10.6993 92.0113 10.8753 92.0259 11.0587C92.2735 14.5346 94.9165 16.632 99.1395 16.324C106.239 15.818 110.884 6.37998 116.92 5.94732C120.335 5.70532 123.364 8.09598 123.575 11.1467C123.757 13.6767 121.893 15.8033 119.767 15.9573C118.056 16.082 116.884 15.0847 116.782 13.6547C116.709 12.6793 117.299 11.8213 118.296 11.748C119.519 11.66 119.599 12.7673 120.022 12.738C120.218 12.7233 120.393 12.518 120.379 12.2907C120.313 11.3153 119.061 10.5893 117.998 10.6627C116.512 10.7653 115.42 12.2173 115.522 13.7133C115.675 15.8547 117.626 17.314 119.949 17.1527C122.563 16.9693 125.111 14.4613 124.864 11.0513C124.682 8.44065 122.759 5.99865 119.854 5.10398L149.991 3.67398L90.4241 3.67398ZM46.3806 9.78998C44.1089 7.43598 42.245 6.07198 40.4684 5.36798L49.0383 5.77865C47.3345 5.73465 46.3806 7.07665 46.2933 8.57265C46.2641 8.96132 46.286 9.22532 46.3806 9.78998ZM50.7202 12.5327C48.7543 12.4153 47.2325 10.7213 47.349 8.77065C47.4073 7.75865 48.15 6.79798 49.3076 6.87132C50.4726 6.93732 49.9848 8.05198 50.4945 8.08865C50.6911 8.10332 50.8658 7.91265 50.8876 7.55332C50.9386 6.66598 50.2469 5.88865 49.2203 5.79332L56.8145 6.15998C55.4893 6.61465 54.6228 7.68532 54.3316 9.07132C53.8875 8.35998 53.2758 7.76598 52.373 7.71465C51.725 7.67798 50.8585 8.13998 50.8221 8.75598C50.8076 8.98332 50.924 9.15198 51.0915 9.16665C51.3172 9.18132 51.6012 8.74132 52.1182 8.77065C52.9555 8.82198 53.4579 9.66532 53.4069 10.4793C53.3195 11.7773 52.2055 12.6207 50.7202 12.5327ZM61.5253 10.6113C61.3724 13.2147 59.2099 15.1727 55.6276 14.9527C54.0768 14.8573 52.9336 14.432 51.2735 13.5447C53.2613 13.3393 54.0549 12.54 54.5428 10.8753C55.0816 11.5573 55.5767 11.946 56.4213 11.9973C57.1348 12.0413 58.1615 11.6453 58.2052 10.8973C58.2124 10.7653 58.1251 10.6333 57.994 10.626C57.7392 10.6113 57.4479 11.0513 56.8363 11.0147C56.1592 10.9707 55.482 10.3767 55.5548 9.23998C55.6349 7.87598 56.9455 7.03998 58.4673 7.13532C60.4914 7.25265 61.6491 8.56532 61.5253 10.6113ZM60.2512 6.32132L61.6418 6.38732C61.6418 6.73932 61.671 7.11332 61.7219 7.48732C61.3433 6.98865 60.8482 6.59265 60.2512 6.32132ZM93.0453 6.38732L95.2005 6.28465C94.2394 6.49732 93.4748 6.97398 92.936 7.65598C93.0088 7.21598 93.0453 6.79065 93.0453 6.38732ZM99.023 15.158C95.4407 15.4147 93.2637 13.4787 93.0817 10.8827C92.936 8.83665 94.0719 7.51665 96.1106 7.36998C97.6251 7.25998 98.9502 8.08132 99.0449 9.44532C99.125 10.582 98.4551 11.1833 97.778 11.2347C97.1664 11.2786 96.8751 10.8387 96.6203 10.8607C96.4892 10.868 96.4018 11.0073 96.4091 11.1393C96.4601 11.8873 97.494 12.2687 98.2003 12.2173C99.0376 12.1586 99.5327 11.7627 100.064 11.0733C100.567 12.7307 101.368 13.5227 103.363 13.7133C101.71 14.608 100.574 15.048 99.023 15.158ZM108.219 9.89998C108.314 9.33532 108.321 9.07865 108.299 8.68265C108.19 7.15732 107.185 5.79332 105.416 5.91798C104.353 5.99132 103.632 6.79798 103.69 7.70732C103.712 8.06665 103.894 8.24998 104.083 8.23532C104.6 8.19865 104.098 7.09132 105.263 7.01065C106.421 6.92998 107.171 7.88332 107.243 8.89532C107.382 10.846 105.882 12.5547 103.916 12.694C102.431 12.804 101.302 11.968 101.215 10.67C101.156 9.85598 101.644 9.00532 102.489 8.94665C103.006 8.90998 103.297 9.34265 103.523 9.32798C103.683 9.31332 103.799 9.14465 103.785 8.91732C103.741 8.30132 102.867 7.83932 102.219 7.89065C101.317 7.95665 100.712 8.55065 100.275 9.26932C99.9113 7.62665 98.7318 6.43132 96.9625 6.21132L114.168 5.38265C112.377 6.09398 110.498 7.47998 108.219 9.89998Z" fill="#FCC889"/>
</svg>
