<svg width="199" height="46" viewBox="0 0 199 46" fill="none" xmlns="http://www.w3.org/2000/svg">
<g clip-path="url(#clip0_210_352)">
<path d="M103.71 27.68C103.87 27.5 104.01 27.3 104.15 27.09C104.37 26.76 104.54 26.41 104.68 26.04C104.73 25.9 104.78 25.77 104.82 25.62C104.98 25.08 105.3 23.91 104.96 23.39C104.91 23.32 104.87 23.28 104.82 23.27C104.72 23.25 104.61 23.33 104.43 23.39C103.44 23.71 102.39 23.74 101.36 23.86C101.09 23.89 99.69 24.2 98.79 24.6C98.23 24.85 97.87 25.15 98.14 25.42C98.25 25.53 98.36 25.65 98.47 25.76C98.98 26.27 99.5 26.77 100.03 27.26C100.2 27.42 100.38 27.58 100.56 27.74C100.83 27.99 101.15 28.22 101.49 28.36C101.59 28.41 101.7 28.44 101.81 28.47C102.04 28.53 102.27 28.54 102.51 28.49C102.84 28.42 103.12 28.24 103.37 28.02C103.49 27.91 103.61 27.8 103.71 27.68Z" fill="#FCC889"/>
<path d="M103.62 31.65C104.78 31.58 105.81 31.06 106.87 30.64C107.43 30.42 108 30.2 108.58 30.02C109.2 29.83 109.83 29.7 110.47 29.63C111.03 29.57 111.6 29.55 112.18 29.56C112.59 29.57 112.76 29.39 112.7 29.01C112.69 28.99 112.69 28.96 112.69 28.93C112.61 28.6 112.49 28.27 112.4 27.94C112.4 27.93 112.39 27.92 112.39 27.91C112.18 27.21 111.78 26.61 111.38 26C111.06 25.51 110.41 24.59 109.74 24.43C109.61 24.4 109.48 24.39 109.35 24.42C108.96 24.51 108.65 24.79 108.36 25.06C108.21 25.2 107.57 25.82 106.79 26.55C106.47 26.85 106.14 27.16 105.81 27.46C105.47 27.77 105.13 28.08 104.82 28.34C104.17 28.91 103.66 29.31 103.54 29.28C103.53 29.28 103.53 29.28 103.52 29.27C104.27 30.02 104.08 30.82 103.5 31.62C103.57 31.64 103.6 31.65 103.62 31.65Z" fill="#FCC889"/>
<path d="M96 21.53C95.87 21.75 95.78 21.95 95.98 22.21C96.32 22.65 96.61 23.13 96.9 23.61C97 23.77 97.06 23.85 97.14 23.87C97.22 23.89 97.32 23.85 97.49 23.75C98.01 23.46 98.55 23.2 99.11 22.96C99.77 22.68 100.47 22.47 101.12 22.18C101.6 21.97 102.06 21.7 102.52 21.45C102.57 21.42 102.61 21.4 102.66 21.37C103.08 21.14 103.48 20.88 103.85 20.58C104.19 20.31 104.51 20.02 104.8 19.7C104.82 19.68 104.84 19.66 104.85 19.65C104.99 19.49 105.06 19.28 105.14 19.09C105.07 19.25 104.11 19.32 103.94 19.34C103.81 19.36 103.69 19.36 103.56 19.37C103.26 19.4 102.95 19.41 102.64 19.4C101.98 19.39 101.31 19.3 100.67 19.14C100.47 19.09 100.28 19.03 100.08 18.97C99.33 18.73 98.67 18.4 98.08 18.01C97.31 17.5 96.63 16.86 95.94 16.14C95.85 16.04 95.73 15.98 95.59 15.95C95.34 15.89 95.06 15.94 94.91 16.11C94.68 16.38 94.54 16.7 94.53 17.06C94.53 17.11 94.53 17.15 94.53 17.2C94.53 17.57 94.53 17.94 94.54 18.32C94.54 18.38 94.54 18.44 94.54 18.51C94.54 18.84 94.55 19.17 94.55 19.5C94.55 19.79 94.55 20.09 94.56 20.39C94.56 20.44 94.57 20.51 94.6 20.55C94.88 20.88 95.17 21.2 95.49 21.55C95.83 20.98 95.96 20.42 95.97 19.85C95.97 19.44 95.92 19.04 95.83 18.63C95.79 18.42 95.74 18.22 95.68 18.01C95.87 18.24 96.04 18.48 96.2 18.72C96.28 18.84 96.36 18.96 96.44 19.08C96.63 19.39 96.71 19.71 96.69 20.03C96.68 20.24 96.62 20.45 96.52 20.66C96.38 20.96 96.17 21.24 96 21.53Z" fill="#FCC889"/>
<path d="M97.71 16.24C97.57 16.33 97.39 16.44 97.18 16.57C97.99 17.1 98.67 17.71 99.57 18.17C99.55 17.89 99.55 17.7 99.53 17.51C99.46 16.95 99.54 16.45 100.06 16.14C100.29 16 100.55 15.88 100.82 15.83C101.36 15.73 101.91 15.68 102.5 15.6C102.42 15.52 102.36 15.44 102.28 15.38C101.84 15 101.28 14.89 100.75 14.71C100.68 14.69 100.62 14.67 100.55 14.65C99.98 14.51 99.4 14.56 98.92 14.91C98.31 15.35 98.1 15.47 98.51 16.2C98.66 16.46 98.84 16.69 99.01 16.94C99 16.95 98.99 16.97 98.98 16.98C98.55 16.74 98.14 16.5 97.71 16.24Z" fill="#FCC889"/>
<path d="M105.41 19.87C105.24 20.13 105.04 20.38 104.82 20.6C104.75 20.67 104.68 20.73 104.61 20.79C104.23 21.13 103.8 21.42 103.35 21.67C102.88 21.92 102.39 22.14 101.89 22.34C101.09 22.66 100.27 22.94 99.5 23.31C98.93 23.58 98.23 23.85 97.82 24.37C97.75 24.46 97.68 24.56 97.63 24.67C97.65 24.63 97.87 24.63 97.92 24.61C97.93 24.61 97.93 24.61 97.94 24.6C98.03 24.57 98.11 24.51 98.19 24.45C98.26 24.4 98.32 24.36 98.38 24.32C98.92 23.98 99.51 23.67 100.12 23.48C100.66 23.32 101.27 23.33 101.83 23.24C102.96 23.07 104.11 22.77 105.05 22.09C105.11 22.04 105.18 22 105.24 21.95C105.53 21.72 105.79 21.45 106.02 21.16C106.26 20.86 106.48 20.54 106.68 20.21C106.75 20.09 106.82 19.97 106.89 19.85C107.12 19.45 107.33 19.01 107.33 18.55C107.33 18.2 106.93 17.41 106.47 17.29C106.36 17.26 106.24 17.28 106.13 17.35C105.77 17.59 105.98 18.38 105.89 18.74C105.81 19.14 105.63 19.52 105.41 19.87Z" fill="#FCC889"/>
<path d="M105.36 17.23C105.41 17.12 105.45 17.01 105.4 16.95C105.31 16.92 105.23 16.9 105.14 16.88C105.04 16.86 104.94 16.83 104.83 16.81C104.75 16.79 104.67 16.77 104.59 16.74C104.28 16.64 103.97 16.51 103.65 16.42C103.6 16.41 103.56 16.4 103.51 16.38C102.64 16.17 101.56 16.16 100.73 16.48C100.49 16.57 100.27 16.73 100.14 16.95C99.97 17.24 99.99 17.61 100.14 17.9C100.4 18.42 100.97 18.69 101.53 18.82C101.64 18.85 101.75 18.87 101.86 18.89C102.05 18.92 102.27 18.93 102.44 18.83C102.63 18.71 102.71 18.45 102.64 18.24C102.57 18.04 102.39 17.88 102.18 17.83C102.17 17.83 102.16 17.83 102.16 17.83C101.8 17.76 101.55 17.96 101.28 18.16C101.27 18.03 101.33 17.9 101.42 17.8C101.51 17.7 101.63 17.64 101.75 17.59C102.07 17.45 102.42 17.4 102.77 17.42C102.85 17.42 102.93 17.44 103.01 17.46C103.17 17.5 103.32 17.57 103.42 17.69C103.54 17.83 103.59 18.02 103.56 18.19C103.52 18.41 103.31 18.59 103.16 18.74C103.13 18.83 103.18 18.87 103.26 18.89C103.27 18.89 103.28 18.9 103.3 18.9C103.73 18.88 104.16 18.82 104.58 18.77C104.86 18.74 105.52 18.81 105.4 18.33C105.38 18.24 105.33 18.16 105.29 18.07C105.22 17.89 105.2 17.69 105.24 17.49C105.26 17.43 105.32 17.33 105.36 17.23Z" fill="#FCC889"/>
<path d="M102.17 12.53C101.7 12.14 101.13 11.88 100.54 11.74C100.16 11.65 99.77 11.6 99.38 11.6C98.05 11.6 96.77 12.09 95.6 12.73C94.43 13.36 93.35 14.15 92.2 14.8C91.77 15.05 91.32 15.28 90.96 15.63C90.76 15.82 90.62 16.06 90.53 16.31C90.41 16.66 90.38 17.03 90.46 17.4C90.54 17.75 90.71 18.09 90.98 18.35C91.01 18.39 91.05 18.42 91.1 18.44C91.48 18.61 91.86 18.76 92.23 18.94C92.24 18.94 92.25 18.95 92.26 18.95C92.58 19.11 92.9 19.29 93.21 19.47C93.44 19.6 93.65 19.75 93.89 19.92C93.91 19.82 93.93 19.78 93.93 19.73C93.93 19.61 93.93 19.48 93.92 19.35C93.91 18.96 93.9 18.57 93.89 18.18C93.88 17.81 93.88 17.44 93.89 17.07C93.9 16.79 93.91 16.51 93.94 16.24C93.97 15.93 94.03 15.61 94.24 15.38C94.49 15.12 94.88 15.06 95.24 15.15C95.27 15.16 95.31 15.17 95.34 15.18C95.7 15.3 95.93 15.65 96.29 15.76C96.3 15.76 96.31 15.77 96.33 15.77C96.68 15.86 97.08 15.68 97.34 15.46C97.71 15.15 97.94 14.72 98.27 14.38C98.7 13.94 99.29 13.67 99.9 13.6C100.19 13.57 100.43 13.59 100.65 13.64C101 13.73 101.31 13.9 101.72 14.08C101.8 14.11 101.88 14.14 101.96 14.16C102.16 14.21 102.36 14.22 102.55 14.16C103.67 13.78 102.63 12.9 102.17 12.53Z" fill="#FCC889"/>
<path d="M90.51 26.89C90.16 26.22 89.86 25.52 89.61 24.81C89.58 24.72 89.55 24.63 89.53 24.54C89.4 24.14 89.3 23.74 89.2 23.34C89.14 23.1 89.08 22.85 89.01 22.61C88.96 22.44 88.92 22.23 88.72 22.18C88.69 22.17 88.66 22.17 88.62 22.17C87.8 22.17 86.98 22.18 86.18 22.42C86.13 22.43 86.07 22.45 86.02 22.47C85.64 22.59 85.26 22.72 84.96 23.02C84.91 23.09 84.87 23.17 84.85 23.25C84.84 23.31 84.83 23.36 84.83 23.42C84.84 23.54 84.89 23.66 84.95 23.77C84.99 23.82 85.03 23.88 85.08 23.92C85.34 24.19 85.61 24.45 85.87 24.71C85.89 24.73 85.91 24.75 85.93 24.76C86.42 25.17 86.91 25.59 87.36 26.04C87.36 26.04 87.37 26.05 87.38 26.05C87.89 26.53 88.42 27 88.72 27.67C88.75 27.74 88.78 27.8 88.81 27.87C89.32 28.76 89.67 29.73 90.11 30.67C90.48 31.47 91.1 31.94 91.88 32.13C92.04 32.17 92.2 32.2 92.37 32.21C93.22 32.29 94.09 32.24 94.95 32.25C94.96 32.22 94.96 32.2 94.97 32.17C94.48 31.75 93.95 31.35 93.49 30.89C92.31 29.71 91.28 28.38 90.51 26.89Z" fill="#FCC889"/>
<path d="M111.85 16.85C110.64 15.95 109.26 15.15 107.87 14.58C107.43 14.4 106.92 14.21 106.4 14.08C105.22 13.79 103.97 13.81 103.29 14.98C103.25 15.06 103.47 15.17 103.78 15.29C104.13 15.42 104.58 15.55 104.86 15.62C104.97 15.65 105.05 15.66 105.08 15.67C105.76 15.73 106.4 15.54 107.08 15.65C107.19 15.67 107.31 15.69 107.42 15.72C108.09 15.88 108.7 16.21 109.15 16.73C109.62 17.28 110.08 17.84 110.53 18.4C110.57 18.45 110.59 18.53 110.66 18.68C110.41 18.54 110.22 18.47 110.07 18.35C109.6 17.98 109.17 17.56 108.67 17.24C108.36 17.04 107.98 16.99 107.64 16.88C107.62 17.06 107.7 17.17 107.78 17.33C107.87 17.52 107.94 17.73 107.99 17.94C108.09 18.36 108.11 18.8 108.04 19.22C107.96 19.67 107.79 20.09 107.53 20.47C107.53 20.47 107.53 20.48 107.52 20.48C107.29 20.81 106.99 21.08 106.71 21.37C106.66 21.42 106.6 21.48 106.55 21.54C106.33 21.8 106.1 22.06 105.9 22.33C105.89 22.35 105.87 22.37 105.86 22.38C105.48 22.91 105.5 23.52 105.57 24.13C105.58 24.24 105.61 24.35 105.63 24.47C105.94 24.07 106.19 23.68 106.57 23.34C106.82 23.11 107.08 22.9 107.34 22.69C107.47 22.58 107.61 22.48 107.74 22.37C107.96 22.19 108.18 22.01 108.39 21.81C108.68 21.53 108.95 21.23 109.16 20.9C109.24 20.78 109.31 20.65 109.37 20.51C109.5 20.21 109.68 19.87 110.06 19.96C110.06 19.96 110.07 19.96 110.08 19.96C110.05 20.41 110.05 20.72 109.94 21.07C109.94 21.08 109.94 21.09 109.94 21.1C109.95 21.1 109.96 21.11 109.97 21.11C109.97 21.12 109.96 21.13 109.96 21.14C109.87 21.52 109.63 21.81 109.34 22.06C109.33 22.06 109.33 22.06 109.32 22.06C108.96 22.38 108.5 22.63 108.15 22.9L108.14 22.91C107.43 23.46 106.76 24.08 106.2 24.79C106.12 24.89 106.04 24.99 105.97 25.09C105.71 25.46 105.47 25.84 105.26 26.23C105.22 26.3 105.19 26.36 105.15 26.43C105.02 26.67 104.9 26.91 104.79 27.15C104.77 27.19 104.75 27.23 104.72 27.27C104.61 27.46 104.48 27.68 104.46 27.85C104.54 27.86 104.63 27.74 104.68 27.69C104.79 27.57 104.89 27.45 105 27.33C105.21 27.09 105.42 26.84 105.66 26.62C105.74 26.54 105.82 26.47 105.9 26.39C106.61 25.72 107.31 25.04 108.02 24.37C108.46 23.95 108.94 23.58 109.43 23.22C109.8 22.95 110.17 22.68 110.53 22.39L110.54 22.38C110.76 22.2 110.99 22.02 111.19 21.82C111.25 21.77 111.3 21.71 111.36 21.66C111.41 21.62 111.45 21.57 111.49 21.52C111.95 21.04 112.34 20.49 112.56 19.87C112.93 18.8 112.73 17.5 111.85 16.85Z" fill="#FCC889"/>
<path d="M97.74 32.59C99.31 32.98 101.18 32.78 102.29 31.72C102.63 31.4 103.22 30.32 102.85 29.83C102.81 29.77 102.75 29.72 102.67 29.68C101.31 28.94 100.13 28.04 99.07 27.03C98.56 26.55 98.08 26.05 97.61 25.53C97.16 25.03 96.72 24.5 96.29 23.97C95.71 23.26 95.15 22.53 94.58 21.79C94.29 21.46 93.98 21.13 93.66 20.83C92.98 20.18 92.21 19.6 91.37 19.18C90.91 18.95 90.44 18.76 89.94 18.64C89.57 18.55 89.18 18.5 88.79 18.5C88.46 18.5 88.24 18.54 87.97 18.71C88.44 19.08 89.05 19.34 89.57 19.63C90.12 19.93 90.67 20.23 91.21 20.56C91.87 20.96 92.51 21.4 93.09 21.9C93.38 22.16 93.66 22.43 93.92 22.72C94.13 22.97 94.27 23.23 94.43 23.51C94.46 23.56 94.48 23.61 94.51 23.66C94.55 23.72 94.64 23.8 94.54 23.83C94.54 23.83 94.54 23.83 94.53 23.83C94.47 23.81 94.2 23.54 94.08 23.42C94.05 23.39 94.03 23.37 94.02 23.36C93.84 23.2 93.65 23.05 93.46 22.9C93.08 22.6 92.7 22.31 92.3 22.04C91.53 21.51 90.73 21.08 89.9 20.66C89.75 20.58 89.42 20.48 89.32 20.34C89.31 20.38 89.31 20.41 89.31 20.43V20.44C89.41 21.09 89.6 21.74 89.82 22.37C89.91 22.62 90 22.87 90.09 23.12C90.15 23.29 90.22 23.46 90.28 23.62C90.44 24.04 90.62 24.46 90.81 24.87C90.92 25.11 91.03 25.35 91.15 25.59C91.56 26.41 92 27.21 92.5 27.99C92.75 28.38 93.01 28.76 93.28 29.14C93.54 29.5 93.82 29.8 94.1 30.14C94.68 30.84 95.38 31.41 96.14 31.91C96.59 32.22 97.14 32.45 97.74 32.59Z" fill="#FCC889"/>
<path d="M39.49 26.47C36.03 27.89 33.78 30.97 33.54 34.24C33.21 38.89 36.7 42.3 40.29 42.56C43.48 42.79 46.16 40.8 46.37 37.87C46.51 35.83 45.01 33.86 42.97 33.71C41.51 33.61 39.79 34.6 39.69 35.93C39.67 36.24 39.92 36.52 40.18 36.54C40.76 36.58 40.86 35.07 42.55 35.19C43.92 35.29 44.73 36.46 44.63 37.79C44.49 39.74 42.88 41.09 40.53 40.93C37.61 40.72 35.05 37.82 35.3 34.37C35.6 30.21 39.75 26.94 44.44 27.28C52.73 27.87 59.11 40.75 68.85 41.44C74.65 41.85 78.28 38.99 78.62 34.26C78.65 33.87 78.65 33.48 78.62 33.11C81.25 39.16 87.79 45.58 98.88 45.58C110.35 45.58 116.86 38.67 119.35 32.43C119.3 32.89 119.29 33.37 119.32 33.87C119.61 38.61 123.2 41.51 129.01 41.16C138.76 40.57 145.28 27.76 153.58 27.26C158.28 26.97 162.39 30.29 162.64 34.45C162.85 37.91 160.26 40.78 157.34 40.96C154.99 41.1 153.4 39.73 153.28 37.78C153.2 36.45 154.02 35.29 155.39 35.21C157.08 35.11 157.17 36.61 157.74 36.58C158.01 36.56 158.26 36.28 158.24 35.97C158.16 34.64 156.45 33.63 154.99 33.72C152.95 33.84 151.42 35.8 151.55 37.84C151.73 40.76 154.38 42.78 157.57 42.59C161.16 42.38 164.7 39 164.41 34.35C164.21 31.06 161.97 27.94 158.5 26.49L198.65 24.59H116.84C116.84 34.51 108.8 42.55 98.88 42.55C88.96 42.55 80.92 34.51 80.92 24.59H0L39.49 26.47ZM148.68 26.95C146.55 28 144.28 29.76 141.6 32.52C141.73 31.75 141.76 31.4 141.72 30.86C141.63 29.37 140.9 27.98 139.6 27.37L148.68 26.95ZM136.38 27.53C135.74 27.98 135.36 28.69 135.41 29.47C135.44 29.96 135.68 30.21 135.94 30.19C136.65 30.15 135.98 28.63 137.58 28.53C139.17 28.43 140.19 29.75 140.27 31.12C140.43 33.78 138.34 36.09 135.64 36.25C133.6 36.37 132.06 35.22 131.96 33.45C131.89 32.34 132.58 31.19 133.73 31.12C134.44 31.08 134.83 31.67 135.14 31.65C135.36 31.64 135.52 31.41 135.51 31.1C135.46 30.26 134.26 29.62 133.38 29.67C132.14 29.74 131.3 30.55 130.69 31.52C130.35 29.94 129.45 28.65 128.1 27.91L136.38 27.53ZM125.01 28.9C127.09 28.77 128.9 29.91 129.01 31.77C129.1 33.32 128.18 34.13 127.24 34.19C126.4 34.24 126 33.64 125.65 33.66C125.47 33.67 125.35 33.85 125.36 34.03C125.42 35.05 126.83 35.59 127.81 35.53C128.96 35.46 129.65 34.93 130.39 34C131.06 36.27 132.15 37.36 134.88 37.64C132.6 38.84 131.03 39.43 128.9 39.56C123.98 39.86 121.02 37.19 120.8 33.64C120.63 30.85 122.21 29.07 125.01 28.9ZM120.48 28.28L121.77 28.22C121.12 28.65 120.59 29.22 120.19 29.9C120.32 29.34 120.41 28.8 120.48 28.28ZM77.34 28.28C77.39 28.79 77.47 29.33 77.59 29.88C77.09 29.17 76.43 28.6 75.61 28.2L77.34 28.28ZM73.04 29.23C75.83 29.43 77.39 31.23 77.2 34.02C76.95 37.56 73.96 40.2 69.04 39.85C66.91 39.7 65.35 39.1 63.08 37.87C65.81 37.62 66.91 36.54 67.61 34.27C68.34 35.21 69.02 35.75 70.17 35.83C71.15 35.9 72.56 35.38 72.64 34.36C72.65 34.18 72.53 33.99 72.35 33.98C72 33.95 71.6 34.55 70.76 34.49C69.83 34.42 68.91 33.6 69.02 32.05C69.14 30.2 70.96 29.08 73.04 29.23ZM60.47 28.73C62.06 28.84 61.38 30.35 62.09 30.4C62.35 30.42 62.6 30.17 62.63 29.68C62.69 28.76 62.17 27.93 61.3 27.51L70.53 27.95C68.85 28.59 67.73 30 67.33 31.79C66.73 30.81 65.9 30 64.66 29.91C63.77 29.85 62.57 30.47 62.51 31.31C62.49 31.62 62.65 31.85 62.87 31.87C63.18 31.89 63.58 31.3 64.29 31.35C65.44 31.43 66.11 32.59 66.04 33.7C65.91 35.47 64.36 36.61 62.33 36.46C59.63 36.27 57.57 33.94 57.76 31.28C57.85 29.92 58.88 28.62 60.47 28.73ZM58.86 27.4C57.3 27.88 56.42 29.38 56.3 31.02C56.26 31.55 56.28 31.91 56.4 32.68C53.67 29.81 51.37 28.01 49.2 26.95L58.86 27.4Z" fill="#FCC889"/>
<path d="M81.81 20.99C81.81 11.07 89.85 3.03 99.77 3.03C109.69 3.03 117.73 11.07 117.73 20.99H198.68L158.2 19.05C162.25 17.83 164.92 14.43 165.13 10.83C165.41 6.18 161.88 2.8 158.29 2.58C155.1 2.38 152.44 4.41 152.26 7.33C152.14 9.37 153.67 11.33 155.7 11.45C157.16 11.54 158.87 10.53 158.95 9.2C158.97 8.89 158.72 8.61 158.45 8.59C157.87 8.55 157.78 10.06 156.1 9.96C154.72 9.88 153.91 8.71 153.99 7.39C154.11 5.44 155.7 4.07 158.05 4.21C160.97 4.39 163.56 7.26 163.35 10.72C163.1 14.89 158.98 18.2 154.28 17.91C145.99 17.41 139.47 4.6 129.72 4.01C123.91 3.66 120.31 6.55 120.02 11.3C120.01 11.49 120 11.67 120 11.85C117.33 6 110.5 0 99.78 0C89.23 0 82.41 5.85 79.63 11.65C79.63 11.41 79.63 11.17 79.61 10.92C79.27 6.18 75.64 3.32 69.84 3.74C60.09 4.43 53.71 17.3 45.42 17.89C40.73 18.22 36.57 14.96 36.28 10.8C36.03 7.35 38.59 4.45 41.51 4.24C43.86 4.07 45.47 5.43 45.61 7.38C45.71 8.71 44.9 9.88 43.53 9.98C41.85 10.1 41.74 8.59 41.16 8.63C40.89 8.65 40.65 8.93 40.67 9.24C40.76 10.57 42.48 11.56 43.94 11.46C45.98 11.32 47.48 9.34 47.34 7.3C47.13 4.38 44.45 2.39 41.26 2.61C37.67 2.86 34.17 6.28 34.51 10.93C34.76 14.49 37.4 17.82 41.39 19.04L0 20.99H81.81ZM142.3 12.65C145.42 15.86 147.98 17.72 150.42 18.68L138.65 18.12C140.99 18.18 142.3 16.35 142.42 14.31C142.46 13.78 142.43 13.42 142.3 12.65ZM136.34 8.91C139.04 9.07 141.13 11.38 140.97 14.04C140.89 15.42 139.87 16.73 138.28 16.63C136.68 16.54 137.35 15.02 136.65 14.97C136.38 14.95 136.14 15.21 136.11 15.7C136.04 16.91 136.99 17.97 138.4 18.1L127.97 17.6C129.79 16.98 130.98 15.52 131.38 13.63C131.99 14.6 132.83 15.41 134.07 15.48C134.96 15.53 136.15 14.9 136.2 14.06C136.22 13.75 136.06 13.52 135.83 13.5C135.52 13.48 135.13 14.08 134.42 14.04C133.27 13.97 132.58 12.82 132.65 11.71C132.77 9.94 134.3 8.79 136.34 8.91ZM121.5 11.53C121.71 7.98 124.68 5.31 129.6 5.61C131.73 5.74 133.3 6.32 135.58 7.53C132.85 7.81 131.76 8.9 131.09 11.17C130.35 10.24 129.67 9.71 128.51 9.64C127.53 9.58 126.12 10.12 126.06 11.14C126.05 11.32 126.17 11.5 126.35 11.51C126.7 11.53 127.1 10.93 127.94 10.98C128.87 11.04 129.8 11.85 129.7 13.4C129.59 15.26 127.79 16.4 125.7 16.27C122.92 16.11 121.33 14.32 121.5 11.53ZM123.25 17.38L121.34 17.29C121.34 16.81 121.3 16.3 121.23 15.79C121.75 16.47 122.43 17.01 123.25 17.38ZM78.21 17.29L75.25 17.43C76.57 17.14 77.62 16.49 78.36 15.56C78.26 16.16 78.21 16.74 78.21 17.29ZM70 5.33C74.92 4.98 77.91 7.62 78.16 11.16C78.36 13.95 76.8 15.75 74 15.95C71.92 16.1 70.1 14.98 69.97 13.12C69.86 11.57 70.78 10.75 71.71 10.68C72.55 10.62 72.95 11.22 73.3 11.19C73.48 11.18 73.6 10.99 73.59 10.81C73.52 9.79 72.1 9.27 71.13 9.34C69.98 9.42 69.3 9.96 68.57 10.9C67.88 8.64 66.78 7.56 64.04 7.3C66.31 6.08 67.87 5.48 70 5.33ZM57.37 12.5C57.24 13.27 57.23 13.62 57.26 14.16C57.41 16.24 58.79 18.1 61.22 17.93C62.68 17.83 63.67 16.73 63.59 15.49C63.56 15 63.31 14.75 63.05 14.77C62.34 14.82 63.03 16.33 61.43 16.44C59.84 16.55 58.81 15.25 58.71 13.87C58.52 11.21 60.58 8.88 63.28 8.69C65.32 8.54 66.87 9.68 66.99 11.45C67.07 12.56 66.4 13.72 65.24 13.8C64.53 13.85 64.13 13.26 63.82 13.28C63.6 13.3 63.44 13.53 63.46 13.84C63.52 14.68 64.72 15.31 65.61 15.24C66.85 15.15 67.68 14.34 68.28 13.36C68.78 15.6 70.4 17.23 72.83 17.53L49.2 18.66C51.66 17.69 54.24 15.8 57.37 12.5Z" fill="#FCC889"/>
</g>
<defs>
<clipPath id="clip0_210_352">
<rect width="198.69" height="45.58" fill="white"/>
</clipPath>
</defs>
</svg>
