<svg width="201" height="193" viewBox="0 0 201 193" fill="none" xmlns="http://www.w3.org/2000/svg">
<g clip-path="url(#clip0_212_260)">
<path d="M199.986 58.2688C199.278 57.5616 198.197 57.1872 197.344 56.688C196.221 56.0432 195.139 55.3152 194.099 54.5248C194.016 54.4624 193.912 54.4208 193.829 54.4C193.787 54.3584 193.746 54.3168 193.683 54.296C188.046 47.3904 181.515 41.2128 174.339 35.888C174.318 35.888 174.298 35.8672 174.298 35.8464C168.827 31.8112 162.982 28.2752 156.846 25.3216C162.795 25.3632 168.494 23.2832 174.277 21.6608C174.984 21.4528 174.838 20.5168 174.256 20.3504C174.214 20.2256 174.11 20.1008 173.944 20.0176C159.405 13.2368 143.389 11.5312 127.747 15.1504C127.664 15.1712 127.602 15.2128 127.539 15.2544C120.259 13.3408 112.646 12.3216 104.784 12.3216C93.76 12.3216 83.1936 14.3184 73.4176 17.9792C67.5936 17.3968 61.728 17.8336 56.2368 19.8928C57.0896 19.144 57.9632 18.4368 58.8576 17.7296C58.9408 17.7296 59.0448 17.688 59.128 17.6464C65.68 14.1104 72.6272 11.5104 79.9904 10.2416C83.776 9.59679 88.5184 8.7856 92.4288 9.1808C95.0496 9.4304 97.5872 11.3648 100.229 11.1152C101.914 10.9488 103.682 10.2 103.058 8.26559C102.101 5.27039 98.0656 6.56 95.9024 7.55839C95.2992 7.57919 94.696 7.66239 94.0928 7.82879C93.968 7.87039 93.8848 7.91199 93.8224 7.99519C92.6784 7.78719 91.6384 7.8704 90.4736 7.8912C86.8544 7.9328 83.2144 8.34879 79.6368 8.95199C74.2704 9.86719 69.112 11.5104 64.1616 13.6944C67.4688 11.344 70.9008 9.20159 74.4368 7.24639C76.4752 7.05919 78.888 7.0592 80.6352 5.936C81.9248 5.104 82.8816 3.4608 82.2576 1.9424C81.7168 0.611196 80.1776 -0.137604 78.8672 0.569596C77.9936 1.0272 77.4528 1.984 76.8496 2.7328C75.9344 3.8352 74.936 4.8544 73.896 5.832C73.792 5.936 73.7504 6.03999 73.7088 6.14399C73.688 6.16479 73.688 6.16479 73.6672 6.18559C59.7936 13.8192 47.6464 24.6352 38.3072 37.4688C39.4304 31.6032 38.5568 25.7792 37.9952 19.5392C37.9328 18.7696 36.8096 18.6864 36.664 19.3312C36.5184 19.3728 36.3728 19.4352 36.2688 19.6016C27.0336 32.6016 22.4992 48.0768 23.248 64.0096C23.248 64.1136 23.2896 64.2176 23.3312 64.3008C17.9232 75.8448 14.8864 88.7408 14.8864 102.302C14.8864 108.334 15.4896 114.262 16.6544 120.024C15.1568 125.702 14.6784 131.547 15.8432 137.33C15.24 136.373 14.6784 135.395 14.1168 134.418C14.1168 134.334 14.1168 134.251 14.0752 134.147C11.5168 126.826 10.0192 119.275 10.0192 111.496C10.0192 107.107 9.91518 101.616 11.7664 97.5808C12.536 95.896 13.9088 94.3984 14.0544 92.464C14.1792 90.8208 13.68 88.9072 11.6624 89.24C8.56319 89.76 9.22879 93.9824 9.87359 96.208C9.79039 96.7696 9.76958 97.352 9.85278 97.9552C9.87358 98.1008 9.93598 98.2256 10.0192 98.3088C9.85278 98.704 9.72798 99.12 9.60318 99.5984C8.79198 103.093 8.72959 106.962 8.66719 110.518C8.58399 116.654 9.39518 122.645 10.9344 128.531C9.12478 124.891 7.54398 121.168 6.19198 117.341C6.33758 115.157 6.79518 112.494 5.63038 110.539C4.90238 109.312 3.50878 108.418 2.07358 108.813C0.742385 109.166 -0.152015 110.518 0.263985 111.87C0.513585 112.723 1.28318 113.368 1.84478 114.013C2.86398 115.157 3.79998 116.363 4.65278 117.632C4.71518 117.715 4.77758 117.798 4.86078 117.84C4.90238 117.944 4.96478 118.048 5.04798 118.11C10.4144 132.941 19.1296 146.544 30.2784 157.714C24.6208 155.675 18.6512 155.675 12.4736 155.259C11.7456 155.218 11.6416 156.133 12.12 156.486C12.12 156.653 12.1616 156.798 12.3072 156.944C23.7472 168.176 38.328 175.061 54.2816 176.829C54.3648 176.829 54.4272 176.829 54.4896 176.808C60.6464 180.989 67.3648 184.442 74.5824 187.021L75.04 185.752C74.5824 185.586 74.1248 185.398 73.6672 185.232C73.6048 185.066 73.5632 184.899 73.5008 184.733C73.5632 184.525 73.5008 184.317 73.3136 184.171C70.8592 176.517 68.1344 168.613 62.5808 162.622C56.7152 156.32 48.3744 153.408 40.4288 150.704C40.1168 150.6 39.6592 150.829 39.5968 151.182C38.3904 158.92 44.8176 165.222 49.976 170.173C54.7392 174.749 60.064 178.618 65.784 181.842C61.7072 179.845 57.8384 177.536 54.1776 174.978C54.24 174.77 54.2192 174.541 54.0112 174.354C50.08 170.818 45.92 167.386 41.5728 164.286C33.6064 156.154 27.2624 146.523 22.9152 135.978C23.1024 134.73 23.3728 133.502 23.7264 132.275C23.7888 132.254 23.8304 132.213 23.8928 132.171C25.536 130.549 27.8448 128.677 28.6768 126.43C29.2384 124.891 28.9056 122.874 27.2208 122.208C25.5776 121.563 23.8512 122.645 23.0816 124.059C21.896 126.202 22.0832 129.238 22.2496 131.589C22.2704 131.755 22.3328 131.88 22.416 131.984C22.2704 132.525 22.1248 133.066 22 133.606C20.336 129.218 19.0256 124.704 18.0688 120.066C19.0672 116.405 20.4816 112.827 22.1456 109.395C24.1424 108.085 31.9008 101.99 27.2208 99.64C25.6192 98.8288 23.6016 99.4736 22.52 100.826C21.0016 102.76 21.2512 106.171 21.0016 108.459C21.0016 108.522 21.0016 108.563 21.0224 108.626C19.6704 111.371 18.4848 114.242 17.528 117.154C16.696 112.307 16.2592 107.336 16.2592 102.302C16.2592 96.2288 16.8832 90.3008 18.048 84.56C18.2144 84.4768 18.3808 84.3936 18.5472 84.3104C18.7344 84.3104 18.9216 84.2272 19.0464 84.0608C26.2224 80.4416 33.6064 76.5104 38.64 70.0624C43.9232 63.3024 45.4832 54.6912 46.9184 46.4336C47.0016 45.9968 46.7312 45.5808 46.2736 45.5808C38.8688 45.5392 33.9184 52.2992 29.9664 57.7696C25.8688 63.4272 22.6656 69.6048 20.232 76.1152C21.5632 71.8304 23.2064 67.6912 25.1408 63.6976C25.3696 63.7184 25.5984 63.6352 25.744 63.4064C28.5728 59.0592 31.1728 54.5456 33.4816 49.9072C40.304 40.6304 48.8944 32.7264 58.7328 26.6944C60.0016 26.6944 61.2496 26.7568 62.5184 26.9024C62.56 26.9648 62.6224 27.0272 62.6848 27.0896C64.64 28.5248 67.136 30.8336 69.7152 30.9584C71.192 31.0208 72.7936 30.168 73.0224 28.608C73.2512 26.9856 72.0656 25.5504 70.6096 25.0096C68.2384 24.1152 65.2432 24.8016 62.872 25.3632C62.7056 25.4048 62.6224 25.488 62.5392 25.5712C61.9984 25.5088 61.4576 25.4672 60.9168 25.4256C64.9936 23.096 69.2576 21.0576 73.688 19.3936C77.4736 19.8096 81.2176 20.6416 84.8576 21.7648C84.8576 21.7648 84.8576 21.7648 84.8576 21.7856C86.4384 23.5328 93.5312 30.168 95.2368 25.3424C95.7984 23.7616 95.0288 21.9104 93.656 20.9952C91.5344 19.56 88.0816 20.3712 85.6688 20.496C85.5856 20.496 85.5024 20.5168 85.44 20.5584C82.5072 19.664 79.4912 18.9152 76.4336 18.4368C85.3568 15.4208 94.8832 13.736 104.826 13.736C105.45 13.736 106.074 13.7776 106.718 13.7776C106.822 13.9232 106.926 14.0688 107.051 14.2144C107.093 14.36 107.197 14.4848 107.322 14.568C112.022 20.7664 116.994 27.0896 123.878 30.9584C131.678 35.3472 140.747 35.368 149.442 35.264C149.92 35.264 150.17 34.848 150.086 34.4112C148.734 26.6944 140.102 22.8048 133.675 19.9344C127.893 17.3344 121.861 15.5456 115.683 14.4224C120.051 14.9424 124.315 15.816 128.496 16.96C128.538 17.1888 128.662 17.3968 128.912 17.5008C133.842 19.56 138.938 21.4736 144.138 22.9504C154.33 28.0256 163.398 34.9936 170.907 43.3968C171.136 44.6032 171.282 45.8304 171.365 47.0784C171.323 47.12 171.302 47.1408 171.261 47.2032C170.2 49.3872 168.37 52.2576 168.661 54.7952C168.827 56.2928 169.909 57.7488 171.531 57.7696C173.216 57.7696 174.443 56.2096 174.714 54.6912C175.13 52.1952 173.923 49.3872 172.946 47.1408C172.883 46.9952 172.8 46.9328 172.717 46.8704C172.675 46.3504 172.634 45.8304 172.571 45.3104C175.587 48.9088 178.354 52.736 180.787 56.7712C181.058 60.5568 180.891 64.4048 180.475 68.1696C180.454 68.1904 180.454 68.1904 180.434 68.2112C179.061 70.0208 173.653 78.5904 179.061 79.0688C180.725 79.2144 182.326 78.0288 182.909 76.5104C183.782 74.1808 182.389 70.9776 181.869 68.7104C181.848 68.6272 181.806 68.5856 181.786 68.5232C182.139 65.4864 182.326 62.3872 182.243 59.3296C187.942 69.5424 191.686 80.9824 192.934 93.1504C192.81 93.2752 192.685 93.4 192.56 93.5248C192.373 93.5872 192.206 93.712 192.144 93.92C186.57 99.3488 180.933 105.11 177.958 112.432C174.589 120.731 175.733 129.717 176.898 138.349C176.939 138.702 177.418 138.91 177.73 138.827C184.656 136.685 187.318 129.134 189.44 122.853C191.728 116.093 192.997 109.104 193.371 102.053C193.371 102.157 193.371 102.24 193.371 102.344C193.371 106.67 193.059 110.955 192.435 115.178C192.206 115.219 192.019 115.344 191.936 115.635C190.522 120.752 189.378 125.931 188.546 131.173C188.213 132.171 187.859 133.149 187.485 134.126C183.72 143.902 178.25 152.826 171.469 160.563C170.283 160.938 169.056 161.25 167.829 161.478C167.766 161.437 167.704 161.395 167.621 161.354C165.395 160.584 162.733 159.378 160.32 159.669C158.677 159.877 157.013 161.125 157.262 162.955C157.491 164.723 159.301 165.722 160.923 165.722C163.357 165.722 165.874 164.266 167.891 163.08C168.037 162.997 168.099 162.893 168.162 162.768C168.682 162.664 169.202 162.56 169.701 162.435C166.498 165.888 163.024 169.091 159.301 172.003C155.598 172.731 151.792 173.043 148.027 173.106C145.885 171.858 136.858 167.656 137.024 173.064C137.086 174.728 138.501 176.184 140.061 176.558C142.474 177.12 145.406 175.373 147.59 174.582C147.674 174.541 147.736 174.499 147.798 174.458C150.877 174.437 153.976 174.229 157.034 173.771C148.859 179.782 139.645 184.4 129.744 187.312L130.118 188.602C140.997 185.398 151.043 180.136 159.862 173.272C165.645 172.086 171.136 169.923 175.795 166.283C175.213 167.24 174.589 168.176 173.965 169.112C173.882 169.154 173.819 169.195 173.736 169.258C168.765 174.374 163.19 178.826 156.867 182.174C153.29 184.088 149.4 185.981 145.448 187.021C142.619 187.77 139.437 186.792 136.712 187.77C135.194 188.31 133.384 189.683 134.611 191.41C136.421 193.947 139.894 191.576 141.683 189.954C142.245 189.766 142.786 189.517 143.285 189.163C143.389 189.08 143.472 188.997 143.514 188.893C144.949 188.685 146.28 188.165 147.653 187.686C151.043 186.459 154.371 185.045 157.533 183.339C162.109 180.885 166.269 177.89 170.138 174.499C167.683 177.744 165.021 180.864 162.213 183.797C160.299 184.608 157.928 185.315 156.618 187.021C155.64 188.29 155.307 190.224 156.576 191.451C157.637 192.47 159.238 192.47 160.174 191.326C160.757 190.619 160.986 189.642 161.318 188.81C161.838 187.499 162.483 186.251 163.19 185.045C163.232 184.962 163.274 184.878 163.274 184.795C163.378 184.712 163.419 184.608 163.44 184.504C171.531 175.997 178.187 166.138 183.117 155.488C183.138 155.446 183.158 155.426 183.158 155.384C184.843 151.723 186.32 147.979 187.61 144.152C188.296 150.101 190.875 155.384 193.309 161.166C193.621 161.894 194.702 161.666 194.661 161C194.786 160.917 194.89 160.813 194.952 160.626C199.861 145.421 199.549 129.342 194.037 114.346C193.995 114.242 193.954 114.158 193.891 114.096C194.39 110.206 194.661 106.275 194.661 102.302C194.661 85.5168 190.022 69.8128 181.994 56.3552C181.536 50.5104 180.059 44.8112 177.022 39.7568C177.917 40.4848 178.79 41.2128 179.664 41.9824C179.685 42.0656 179.726 42.1488 179.789 42.232C184.594 48.2432 188.483 54.8368 191.042 62.1168C192.373 65.9232 194.203 70.7904 194.141 74.8672C194.099 77.2592 192.81 79.672 193.808 82.0224C194.494 83.6656 195.659 84.7472 197.24 83.3328C199.362 81.4192 197.698 78.424 196.283 76.5312C196.158 75.928 195.95 75.3456 195.68 74.7632C195.618 74.6592 195.555 74.576 195.472 74.5136C195.43 73.3696 195.243 72.3504 194.994 71.1856C194.12 67.1088 192.955 63.0944 191.416 59.2256C189.606 54.6496 187.235 50.3856 184.49 46.3504C187.422 49.2 190.168 52.216 192.747 55.3776C193.309 57.3536 193.725 59.7664 195.181 61.2848C196.325 62.4704 198.238 63.0736 199.632 61.9296C200.859 60.9728 201.067 59.3504 199.986 58.2688ZM11.8912 94.648C11.8912 94.6064 11.8912 94.5648 11.8704 94.544C11.912 94.544 11.912 94.5232 11.9536 94.5232C11.9328 94.5648 11.912 94.6064 11.8912 94.648ZM48.5408 172.461C48.5616 172.461 48.5616 172.461 48.5824 172.482C48.8736 172.71 49.144 172.939 49.4352 173.147C37.7456 168.28 25.6192 163.662 15.032 156.778C21.5008 157.173 27.4912 157.63 33.3152 160.646C38.016 165.014 43.112 168.987 48.5408 172.461ZM14.5536 157.214C25.8688 164.619 38.9936 169.382 51.4112 174.645C51.6608 174.832 51.9104 175.019 52.16 175.206C38.016 173.21 25.016 166.97 14.5536 157.214ZM53.1376 157.256C56.528 159.066 59.6272 161.312 62.1648 164.203C66.9072 169.632 69.424 176.517 71.608 183.298C71.4416 183.214 71.296 183.131 71.1296 183.069C71.1504 183.006 71.1504 182.944 71.1296 182.861C68.28 176.787 61.7696 172.44 56.9856 167.926C51.8688 163.101 46.9184 158.13 42.2592 152.867C42.3216 152.867 42.3632 152.826 42.4464 152.826C45.2752 152.68 50.8496 156.05 53.1376 157.256ZM47.3968 165.576C45.8576 163.891 38.4112 154.552 41.5936 153.034C45.8992 157.922 50.4544 162.581 55.1968 167.074C60.1264 171.774 67.1568 176.496 70.3184 182.653C64.7648 179.907 59.5024 176.6 54.7392 172.606C52.1184 170.422 49.664 168.072 47.3968 165.576ZM36.8304 161.125C35.9568 160.584 35.1248 160.002 34.2304 159.502C34.1056 159.44 33.9808 159.378 33.856 159.315C30.112 155.8 26.6176 152.035 23.3936 148.021C22.6448 144.963 22.3952 141.822 22.6032 138.702C26.2224 146.856 31.0272 154.406 36.8304 161.125ZM21.5216 136.165C21.0848 139.306 21.0848 142.509 21.584 145.67C20.44 144.173 19.3376 142.654 18.2976 141.094C16.2176 135.187 16.176 129.093 17.3616 123.144C18.4016 127.595 19.7952 131.942 21.5216 136.165ZM26.7424 57.6656C26.7216 57.7072 26.7216 57.7488 26.7216 57.8112C26.5344 58.144 26.3472 58.4768 26.16 58.8096C29.1344 46.496 31.776 33.7456 36.9344 22.2016C37.5792 28.6912 38.0576 34.6192 35.9776 40.88C32.3792 46.184 29.28 51.8 26.7424 57.6656ZM36.3936 21.7856C30.8608 34.1824 28.1984 47.8896 24.9328 61.0352C24.808 61.2848 24.6624 61.5552 24.5376 61.8048C24.3088 47.4944 28.4064 33.6832 36.3936 21.7856ZM44.8176 50.2192C43.3616 57.9568 41.1776 65.6528 35.5824 71.4768C31.0896 76.1568 25.328 79.3392 19.5664 82.272C19.608 82.1056 19.6704 81.9392 19.712 81.7728C19.7744 81.7728 19.8368 81.7936 19.8992 81.7312C25.0368 78.2576 28.0112 71.9552 31.4224 66.9216C35.6864 60.6192 40.1168 54.4624 44.9424 48.5968C44.984 49.0336 44.9424 49.5536 44.8176 50.2192ZM36.4144 51.904C37.7664 50.4896 39.2432 49.096 40.9904 48.16C43.0912 47.0368 44.3392 46.8704 44.7968 47.8064C41.032 52.3616 37.496 57.0832 34.1264 61.9296C29.9456 67.92 26.0144 76.552 20.0032 80.8784C22.1456 73.9936 25.1408 67.4208 29.0928 61.368C31.256 58.04 33.648 54.7744 36.4144 51.904ZM35.9568 44.5408C36.2688 43.8128 36.6224 43.1056 36.9136 42.3776C37.0592 42.0448 37.1424 41.712 37.2464 41.3792C40.1584 37.0528 43.3824 32.9552 46.8768 29.0864C49.7888 27.88 52.8672 27.1312 55.9872 26.84C48.4576 31.728 41.6976 37.6976 35.9568 44.5408ZM58.2752 25.384C55.1136 25.4464 51.952 25.9456 48.936 26.9024C50.2464 25.5504 51.5776 24.2192 52.9504 22.9296C58.4624 19.9344 64.4944 18.936 70.5472 19.1856C66.2832 20.9328 62.1856 23.0128 58.2752 25.384ZM180.205 110.664C183.096 104.944 187.568 100.264 192.123 95.792C192.123 95.9584 192.123 96.1456 192.144 96.312C192.082 96.3328 192.04 96.3328 191.978 96.3952C188.026 101.408 187.069 108.542 185.259 114.533C183.179 121.438 180.912 128.282 178.25 135C178.021 134.646 177.813 134.23 177.626 133.669C175.338 126.95 177.126 116.758 180.205 110.664ZM185.53 129.093C184.365 131.547 181.037 137.87 178.707 135.562C180.954 129.966 182.93 124.267 184.718 118.506C186.778 111.85 187.922 102.906 192.165 97.2272C192.186 104.237 191.374 111.205 189.523 118.006C188.483 121.771 187.194 125.557 185.53 129.093ZM187.838 136.83C187.755 137.558 187.651 138.286 187.589 139.014C187.547 139.41 187.568 139.763 187.568 140.138C186.091 145.109 184.261 149.997 182.077 154.698C179.664 156.736 176.939 158.379 174.027 159.586C179.706 152.784 184.365 145.13 187.838 136.83ZM162.421 171.296C165.936 168.363 169.222 165.16 172.238 161.728C175.275 160.73 178.166 159.253 180.766 157.422C179.934 159.107 179.061 160.771 178.125 162.414C173.757 166.949 168.307 169.715 162.421 171.296ZM188.92 140.304C190.73 134.147 192.019 127.824 192.685 121.438C192.768 121.043 192.851 120.648 192.934 120.253C193.808 132.858 195.098 145.795 193.662 158.317C191.125 152.451 188.712 146.835 188.92 140.304ZM194.245 158.525C195.805 145.088 194.224 131.256 193.392 117.798C193.454 117.486 193.496 117.154 193.538 116.842C198.051 130.424 198.301 144.776 194.245 158.525ZM134.632 17.4592C134.611 17.4592 134.611 17.4592 134.59 17.4592C134.237 17.3344 133.862 17.2096 133.509 17.0848C146.134 17.792 159.134 18.1248 171.406 21.0992C165.062 22.888 159.384 24.3856 152.853 23.512C146.966 20.9536 140.872 18.9152 134.632 17.4592ZM171.718 20.5376C158.573 17.3136 144.658 17.168 131.2 16.336C130.888 16.232 130.576 16.1696 130.243 16.0656C144.283 13.2576 158.594 14.7968 171.718 20.5376ZM136.754 33.5168C132.178 32.976 127.789 31.7488 123.795 29.3776C117.846 25.8416 113.354 20.3504 109.214 14.88C109.381 14.9008 109.568 14.9216 109.734 14.9424C109.734 15.0048 109.755 15.0672 109.797 15.1088C114.477 19.872 122.09 21.848 128.08 24.5104C134.653 27.4224 141.101 30.5424 147.382 34.0576C145.614 34.9728 138.522 33.7248 136.754 33.5168ZM147.902 33.6208C142.12 30.376 136.192 27.464 130.139 24.7392C123.92 21.9312 115.725 19.8512 110.691 15.0672C117.264 15.8576 123.691 17.376 129.869 19.8096C132.781 20.9328 151.168 29.5648 147.902 33.6208ZM149.525 24.3232C150.627 24.5728 151.709 24.7808 152.811 24.9888C157.512 27.048 162.067 29.44 166.414 32.1648C168.141 34.8272 169.41 37.7184 170.262 40.7344C164.21 34.3072 157.242 28.7536 149.525 24.3232ZM180.434 53.7136C177.938 49.8656 175.171 46.2048 172.155 42.7728C171.531 39.632 170.45 36.5952 168.952 33.7872C170.533 34.8272 172.093 35.9088 173.611 37.032C177.542 41.92 179.602 47.6816 180.434 53.7136Z" fill="#FCC889"/>
</g>
<defs>
<clipPath id="clip0_212_260">
<rect width="200.533" height="192.234" fill="white" transform="translate(0.159973 0.319946)"/>
</clipPath>
</defs>
</svg>
