<svg width="202" height="201" viewBox="0 0 202 201" fill="none" xmlns="http://www.w3.org/2000/svg">
<path d="M23.8774 165.497C19.9881 167.667 15.8253 171.048 12.0729 175.621C10.2162 177.908 8.45727 180.488 6.9524 183.4C6.20973 184.865 5.5257 186.409 4.97847 188.07L4.74394 188.813L4.43124 189.947C4.2358 190.709 4.099 191.471 3.98173 192.214C3.7863 193.699 3.66903 195.126 3.53223 196.67H3.57131C5.09573 196.807 6.48335 196.963 7.94913 197.041C8.6918 197.061 9.47355 197.041 10.2358 196.963C10.6266 196.924 11.0175 196.885 11.4084 196.826L11.9947 196.728L12.366 196.67C14.1445 196.318 15.8058 195.751 17.3693 195.106C20.4767 193.777 23.1347 192.038 25.48 190.181C30.1314 186.448 33.4343 182.207 35.6428 178.396C37.8512 174.566 38.9261 171.126 39.4343 168.781C39.9229 166.396 39.9229 165.067 39.9229 165.067C39.8838 164.989 38.3789 170.325 33.0043 176.54C30.3464 179.628 26.7503 182.93 22.3139 185.745C20.1054 187.132 17.682 188.422 15.1217 189.341C13.8514 189.79 12.5224 190.162 11.2325 190.377L11.0175 190.416V190.396C11.0175 190.396 11.0175 190.396 10.998 190.396H10.9784L11.0957 190.005C11.5061 188.676 11.9947 187.347 12.5615 186.077C13.695 183.497 15.0631 181.074 16.5093 178.846C19.4018 174.409 22.6461 170.755 25.734 168.155C28.822 165.536 31.8122 164.032 34.0206 163.367C36.2291 162.703 37.5971 162.742 37.5971 162.703C37.5971 162.742 36.3072 162.273 33.8447 162.37C31.3822 162.449 27.7666 163.289 23.8774 165.497Z" fill="#FCC889"/>
<path d="M39.6494 159.868C39.6494 163.015 44.5158 163.015 44.5158 159.868C44.5158 156.702 39.6494 156.702 39.6494 159.868Z" fill="#FCC889"/>
<path d="M28.6074 177.106C28.6074 172.689 21.7671 172.689 21.7671 177.106C21.7671 181.523 28.6074 181.523 28.6074 177.106Z" fill="#FCC889"/>
<path d="M56.3984 140.696C56.2029 140.735 55.9293 140.774 55.8511 140.794C55.5971 140.852 55.3625 140.911 55.128 140.989C54.659 141.126 54.1899 141.282 53.7404 141.458C52.8414 141.83 52.001 142.299 51.2779 142.885C50.5548 143.471 49.988 144.214 49.6557 144.937C48.9717 146.442 49.2062 147.673 49.3821 148.396C49.5971 149.139 49.7925 149.491 49.7925 149.51C49.7925 149.51 49.8512 149.08 50.0466 148.396C50.2225 147.712 50.6134 146.774 51.3951 146.129C52.1574 145.484 53.2909 145.093 54.7176 144.898C55.0694 144.839 55.4603 144.8 55.8511 144.781L56.4375 144.742C56.5938 144.722 56.5352 144.742 56.5547 144.742L56.5743 144.761C56.6133 144.82 56.5743 144.859 56.5547 144.859C56.5547 144.859 56.5938 144.82 56.6329 144.878C56.672 144.8 56.5743 145.152 56.5352 145.308L56.3593 145.895C56.242 146.286 56.1247 146.637 56.0075 146.97C55.5189 148.357 54.913 149.334 54.0726 149.999C53.2323 150.663 52.2355 150.957 51.5515 151.132C50.8479 151.289 50.4179 151.328 50.4179 151.347C50.4179 151.347 50.7697 151.562 51.5124 151.797C52.2355 152.031 53.3886 152.305 54.9326 151.953C55.6948 151.758 56.5156 151.367 57.2387 150.8C57.9814 150.214 58.6264 149.471 59.1736 148.67C59.4472 148.26 59.6817 147.83 59.9163 147.38C60.0335 147.165 60.1312 146.95 60.2485 146.716C60.3658 146.461 60.4049 146.364 60.6198 145.856C61.2452 144.175 61.8706 142.318 62.4765 140.442L62.5156 140.305C60.6394 140.364 58.8413 140.364 57.0629 140.598L56.3984 140.696Z" fill="#FCC889"/>
<path d="M41.0368 141.83C40.9586 141.986 40.8609 142.201 40.8218 142.26C40.7436 142.455 40.6655 142.651 40.5873 142.846C40.4505 143.237 40.3137 143.647 40.2355 144.058C40.0401 144.859 39.9619 145.699 40.0205 146.481C40.0791 147.282 40.3137 148.025 40.6459 148.631C41.3495 149.823 42.3267 150.292 42.9325 150.527C43.5579 150.761 43.9097 150.781 43.9097 150.781C43.9097 150.781 43.6361 150.527 43.2648 150.058C42.8935 149.589 42.4244 148.866 42.3658 148.006C42.2876 147.146 42.5808 146.188 43.1475 145.074C43.2843 144.8 43.4407 144.507 43.6166 144.234L43.8902 143.804C43.9488 143.686 43.9293 143.745 43.9488 143.725H43.9684C44.027 143.725 44.027 143.784 44.027 143.784C44.027 143.784 44.027 143.745 44.0856 143.725C44.0465 143.647 44.242 143.901 44.3397 143.999L44.6719 144.41C44.8674 144.683 45.0824 144.937 45.2583 145.191C45.9814 146.208 46.3723 147.126 46.4113 148.025C46.47 148.924 46.1768 149.784 45.9618 150.351C45.7273 150.918 45.5514 151.23 45.5514 151.23C45.5514 151.23 45.8837 151.094 46.4113 150.703C46.9195 150.312 47.7012 149.647 48.1898 148.377C48.4439 147.752 48.5612 146.989 48.5221 146.208C48.483 145.406 48.2876 144.585 47.9944 143.804C47.838 143.413 47.6622 143.022 47.4667 142.651C47.369 142.455 47.2713 142.279 47.1736 142.103C47.0367 141.888 47.0172 141.81 46.7436 141.419C45.8837 140.149 44.8869 138.82 43.8902 137.452L43.812 137.354C42.913 138.703 42.0335 139.934 41.3299 141.322L41.0368 141.83Z" fill="#FCC889"/>
<path d="M51.7469 154.514C51.3365 155.022 51.1802 155.334 51.1802 155.315C51.1802 155.315 51.4929 155.159 52.0792 154.924C52.646 154.709 53.4863 154.455 54.4049 154.514C55.3039 154.553 56.2029 154.944 57.1997 155.647C57.4537 155.823 57.7078 155.999 57.9619 156.214L58.3528 156.527C58.47 156.624 58.7046 156.781 58.6264 156.761C58.6264 156.82 58.5677 156.82 58.5677 156.82C58.5677 156.82 58.6264 156.82 58.6264 156.878V156.898C58.6068 156.917 58.6459 156.898 58.5482 156.957L58.0987 157.191C57.8055 157.367 57.5124 157.504 57.2388 157.641C56.1248 158.168 55.1476 158.442 54.3072 158.364C53.4473 158.305 52.7437 157.856 52.2942 157.484C51.8447 157.113 51.6101 156.859 51.6101 156.859C51.6101 156.859 51.6297 157.191 51.8251 157.797C52.0401 158.364 52.4505 159.302 53.6427 159.986C54.2095 160.318 54.9521 160.533 55.7339 160.611C56.5156 160.67 57.3365 160.592 58.1573 160.416C58.5677 160.338 58.9782 160.22 59.369 160.084C59.5645 160.025 59.7599 159.947 59.9554 159.869C60.014 159.849 60.2485 159.751 60.4049 159.673L60.913 159.439C62.3006 158.755 63.571 157.914 64.939 157.074L64.8413 156.996C63.5123 156.038 62.2224 155.08 60.9912 154.24C60.6199 153.986 60.5221 153.947 60.3267 153.83C60.1508 153.732 59.9749 153.634 59.7795 153.536C59.4081 153.341 59.0368 153.185 58.6459 153.028C57.8837 152.735 57.0629 152.54 56.2811 152.501C55.4798 152.461 54.7176 152.579 54.1118 152.813C52.8414 153.282 52.1574 154.025 51.7469 154.514Z" fill="#FCC889"/>
<path d="M17.1546 125.53L16.6465 126.038L16.2556 126.468C14.8484 128.032 13.6172 129.673 12.6204 131.335C10.5879 134.677 9.47388 138.116 9.14163 141.028C8.80939 143.96 9.21981 146.305 9.63023 147.81C10.0602 149.315 10.4706 150.077 10.4511 150.077C10.4706 150.077 10.4315 149.217 10.5879 147.712C10.7442 146.227 11.1546 144.116 12.1514 141.791C13.1286 139.465 14.7312 136.924 16.9201 134.442C18.0145 133.191 19.2263 131.96 20.5748 130.729C20.692 130.631 20.692 130.631 20.692 130.631H20.7116C20.7311 130.631 20.7507 130.631 20.7507 130.631C20.7702 130.631 20.7898 130.651 20.7898 130.67C20.8093 130.69 20.8093 130.729 20.7898 130.748C20.7898 130.748 20.8093 130.729 20.8288 130.729C20.8484 130.729 20.8484 130.729 20.8679 130.748C20.8875 130.69 20.9266 131.374 20.9657 131.765C21.0634 133.543 21.0047 135.263 20.7702 136.846C20.2816 140.012 18.9917 142.67 17.35 144.644C15.7084 146.637 13.8908 147.966 12.5813 148.807C11.2524 149.647 10.4511 150.077 10.4706 150.077C10.4706 150.058 11.3696 150.058 12.9527 149.745C14.5357 149.413 16.9005 148.807 19.4999 147.067C22.0797 145.367 24.7572 142.26 26.0666 138.194C26.7506 136.181 27.122 133.973 27.1806 131.706C27.2001 131.1 27.2001 130.748 27.1415 129.673C27.0829 128.657 26.9656 127.641 26.8093 126.664C26.6529 125.686 26.4379 124.709 26.2034 123.81L25.4021 121.211L24.8353 119.432C23.2914 120.527 21.8647 121.484 20.3793 122.618C19.6367 123.204 18.894 123.83 18.1904 124.494C17.8386 124.866 17.5064 125.198 17.1546 125.53Z" fill="#FCC889"/>
<path d="M18.4053 140.833C17.7408 137.764 12.9721 138.781 13.6366 141.849C14.3011 144.937 19.0502 143.921 18.4053 140.833Z" fill="#FCC889"/>
<path d="M9.74707 114.957C9.74707 118.103 14.633 118.103 14.633 114.957C14.633 111.81 9.74707 111.81 9.74707 114.957Z" fill="#FCC889"/>
<path d="M29.8188 107.061C29.8188 102.644 22.998 102.644 22.998 107.061C22.998 111.478 29.8188 111.478 29.8188 107.061Z" fill="#FCC889"/>
<path d="M20.9462 93.1264C20.9462 93.0873 17.0179 93.4195 15.1612 93.9668C12.171 95.0221 9.00492 96.4097 6.62058 98.4032C5.76065 99.2045 4.99844 100.064 4.37303 100.983C2.77044 103.309 2.02777 105.928 1.91051 108.292C1.79325 110.657 2.16458 112.807 2.8877 114.664C3.61082 116.501 4.74437 117.967 5.95609 118.983C8.4577 121.015 10.9984 121.211 12.5033 121.172C14.0472 121.094 14.8094 120.84 14.8094 120.859C14.8094 120.84 14.0081 121.015 12.4446 120.898C10.9398 120.761 8.51633 120.234 6.50331 118.103C4.4903 116.032 3.39584 112.299 4.11896 108.175C4.4903 106.143 5.38931 104.11 6.93328 102.41C7.18735 102.117 7.50005 101.843 7.81275 101.569C7.81275 101.589 13.0505 97.172 20.2622 97.6997C20.399 97.6997 25.4218 97.0938 28.8615 100.827C31.4413 103.602 37.5585 108.195 37.1871 124.631C36.8549 124.827 36.5422 125.041 36.21 125.276C35.9559 125.471 35.6823 125.686 35.4282 125.901C35.2328 126.097 35.0569 126.253 34.881 126.429C34.8614 125.98 34.8419 125.55 34.8028 125.1C34.5878 122.95 33.8842 121.094 32.9461 119.452C32.008 117.81 30.7963 116.403 29.3696 115.426C27.9625 114.41 26.2035 114.019 25.07 114.156C23.956 114.273 23.5065 114.605 23.5065 114.566C23.4869 114.586 24.1123 114.507 24.9527 114.761C25.7931 114.996 26.4185 115.758 27.2198 116.638C29.2133 118.787 30.5618 122.657 30.679 128.501L30.1904 135.048C30.1318 135.361 30.0732 135.673 30.0341 135.947C29.7409 138.488 29.1351 142.572 29.1351 142.553C29.1546 142.553 31.0895 138.488 32.5748 136.357C33.5911 134.931 34.9201 133.152 36.5227 131.315C35.9168 134.344 34.8419 137.256 33.4347 140.012C32.5357 141.751 31.9689 143.882 30.9527 145.66C35.6236 139.953 38.5357 133.758 40.021 127.68C40.3142 127.445 40.6269 127.211 40.9396 126.976C41.6627 126.468 42.4444 125.999 43.2066 125.589C44.7506 124.787 46.2555 124.26 47.5258 124.162C48.7962 124.025 49.9102 124.377 50.5747 124.768C51.2587 125.159 51.591 125.471 51.6105 125.452C51.591 125.452 51.6105 125.061 51.2587 124.397C50.9265 123.752 50.0079 122.696 48.034 122.266C46.0991 121.817 43.6171 122.051 41.2914 122.755C41.1545 122.814 41.0177 122.853 40.8809 122.892C40.9786 121.993 41.0764 121.074 41.1155 120.175C42.3076 97.6215 24.4055 93.1459 20.9462 93.1264Z" fill="#FCC889"/>
<path d="M10.4511 71.6086C12.1123 65.4328 12.8941 58.2211 12.0341 50.814C11.9364 49.9541 11.8387 49.0941 11.7019 48.2537C12.1123 48.8596 12.5032 49.524 12.855 50.2667C13.7931 52.2211 14.4771 54.625 14.8485 57.4003C15.552 62.9507 15.0048 69.9669 12.8159 77.5695C12.2882 79.4847 11.5846 81.3023 10.7833 83.4326C10.0211 85.5238 9.29801 87.7127 8.65306 90.058C8.12538 92.1101 7.5977 94.2208 7.4218 96.6638C9.3371 95.4326 11.3501 94.4163 13.4413 93.6736C13.5586 92.7942 13.6954 91.9342 13.8713 91.0743C14.3012 88.8853 14.8485 86.7356 15.4348 84.6444C16.0211 82.5923 16.6269 80.3447 17.0178 78.2731C18.5813 69.9083 18.3664 62.5012 16.9397 56.7358C16.2165 53.8433 15.1612 51.3808 13.9104 49.4655C13.1091 48.2342 12.2491 47.2374 11.4087 46.4557C10.3729 40.7684 8.73124 35.5502 7.48043 30.7816C6.67913 27.7913 6.03419 24.9575 5.66286 22.2604C5.27198 19.5634 5.15472 17.0422 5.27198 14.7165C5.46742 10.0846 6.46415 6.37125 7.24591 3.86964C8.0472 1.34849 8.63352 0 8.63352 0C8.65306 0 7.85177 1.25076 6.71822 3.67419C5.62377 6.09763 4.13844 9.75236 3.47395 14.5797C3.1417 16.9836 3.02444 19.6611 3.21988 22.5145C3.39577 25.3679 3.88437 28.3776 4.54886 31.4851C5.3697 35.433 6.44461 39.5176 7.32408 43.7586C7.28499 43.7391 7.22636 43.7195 7.16773 43.7C7.18728 43.7782 7.20682 43.8563 7.22636 43.9345C7.28499 43.9541 7.32408 43.9932 7.36317 44.0127C7.83222 46.358 8.24264 48.7619 8.51626 51.2244C9.29801 58.2211 8.80941 64.9246 7.53906 70.9246C6.28826 76.9441 4.50977 82.3186 3.47395 87.0092C2.39903 91.6997 2.10588 95.6085 2.14496 98.2664C2.18405 100.944 2.43812 102.39 2.41858 102.39C2.47721 102.429 2.18405 96.3902 5.1938 87.4782C6.60096 83.0222 8.80941 77.804 10.4511 71.6086Z" fill="#FCC889"/>
<path d="M20.3397 68.4816C20.8283 69.4393 21.1997 70.7292 21.2778 72.2731C21.356 73.8366 21.1801 75.6542 20.7697 77.6673C19.988 81.7324 18.229 86.5011 16.7437 92.501C16.7241 92.5401 16.7241 92.5987 16.7046 92.6573C17.3691 92.4815 18.0531 92.3447 18.7762 92.2469C18.7958 92.2469 18.7958 92.2469 18.8153 92.2274C18.874 92.2274 18.9326 92.2274 18.9717 92.2274C19.6362 92.1492 20.3202 92.0906 21.0238 92.0906C21.0433 92.0906 21.0629 92.0906 21.0824 92.1101C21.8251 86.6769 22.8218 81.8301 22.9586 77.7259C23.0368 75.5565 22.9391 73.6021 22.5482 71.9604C22.1769 70.3187 21.5124 68.9898 20.8283 68.0908C20.1248 67.1918 19.4212 66.6641 18.9521 66.3514C18.4831 66.0387 18.2095 65.9214 18.2095 65.9214C18.2095 65.9214 18.444 66.0973 18.874 66.4882C19.2844 66.8791 19.8511 67.524 20.3397 68.4816Z" fill="#FCC889"/>
<path d="M19.4801 108.996C20.4769 109.836 21.5518 110.442 22.6853 110.931C21.3172 110.208 20.3205 108.84 20.3205 106.827C20.3205 105.204 20.9655 104.012 21.9231 103.231C21.6104 102.762 21.3563 102.234 21.1609 101.608C20.9068 100.788 20.7896 99.869 20.7114 98.9114C18.4248 98.4814 15.4736 99.3804 15.4736 99.3804C16.1186 102.038 17.5648 107.393 19.4801 108.996Z" fill="#FCC889"/>
<path d="M8.49624 103.016C9.12165 104.071 10.0793 104.911 11.2324 105.381C11.8187 105.635 12.4246 105.752 13.05 105.81C13.6949 105.869 14.8871 105.85 16.0011 107.042L13.8513 99.4978C13.6754 99.5173 9.55161 101.335 8.26172 102.644C8.35944 102.781 8.41807 102.918 8.49624 103.016Z" fill="#FCC889"/>
<path d="M37.1673 82.7484C37.1673 82.768 37.1869 82.7289 37.1673 82.8461L37.1087 83.3543C37.0696 83.6865 37.0305 84.0188 36.9719 84.3315C36.7569 85.5823 36.4051 86.5595 35.8188 87.2044C35.252 87.8689 34.4117 88.1816 33.8058 88.3379C33.1999 88.4943 32.8286 88.5138 32.8481 88.5138C32.8481 88.5138 33.1608 88.7093 33.8058 88.9047C34.4312 89.0806 35.5061 89.3151 36.8351 88.7484C37.48 88.4747 38.125 87.9862 38.6527 87.3803C39.1803 86.7745 39.6299 86.0318 39.9621 85.2696C40.138 84.8787 40.2748 84.4683 40.4116 84.0578C40.4898 83.8624 40.5484 83.6474 40.5875 83.4324C40.607 83.3542 40.6461 83.1197 40.6852 82.9438L40.7829 82.3771C41.037 80.8136 41.0761 79.2501 41.1738 77.6084L41.0566 77.6475C39.4149 78.1556 37.7927 78.6442 36.3074 79.1524C35.8579 79.3087 35.7797 79.3673 35.5452 79.4455C35.3498 79.5237 35.1543 79.6214 34.9589 79.7191C34.568 79.895 34.1967 80.11 33.8253 80.325C33.1022 80.7745 32.4377 81.3412 31.9296 81.9666C31.4019 82.592 31.0501 83.2957 30.8547 83.9601C30.4833 85.2891 30.7374 86.3054 30.8938 86.9504C31.0892 87.5953 31.2651 87.908 31.2651 87.9275C31.2651 87.9275 31.3237 87.5562 31.4801 86.9504C31.6364 86.364 31.9296 85.5041 32.5159 84.781C33.1218 84.0578 34.0012 83.5693 35.2129 83.1588C35.5061 83.0611 35.8188 82.9634 36.1706 82.8657L36.6787 82.7289C36.8351 82.6898 37.1282 82.6116 37.0501 82.6507C37.0892 82.6898 37.0696 82.7289 37.0696 82.7289C37.0501 82.7289 37.0892 82.6898 37.1673 82.7484Z" fill="#FCC889"/>
<path d="M32.2032 94.2209C31.7928 93.8691 31.5974 93.6345 31.5974 93.6345C31.5974 93.6345 31.6169 93.9472 31.7928 94.4944C31.9883 95.0221 32.3596 95.8821 33.3954 96.527C33.9036 96.8397 34.5485 97.0547 35.2521 97.1329C35.9361 97.211 36.6592 97.1524 37.3824 96.9961C37.7342 96.9179 38.0859 96.8202 38.4377 96.7029C38.6136 96.6443 38.77 96.5856 38.9654 96.5075C39.024 96.4879 39.1999 96.4098 39.3563 96.3511L39.8058 96.1361C41.0175 95.5303 42.1315 94.7876 43.3041 94.045L43.226 93.9863C42.0533 93.0873 40.9198 92.2078 39.8449 91.4065C39.5126 91.172 39.4345 91.1329 39.2586 91.0156C39.1022 90.9179 38.9459 90.8398 38.77 90.7421C38.4573 90.5662 38.125 90.4098 37.7928 90.2535C37.1087 89.9798 36.4052 89.7844 35.7211 89.7257C35.0176 89.6671 34.3531 89.7648 33.8058 89.9798C32.7114 90.3902 32.1055 91.0352 31.7537 91.4847C31.4019 91.9342 31.2651 92.2273 31.2651 92.2273C31.2651 92.2273 31.5583 92.0906 32.0469 91.8951C32.5355 91.7192 33.2782 91.4847 34.0795 91.5629C34.8807 91.641 35.6625 91.9929 36.5224 92.6378C36.7374 92.7942 36.9719 92.97 37.1869 93.1655L37.5387 93.4586C37.6364 93.5368 37.8319 93.7127 37.7928 93.6931C37.7928 93.7322 37.7537 93.7518 37.7537 93.7518C37.7537 93.7518 37.7928 93.7518 37.7928 93.8105V93.83C37.7732 93.8495 37.8123 93.83 37.7146 93.8886L37.3237 94.1036C37.0697 94.2404 36.8156 94.3772 36.5811 94.4944C35.6039 94.9635 34.7635 95.198 34.0208 95.1003C33.2391 94.983 32.5941 94.5726 32.2032 94.2209Z" fill="#FCC889"/>
<path d="M26.594 75.1265C25.8318 76.2991 25.0696 77.3936 24.4442 78.5858L24.2097 79.0352C24.151 79.172 24.0533 79.3675 24.0338 79.4066C23.9556 79.5825 23.897 79.7584 23.8383 79.9147C23.7211 80.2665 23.6038 80.6183 23.5061 80.9701C23.3302 81.6737 23.252 82.3968 23.2911 83.0808C23.3302 83.7649 23.5061 84.4098 23.7797 84.9179C24.3465 85.9733 25.1478 86.3642 25.6364 86.5401C26.1641 86.7356 26.4377 86.7551 26.4377 86.7551C26.4377 86.7551 26.2227 86.5401 25.91 86.1297C25.5973 85.7192 25.226 85.0938 25.1869 84.3512C25.1282 83.6085 25.4018 82.7681 25.8904 81.7909C26.0077 81.5564 26.1445 81.3023 26.3009 81.0482L26.5354 80.6574C26.594 80.5597 26.5745 80.5988 26.594 80.5988H26.6136C26.6527 80.5988 26.6722 80.6378 26.6527 80.6378C26.6527 80.6378 26.6527 80.5988 26.7113 80.5988C26.6917 80.5401 26.8286 80.7356 26.9067 80.8333L27.1608 81.1851C27.3367 81.4196 27.493 81.6346 27.6298 81.8691C28.2162 82.7486 28.5289 83.5304 28.5484 84.3317C28.568 85.1134 28.3334 85.8561 28.1184 86.3447C27.9035 86.8333 27.7667 87.1264 27.7667 87.1264C27.7667 87.1264 28.0403 86.9896 28.4898 86.6574C28.9197 86.3056 29.5842 85.7193 30.0142 84.6444C30.2292 84.0971 30.3464 83.4326 30.3269 82.7486C30.3074 82.045 30.151 81.3414 29.9165 80.6574C29.7992 80.3252 29.6624 79.9929 29.5061 79.6607C29.4279 79.4848 29.3497 79.3284 29.252 79.1721C29.1543 78.9962 29.1347 78.918 28.9197 78.5858C28.2162 77.4913 27.4344 76.3382 26.6136 75.1656L26.594 75.1265Z" fill="#FCC889"/>
<path d="M30.2292 90.5464C30.2292 87.3999 25.3433 87.3999 25.3433 90.5464C25.3433 93.693 30.2292 93.693 30.2292 90.5464Z" fill="#FCC889"/>
<path d="M3.18036 177.243C3.5126 174.292 4.39207 170.852 6.26828 167.569C7.10867 166.064 8.16404 164.598 9.3953 163.211C10.3529 162.116 11.4279 161.061 12.62 160.064C13.2259 159.556 13.8513 159.067 14.5158 158.598C16.2943 157.328 18.1705 156.253 20.0467 155.393C21.9034 154.533 23.8382 153.927 25.7339 153.439C29.5059 152.481 33.0629 152.129 36.0336 152.246C39.0042 152.344 41.4081 152.95 42.9912 153.575C44.5938 154.181 45.3951 154.748 45.4146 154.729C45.3951 154.748 44.7892 153.966 43.3234 152.95C41.8772 151.914 39.5124 150.703 36.3267 149.999C33.1606 149.276 29.2518 149.041 24.9717 149.667C22.8415 149.979 20.5939 150.487 18.3464 151.367C16.0988 152.227 13.9099 153.419 11.8383 154.904C11.6624 155.022 11.5256 155.139 11.3692 155.276C10.1184 156.214 8.94579 157.23 7.89042 158.344C5.68197 160.65 3.94257 163.25 2.82857 165.908C1.05008 169.992 0.678744 174.038 0.91327 177.263C1.1478 180.507 1.92955 182.989 2.49632 184.65C3.10218 186.311 3.55169 187.171 3.53215 187.171C3.55169 187.171 3.37579 186.214 3.1999 184.494C3.02401 182.735 2.84811 180.214 3.18036 177.243Z" fill="#FCC889"/>
<path d="M10.314 153.966C9.59088 151.914 8.69187 149.901 7.73422 147.869C7.24562 146.852 6.75703 145.875 6.24889 144.918C5.99482 144.409 5.77983 144.019 5.5844 143.589C5.38896 143.178 5.21306 142.748 5.03717 142.318C4.39222 140.598 4.04043 138.82 3.88408 137.081C3.61047 133.621 4.2945 130.436 5.52576 128.071C6.73748 125.686 8.49643 124.201 9.8645 123.4C11.2326 122.599 12.1511 122.384 12.1316 122.364C12.1316 122.384 11.213 122.305 9.59088 122.735C7.98829 123.165 5.62348 124.318 3.63001 126.8C1.63654 129.243 0.170752 132.918 0.0144011 137.139C-0.0637743 139.23 0.170752 141.478 0.854786 143.706C1.03068 144.253 1.22612 144.82 1.4411 145.367C1.65608 145.914 1.9297 146.481 2.14468 146.931L3.55184 149.843C4.48994 151.817 5.4085 153.712 6.17071 155.53C6.44432 156.194 6.69839 156.839 6.93292 157.484C7.98829 156.39 9.14138 155.354 10.4117 154.416C10.4117 154.279 10.3726 154.123 10.314 153.966Z" fill="#FCC889"/>
<path d="M9.72786 164.344L10.0406 165.497C10.2555 166.26 10.3728 167.041 10.4314 167.804C10.5682 169.328 10.4314 170.794 10.1383 172.084C9.53243 174.703 8.24253 176.598 7.12853 177.712C6.01453 178.826 5.17415 179.237 5.19369 179.256C5.17415 179.237 6.09271 179.119 7.5585 178.279C9.00474 177.458 10.9982 175.719 12.2881 172.826C12.9331 171.4 13.4217 169.699 13.5585 167.823C13.6366 166.885 13.6171 165.908 13.4998 164.892C13.3826 163.914 13.2458 163.035 13.0894 162.038C13.0503 161.784 12.9917 161.491 12.9331 161.217C11.78 162.214 10.6855 163.25 9.72786 164.344Z" fill="#FCC889"/>
<path d="M76.4308 183.067L75.9226 183.595L75.5122 184.005C73.9683 185.451 72.3657 186.702 70.7044 187.758C67.4211 189.868 64.0009 191.061 61.1084 191.451C58.1964 191.862 55.8316 191.49 54.3267 191.1C52.8023 190.709 52.0401 190.298 52.0401 190.318C52.0401 190.298 52.9 190.318 54.3853 190.122C55.8707 189.927 57.9618 189.477 60.268 188.403C62.5742 187.367 65.0563 185.706 67.4992 183.458C68.7305 182.344 69.9422 181.093 71.1344 179.725C71.2321 179.608 71.2321 179.608 71.2126 179.608V179.588C71.2126 179.569 71.2126 179.569 71.2126 179.549C71.2126 179.53 71.193 179.51 71.1735 179.51C71.1539 179.491 71.1149 179.51 71.0953 179.51C71.0953 179.51 71.1149 179.491 71.1149 179.471C71.1149 179.451 71.1149 179.451 71.0953 179.432C71.1539 179.412 70.4699 179.373 70.079 179.354C68.3005 179.295 66.6002 179.393 65.0172 179.686C61.8706 180.233 59.2322 181.601 57.2974 183.282C55.343 184.963 54.0726 186.839 53.2322 188.148C52.4114 189.477 52.0205 190.298 52.001 190.298C52.0205 190.298 52.001 189.419 52.2746 187.797C52.5677 186.194 53.1345 183.81 54.8153 181.191C56.457 178.572 59.4863 175.836 63.5318 174.429C65.5253 173.725 67.7142 173.295 69.9813 173.178C70.5872 173.158 70.939 173.119 72.0139 173.158C73.0302 173.197 74.0464 173.295 75.0432 173.432C76.0204 173.569 76.9975 173.764 77.8966 173.979L80.5154 174.722L82.3135 175.23C81.2581 176.793 80.3395 178.259 79.2255 179.764C78.6588 180.526 78.0334 181.269 77.408 181.992C77.0953 182.383 76.763 182.735 76.4308 183.067Z" fill="#FCC889"/>
<path d="M61.1084 182.168C64.1964 182.755 63.2778 187.543 60.1899 186.957C57.102 186.37 58.0205 181.582 61.1084 182.168Z" fill="#FCC889"/>
<path d="M87.16 190.259C84.0329 190.337 83.9157 185.451 87.0622 185.373C90.1892 185.295 90.3065 190.181 87.16 190.259Z" fill="#FCC889"/>
<path d="M94.5866 169.992C98.984 169.895 99.1403 176.715 94.743 176.813C90.3456 176.911 90.1893 170.09 94.5866 169.992Z" fill="#FCC889"/>
<path d="M108.698 178.553C108.737 178.553 108.483 182.481 107.994 184.377C107.017 187.406 105.688 190.592 103.753 193.015C102.971 193.894 102.131 194.676 101.212 195.321C98.9256 196.982 96.3263 197.784 93.981 197.94C91.6162 198.096 89.4664 197.784 87.6097 197.1C85.7531 196.416 84.2677 195.321 83.2319 194.129C81.1407 191.666 80.9062 189.145 80.9062 187.64C80.9453 186.096 81.1994 185.334 81.1798 185.334C81.1994 185.334 81.043 186.136 81.1994 187.699C81.3557 189.184 81.942 191.608 84.1309 193.582C86.2417 195.556 89.9941 196.552 94.0983 195.751C96.1113 195.341 98.1243 194.403 99.7856 192.819C100.079 192.546 100.333 192.233 100.606 191.92C100.567 191.92 104.867 186.585 104.183 179.354C104.183 179.237 104.672 174.194 100.88 170.813C98.0461 168.292 93.3361 162.272 76.8997 163.015C76.7043 163.347 76.5088 163.68 76.2743 163.992C76.0789 164.266 75.8834 164.52 75.6489 164.794C75.473 164.989 75.2971 165.185 75.1408 165.36C75.5903 165.36 76.0202 165.38 76.4697 165.399C78.6196 165.575 80.4958 166.24 82.157 167.119C83.8182 168.018 85.2449 169.211 86.2612 170.618C87.297 171.986 87.7465 173.764 87.6097 174.878C87.512 176.012 87.1993 176.461 87.2384 176.461C87.2189 176.481 87.2775 175.855 87.0234 175.015C86.7694 174.175 85.9681 173.569 85.0886 172.768C82.8997 170.813 78.9909 169.562 73.1473 169.582L66.6197 170.227C66.3265 170.285 66.0138 170.344 65.7206 170.383C63.1995 170.735 59.1344 171.439 59.1344 171.439C59.1344 171.419 63.1604 169.386 65.232 167.842C66.6392 166.807 68.3786 165.419 70.1766 163.797C67.1864 164.481 64.2939 165.614 61.5578 167.08C59.8575 168.018 57.7272 168.624 55.9683 169.699C61.5773 164.891 67.6946 161.843 73.7336 160.24C73.9681 159.947 74.2027 159.615 74.4176 159.302C74.9258 158.559 75.3753 157.777 75.7466 156.996C76.5088 155.432 76.9974 153.908 77.0756 152.637C77.1733 151.347 76.802 150.253 76.3916 149.589C76.0007 148.904 75.6684 148.572 75.688 148.572C75.688 148.592 76.0789 148.572 76.7629 148.904C77.4274 149.217 78.4828 150.116 78.9714 152.09C79.4795 154.025 79.3036 156.507 78.6391 158.852C78.6 158.989 78.5414 159.126 78.5023 159.263C79.4013 159.145 80.3199 159.028 81.2189 158.97C103.733 157.289 108.619 175.093 108.698 178.553Z" fill="#FCC889"/>
<path d="M130.43 188.579C136.547 186.761 143.739 185.842 151.147 186.526C152.006 186.605 152.866 186.683 153.726 186.8C153.101 186.409 152.436 186.038 151.694 185.706C149.72 184.826 147.296 184.162 144.521 183.869C138.971 183.282 131.974 184.005 124.411 186.351C122.495 186.937 120.697 187.68 118.606 188.52C116.534 189.321 114.365 190.123 112.039 190.807C110.007 191.393 107.896 191.94 105.473 192.194C106.665 190.259 107.622 188.227 108.326 186.097C109.186 185.94 110.046 185.784 110.886 185.608C113.075 185.119 115.205 184.514 117.297 183.888C119.329 183.263 121.557 182.579 123.609 182.168C131.935 180.409 139.322 180.468 145.127 181.758C148.02 182.422 150.502 183.419 152.456 184.631C153.707 185.393 154.703 186.233 155.524 187.074C161.231 187.973 166.488 189.497 171.277 190.65C174.286 191.393 177.14 191.96 179.837 192.292C182.534 192.624 185.055 192.683 187.381 192.526C191.993 192.233 195.687 191.139 198.169 190.298C200.671 189.439 202 188.813 202 188.833C202 188.813 200.768 189.634 198.364 190.826C195.98 191.979 192.364 193.543 187.557 194.325C185.153 194.715 182.495 194.872 179.622 194.754C176.768 194.637 173.739 194.207 170.632 193.621C166.664 192.878 162.56 191.901 158.3 191.139C158.319 191.178 158.339 191.237 158.358 191.276C158.28 191.256 158.202 191.237 158.104 191.217C158.085 191.178 158.045 191.139 158.026 191.08C155.661 190.65 153.257 190.298 150.814 190.083C143.798 189.458 137.114 190.103 131.153 191.491C125.173 192.878 119.837 194.774 115.186 195.908C110.534 197.08 106.645 197.471 103.968 197.491C101.29 197.51 99.8439 197.276 99.8439 197.295C99.8049 197.237 105.844 197.393 114.678 194.188C119.134 192.683 124.293 190.357 130.43 188.579Z" fill="#FCC889"/>
<path d="M133.342 178.592C132.385 178.123 131.075 177.79 129.531 177.732C127.968 177.693 126.17 177.908 124.157 178.357C120.131 179.217 115.381 181.093 109.44 182.715C109.381 182.735 109.323 182.735 109.284 182.754C109.44 182.07 109.557 181.386 109.635 180.683C109.635 180.663 109.635 180.663 109.655 180.644C109.655 180.585 109.655 180.526 109.655 180.468C109.714 179.803 109.753 179.119 109.733 178.416C109.733 178.396 109.733 178.377 109.714 178.357C115.127 177.497 119.955 176.383 124.039 176.168C126.189 176.031 128.143 176.09 129.805 176.442C131.466 176.774 132.795 177.399 133.713 178.084C134.632 178.768 135.16 179.452 135.492 179.921C135.805 180.39 135.922 180.644 135.941 180.644C135.941 180.644 135.766 180.409 135.355 179.999C134.964 179.627 134.319 179.061 133.342 178.592Z" fill="#FCC889"/>
<path d="M92.8865 180.37C92.0266 179.393 91.3817 178.318 90.8931 177.204C91.6553 178.553 93.0429 179.53 95.0559 179.491C96.6585 179.452 97.8311 178.787 98.6129 177.81C99.0819 178.103 99.6292 178.357 100.255 178.514C101.075 178.748 101.994 178.865 102.952 178.904C103.421 181.191 102.6 184.181 102.6 184.181C99.9223 183.595 94.5282 182.266 92.8865 180.37Z" fill="#FCC889"/>
<path d="M99.1013 191.236C98.046 190.631 97.1665 189.693 96.6779 188.539C96.4238 187.973 96.2675 187.347 96.1893 186.722C96.1111 186.077 96.1111 184.885 94.8994 183.79L102.482 185.764C102.463 185.921 100.743 190.103 99.4531 191.412C99.3359 191.373 99.2186 191.315 99.1013 191.236Z" fill="#FCC889"/>
<path d="M118.724 162.097C118.704 162.097 118.743 162.077 118.626 162.097L118.118 162.155C117.786 162.214 117.453 162.253 117.141 162.312C115.89 162.546 114.932 162.937 114.287 163.543C113.642 164.129 113.349 164.97 113.212 165.575C113.076 166.181 113.036 166.553 113.036 166.553C113.036 166.553 112.841 166.24 112.626 165.615C112.431 164.989 112.196 163.914 112.724 162.585C112.978 161.94 113.447 161.276 114.033 160.729C114.62 160.181 115.343 159.712 116.124 159.38C116.515 159.204 116.906 159.048 117.317 158.911C117.512 158.852 117.727 158.774 117.942 158.735C118.02 158.716 118.255 158.657 118.431 158.618L118.997 158.501C120.561 158.227 122.105 158.149 123.746 158.012L123.707 158.149C123.238 159.81 122.789 161.452 122.32 162.937C122.183 163.387 122.124 163.484 122.046 163.699C121.968 163.895 121.89 164.09 121.792 164.305C121.616 164.696 121.421 165.067 121.186 165.439C120.756 166.181 120.229 166.865 119.603 167.393C118.997 167.921 118.294 168.312 117.649 168.507C116.32 168.898 115.304 168.683 114.659 168.527C114.014 168.351 113.701 168.175 113.701 168.175C113.701 168.175 114.072 168.116 114.659 167.94C115.264 167.764 116.105 167.452 116.808 166.846C117.512 166.22 117.981 165.341 118.352 164.11C118.45 163.797 118.548 163.484 118.626 163.152L118.743 162.644C118.782 162.487 118.861 162.194 118.821 162.273C118.782 162.214 118.743 162.253 118.743 162.253C118.724 162.194 118.763 162.155 118.724 162.097Z" fill="#FCC889"/>
<path d="M107.368 167.315C107.72 167.706 107.955 167.901 107.955 167.901C107.955 167.901 107.642 167.882 107.095 167.725C106.567 167.549 105.688 167.198 105.023 166.162C104.691 165.673 104.476 165.009 104.378 164.325C104.3 163.641 104.32 162.898 104.456 162.194C104.515 161.843 104.613 161.471 104.71 161.119C104.769 160.943 104.828 160.768 104.886 160.592C104.906 160.533 104.984 160.338 105.043 160.201L105.238 159.751C105.824 158.52 106.528 157.406 107.232 156.194L107.31 156.273C108.228 157.426 109.147 158.54 109.948 159.615C110.202 159.947 110.241 160.005 110.339 160.201C110.437 160.357 110.535 160.514 110.632 160.67C110.808 160.983 110.984 161.315 111.14 161.647C111.434 162.312 111.649 163.035 111.707 163.719C111.785 164.422 111.688 165.087 111.512 165.634C111.14 166.748 110.476 167.354 110.046 167.725C109.596 168.097 109.323 168.214 109.323 168.233C109.323 168.233 109.46 167.96 109.636 167.432C109.811 166.943 110.007 166.181 109.929 165.399C109.851 164.598 109.46 163.836 108.795 162.976C108.639 162.761 108.443 162.546 108.267 162.331L107.974 161.979C107.896 161.882 107.72 161.686 107.759 161.745C107.701 161.745 107.701 161.803 107.701 161.803C107.701 161.803 107.701 161.745 107.642 161.745H107.623C107.603 161.764 107.623 161.725 107.564 161.823L107.349 162.214C107.212 162.468 107.095 162.722 106.978 162.956C106.528 163.953 106.313 164.813 106.43 165.556C106.587 166.299 107.017 166.924 107.368 167.315Z" fill="#FCC889"/>
<path d="M126.56 172.494C125.407 173.276 124.333 174.058 123.16 174.722L122.73 174.957C122.593 175.015 122.417 175.113 122.359 175.132C122.202 175.211 122.026 175.269 121.85 175.347C121.499 175.484 121.166 175.602 120.795 175.68C120.111 175.875 119.388 175.973 118.684 175.953C118 175.934 117.336 175.777 116.828 175.504C115.772 174.957 115.362 174.155 115.166 173.667C114.951 173.139 114.932 172.865 114.932 172.865C114.932 172.865 115.147 173.08 115.557 173.374C115.968 173.667 116.613 174.038 117.355 174.058C118.098 174.097 118.938 173.803 119.896 173.295C120.131 173.159 120.385 173.022 120.619 172.865L120.991 172.631C121.069 172.572 121.049 172.592 121.049 172.572V172.553C121.049 172.514 121.01 172.494 121.01 172.514C121.01 172.514 121.049 172.514 121.049 172.455C121.108 172.475 120.912 172.338 120.795 172.26L120.443 172.005C120.209 171.83 119.974 171.693 119.759 171.536C118.86 170.97 118.078 170.676 117.277 170.676C116.495 170.657 115.753 170.931 115.264 171.146C114.776 171.36 114.502 171.517 114.502 171.517C114.502 171.517 114.619 171.243 114.951 170.794C115.284 170.344 115.85 169.68 116.945 169.211C117.473 168.976 118.137 168.839 118.841 168.839C119.525 168.839 120.248 168.976 120.932 169.211C121.264 169.328 121.596 169.445 121.929 169.602C122.085 169.68 122.261 169.758 122.417 169.817C122.593 169.914 122.671 169.953 123.004 170.149C124.098 170.833 125.29 171.595 126.482 172.377L126.56 172.494Z" fill="#FCC889"/>
<path d="M111.082 169.21C114.209 169.132 114.326 174.018 111.179 174.096C108.033 174.155 107.935 169.289 111.082 169.21Z" fill="#FCC889"/>
<path d="M25.0889 198.214C28.04 197.823 31.4406 196.865 34.6849 194.911C36.1702 194.031 37.6165 192.956 38.9845 191.686C40.0595 190.709 41.0757 189.595 42.0334 188.403C42.5415 187.797 43.0106 187.152 43.4796 186.487C44.7109 184.67 45.7467 182.793 46.548 180.878C47.3689 179.002 47.9356 177.067 48.3656 175.152C49.2255 171.36 49.4991 167.784 49.3232 164.813C49.1669 161.842 48.5024 159.458 47.8574 157.875C47.2125 156.292 46.6262 155.491 46.6457 155.471C46.6262 155.491 47.4079 156.077 48.4829 157.504C49.5578 158.93 50.8281 161.276 51.5903 164.442C52.3721 167.588 52.6848 171.497 52.1766 175.797C51.903 177.927 51.4535 180.194 50.6131 182.461C49.7923 184.709 48.6783 186.937 47.232 189.047C47.1148 189.204 46.9975 189.38 46.8803 189.536C45.9812 190.826 44.965 191.999 43.8901 193.093C41.623 195.341 39.0823 197.158 36.4634 198.35C32.4178 200.227 28.3918 200.676 25.1671 200.52C21.9228 200.363 19.4212 199.64 17.7599 199.093C16.0987 198.526 15.2192 198.096 15.2192 198.116C15.2192 198.116 16.1769 198.253 17.9163 198.409C19.6361 198.507 22.1378 198.604 25.0889 198.214Z" fill="#FCC889"/>
<path d="M48.1702 190.552C50.2418 191.237 52.2744 192.077 54.3265 193.015C55.3428 193.484 56.3395 193.953 57.3167 194.422C57.8248 194.676 58.2157 194.872 58.6457 195.067C59.0756 195.243 59.5056 195.419 59.9356 195.575C61.675 196.181 63.473 196.494 65.1929 196.592C68.6521 196.787 71.8182 196.025 74.1439 194.754C76.4892 193.484 77.955 191.686 78.7172 190.318C79.4794 188.93 79.6944 188.012 79.7139 188.031C79.6944 188.031 79.7726 188.95 79.3817 190.592C78.9908 192.214 77.8964 194.598 75.4534 196.65C73.0495 198.683 69.4143 200.246 65.2124 200.5C63.1212 200.618 60.8737 200.422 58.6457 199.797C58.0789 199.64 57.5317 199.464 56.9649 199.249C56.3981 199.034 55.8314 198.78 55.3819 198.565L52.4307 197.236C50.4373 196.337 48.522 195.458 46.6849 194.735C46.0204 194.461 45.3754 194.227 44.7305 194.012C45.8054 192.937 46.8021 191.745 47.7207 190.455C47.877 190.455 48.0334 190.513 48.1702 190.552Z" fill="#FCC889"/>
<path d="M37.8313 191.393L36.6782 191.1C35.8965 190.904 35.1343 190.807 34.372 190.767C32.8476 190.67 31.3818 190.846 30.0919 191.158C27.4926 191.803 25.6164 193.152 24.5415 194.285C23.447 195.438 23.0562 196.279 23.0366 196.259C23.0562 196.279 23.1539 195.341 23.9552 193.855C24.7565 192.39 26.4177 190.357 29.2906 188.989C30.7174 188.305 32.3981 187.777 34.2743 187.601C35.2124 187.504 36.2092 187.484 37.2254 187.582C38.2026 187.699 39.0821 187.797 40.0788 187.934C40.3329 187.973 40.6261 188.031 40.8997 188.07C39.9225 189.302 38.9062 190.396 37.8313 191.393Z" fill="#FCC889"/>
</svg>
