<svg width="203" height="205" viewBox="0 0 203 205" fill="none" xmlns="http://www.w3.org/2000/svg">
<path d="M167.525 180.694C169.716 184.623 173.132 188.848 177.732 192.619C180.042 194.494 182.648 196.271 185.589 197.791C187.07 198.542 188.63 199.233 190.308 199.805L191.058 200.042L192.203 200.358C192.973 200.555 193.743 200.713 194.493 200.812C195.994 201.009 197.435 201.128 198.995 201.266V201.227C199.133 199.687 199.291 198.285 199.37 196.804C199.39 196.054 199.37 195.264 199.291 194.494C199.251 194.099 199.212 193.705 199.153 193.31L199.054 192.717L198.995 192.342C198.639 190.546 198.067 188.848 197.415 187.288C196.073 184.149 194.316 181.444 192.46 179.095C188.689 174.396 184.405 171.06 180.555 168.829C176.685 166.598 173.23 165.512 170.841 164.998C168.433 164.505 167.09 164.505 167.11 164.505C167.051 164.544 172.401 166.045 178.679 171.514C181.779 174.199 185.135 177.851 187.978 182.333C189.38 184.564 190.683 187.012 191.611 189.598C192.065 190.901 192.44 192.224 192.657 193.547L192.697 193.764H192.677C192.677 193.764 192.677 193.764 192.677 193.784V193.803L192.282 193.685C190.94 193.27 189.597 192.777 188.314 192.204C185.708 191.059 183.279 189.677 181.029 188.216C176.547 185.294 172.875 182.017 170.249 178.878C167.604 175.758 166.083 172.738 165.432 170.487C164.761 168.236 164.78 166.854 164.761 166.874C164.8 166.874 164.346 168.177 164.425 170.665C164.445 173.113 165.294 176.745 167.525 180.694Z" fill="#FCC889"/>
<path d="M161.839 164.741C165.017 164.741 165.017 159.806 161.839 159.806C158.66 159.806 158.66 164.741 161.839 164.741Z" fill="#FCC889"/>
<path d="M179.232 175.916C174.79 175.916 174.79 182.826 179.232 182.826C183.674 182.826 183.694 175.916 179.232 175.916Z" fill="#FCC889"/>
<path d="M142.491 147.802C142.53 148 142.57 148.296 142.589 148.375C142.649 148.612 142.708 148.868 142.767 149.105C142.905 149.579 143.063 150.053 143.241 150.507C143.616 151.415 144.09 152.284 144.702 152.994C145.294 153.725 146.025 154.297 146.775 154.633C148.275 155.324 149.539 155.087 150.269 154.91C151.02 154.692 151.375 154.495 151.395 154.495C151.395 154.495 150.96 154.436 150.269 154.238C149.578 154.041 148.631 153.666 147.999 152.876C147.328 152.106 146.952 150.961 146.735 149.52C146.696 149.164 146.637 148.77 146.617 148.375L146.577 147.763C146.558 147.624 146.577 147.664 146.577 147.644L146.597 147.624C146.656 147.585 146.696 147.624 146.696 147.644C146.696 147.644 146.656 147.605 146.716 147.565C146.637 147.526 146.992 147.624 147.15 147.664L147.742 147.842C148.137 147.96 148.492 148.078 148.848 148.197C150.23 148.71 151.237 149.303 151.908 150.152C152.579 151 152.875 152.007 153.053 152.698C153.211 153.409 153.25 153.843 153.27 153.843C153.27 153.843 153.487 153.468 153.724 152.738C153.961 152.007 154.257 150.843 153.882 149.283C153.685 148.513 153.29 147.684 152.717 146.953C152.125 146.223 151.375 145.551 150.565 145.018C150.151 144.742 149.717 144.485 149.282 144.268C149.065 144.15 148.828 144.031 148.611 143.933C148.354 143.814 148.256 143.755 147.742 143.557C146.044 142.926 144.169 142.294 142.293 141.682L142.135 141.642C142.194 143.538 142.214 145.334 142.431 147.17L142.491 147.802Z" fill="#FCC889"/>
<path d="M143.636 163.34C143.794 163.419 144.011 163.517 144.07 163.537C144.267 163.636 144.465 163.715 144.682 163.774C145.077 163.912 145.492 164.05 145.886 164.129C146.696 164.327 147.545 164.406 148.334 164.347C149.124 164.287 149.894 164.07 150.506 163.715C151.73 163.004 152.184 162.017 152.401 161.405C152.638 160.773 152.658 160.418 152.658 160.418C152.658 160.418 152.402 160.694 151.928 161.069C151.454 161.444 150.723 161.918 149.855 161.997C148.986 162.076 148.019 161.78 146.893 161.208C146.617 161.069 146.34 160.911 146.044 160.734L145.61 160.457C145.511 160.398 145.551 160.418 145.531 160.398V160.378C145.531 160.319 145.59 160.319 145.59 160.319C145.59 160.319 145.551 160.319 145.551 160.26C145.491 160.299 145.728 160.102 145.827 160.003L146.242 159.668C146.518 159.47 146.775 159.253 147.031 159.095C148.058 158.365 148.986 157.97 149.894 157.93C150.802 157.871 151.651 158.147 152.244 158.384C152.816 158.621 153.132 158.799 153.132 158.799C153.132 158.799 152.994 158.463 152.599 157.93C152.204 157.417 151.533 156.627 150.269 156.134C149.657 155.877 148.868 155.758 148.078 155.798C147.268 155.837 146.439 156.035 145.649 156.351C145.255 156.509 144.86 156.686 144.485 156.884C144.307 156.983 144.11 157.081 143.932 157.2C143.715 157.318 143.636 157.358 143.241 157.634C141.958 158.503 140.615 159.51 139.233 160.517L139.134 160.595C140.477 161.484 141.74 162.392 143.122 163.103L143.636 163.34Z" fill="#FCC889"/>
<path d="M156.429 152.501C156.943 152.916 157.258 153.074 157.239 153.074C157.239 153.074 157.081 152.738 156.844 152.165C156.627 151.593 156.37 150.744 156.429 149.816C156.469 148.908 156.864 148 157.574 147.012C157.752 146.756 157.93 146.499 158.147 146.242L158.463 145.848C158.561 145.729 158.739 145.492 158.7 145.571C158.759 145.571 158.759 145.63 158.759 145.63C158.759 145.63 158.759 145.571 158.818 145.571H158.838C158.858 145.591 158.838 145.552 158.897 145.65L159.134 146.104C159.312 146.4 159.45 146.697 159.588 146.973C160.121 148.098 160.398 149.105 160.319 149.954C160.259 150.823 159.805 151.534 159.43 151.988C159.055 152.442 158.798 152.679 158.798 152.679C158.798 152.679 159.134 152.659 159.746 152.461C160.319 152.244 161.266 151.83 161.957 150.625C162.293 150.053 162.53 149.303 162.589 148.493C162.648 147.703 162.569 146.855 162.392 146.045C162.293 145.63 162.194 145.216 162.056 144.821C161.977 144.624 161.918 144.406 161.839 144.229C161.819 144.17 161.72 143.933 161.641 143.775L161.404 143.242C160.713 141.84 159.864 140.557 159.016 139.175L158.937 139.273C157.969 140.616 157.002 141.919 156.173 143.163C155.916 143.538 155.876 143.617 155.758 143.834C155.659 144.012 155.561 144.189 155.462 144.387C155.264 144.762 155.106 145.137 154.948 145.532C154.652 146.302 154.455 147.131 154.415 147.94C154.376 148.75 154.494 149.52 154.731 150.152C155.205 151.395 155.955 152.086 156.429 152.501Z" fill="#FCC889"/>
<path d="M127.19 187.485L127.723 187.999L128.157 188.413C129.737 189.835 131.395 191.079 133.093 192.085C136.449 194.139 139.924 195.264 142.866 195.6C145.827 195.935 148.196 195.521 149.717 195.106C151.237 194.672 152.007 194.237 152.007 194.257C152.007 194.237 151.138 194.277 149.638 194.119C148.137 193.961 146.005 193.546 143.655 192.54C141.306 191.533 138.739 189.934 136.232 187.722C134.969 186.617 133.725 185.393 132.481 184.03C132.382 183.912 132.382 183.912 132.382 183.912V183.892C132.382 183.872 132.382 183.853 132.382 183.853C132.382 183.833 132.402 183.813 132.422 183.813C132.441 183.793 132.481 183.793 132.501 183.813C132.501 183.813 132.481 183.813 132.481 183.774C132.481 183.754 132.481 183.754 132.481 183.734C132.422 183.714 133.113 183.675 133.508 183.655C135.304 183.557 137.022 183.616 138.621 183.853C141.819 184.346 144.504 185.649 146.498 187.327C148.512 188.986 149.835 190.842 150.704 192.145C151.553 193.487 151.987 194.297 151.987 194.277C151.967 194.277 151.967 193.369 151.651 191.75C151.335 190.151 150.704 187.762 148.947 185.136C147.229 182.53 144.11 179.845 139.983 178.502C137.95 177.831 135.719 177.456 133.448 177.377C132.817 177.357 132.481 177.357 131.395 177.417C130.368 177.476 129.342 177.594 128.335 177.752C127.348 177.91 126.361 178.127 125.472 178.364L122.846 179.174L121.05 179.746C122.155 181.306 123.103 182.747 124.268 184.248C124.86 184.998 125.492 185.748 126.163 186.459C126.519 186.794 126.854 187.15 127.19 187.485Z" fill="#FCC889"/>
<path d="M142.649 186.222C139.529 186.893 140.576 191.711 143.675 191.039C146.775 190.388 145.748 185.571 142.649 186.222Z" fill="#FCC889"/>
<path d="M116.529 194.968C119.707 194.968 119.707 190.032 116.529 190.032C113.35 190.052 113.35 194.968 116.529 194.968Z" fill="#FCC889"/>
<path d="M108.553 174.672C104.11 174.672 104.11 181.582 108.553 181.582C112.995 181.582 112.995 174.672 108.553 174.672Z" fill="#FCC889"/>
<path d="M94.4956 183.655C94.4561 183.655 94.7917 187.624 95.3445 189.499C96.3909 192.52 97.8123 195.718 99.8261 198.127C100.636 198.996 101.504 199.766 102.452 200.397C104.782 202.016 107.447 202.767 109.816 202.885C112.205 203.003 114.377 202.628 116.232 201.898C118.088 201.167 119.569 200.022 120.576 198.798C122.629 196.271 122.827 193.705 122.787 192.184C122.708 190.625 122.451 189.855 122.471 189.855C122.451 189.855 122.629 190.664 122.511 192.244C122.373 193.764 121.839 196.212 119.687 198.245C117.595 200.279 113.824 201.385 109.678 200.654C107.644 200.279 105.571 199.371 103.854 197.811C103.558 197.535 103.281 197.239 103.005 196.923C103.044 196.923 98.5823 191.612 99.1154 184.327C99.1154 184.188 98.5034 179.115 102.255 175.62C105.058 173.014 109.678 166.815 126.282 167.21C126.499 167.545 126.696 167.881 126.933 168.197C127.131 168.453 127.348 168.73 127.565 168.986C127.762 169.184 127.92 169.362 128.098 169.539C127.644 169.559 127.19 169.579 126.755 169.618C124.603 169.835 122.728 170.546 121.05 171.494C119.391 172.441 117.97 173.666 116.983 175.107C115.976 176.528 115.561 178.325 115.719 179.45C115.838 180.576 116.153 181.03 116.134 181.049C116.153 181.069 116.094 180.437 116.311 179.588C116.548 178.739 117.338 178.108 118.207 177.278C120.378 175.265 124.288 173.902 130.191 173.784L136.785 174.278C137.081 174.337 137.397 174.396 137.693 174.435C140.26 174.732 144.366 175.344 144.366 175.363C144.366 175.344 140.26 173.389 138.127 171.869C136.686 170.842 134.889 169.5 133.034 167.901C136.074 168.513 139.016 169.599 141.819 171.02C143.557 171.928 145.728 172.501 147.505 173.527C141.74 168.809 135.502 165.867 129.362 164.367C129.125 164.07 128.888 163.755 128.651 163.439C128.137 162.708 127.664 161.919 127.269 161.149C126.459 159.589 125.926 158.069 125.808 156.766C125.67 155.482 126.025 154.357 126.42 153.666C126.795 152.975 127.111 152.639 127.111 152.62C127.111 152.639 126.716 152.62 126.045 152.975C125.393 153.311 124.327 154.239 123.873 156.233C123.419 158.187 123.656 160.694 124.386 163.044C124.426 163.182 124.485 163.32 124.524 163.458C123.616 163.36 122.688 163.261 121.78 163.222C99.0364 162.057 94.5153 180.141 94.4956 183.655Z" fill="#FCC889"/>
<path d="M72.7784 194.257C66.5594 192.559 59.2743 191.789 51.8115 192.638C50.923 192.737 50.0741 192.836 49.2252 192.974C49.8372 192.559 50.4887 192.165 51.2587 191.809C53.233 190.862 55.6613 190.171 58.4648 189.795C64.052 189.085 71.1397 189.637 78.8197 191.849C80.7545 192.401 82.5906 193.093 84.7228 193.902C86.8353 194.672 89.0465 195.422 91.3959 196.074C93.4689 196.626 95.6011 197.14 98.0493 197.317C96.8055 195.383 95.7788 193.349 95.0286 191.237C94.1599 191.118 93.2715 190.98 92.4225 190.802C90.1916 190.368 88.0199 189.815 85.9272 189.223C83.8542 188.631 81.5837 188.019 79.491 187.624C71.041 186.025 63.5782 186.242 57.754 187.703C54.8518 188.433 52.3642 189.499 50.4294 190.763C49.1856 191.572 48.1985 192.441 47.389 193.29C41.6438 194.336 36.3725 195.995 31.5553 197.278C28.5346 198.087 25.6521 198.739 22.9473 199.114C20.2228 199.509 17.676 199.627 15.3464 199.529C10.6673 199.331 6.91612 198.324 4.38903 197.515C1.8422 196.705 0.47998 196.113 0.47998 196.113C0.47998 196.093 1.74347 196.903 4.19159 198.048C6.63971 199.154 10.3119 200.654 15.1884 201.325C17.6168 201.661 20.3216 201.779 23.2238 201.582C26.1062 201.404 29.1466 200.911 32.266 200.239C36.254 199.41 40.3803 198.324 44.6645 197.436C44.6448 197.475 44.625 197.535 44.6053 197.594C44.6842 197.574 44.783 197.554 44.8619 197.515C44.8817 197.475 44.9014 197.436 44.9409 197.377C47.3101 196.903 49.7384 196.488 52.2063 196.212C59.2742 195.402 66.0461 195.916 72.0874 197.199C78.1484 198.463 83.5975 200.259 88.3358 201.306C93.0543 202.391 97.0029 202.688 99.688 202.648C102.393 202.609 103.854 202.352 103.854 202.372C103.893 202.312 97.7926 202.609 88.8096 199.548C84.2885 198.147 79.0172 195.935 72.7784 194.257Z" fill="#FCC889"/>
<path d="M69.5997 184.248C70.5671 183.754 71.8702 183.379 73.4496 183.3C75.0291 183.221 76.8454 183.399 78.8789 183.813C82.9854 184.603 87.8027 186.38 93.844 187.88C93.8835 187.9 93.9427 187.9 94.002 187.92C93.8243 187.249 93.7058 186.538 93.5874 185.827C93.5874 185.807 93.5874 185.807 93.5676 185.788C93.5676 185.728 93.5676 185.669 93.5676 185.63C93.4887 184.958 93.4492 184.267 93.4492 183.557C93.4492 183.537 93.4492 183.517 93.4492 183.497C87.9804 182.747 83.0644 181.74 78.9381 181.602C76.7664 181.523 74.7921 181.622 73.114 182.017C71.4556 182.392 70.1131 183.063 69.2049 183.754C68.277 184.465 67.7637 185.175 67.4478 185.649C67.1516 186.123 67.0134 186.4 67.0134 186.4C67.0134 186.4 67.1911 186.163 67.6058 185.728C68.0006 185.333 68.6323 184.761 69.5997 184.248Z" fill="#FCC889"/>
<path d="M110.507 185.136C111.356 184.129 111.988 183.043 112.462 181.898C111.731 183.28 110.349 184.287 108.316 184.287C106.677 184.287 105.473 183.636 104.683 182.668C104.229 182.984 103.676 183.241 103.044 183.418C102.215 183.675 101.287 183.813 100.34 183.872C99.9052 186.182 100.813 189.183 100.813 189.183C103.479 188.532 108.888 187.091 110.507 185.136Z" fill="#FCC889"/>
<path d="M104.485 196.232C105.532 195.6 106.4 194.613 106.874 193.468C107.131 192.875 107.249 192.263 107.309 191.632C107.388 190.98 107.368 189.776 108.552 188.65L100.932 190.822C100.951 191 102.788 195.166 104.11 196.469C104.248 196.39 104.367 196.311 104.485 196.232Z" fill="#FCC889"/>
<path d="M84.012 167.249C84.0317 167.249 83.9922 167.229 84.1107 167.249L84.6437 167.308C84.9793 167.348 85.315 167.387 85.6309 167.446C86.8944 167.664 87.8815 168.019 88.5331 168.611C89.2043 169.184 89.5202 170.033 89.6782 170.645C89.8361 171.257 89.8559 171.632 89.8559 171.612C89.8559 171.612 90.0533 171.296 90.2507 170.645C90.4284 170.013 90.6653 168.907 90.0928 167.585C89.8164 166.933 89.3425 166.282 88.7305 165.749C88.1185 165.196 87.3682 164.761 86.5785 164.426C86.1837 164.248 85.7888 164.11 85.3545 163.972C85.1571 163.893 84.9399 163.833 84.7227 163.794C84.6437 163.774 84.4068 163.735 84.2291 163.695L83.6369 163.597C82.0772 163.34 80.4978 163.3 78.8394 163.202L78.8788 163.32C79.3921 164.998 79.8857 166.617 80.399 168.137C80.5569 168.591 80.5964 168.67 80.6951 168.888C80.7741 169.085 80.8728 169.282 80.9716 169.48C81.1492 169.875 81.3664 170.25 81.6033 170.625C82.0574 171.355 82.63 172.027 83.2617 172.54C83.8935 173.073 84.624 173.428 85.2755 173.626C86.618 174.001 87.6446 173.744 88.2962 173.586C88.9477 173.389 89.2636 173.211 89.2636 173.211C89.2636 173.211 88.8885 173.152 88.2764 172.994C87.6644 172.836 86.7957 172.54 86.085 171.948C85.3545 171.336 84.8609 170.447 84.4463 169.223C84.3476 168.927 84.2489 168.611 84.1699 168.256L84.0317 167.743C83.9922 167.585 83.9133 167.288 83.9528 167.367C83.9922 167.328 84.0317 167.348 84.0317 167.348C84.0317 167.348 83.9922 167.308 84.0317 167.249H84.012Z" fill="#FCC889"/>
<path d="M95.6012 172.283C95.2458 172.678 95.0089 172.896 95.0089 172.896C95.0089 172.896 95.305 172.876 95.8776 172.698C96.4106 172.52 97.2793 172.126 97.9309 171.079C98.2467 170.566 98.4639 169.914 98.5429 169.204C98.6219 168.513 98.5626 167.782 98.4047 167.052C98.3257 166.696 98.227 166.321 98.1085 165.966C98.0493 165.788 97.9901 165.63 97.9309 165.433C97.9111 165.373 97.8124 165.176 97.7532 165.038L97.536 164.584C96.924 163.36 96.1935 162.234 95.4432 161.03L95.384 161.129C94.4561 162.313 93.5677 163.458 92.778 164.564C92.5411 164.9 92.5016 164.979 92.3831 165.137C92.2844 165.295 92.2055 165.452 92.1067 165.63C91.9291 165.946 91.7711 166.282 91.6329 166.617C91.3367 167.308 91.1393 168.019 91.0998 168.73C91.0406 169.441 91.1393 170.112 91.3367 170.665C91.7513 171.77 92.4028 172.382 92.8569 172.738C93.311 173.093 93.5875 173.231 93.5875 173.231C93.5875 173.231 93.4492 172.935 93.2518 172.441C93.0544 171.948 92.8372 171.198 92.9161 170.388C92.9754 169.579 93.3505 168.789 94.002 167.92C94.16 167.703 94.3376 167.466 94.5351 167.229L94.8312 166.874C94.9299 166.775 95.0879 166.558 95.0682 166.617C95.1077 166.617 95.1274 166.657 95.1274 166.657C95.1274 166.657 95.1274 166.617 95.1866 166.617H95.2063C95.2261 166.637 95.2063 166.598 95.2656 166.696L95.4828 167.091C95.621 167.348 95.7591 167.604 95.8776 167.841C96.3514 168.828 96.5686 169.697 96.4896 170.447C96.3711 171.237 95.9368 171.869 95.6012 172.283Z" fill="#FCC889"/>
<path d="M76.332 177.93C77.5166 178.7 78.6025 179.47 79.8068 180.102L80.2609 180.339C80.3991 180.398 80.5965 180.497 80.6557 180.516C80.8334 180.595 81.0111 180.655 81.1691 180.734C81.5244 180.852 81.8798 180.97 82.2352 181.069C82.9459 181.247 83.6764 181.326 84.3674 181.286C85.0584 181.247 85.7099 181.069 86.243 180.793C87.2894 180.22 87.6842 179.411 87.8816 178.917C88.0593 178.384 88.079 178.108 88.0988 178.108C88.0988 178.108 87.8816 178.325 87.4867 178.641C87.0721 178.957 86.4404 179.332 85.6704 179.371C84.9202 179.43 84.0712 179.154 83.1038 178.661C82.8669 178.542 82.6103 178.404 82.3536 178.246L81.9785 178.009C81.8798 177.95 81.9193 177.969 81.9193 177.95V177.93C81.9193 177.891 81.9588 177.871 81.9588 177.891C81.9588 177.891 81.9193 177.891 81.9193 177.831C81.8601 177.851 82.0574 177.713 82.1759 177.614L82.5313 177.357C82.7682 177.18 82.9854 177.022 83.2026 176.884C84.091 176.291 84.8807 175.976 85.6902 175.956C86.4799 175.916 87.2301 176.173 87.7237 176.37C88.2173 176.588 88.5134 176.726 88.5134 176.726C88.5134 176.726 88.3949 176.449 88.0395 175.995C87.6842 175.561 87.1116 174.89 86.006 174.455C85.473 174.238 84.782 174.12 84.091 174.12C83.4 174.139 82.6695 174.297 81.9982 174.534C81.6626 174.653 81.327 174.791 80.9914 174.949C80.8137 175.028 80.6557 175.107 80.5175 175.206C80.3398 175.304 80.2609 175.324 79.9252 175.541C78.8196 176.252 77.6548 177.061 76.4702 177.871L76.332 177.93Z" fill="#FCC889"/>
<path d="M91.8897 174.278C88.7308 174.278 88.7308 179.213 91.8897 179.213C95.0683 179.194 95.0683 174.278 91.8897 174.278Z" fill="#FCC889"/>
<path d="M179.37 201.602C176.389 201.266 172.934 200.377 169.598 198.482C168.077 197.633 166.597 196.567 165.195 195.323C164.089 194.356 163.023 193.25 162.036 192.066C161.523 191.454 161.009 190.822 160.536 190.151C159.252 188.354 158.166 186.459 157.298 184.563C156.429 182.688 155.817 180.733 155.323 178.818C154.356 175.008 154.001 171.415 154.119 168.394C154.238 165.373 154.83 162.965 155.462 161.346C156.074 159.727 156.646 158.917 156.627 158.898C156.646 158.917 155.876 159.529 154.83 161.01C153.784 162.471 152.559 164.88 151.849 168.098C151.138 171.296 150.901 175.265 151.513 179.569C151.829 181.72 152.342 184.011 153.231 186.261C154.099 188.532 155.304 190.743 156.804 192.836C156.923 193.013 157.041 193.152 157.179 193.31C158.127 194.593 159.154 195.758 160.279 196.824C162.609 199.055 165.234 200.812 167.919 201.957C172.046 203.754 176.113 204.129 179.37 203.892C182.648 203.655 185.155 202.865 186.833 202.273C188.511 201.661 189.38 201.207 189.38 201.226C189.38 201.226 188.413 201.384 186.675 201.582C184.898 201.779 182.371 201.957 179.37 201.602Z" fill="#FCC889"/>
<path d="M155.896 194.395C153.823 195.126 151.77 196.034 149.736 197.001C148.71 197.495 147.722 197.989 146.755 198.502C146.242 198.759 145.847 198.976 145.413 199.173C144.998 199.371 144.564 199.548 144.129 199.706C142.392 200.358 140.595 200.713 138.858 200.851C135.363 201.128 132.145 200.437 129.776 199.193C127.368 197.969 125.847 196.192 125.058 194.81C124.248 193.428 124.031 192.5 124.011 192.52C124.031 192.52 123.972 193.448 124.406 195.106C124.84 196.725 125.986 199.134 128.513 201.128C130.98 203.142 134.672 204.622 138.937 204.78C141.049 204.859 143.3 204.622 145.551 203.931C146.104 203.754 146.656 203.556 147.229 203.339C147.782 203.122 148.354 202.845 148.808 202.628L151.75 201.207C153.724 200.259 155.639 199.331 157.475 198.561C158.147 198.285 158.798 198.028 159.45 197.791C158.344 196.725 157.298 195.56 156.35 194.277C156.192 194.297 156.034 194.356 155.896 194.395Z" fill="#FCC889"/>
<path d="M166.359 194.988L167.524 194.672C168.314 194.455 169.084 194.337 169.854 194.277C171.394 194.139 172.875 194.277 174.178 194.573C176.823 195.166 178.738 196.488 179.844 197.614C180.969 198.739 181.384 199.608 181.404 199.568C181.384 199.588 181.265 198.66 180.416 197.16C179.587 195.699 177.85 193.685 174.928 192.362C173.487 191.711 171.769 191.217 169.854 191.079C168.906 191 167.919 191.02 166.893 191.138C165.905 191.257 165.017 191.395 164.01 191.553C163.753 191.592 163.457 191.651 163.181 191.691C164.188 192.935 165.254 194.021 166.359 194.988Z" fill="#FCC889"/>
<path d="M185.274 127.566L185.787 128.079L186.201 128.494C187.662 130.053 188.926 131.672 189.972 133.35C192.085 136.667 193.309 140.122 193.684 143.064C194.099 146.025 193.724 148.394 193.329 149.934C192.934 151.474 192.519 152.244 192.539 152.244C192.519 152.244 192.539 151.376 192.342 149.855C192.144 148.355 191.69 146.242 190.624 143.913C189.578 141.583 187.899 139.056 185.649 136.588C184.543 135.344 183.26 134.12 181.878 132.936C181.759 132.817 181.759 132.837 181.759 132.837H181.74C181.72 132.837 181.72 132.837 181.7 132.837C181.68 132.837 181.661 132.857 181.661 132.877C181.641 132.916 181.661 132.936 181.661 132.955C181.661 132.955 181.641 132.936 181.621 132.936C181.601 132.936 181.601 132.936 181.582 132.955C181.562 132.876 181.522 133.587 181.503 133.982C181.443 135.779 181.542 137.516 181.838 139.096C182.391 142.294 183.773 144.939 185.471 146.914C187.169 148.888 189.064 150.171 190.387 151.02C191.73 151.849 192.559 152.244 192.539 152.264C192.539 152.244 191.651 152.264 190.012 151.988C188.413 151.691 186.004 151.119 183.339 149.421C180.693 147.763 177.929 144.702 176.508 140.616C175.797 138.602 175.363 136.391 175.244 134.101C175.224 133.489 175.185 133.133 175.224 132.047C175.264 131.021 175.363 129.994 175.501 128.987C175.639 127.98 175.836 127.013 176.054 126.105L176.804 123.459L177.317 121.643C178.897 122.709 180.377 123.637 181.898 124.762C182.648 125.335 183.418 125.967 184.148 126.598C184.543 126.894 184.918 127.21 185.274 127.566Z" fill="#FCC889"/>
<path d="M184.345 143.044C184.938 139.925 189.775 140.853 189.182 143.972C188.59 147.091 183.753 146.163 184.345 143.044Z" fill="#FCC889"/>
<path d="M192.499 116.687C192.578 119.866 187.643 119.984 187.583 116.806C187.504 113.627 192.44 113.509 192.499 116.687Z" fill="#FCC889"/>
<path d="M172.066 109.185C171.967 104.743 178.857 104.585 178.956 109.027C179.035 113.489 172.164 113.627 172.066 109.185Z" fill="#FCC889"/>
<path d="M180.693 94.911C180.693 94.8715 184.661 95.1084 186.557 95.6217C189.597 96.6089 192.815 97.9514 195.263 99.9059C196.152 100.696 196.941 101.545 197.593 102.473C199.271 104.782 200.081 107.408 200.238 109.797C200.396 112.186 200.081 114.358 199.39 116.233C198.699 118.109 197.593 119.629 196.389 120.675C193.901 122.788 191.354 123.025 189.834 123.025C188.255 122.985 187.504 122.729 187.504 122.748C187.504 122.729 188.314 122.887 189.893 122.729C191.394 122.551 193.842 121.978 195.816 119.767C197.81 117.635 198.817 113.825 198.007 109.698C197.593 107.665 196.645 105.612 195.046 103.933C194.77 103.637 194.454 103.361 194.138 103.104C194.138 103.124 188.748 98.7806 181.463 99.4913C181.344 99.4913 176.251 98.9977 172.855 102.848C170.308 105.71 164.227 110.468 164.997 127.072C165.333 127.27 165.649 127.487 165.985 127.704C166.261 127.901 166.518 128.099 166.774 128.336C166.972 128.513 167.169 128.671 167.347 128.849C167.347 128.395 167.367 127.961 167.386 127.506C167.564 125.335 168.235 123.439 169.124 121.742C170.032 120.063 171.216 118.602 172.638 117.596C174.02 116.549 175.816 116.095 176.942 116.214C178.067 116.332 178.521 116.628 178.541 116.608C178.561 116.628 177.929 116.569 177.1 116.826C176.251 117.062 175.639 117.872 174.829 118.76C172.855 120.972 171.611 124.92 171.611 130.843L172.243 137.437C172.302 137.733 172.361 138.049 172.401 138.345C172.756 140.912 173.467 145.018 173.467 144.999C173.447 144.999 171.394 140.932 169.854 138.819C168.808 137.398 167.406 135.641 165.767 133.824C166.458 136.845 167.603 139.767 169.084 142.531C170.032 144.268 170.644 146.4 171.71 148.177C166.853 142.531 163.773 136.332 162.154 130.231C161.858 129.994 161.523 129.757 161.207 129.54C160.457 129.046 159.667 128.592 158.877 128.197C157.298 127.428 155.758 126.934 154.474 126.855C153.171 126.756 152.086 127.131 151.395 127.546C150.704 127.941 150.388 128.257 150.368 128.257C150.388 128.257 150.368 127.862 150.704 127.191C151.019 126.519 151.928 125.453 153.922 124.96C155.876 124.466 158.384 124.644 160.753 125.315C160.891 125.354 161.029 125.394 161.167 125.453C161.049 124.545 160.93 123.617 160.871 122.729C159.232 99.9454 177.199 95.0097 180.693 94.911Z" fill="#FCC889"/>
<path d="M190.801 72.9371C188.965 66.7379 188.037 59.4725 188.728 51.9702C188.807 51.1015 188.906 50.2328 189.005 49.3839C188.61 50.0157 188.235 50.6672 187.899 51.4372C187.011 53.4312 186.359 55.8793 186.043 58.7025C185.451 64.3095 186.181 71.3972 188.551 79.0377C189.143 80.9527 189.893 82.7888 190.742 84.9013C191.552 86.9941 192.361 89.1856 193.052 91.535C193.644 93.5882 194.197 95.7204 194.454 98.1685C192.499 96.9642 190.446 95.9968 188.314 95.2861C188.175 94.4174 187.998 93.5487 187.82 92.68C187.327 90.4688 186.734 88.2971 186.083 86.2044C185.451 84.1511 184.76 81.9004 184.345 79.8077C182.568 71.3972 182.628 63.9147 183.931 58.0511C184.602 55.1291 185.609 52.602 186.833 50.6475C187.603 49.3839 188.452 48.377 189.301 47.5478C190.209 41.7829 191.749 36.4523 192.914 31.6153C193.664 28.5749 194.237 25.6924 194.572 22.9679C194.908 20.2434 194.967 17.6966 194.809 15.3472C194.513 10.6681 193.407 6.95648 192.558 4.42939C191.69 1.9023 191.058 0.540039 191.078 0.540039C191.058 0.540039 191.887 1.78381 193.091 4.21219C194.256 6.64056 195.836 10.293 196.625 15.1498C197.02 17.5781 197.178 20.2829 197.06 23.1654C196.941 26.0478 196.527 29.1079 195.934 32.2668C195.184 36.2549 194.197 40.4207 193.427 44.7246C193.467 44.7049 193.526 44.6851 193.565 44.6654C193.546 44.7444 193.526 44.8233 193.506 44.9023C193.467 44.922 193.427 44.9615 193.368 44.9812C192.953 47.3701 192.578 49.7985 192.381 52.2861C191.729 59.3541 192.381 66.1259 193.802 72.1672C195.204 78.2085 197.119 83.6181 198.264 88.3169C199.449 93.0157 199.844 96.9642 199.863 99.6493C199.883 102.354 199.646 103.815 199.666 103.835C199.607 103.874 199.765 97.7737 196.527 88.8302C194.947 84.3486 192.598 79.1562 190.801 72.9371Z" fill="#FCC889"/>
<path d="M180.752 69.9954C180.259 70.9628 179.943 72.2856 179.883 73.8453C179.824 75.4247 180.061 77.2411 180.515 79.2746C181.384 83.3613 183.259 88.1588 184.918 94.1607C184.938 94.2001 184.938 94.2594 184.957 94.3186C184.266 94.1607 183.575 94.0422 182.865 93.9632C182.845 93.9632 182.845 93.9633 182.825 93.9435C182.766 93.9435 182.707 93.9435 182.647 93.9435C181.976 93.8645 181.285 93.8448 180.574 93.8448C180.555 93.8448 180.535 93.8448 180.515 93.8645C179.647 88.3957 178.521 83.5193 178.304 79.3733C178.166 77.2015 178.245 75.2075 178.58 73.5491C178.916 71.8709 179.548 70.5284 180.239 69.6005C180.93 68.6726 181.621 68.1198 182.095 67.8039C182.568 67.488 182.825 67.3499 182.825 67.3499C182.825 67.3499 182.588 67.5473 182.174 67.9421C181.779 68.3567 181.226 69.0082 180.752 69.9954Z" fill="#FCC889"/>
<path d="M182.549 110.903C181.581 111.771 180.476 112.423 179.37 112.916C180.732 112.146 181.72 110.745 181.68 108.711C181.641 107.073 180.969 105.888 179.982 105.118C180.278 104.644 180.515 104.091 180.693 103.46C180.93 102.63 181.048 101.683 181.088 100.735C183.398 100.261 186.399 101.09 186.399 101.09C185.767 103.795 184.444 109.244 182.549 110.903Z" fill="#FCC889"/>
<path d="M193.486 104.605C192.874 105.691 191.927 106.559 190.782 107.053C190.209 107.309 189.577 107.467 188.946 107.527C188.294 107.625 187.09 107.625 185.984 108.849L187.978 101.169C188.136 101.189 192.361 102.927 193.684 104.21C193.625 104.368 193.565 104.506 193.486 104.605Z" fill="#FCC889"/>
<path d="M164.089 84.783C164.089 84.8027 164.07 84.7632 164.089 84.9014L164.168 85.4147C164.208 85.7504 164.267 86.086 164.326 86.4019C164.563 87.6654 164.938 88.6526 165.57 89.2843C166.162 89.9556 167.011 90.2517 167.623 90.3899C168.235 90.5281 168.611 90.5479 168.611 90.5479C168.611 90.5479 168.295 90.7453 167.663 90.9625C167.031 91.1599 165.945 91.3968 164.603 90.8835C163.951 90.6268 163.28 90.153 162.727 89.5608C162.174 88.9487 161.72 88.238 161.365 87.4483C161.187 87.0534 161.029 86.6586 160.891 86.244C160.812 86.0268 160.753 85.8294 160.694 85.6122C160.674 85.553 160.615 85.3161 160.575 85.1384L160.457 84.5658C160.18 82.9864 160.101 81.407 159.943 79.7683L160.082 79.8078C161.76 80.2816 163.398 80.7554 164.919 81.2293C165.373 81.3675 165.471 81.4267 165.689 81.5056C165.886 81.6043 166.083 81.6833 166.301 81.7623C166.695 81.94 167.09 82.1375 167.446 82.3546C168.196 82.8087 168.887 83.3417 169.42 83.9735C169.953 84.6053 170.348 85.316 170.545 85.9675C170.94 87.3101 170.723 88.3367 170.565 88.9882C170.387 89.6397 170.21 89.9753 170.21 89.9753C170.21 89.9753 170.15 89.6002 169.973 88.9882C169.795 88.3959 169.479 87.5272 168.867 86.8165C168.255 86.1057 167.347 85.6122 166.103 85.2371C165.787 85.1384 165.471 85.0594 165.136 84.9804L164.622 84.8422C164.464 84.8027 164.168 84.7435 164.247 84.7633C164.208 84.8027 164.228 84.8422 164.228 84.8422C164.188 84.7632 164.149 84.7237 164.089 84.783Z" fill="#FCC889"/>
<path d="M169.36 96.2731C169.755 95.9178 169.972 95.6809 169.972 95.6809C169.972 95.6809 169.953 95.9968 169.795 96.5496C169.617 97.0826 169.262 97.9711 168.215 98.6423C167.722 98.9779 167.07 99.1951 166.36 99.2938C165.669 99.3925 164.938 99.353 164.208 99.2148C163.852 99.1556 163.477 99.0569 163.122 98.9582C162.944 98.899 162.766 98.8397 162.589 98.7805C162.529 98.7607 162.332 98.6818 162.194 98.6226L161.74 98.4054C160.516 97.8328 159.371 97.1023 158.146 96.3916L158.225 96.3324C159.39 95.4045 160.516 94.4766 161.601 93.6474C161.937 93.3907 161.996 93.3512 162.174 93.2525C162.332 93.1538 162.49 93.0551 162.648 92.9564C162.964 92.7787 163.299 92.601 163.635 92.443C164.306 92.1469 165.037 91.9297 165.728 91.8508C166.438 91.7718 167.11 91.8705 167.663 92.0482C168.788 92.4233 169.4 93.0748 169.775 93.5289C170.15 93.983 170.288 94.2594 170.288 94.2594C170.288 94.2594 170.012 94.1212 169.479 93.9435C168.985 93.7658 168.215 93.5684 167.426 93.6474C166.636 93.7263 165.846 94.1212 164.978 94.7924C164.76 94.9701 164.543 95.1478 164.306 95.3452L163.951 95.6414C163.852 95.7203 163.655 95.8981 163.714 95.8586C163.714 95.8981 163.753 95.898 163.753 95.898C163.753 95.898 163.714 95.898 163.714 95.9573V95.977C163.734 95.9968 163.694 95.977 163.793 96.0362L164.188 96.2337C164.444 96.3719 164.701 96.4903 164.958 96.6088C165.945 97.0629 166.814 97.2801 167.564 97.1616C168.334 97.0629 168.966 96.6088 169.36 96.2731Z" fill="#FCC889"/>
<path d="M174.592 76.8462C175.402 78.011 176.172 79.0969 176.843 80.3012L177.08 80.7355C177.139 80.8737 177.238 81.0514 177.258 81.1107C177.337 81.2686 177.416 81.4462 177.475 81.6239C177.613 81.9793 177.731 82.315 177.83 82.6704C178.028 83.3811 178.126 84.1116 178.087 84.8026C178.067 85.4936 177.909 86.1649 177.633 86.6782C177.08 87.7443 176.27 88.1589 175.797 88.376C175.264 88.5735 174.987 88.6129 174.987 88.6129C174.987 88.6129 175.204 88.3957 175.501 87.9811C175.797 87.5665 176.172 86.9151 176.192 86.1648C176.231 85.4146 175.935 84.5656 175.422 83.5982C175.283 83.3613 175.145 83.1047 174.987 82.8677L174.75 82.4926C174.691 82.3939 174.711 82.4334 174.691 82.4334H174.671C174.632 82.4334 174.632 82.4729 174.632 82.4729C174.632 82.4729 174.632 82.4334 174.573 82.4334C174.592 82.3742 174.434 82.5914 174.375 82.6901L174.119 83.0454C173.941 83.2823 173.803 83.5193 173.664 83.7364C173.092 84.6446 172.796 85.4344 172.796 86.2438C172.776 87.0335 173.052 87.7838 173.27 88.2773C173.487 88.7709 173.645 89.0473 173.645 89.0473C173.645 89.0473 173.368 88.9091 172.914 88.5932C172.46 88.2576 171.789 87.6653 171.315 86.5794C171.078 86.0464 170.94 85.3751 170.96 84.6644C170.96 83.9536 171.098 83.2429 171.315 82.5519C171.434 82.1965 171.552 81.8609 171.71 81.545C171.789 81.3673 171.868 81.2094 171.927 81.0514C172.026 80.8737 172.065 80.7947 172.263 80.4591C172.954 79.3338 173.724 78.1492 174.513 76.9449L174.592 76.8462Z" fill="#FCC889"/>
<path d="M171.276 92.5024C171.197 89.3238 176.113 89.2053 176.212 92.3839C176.271 95.5823 171.335 95.7007 171.276 92.5024Z" fill="#FCC889"/>
<path d="M200.535 179.47C200.14 176.488 199.172 173.033 197.198 169.756C196.31 168.256 195.224 166.795 193.941 165.432C192.953 164.347 191.828 163.32 190.624 162.353C190.012 161.839 189.36 161.365 188.689 160.892C186.853 159.648 184.958 158.601 183.043 157.772C181.147 156.943 179.193 156.37 177.258 155.936C173.428 155.067 169.815 154.791 166.814 154.969C163.813 155.127 161.404 155.798 159.805 156.449C158.206 157.101 157.396 157.693 157.396 157.674C157.416 157.693 158.009 156.884 159.45 155.818C160.891 154.732 163.26 153.449 166.458 152.679C169.637 151.889 173.586 151.573 177.929 152.086C180.081 152.343 182.371 152.817 184.661 153.666C186.952 154.495 189.183 155.62 191.295 157.081C191.453 157.2 191.631 157.318 191.789 157.437C193.072 158.365 194.276 159.371 195.382 160.457C197.652 162.728 199.469 165.334 200.673 167.979C202.568 172.066 203.022 176.153 202.845 179.41C202.687 182.688 201.956 185.215 201.403 186.913C200.831 188.591 200.396 189.479 200.416 189.479C200.416 189.479 200.554 188.512 200.712 186.755C200.831 184.978 200.949 182.451 200.535 179.47Z" fill="#FCC889"/>
<path d="M192.815 156.114C193.506 154.001 194.355 151.948 195.303 149.895C195.777 148.868 196.251 147.861 196.725 146.874C196.981 146.361 197.179 145.966 197.376 145.532C197.554 145.097 197.731 144.663 197.889 144.229C198.501 142.472 198.817 140.655 198.916 138.918C199.113 135.423 198.343 132.225 197.06 129.856C195.777 127.487 193.961 126.006 192.579 125.236C191.177 124.466 190.249 124.249 190.269 124.229C190.269 124.249 191.197 124.15 192.835 124.565C194.474 124.96 196.883 126.065 198.936 128.533C200.989 130.962 202.568 134.634 202.825 138.878C202.944 140.991 202.746 143.261 202.114 145.532C201.956 146.085 201.779 146.657 201.562 147.23C201.344 147.782 201.088 148.375 200.871 148.829L199.528 151.81C198.62 153.824 197.751 155.759 197.001 157.614C196.725 158.286 196.488 158.937 196.27 159.608C195.185 158.523 193.98 157.516 192.677 156.588C192.717 156.41 192.756 156.272 192.815 156.114Z" fill="#FCC889"/>
<path d="M193.645 166.578L193.348 167.743C193.171 168.513 193.052 169.302 193.013 170.072C192.914 171.612 193.092 173.093 193.408 174.396C194.059 177.022 195.421 178.917 196.566 180.003C197.731 181.108 198.58 181.503 198.56 181.523C198.58 181.503 197.633 181.405 196.132 180.595C194.651 179.786 192.598 178.088 191.236 175.205C190.545 173.764 190.032 172.066 189.834 170.171C189.735 169.223 189.716 168.236 189.814 167.209C189.933 166.222 190.032 165.334 190.17 164.327C190.209 164.07 190.268 163.774 190.308 163.498C191.532 164.465 192.638 165.492 193.645 166.578Z" fill="#FCC889"/>
</svg>
