<svg width="203" height="201" viewBox="0 0 203 201" fill="none" xmlns="http://www.w3.org/2000/svg">
<path d="M178.526 35.1464C182.423 32.9724 186.595 29.584 190.355 25.0009C192.216 22.7094 193.998 20.124 195.487 17.2057C196.231 15.7368 196.917 14.1895 197.465 12.5247L197.7 11.7804L198.014 10.6444C198.209 9.88058 198.347 9.11673 198.464 8.35288C198.66 6.86435 198.777 5.43458 198.934 3.88729H198.895C197.367 3.75019 195.977 3.5935 194.508 3.51516C193.763 3.49557 193 3.51516 192.216 3.57391C191.824 3.61309 191.433 3.65226 191.041 3.71102L190.453 3.80895L190.081 3.8677C188.299 4.22025 186.634 4.78824 185.067 5.43458C181.953 6.76642 179.27 8.50957 176.939 10.3702C172.278 14.1111 168.968 18.3613 166.754 22.1805C164.541 26.0194 163.464 29.4665 162.955 31.8168C162.465 34.2063 162.465 35.5382 162.465 35.5382C162.504 35.6165 164.012 30.2695 169.399 24.0412C172.062 20.9466 175.666 17.6366 180.112 14.8162C182.325 13.4256 184.754 12.133 187.32 11.2124C188.593 10.762 189.925 10.3898 191.217 10.1744L191.433 10.1352V10.1548C191.433 10.1548 191.433 10.1548 191.452 10.1548H191.472L191.354 10.5465C190.943 11.8783 190.453 13.2102 189.885 14.4833C188.749 17.0686 187.378 19.4973 185.929 21.7301C183.03 26.1761 179.779 29.8386 176.684 32.4436C173.59 35.0681 170.593 36.5762 168.38 37.2421C166.167 37.9081 164.796 37.8689 164.796 37.9081C164.796 37.8689 166.088 38.3389 168.556 38.241C171.005 38.2018 174.628 37.3596 178.526 35.1464Z" fill="#FCC889"/>
<path d="M162.72 40.7871C162.72 37.6338 157.843 37.6338 157.843 40.7871C157.843 43.96 162.72 43.96 162.72 40.7871Z" fill="#FCC889"/>
<path d="M173.786 23.512C173.786 27.9384 180.641 27.9384 180.641 23.512C180.641 19.0855 173.786 19.0855 173.786 23.512Z" fill="#FCC889"/>
<path d="M145.935 60.0006C146.13 59.9614 146.405 59.9223 146.483 59.9027C146.738 59.8439 146.973 59.7852 147.208 59.7264C147.678 59.5893 148.148 59.4326 148.598 59.2563C149.499 58.8842 150.341 58.4141 151.066 57.8266C151.791 57.2194 152.359 56.4947 152.692 55.77C153.377 54.2619 153.142 53.028 152.966 52.3033C152.751 51.5591 152.535 51.2065 152.555 51.1869C152.555 51.1869 152.496 51.5982 152.3 52.3033C152.124 52.9888 151.732 53.929 150.949 54.5753C150.185 55.2216 149.049 55.6134 147.619 55.8288C147.266 55.868 146.875 55.9267 146.483 55.9463L145.895 55.9855C145.739 56.0051 145.797 55.9855 145.778 55.9855L145.758 55.9659C145.719 55.9071 145.758 55.868 145.778 55.868C145.778 55.868 145.739 55.9071 145.7 55.8484C145.66 55.9267 145.758 55.5742 145.797 55.4175L145.974 54.8299C146.091 54.4382 146.209 54.0857 146.326 53.7527C146.816 52.3621 147.423 51.3828 148.265 50.7169C149.108 50.051 150.106 49.7572 150.792 49.5809C151.497 49.4242 151.928 49.385 151.928 49.3654C151.928 49.3654 151.575 49.15 150.831 48.915C150.106 48.6799 148.951 48.4057 147.404 48.7583C146.64 48.9541 145.817 49.3459 145.092 49.9138C144.348 50.5014 143.702 51.2457 143.153 52.0487C142.879 52.46 142.644 52.8909 142.409 53.3218C142.292 53.5372 142.194 53.7527 142.076 53.9877C141.959 54.2423 141.919 54.3403 141.704 54.8495C141.077 56.5339 140.451 58.3946 139.843 60.2748L139.804 60.4315C141.684 60.3727 143.486 60.3727 145.269 60.1377L145.935 60.0006Z" fill="#FCC889"/>
<path d="M161.329 58.8647C161.408 58.708 161.506 58.4925 161.545 58.4338C161.623 58.2379 161.701 58.0421 161.78 57.8462C161.917 57.4545 162.054 57.0432 162.152 56.6319C162.348 55.8289 162.426 54.9867 162.367 54.2032C162.309 53.4002 162.074 52.6559 161.741 52.0684C161.035 50.854 160.056 50.384 159.449 50.1685C158.822 49.9335 158.47 49.9139 158.47 49.9139C158.47 49.9139 158.744 50.1685 159.116 50.6386C159.488 51.1087 159.958 51.8333 160.017 52.6951C160.095 53.5569 159.802 54.5362 159.234 55.633C159.096 55.9072 158.94 56.201 158.763 56.4752L158.489 56.9061C158.431 57.0236 158.45 56.9648 158.431 56.9844H158.411C158.352 56.9844 158.352 56.9257 158.352 56.9257C158.352 56.9257 158.352 56.9648 158.293 56.9844C158.333 57.0628 158.137 56.8082 158.039 56.6906L157.706 56.2793C157.51 56.0051 157.295 55.7505 157.138 55.4959C156.413 54.4774 156.021 53.5569 155.982 52.6559C155.924 51.755 156.217 50.8932 156.433 50.3252C156.668 49.7572 156.844 49.4438 156.844 49.4438C156.844 49.4438 156.511 49.6005 155.982 49.9727C155.473 50.3644 154.69 51.0303 154.2 52.3034C153.945 52.9301 153.828 53.694 153.867 54.4774C153.906 55.2805 154.102 56.1031 154.396 56.8865C154.553 57.2782 154.729 57.6699 154.925 58.0421C155.023 58.2379 155.121 58.4142 155.218 58.5905C155.356 58.8059 155.375 58.8843 155.649 59.276C156.511 60.5491 157.51 61.8809 158.509 63.2519L158.587 63.3499C159.488 61.9984 160.37 60.7645 161.075 59.3739L161.329 58.8647Z" fill="#FCC889"/>
<path d="M150.596 46.1536C151.007 45.6444 151.164 45.331 151.164 45.3506C151.164 45.3506 150.851 45.5268 150.263 45.7423C149.695 45.9577 148.853 46.2123 147.952 46.1536C147.031 46.1144 146.15 45.7227 145.151 45.0176C144.896 44.8413 144.642 44.6651 144.387 44.4496L143.996 44.1362C143.878 44.0383 143.643 43.8816 143.721 43.9012C143.721 43.8425 143.78 43.8425 143.78 43.8425C143.78 43.8425 143.721 43.8425 143.721 43.7837V43.7641C143.741 43.7445 143.702 43.7641 143.8 43.7054L144.25 43.4507C144.544 43.294 144.838 43.1374 145.112 43.0003C146.228 42.4519 147.208 42.1972 148.05 42.2756C148.912 42.3343 149.617 42.7848 150.067 43.1569C150.518 43.5291 150.753 43.7837 150.753 43.7837C150.753 43.7837 150.733 43.4507 150.537 42.8436C150.322 42.2756 149.91 41.3355 148.716 40.6499C148.148 40.317 147.403 40.082 146.62 40.0232C145.837 39.9644 144.994 40.0428 144.191 40.2191C143.78 40.2974 143.369 40.4149 142.977 40.552C142.781 40.6108 142.566 40.6891 142.389 40.7675C142.331 40.787 142.096 40.885 141.939 40.9633L141.43 41.1984C140.039 41.8839 138.766 42.7261 137.395 43.5682L137.493 43.6466C138.825 44.6063 140.118 45.566 141.351 46.4082C141.724 46.6628 141.821 46.702 142.017 46.8195C142.194 46.9174 142.37 47.0154 142.546 47.1133C142.918 47.2896 143.29 47.4658 143.682 47.6225C144.446 47.9163 145.269 48.1122 146.052 48.1514C146.855 48.1905 147.619 48.073 148.226 47.838C149.499 47.3875 150.185 46.6432 150.596 46.1536Z" fill="#FCC889"/>
<path d="M185.263 75.1995L185.772 74.6903L186.164 74.2594C187.574 72.6925 188.808 71.0473 189.807 69.3825C191.844 66.0333 192.96 62.5862 193.293 59.6679C193.626 56.73 193.215 54.3797 192.804 52.8716C192.373 51.3635 191.961 50.5996 191.981 50.5996C191.961 50.5996 192.001 51.4614 191.824 52.9695C191.668 54.458 191.256 56.5733 190.257 58.904C189.278 61.2348 187.672 63.7809 185.478 66.2684C184.382 67.5219 183.167 68.7558 181.816 69.9897C181.698 70.0876 181.698 70.0876 181.698 70.0876H181.679C181.659 70.0876 181.659 70.0876 181.64 70.0876C181.62 70.0876 181.6 70.068 181.6 70.0484C181.581 70.0289 181.581 69.9897 181.6 69.9701C181.6 69.9701 181.581 69.9897 181.561 69.9897C181.542 69.9897 181.542 69.9897 181.522 69.9701C181.502 70.0289 181.463 69.3433 181.424 68.9516C181.326 67.1693 181.385 65.4653 181.62 63.8789C182.11 60.7059 183.402 58.0423 185.048 56.0641C186.673 54.0663 188.514 52.7345 189.826 51.8923C191.158 51.0501 191.961 50.6192 191.942 50.6192C191.942 50.6388 191.041 50.6388 189.435 50.9522C187.848 51.2851 185.478 51.8923 182.893 53.6354C180.308 55.3394 177.624 58.4536 176.312 62.5274C175.627 64.5448 175.255 66.758 175.196 69.03C175.176 69.6371 175.176 69.9897 175.235 71.0669C175.294 72.0854 175.411 73.1038 175.568 74.0831C175.725 75.0624 175.94 76.0417 176.175 76.9427L176.978 79.5476L177.546 81.3299C179.093 80.2331 180.523 79.2734 182.012 78.1374C182.756 77.5499 183.5 76.9231 184.205 76.2572C184.577 75.8655 184.91 75.5325 185.263 75.1995Z" fill="#FCC889"/>
<path d="M184.01 59.8636C184.676 62.9582 189.455 61.9201 188.789 58.8451C188.123 55.7506 183.363 56.769 184.01 59.8636Z" fill="#FCC889"/>
<path d="M192.686 85.7954C192.686 82.6421 187.79 82.6421 187.79 85.7954C187.79 88.9488 192.686 88.9488 192.686 85.7954Z" fill="#FCC889"/>
<path d="M172.571 93.708C172.571 98.1344 179.407 98.1344 179.407 93.708C179.407 89.2816 172.571 89.2816 172.571 93.708Z" fill="#FCC889"/>
<path d="M181.463 107.673C181.463 107.712 185.4 107.379 187.261 106.831C190.258 105.773 193.431 104.383 195.82 102.385C196.682 101.582 197.446 100.72 198.072 99.7995C199.678 97.4688 200.423 94.8443 200.54 92.4744C200.658 90.1045 200.286 87.95 199.561 86.0893C198.836 84.2483 197.7 82.7793 196.486 81.7609C193.979 79.7239 191.433 79.5281 189.925 79.5672C188.377 79.6456 187.614 79.9002 187.614 79.8806C187.614 79.9002 188.417 79.7239 189.983 79.8414C191.492 79.9785 193.92 80.5074 195.918 82.6422C197.935 84.7183 199.032 88.4592 198.307 92.5919C197.935 94.6288 197.034 96.6658 195.487 98.3697C195.213 98.6635 194.919 98.9377 194.606 99.2119C194.606 99.1923 189.357 103.619 182.129 103.09C181.992 103.09 176.959 103.697 173.512 99.9562C170.926 97.175 164.776 92.5723 165.168 76.1005C165.501 75.9047 165.814 75.6892 166.147 75.4542C166.402 75.2583 166.676 75.0429 166.931 74.8274C167.127 74.6316 167.303 74.4749 167.479 74.2986C167.499 74.7491 167.518 75.18 167.558 75.6305C167.773 77.7849 168.478 79.6456 169.418 81.2908C170.358 82.936 171.573 84.3462 173.002 85.3255C174.413 86.344 176.175 86.7357 177.311 86.5986C178.428 86.4615 178.878 86.1481 178.878 86.1677C178.898 86.1481 178.271 86.2265 177.429 85.9914C176.587 85.7564 175.96 84.9925 175.157 84.1112C173.159 81.9567 171.808 78.0787 171.69 72.2225L172.18 65.6808C172.239 65.3674 172.297 65.0541 172.337 64.7799C172.63 62.2337 173.237 58.1402 173.237 58.1598C173.218 58.1598 171.279 62.2337 169.79 64.3686C168.772 65.7983 167.42 67.5807 165.834 69.4217C166.441 66.3859 167.518 63.4676 168.929 60.706C169.829 58.9628 170.397 56.828 171.416 55.0457C166.735 60.7647 163.817 66.9735 162.328 73.0647C162.034 73.2997 161.721 73.5348 161.408 73.7698C160.683 74.279 159.899 74.7491 159.136 75.1604C157.588 75.9634 156.08 76.4922 154.807 76.5902C153.534 76.7273 152.418 76.3747 151.752 75.983C151.066 75.5913 150.733 75.2779 150.714 75.2975C150.733 75.2975 150.714 75.6892 151.066 76.3551C151.399 77.0015 152.32 78.0591 154.298 78.49C156.237 78.9405 158.724 78.7055 161.055 78.0004C161.192 77.9416 161.329 77.9024 161.466 77.8633C161.349 78.7642 161.27 79.6848 161.231 80.5857C160.056 103.168 177.997 107.653 181.463 107.673Z" fill="#FCC889"/>
<path d="M191.981 129.237C190.297 135.426 189.533 142.653 190.395 150.076C190.492 150.938 190.59 151.8 190.727 152.642C190.316 152.035 189.924 151.369 189.572 150.625C188.632 148.666 187.946 146.257 187.574 143.476C186.869 137.914 187.417 130.882 189.611 123.263C190.14 121.344 190.845 119.522 191.628 117.387C192.392 115.292 193.137 113.098 193.783 110.748C194.312 108.691 194.841 106.576 195.017 104.128C193.097 105.362 191.08 106.38 188.984 107.124C188.867 108.006 188.73 108.868 188.553 109.729C188.123 111.923 187.574 114.077 186.987 116.173C186.399 118.23 185.792 120.482 185.4 122.558C183.814 130.941 184.049 138.344 185.478 144.142C186.203 147.041 187.261 149.508 188.514 151.428C189.317 152.662 190.179 153.661 191.021 154.444C192.059 160.144 193.705 165.373 194.958 170.152C195.761 173.149 196.407 175.989 196.78 178.691C197.171 181.375 197.289 183.921 197.171 186.232C196.975 190.874 195.977 194.595 195.193 197.102C194.39 199.629 193.803 200.98 193.803 201C193.783 201 194.586 199.746 195.722 197.318C196.819 194.889 198.307 191.226 198.973 186.389C199.306 183.98 199.424 181.296 199.228 178.437C199.052 175.577 198.562 172.561 197.896 169.447C197.073 165.491 195.996 161.397 195.134 157.147C195.174 157.166 195.232 157.186 195.291 157.206C195.271 157.127 195.252 157.049 195.232 156.971C195.193 156.951 195.154 156.931 195.095 156.892C194.625 154.542 194.214 152.133 193.94 149.665C193.156 142.653 193.646 135.935 194.919 129.922C196.172 123.89 197.955 118.504 198.993 113.803C200.07 109.103 200.364 105.185 200.325 102.522C200.285 99.8385 200.031 98.3891 200.05 98.3891C199.992 98.3499 200.285 104.402 197.269 113.333C195.839 117.799 193.626 123.028 191.981 129.237Z" fill="#FCC889"/>
<path d="M182.051 132.371C181.561 131.411 181.189 130.119 181.111 128.571C181.033 127.005 181.209 125.183 181.62 123.166C182.404 119.092 184.166 114.313 185.655 108.3C185.674 108.261 185.674 108.202 185.694 108.143C185.028 108.32 184.343 108.457 183.618 108.555C183.598 108.555 183.598 108.555 183.579 108.574C183.52 108.574 183.461 108.574 183.422 108.574C182.756 108.653 182.071 108.692 181.366 108.692C181.346 108.692 181.326 108.692 181.307 108.672C180.562 114.117 179.564 118.974 179.427 123.087C179.329 125.261 179.446 127.22 179.838 128.865C180.21 130.51 180.876 131.842 181.561 132.743C182.266 133.644 182.972 134.173 183.442 134.486C183.912 134.8 184.186 134.917 184.186 134.917C184.186 134.917 183.951 134.741 183.52 134.349C183.128 133.977 182.56 133.35 182.051 132.371Z" fill="#FCC889"/>
<path d="M182.933 91.7691C181.934 90.9269 180.856 90.3197 179.72 89.8301C181.091 90.5548 182.09 91.9258 182.09 93.9431C182.09 95.5688 181.444 96.7635 180.484 97.5469C180.798 98.017 181.052 98.5458 181.248 99.1726C181.503 99.9952 181.64 100.916 181.699 101.856C183.99 102.287 186.967 101.405 186.967 101.405C186.301 98.7417 184.852 93.3751 182.933 91.7691Z" fill="#FCC889"/>
<path d="M193.94 97.7625C193.313 96.7048 192.353 95.8626 191.198 95.3926C190.61 95.138 190.003 95.0205 189.376 94.9617C188.73 94.9029 187.535 94.9225 186.419 93.7278L188.573 101.288C188.749 101.268 192.882 99.4469 194.175 98.1346C194.077 97.9779 194.018 97.8604 193.94 97.7625Z" fill="#FCC889"/>
<path d="M165.227 118.073C165.227 118.053 165.207 118.092 165.227 117.975L165.286 117.466C165.325 117.113 165.364 116.8 165.423 116.486C165.638 115.233 165.991 114.253 166.578 113.607C167.146 112.941 167.989 112.628 168.596 112.471C169.203 112.314 169.575 112.295 169.556 112.295C169.556 112.295 169.242 112.099 168.596 111.903C167.969 111.727 166.892 111.492 165.56 112.06C164.914 112.334 164.267 112.824 163.739 113.431C163.21 114.038 162.759 114.763 162.426 115.546C162.25 115.938 162.113 116.349 161.976 116.76C161.917 116.956 161.839 117.172 161.8 117.387C161.78 117.466 161.741 117.701 161.702 117.877L161.604 118.445C161.349 120.012 161.31 121.579 161.212 123.224L161.329 123.185C162.975 122.675 164.6 122.186 166.089 121.677C166.539 121.52 166.618 121.461 166.853 121.383C167.049 121.304 167.244 121.206 167.44 121.109C167.832 120.932 168.204 120.717 168.576 120.482C169.301 120.031 169.967 119.463 170.476 118.837C171.005 118.21 171.357 117.505 171.553 116.839C171.925 115.507 171.671 114.489 171.514 113.842C171.318 113.196 171.142 112.882 171.142 112.863C171.142 112.863 171.083 113.235 170.927 113.842C170.77 114.43 170.476 115.311 169.889 116.016C169.281 116.741 168.4 117.231 167.186 117.642C166.892 117.74 166.559 117.838 166.226 117.936L165.717 118.073C165.56 118.112 165.266 118.19 165.345 118.151C165.305 118.112 165.325 118.073 165.325 118.073C165.325 118.092 165.286 118.132 165.227 118.073Z" fill="#FCC889"/>
<path d="M170.182 106.576C170.593 106.929 170.789 107.164 170.789 107.164C170.789 107.164 170.77 106.851 170.593 106.302C170.397 105.773 170.025 104.912 168.987 104.265C168.478 103.952 167.832 103.736 167.127 103.658C166.441 103.58 165.716 103.638 164.992 103.795C164.639 103.874 164.287 103.971 163.934 104.089C163.758 104.148 163.601 104.206 163.405 104.285C163.346 104.304 163.17 104.402 163.014 104.461L162.563 104.677C161.349 105.284 160.252 106.028 159.057 106.753L159.135 106.831C160.311 107.732 161.447 108.613 162.524 109.416C162.857 109.651 162.935 109.691 163.092 109.808C163.249 109.906 163.405 109.984 163.582 110.082C163.895 110.259 164.228 110.415 164.561 110.552C165.246 110.827 165.951 111.022 166.637 111.081C167.342 111.14 168.008 111.042 168.556 110.827C169.653 110.415 170.26 109.769 170.613 109.318C170.965 108.868 171.103 108.574 171.103 108.574C171.103 108.574 170.809 108.711 170.319 108.907C169.829 109.083 169.085 109.318 168.282 109.26C167.479 109.181 166.696 108.829 165.834 108.182C165.618 108.026 165.383 107.849 165.168 107.654L164.815 107.36C164.717 107.281 164.522 107.105 164.561 107.125C164.561 107.086 164.6 107.066 164.6 107.066C164.6 107.066 164.561 107.066 164.561 107.007V106.988C164.58 106.968 164.541 106.988 164.639 106.929L165.031 106.713C165.285 106.576 165.54 106.439 165.775 106.341C166.754 105.871 167.616 105.636 168.36 105.734C169.163 105.813 169.79 106.224 170.182 106.576Z" fill="#FCC889"/>
<path d="M175.803 125.711C176.567 124.536 177.331 123.44 177.958 122.245L178.193 121.794C178.252 121.657 178.35 121.461 178.369 121.403C178.447 121.226 178.506 121.05 178.565 120.893C178.682 120.541 178.8 120.188 178.898 119.836C179.074 119.131 179.153 118.406 179.113 117.72C179.074 117.035 178.898 116.389 178.624 115.879C178.056 114.822 177.253 114.43 176.763 114.234C176.234 114.038 175.96 114.019 175.96 114.019C175.96 114.019 176.175 114.234 176.489 114.645C176.802 115.057 177.174 115.683 177.214 116.428C177.272 117.172 176.998 118.014 176.508 118.994C176.391 119.229 176.254 119.483 176.097 119.738L175.862 120.11C175.803 120.208 175.823 120.169 175.803 120.169H175.784C175.745 120.169 175.725 120.129 175.745 120.129C175.745 120.129 175.745 120.169 175.686 120.169C175.705 120.227 175.568 120.032 175.49 119.934L175.235 119.581C175.059 119.346 174.902 119.131 174.765 118.896C174.178 118.014 173.864 117.231 173.845 116.428C173.806 115.644 174.06 114.9 174.276 114.41C174.471 113.921 174.628 113.627 174.628 113.627C174.628 113.627 174.354 113.764 173.923 114.097C173.492 114.45 172.826 115.037 172.376 116.114C172.16 116.663 172.043 117.329 172.062 118.014C172.082 118.719 172.219 119.424 172.474 120.11C172.591 120.443 172.728 120.776 172.885 121.109C172.963 121.285 173.042 121.442 173.12 121.598C173.218 121.775 173.238 121.853 173.473 122.186C174.158 123.283 174.961 124.458 175.784 125.614L175.803 125.711Z" fill="#FCC889"/>
<path d="M172.16 110.258C172.16 113.411 177.057 113.411 177.057 110.258C177.057 107.105 172.16 107.105 172.16 110.258Z" fill="#FCC889"/>
<path d="M199.267 23.3751C198.954 26.3326 198.053 29.7797 196.172 33.0702C195.33 34.5783 194.273 36.0472 193.039 37.4378C192.079 38.5346 190.982 39.5923 189.807 40.5912C189.2 41.1004 188.573 41.59 187.927 42.0601C186.144 43.3332 184.264 44.4104 182.384 45.2722C180.523 46.134 178.584 46.7411 176.684 47.2308C172.904 48.1905 169.34 48.5431 166.363 48.4255C163.386 48.3276 160.977 47.7204 159.39 47.1133C157.784 46.5061 156.981 45.9381 156.961 45.9577C156.981 45.9381 157.588 46.7216 159.057 47.74C160.506 48.7781 162.896 49.9924 166.069 50.6975C169.242 51.4222 173.159 51.6572 177.448 51.0305C179.583 50.7171 181.836 50.2079 184.088 49.3265C186.34 48.4647 188.534 47.27 190.61 45.7814C190.786 45.6639 190.923 45.5464 191.1 45.4093C192.373 44.4692 193.528 43.4507 194.586 42.3343C196.799 40.0232 198.542 37.4182 199.659 34.7546C201.441 30.6611 201.813 26.6068 201.578 23.3751C201.343 20.1239 200.56 17.6365 199.992 15.9717C199.385 14.3069 198.934 13.4451 198.954 13.4451C198.934 13.4451 199.11 14.4048 199.287 16.1283C199.424 17.8911 199.6 20.3981 199.267 23.3751Z" fill="#FCC889"/>
<path d="M192.118 46.7018C192.843 48.778 193.744 50.7953 194.704 52.8127C195.193 53.8311 195.683 54.8104 196.192 55.7701C196.466 56.2794 196.662 56.6711 196.858 57.0824C197.054 57.4937 197.23 57.9246 197.387 58.3555C198.033 60.079 198.386 61.8614 198.523 63.6045C198.797 67.0712 198.112 70.2637 196.858 72.6336C195.644 75.0231 193.881 76.5116 192.51 77.3147C191.139 78.1177 190.219 78.3331 190.238 78.3723C190.238 78.3527 191.159 78.431 192.784 77.9806C194.39 77.5497 196.76 76.3941 198.758 73.9067C200.756 71.4585 202.225 67.7763 202.381 63.5457C202.46 61.4305 202.225 59.1977 201.539 56.9649C201.363 56.4165 201.167 55.8485 200.952 55.3001C200.736 54.7517 200.462 54.1837 200.247 53.7332L198.836 50.7953C197.896 48.8367 196.976 46.9173 196.212 45.0958C195.938 44.4299 195.683 43.7835 195.448 43.1372C194.39 44.2536 193.235 45.2721 191.962 46.2122C192.02 46.3885 192.06 46.5452 192.118 46.7018Z" fill="#FCC889"/>
<path d="M192.706 36.302L192.393 35.1464C192.177 34.3826 192.06 33.5991 192.001 32.8353C191.864 31.3076 192.001 29.8386 192.295 28.5459C192.882 25.9214 194.194 24.002 195.311 22.9052C196.427 21.7888 197.289 21.3775 197.25 21.3579C197.269 21.3775 196.349 21.495 194.86 22.3372C193.411 23.1598 191.413 24.903 190.121 27.8017C189.474 29.2315 188.985 30.9354 188.848 32.8157C188.769 33.7558 188.789 34.7351 188.906 35.7536C189.043 36.7329 189.161 37.6142 189.318 38.6131C189.357 38.8873 189.416 39.1615 189.474 39.4357C190.649 38.4564 191.746 37.3988 192.706 36.302Z" fill="#FCC889"/>
<path d="M125.859 17.5383L126.369 17.0095L126.78 16.5982C128.327 15.1488 129.933 13.8953 131.598 12.8377C134.888 10.7224 138.316 9.52767 141.215 9.13595C144.133 8.72464 146.503 9.09678 148.011 9.4885C149.539 9.88021 150.303 10.2915 150.303 10.2719C150.303 10.2915 149.441 10.2719 147.952 10.4678C146.464 10.6637 144.368 11.1141 142.057 12.1914C139.746 13.2294 137.258 14.8942 134.81 17.1466C133.576 18.263 132.362 19.5165 131.167 20.8875C131.069 21.005 131.069 21.005 131.089 21.005V21.0246C131.089 21.0442 131.089 21.0442 131.108 21.0638C131.108 21.0834 131.128 21.103 131.147 21.103C131.167 21.1225 131.206 21.103 131.226 21.103C131.226 21.103 131.206 21.1225 131.206 21.1421C131.206 21.1617 131.206 21.1617 131.226 21.1813C131.167 21.2009 131.853 21.2401 132.244 21.2596C134.027 21.3184 135.731 21.2205 137.317 20.9267C140.47 20.3783 143.114 19.0073 145.053 17.3229C147.012 15.6385 148.285 13.7582 149.127 12.446C149.95 11.1141 150.342 10.2915 150.361 10.2915C150.342 10.2915 150.361 11.1729 150.087 12.7985C149.793 14.385 149.225 16.794 147.541 19.4186C145.896 22.0431 142.86 24.7851 138.806 26.1953C136.808 26.9004 134.614 27.3313 132.342 27.4488C131.715 27.4684 131.383 27.5076 130.286 27.4684C129.267 27.4292 128.249 27.3313 127.25 27.1942C126.271 27.0571 125.291 26.8612 124.39 26.6458L121.766 25.9015L119.964 25.3923C121.022 23.8254 121.942 22.3565 123.058 20.8483C123.626 20.0845 124.253 19.3402 124.88 18.6155C125.193 18.2238 125.526 17.8713 125.859 17.5383Z" fill="#FCC889"/>
<path d="M141.215 18.4394C138.12 17.8518 139.041 13.0532 142.135 13.6408C145.23 14.2284 144.309 19.027 141.215 18.4394Z" fill="#FCC889"/>
<path d="M115.106 10.3308C118.26 10.2524 118.358 15.1489 115.204 15.2272C112.07 15.3056 111.953 10.4091 115.106 10.3308Z" fill="#FCC889"/>
<path d="M107.664 30.6415C103.257 30.7394 103.1 23.9039 107.507 23.806C111.914 23.708 112.071 30.5435 107.664 30.6415Z" fill="#FCC889"/>
<path d="M93.523 22.0629C93.4838 22.0629 93.7385 18.1261 94.2281 16.2263C95.2074 13.1904 96.5392 9.99794 98.4782 7.56929C99.2617 6.68792 100.104 5.90448 101.024 5.25815C103.316 3.59334 105.921 2.79032 108.271 2.63363C110.641 2.47694 112.796 2.79032 114.656 3.47583C116.517 4.16133 118.005 5.25815 119.043 6.45289C121.139 8.92072 121.374 11.4473 121.374 12.9554C121.335 14.5223 121.08 15.2666 121.1 15.2666C121.08 15.2666 121.237 14.4635 121.08 12.8967C120.904 11.4081 120.336 8.97947 118.143 7.00129C116.027 5.02312 112.247 4.02423 108.154 4.82726C106.136 5.23856 104.119 6.17869 102.454 7.76515C102.16 8.03935 101.906 8.35272 101.632 8.6661C101.651 8.6661 97.3618 14.0131 98.0473 21.2599C98.0473 21.3774 97.5577 26.4305 101.357 29.8189C104.197 32.3259 108.918 38.378 125.37 37.6141C125.566 37.2811 125.761 36.9482 125.996 36.6348C126.192 36.3606 126.388 36.106 126.623 35.8318C126.799 35.6359 126.956 35.4401 127.132 35.2638C126.682 35.2638 126.251 35.2442 125.801 35.2246C123.646 35.0483 121.766 34.3824 120.101 33.5011C118.436 32.6001 116.987 31.4054 115.988 29.9952C114.95 28.6242 114.5 26.8418 114.637 25.7254C114.735 24.5895 115.048 24.139 115.009 24.139C115.028 24.1194 114.97 24.7461 115.224 25.5883C115.479 26.4305 116.282 27.0377 117.163 27.8407C119.357 29.7993 123.274 31.0528 129.13 31.0332L135.672 30.4065C135.966 30.3477 136.279 30.289 136.573 30.2498C139.099 29.8972 143.173 29.1922 143.173 29.1922C143.173 29.2117 139.139 31.2487 137.063 32.796C135.652 33.834 133.909 35.2246 132.107 36.8503C135.104 36.1647 138.003 35.0288 140.745 33.5598C142.449 32.6197 144.583 32.0125 146.346 30.9353C140.725 35.7534 134.595 38.8088 128.543 40.4149C128.308 40.7087 128.073 41.0416 127.857 41.355C127.348 42.0993 126.897 42.8827 126.525 43.6662C125.761 45.233 125.272 46.7607 125.193 48.0338C125.096 49.3265 125.468 50.4233 125.879 51.0892C126.271 51.7747 126.604 52.1077 126.584 52.1077C126.584 52.0881 126.192 52.1077 125.507 51.7747C124.841 51.4614 123.783 50.5604 123.294 48.5822C122.784 46.6432 122.961 44.1558 123.627 41.8055C123.666 41.6684 123.724 41.5313 123.764 41.3942C122.843 41.5117 121.942 41.6292 121.041 41.688C98.4978 43.3724 93.6013 25.5296 93.523 22.0629Z" fill="#FCC889"/>
<path d="M71.7433 12.0155C65.6129 13.837 58.4052 14.7575 50.9822 14.072C50.1204 13.9936 49.2586 13.9153 48.3968 13.7978C49.0236 14.1895 49.6895 14.5616 50.4338 14.8946C52.4119 15.776 54.8406 16.4419 57.6218 16.7357C63.1842 17.3232 70.196 16.5986 77.7757 14.2483C79.6951 13.6607 81.497 12.9164 83.5927 12.0742C85.6688 11.2712 87.8429 10.4682 90.1736 9.78267C92.2106 9.19509 94.3258 8.64668 96.7545 8.39207C95.5597 10.3311 94.6 12.368 93.895 14.5029C93.0332 14.6596 92.1714 14.8162 91.3096 14.9925C89.116 15.4822 86.9811 16.0893 84.8854 16.7161C82.8485 17.3428 80.6157 18.0283 78.5592 18.4396C70.2156 20.2024 62.8121 20.1436 56.9951 18.851C54.0964 18.185 51.6089 17.1861 49.6503 15.9718C48.3968 15.208 47.3979 14.3658 46.5753 13.5236C40.8562 12.6226 35.5876 11.0949 30.7891 9.91977C27.7729 9.1755 24.9133 8.60751 22.2104 8.27455C19.5076 7.94159 16.981 7.88283 14.6503 8.03952C10.028 8.33331 6.32624 9.43012 3.83883 10.2723C1.33183 11.1341 0 11.7608 0 11.7413C0 11.7413 1.23393 10.9382 3.62341 9.74349C6.01289 8.58792 9.63629 7.02105 14.4544 6.23761C16.8635 5.84589 19.5272 5.68921 22.4063 5.80672C25.2659 5.92424 28.3017 6.33554 31.4158 6.94271C35.3918 7.68697 39.5048 8.66627 43.7746 9.43012C43.755 9.39095 43.7354 9.33219 43.7158 9.29302C43.7942 9.3126 43.8725 9.33219 43.9704 9.35178C43.99 9.39095 44.0292 9.43012 44.0488 9.48888C46.4187 9.90018 48.8277 10.2723 51.276 10.4682C58.2877 11.1145 65.0057 10.4682 70.9795 9.05799C76.9727 7.66739 82.3197 5.76755 86.9811 4.63157C91.6426 3.45641 95.5402 3.06469 98.2234 3.04511C100.887 3.02552 102.356 3.26055 102.356 3.24097C102.395 3.29972 96.3432 3.14304 87.4904 6.35513C83.064 7.90242 77.8933 10.2331 71.7433 12.0155Z" fill="#FCC889"/>
<path d="M68.8252 22.0043C69.8045 22.494 71.0971 22.8073 72.6444 22.8661C74.2113 22.9053 76.0132 22.6898 78.0305 22.2394C82.0652 21.3776 86.8246 19.4973 92.7787 17.8717C92.8375 17.8521 92.8963 17.8521 92.9355 17.8325C92.7788 18.518 92.6613 19.2035 92.5829 19.9086C92.5829 19.9282 92.5829 19.9282 92.5633 19.9478C92.5633 20.0066 92.5633 20.0653 92.5633 20.1241C92.5046 20.79 92.4654 21.4755 92.485 22.1806C92.485 22.2002 92.485 22.2198 92.5046 22.2394C87.0988 23.1011 82.2415 24.2175 78.148 24.433C75.974 24.5701 74.035 24.5113 72.3702 24.1588C70.7054 23.8258 69.3736 23.1991 68.453 22.5136C67.5325 21.828 67.0037 21.1425 66.6707 20.6725C66.3573 20.2024 66.2202 19.9478 66.2202 19.9478C66.2202 19.9478 66.3965 20.1828 66.8078 20.5941C67.1995 20.9859 67.8459 21.5538 68.8252 22.0043Z" fill="#FCC889"/>
<path d="M109.368 20.2416C110.23 21.2209 110.876 22.2981 111.366 23.4145C110.602 22.0631 109.211 21.0838 107.194 21.123C105.588 21.1622 104.393 21.8281 103.629 22.8074C103.159 22.5136 102.611 22.259 101.984 22.1023C101.161 21.8673 100.241 21.7497 99.2811 21.7106C98.811 19.419 99.6336 16.4224 99.6336 16.4224C102.317 17.0295 107.723 18.3418 109.368 20.2416Z" fill="#FCC889"/>
<path d="M103.139 9.35132C104.197 9.95849 105.078 10.8986 105.568 12.0542C105.823 12.6222 105.979 13.2489 106.058 13.8757C106.136 14.522 106.136 15.7167 107.35 16.8136L99.751 14.8354C99.7706 14.6787 101.494 10.4873 102.787 9.17505C102.904 9.21422 103.022 9.29256 103.139 9.35132Z" fill="#FCC889"/>
<path d="M83.4752 38.5542C83.4948 38.5542 83.4556 38.5738 83.5732 38.5542L84.0823 38.4955C84.4153 38.4367 84.7483 38.3975 85.0616 38.3388C86.3151 38.1037 87.2749 37.712 87.9212 37.1049C88.5676 36.5173 88.8613 35.6751 88.9984 35.0679C89.1355 34.4608 89.1747 34.0886 89.1747 34.0886C89.1747 34.0886 89.3706 34.402 89.586 35.0288C89.7819 35.6555 90.0169 36.7327 89.4881 38.0646C89.2335 38.7109 88.7634 39.3768 88.1759 39.9252C87.5883 40.4736 86.8636 40.9241 86.0802 41.2767C85.6884 41.4529 85.2967 41.6096 84.8854 41.7467C84.6895 41.8055 84.4741 41.8838 84.2587 41.923C84.1803 41.9426 83.9453 42.0014 83.7886 42.0405L83.201 42.158C81.6341 42.4322 80.0869 42.5106 78.4417 42.6477L78.4808 42.5106C78.9509 40.8458 79.4013 39.2006 79.8714 37.712C80.0085 37.2616 80.0477 37.1636 80.1456 36.9482C80.224 36.7327 80.3023 36.5565 80.4002 36.341C80.5765 35.9493 80.7724 35.5772 81.0074 35.205C81.4383 34.4608 81.9867 33.7753 82.5939 33.2464C83.201 32.7176 83.9061 32.3259 84.5525 32.13C85.8843 31.7383 86.9028 31.9538 87.5491 32.1105C88.1954 32.2867 88.5088 32.463 88.5088 32.463C88.5088 32.463 88.1367 32.5218 87.5491 32.698C86.9419 32.8743 86.0997 33.1877 85.3946 33.7948C84.6895 34.4216 84.2195 35.303 83.8473 36.5369C83.7494 36.8502 83.6515 37.1636 83.5732 37.4966L83.4556 38.0254C83.4165 38.1821 83.3381 38.4759 83.3773 38.3975C83.4165 38.4367 83.4556 38.4171 83.4556 38.4171C83.4752 38.4563 83.436 38.4955 83.4752 38.5542Z" fill="#FCC889"/>
<path d="M94.8546 33.3248C94.5021 32.9331 94.2671 32.7373 94.2671 32.7373C94.2671 32.7373 94.5805 32.7568 95.1289 32.9135C95.6577 33.0898 96.539 33.4424 97.205 34.4804C97.5379 34.9896 97.7533 35.636 97.8513 36.3215C97.9296 37.007 97.8905 37.7513 97.773 38.4563C97.6946 38.8089 97.6163 39.181 97.5183 39.5336C97.4596 39.7098 97.4008 39.8861 97.3421 40.0624C97.3225 40.1212 97.2441 40.317 97.1854 40.4541L96.9895 40.9046C96.402 42.1385 95.6968 43.2549 94.9917 44.4692L94.9134 44.3909C93.9928 43.2353 93.0724 42.1189 92.2693 41.0417C92.0147 40.7087 91.9755 40.65 91.8776 40.4541C91.7797 40.2974 91.6817 40.1407 91.5838 39.984C91.4075 39.6707 91.2312 39.3377 91.0746 39.0048C90.7808 38.3388 90.5653 37.6142 90.5065 36.9286C90.4282 36.2236 90.5261 35.5576 90.7024 35.0092C91.0746 33.8928 91.7405 33.2857 92.1714 32.9135C92.6218 32.5414 92.896 32.4239 92.896 32.4043C92.896 32.4043 92.759 32.6785 92.5827 33.2073C92.4064 33.697 92.2105 34.4608 92.2889 35.2443C92.3672 36.0473 92.759 36.8111 93.4249 37.6729C93.5816 37.8884 93.7774 38.1038 93.9733 38.3388L94.2671 38.6914C94.3454 38.7893 94.5217 38.9852 94.4826 38.9264C94.5413 38.9264 94.5413 38.8677 94.5413 38.8677C94.5413 38.8677 94.5413 38.9264 94.6001 38.9264H94.6196C94.6392 38.9068 94.6196 38.946 94.6784 38.8481L94.8938 38.4563C95.0309 38.2017 95.1485 37.9471 95.266 37.7121C95.7165 36.7132 95.9319 35.8514 95.8144 35.1072C95.6381 34.3433 95.2072 33.7166 94.8546 33.3248Z" fill="#FCC889"/>
<path d="M75.6216 28.1347C76.7772 27.3513 77.8544 26.5678 79.0295 25.9019L79.4604 25.6669C79.5975 25.6081 79.7738 25.5102 79.8325 25.4906C79.9892 25.4123 80.1655 25.3535 80.3418 25.2752C80.6943 25.1381 81.0273 25.0205 81.3994 24.9422C82.0849 24.7463 82.8096 24.6484 83.5147 24.668C84.2002 24.6876 84.8465 24.8443 85.3753 25.1185C86.433 25.6669 86.8443 26.4699 87.0598 26.9595C87.2556 27.4884 87.2948 27.7626 87.2948 27.7626C87.2948 27.7626 87.0793 27.5471 86.668 27.2533C86.2763 26.9595 85.6104 26.5874 84.8661 26.5678C84.1219 26.5287 83.2796 26.8224 82.3199 27.3317C82.0849 27.4688 81.8303 27.6059 81.5953 27.7626L81.2231 27.9976C81.1252 28.0564 81.1644 28.0368 81.1644 28.0564V28.0759C81.1644 28.1151 81.2035 28.1151 81.2035 28.1151C81.2035 28.1151 81.1644 28.1151 81.1644 28.1739C81.1056 28.1543 81.3211 28.311 81.419 28.3697L81.7715 28.6243C82.0066 28.8006 82.2416 28.9377 82.4571 29.0944C83.358 29.6428 84.1414 29.9562 84.9444 29.9562C85.7279 29.9758 86.4721 29.7016 86.9618 29.4861C87.4514 29.2707 87.7257 29.114 87.7257 29.114C87.7257 29.114 87.6081 29.3882 87.2752 29.8387C86.9422 30.2891 86.3742 30.9551 85.2774 31.4251C84.7486 31.6602 84.0827 31.7973 83.3776 31.7777C82.6921 31.7777 81.9674 31.6406 81.2819 31.4251C80.9489 31.3076 80.616 31.1901 80.283 31.0334C80.1264 30.9551 79.9501 30.8767 79.7934 30.818C79.6171 30.72 79.5387 30.6809 79.2058 30.485C78.109 29.7995 76.9142 29.0356 75.7195 28.2522L75.6216 28.1347Z" fill="#FCC889"/>
<path d="M91.1331 31.4251C87.9994 31.5034 87.8819 26.6069 91.0352 26.5286C94.1886 26.4698 94.2865 31.3467 91.1331 31.4251Z" fill="#FCC889"/>
<path d="M177.312 2.35948C174.354 2.7512 170.946 3.71091 167.695 5.66951C166.206 6.55087 164.757 7.6281 163.386 8.90118C162.309 9.88048 161.29 10.9969 160.331 12.1916C159.821 12.7988 159.351 13.4451 158.881 14.111C157.647 15.9325 156.609 17.8128 155.806 19.7322C154.984 21.632 154.416 23.5515 153.965 25.4709C153.103 29.2706 152.829 32.8548 153.005 35.8318C153.162 38.8089 153.828 41.1984 154.474 42.7848C155.121 44.3713 155.708 45.1743 155.689 45.1939C155.708 45.1743 154.905 44.5868 153.867 43.1374C152.79 41.7076 151.517 39.3573 150.753 36.1844C149.97 33.031 149.656 29.1139 150.166 24.805C150.44 22.6701 150.89 20.3981 151.713 18.1262C152.535 15.8738 153.652 13.641 155.101 11.5257C155.219 11.369 155.336 11.1927 155.454 11.036C156.355 9.76296 157.373 8.56822 158.45 7.47141C160.722 5.21903 163.269 3.39754 165.893 2.2028C169.947 0.322546 173.982 -0.12793 177.214 0.0287573C180.465 0.185445 182.972 0.910124 184.637 1.45853C186.302 2.02652 187.183 2.45741 187.183 2.43783C187.183 2.43783 186.223 2.30073 184.48 2.14404C182.776 2.06569 180.269 1.96776 177.312 2.35948Z" fill="#FCC889"/>
<path d="M154.181 10.037C152.104 9.35145 150.067 8.50925 148.011 7.56913C146.992 7.09906 145.994 6.629 145.014 6.15894C144.505 5.90432 144.113 5.70846 143.682 5.5126C143.252 5.33633 142.821 5.16006 142.39 5.00337C140.647 4.39621 138.845 4.08283 137.121 3.9849C133.654 3.78904 130.482 4.55289 128.151 5.82598C125.8 7.09906 124.332 8.90097 123.568 10.272C122.804 11.6626 122.588 12.5831 122.569 12.5635C122.588 12.5635 122.51 11.643 122.902 9.99778C123.293 8.37215 124.39 5.98267 126.839 3.92614C129.248 1.88921 132.891 0.322332 137.102 0.0677152C139.197 -0.0498004 141.45 0.146059 143.682 0.772809C144.25 0.929496 144.799 1.10577 145.367 1.32121C145.935 1.53666 146.503 1.79128 146.953 2.00672L149.911 3.33857C151.909 4.23952 153.828 5.12089 155.669 5.84556C156.335 6.11977 156.981 6.3548 157.628 6.57024C156.55 7.64747 155.552 8.84221 154.631 10.1349C154.474 10.1349 154.318 10.0761 154.181 10.037Z" fill="#FCC889"/>
<path d="M164.541 9.19493L165.697 9.48872C166.48 9.665 167.244 9.78251 168.008 9.82168C169.536 9.91961 171.005 9.74334 172.297 9.41038C174.902 8.76404 176.782 7.41261 177.86 6.27663C178.957 5.12106 179.348 4.27886 179.368 4.27886C179.348 4.25928 179.25 5.1994 178.447 6.68793C177.644 8.15688 175.96 10.1938 173.1 11.5648C171.671 12.2503 169.986 12.7792 168.106 12.9554C167.166 13.0534 166.167 13.0729 165.148 12.975C164.169 12.8575 163.288 12.7596 162.289 12.6225C162.034 12.5833 161.741 12.5245 161.466 12.4854C162.446 11.2906 163.464 10.1938 164.541 9.19493Z" fill="#FCC889"/>
</svg>
