<svg width="202" height="204" viewBox="0 0 202 204" fill="none" xmlns="http://www.w3.org/2000/svg">
<path d="M35.2855 24.0927C33.0984 20.1716 29.6896 15.9747 25.0986 12.1916C22.7933 10.3197 20.1924 8.52665 17.2565 7.02916C15.7787 6.26071 14.2221 5.57107 12.5473 5.01937L11.8182 4.78292L10.6557 4.46766C9.88725 4.27062 9.1188 4.13269 8.37005 4.01447C6.87256 3.81743 5.43418 3.69921 3.87757 3.56128V3.60069C3.73965 5.13759 3.58202 6.51686 3.5032 8.01435C3.4835 8.7631 3.5032 9.55125 3.58202 10.3197C3.62142 10.7138 3.66083 11.1079 3.71994 11.5019L3.81846 12.0931L3.87757 12.4674C4.23224 14.2605 4.80366 15.9353 5.45388 17.5116C6.79375 20.6445 8.54739 23.344 10.3996 25.6887C14.163 30.3782 18.4387 33.7082 22.281 35.9347C26.1429 38.1613 29.5911 39.245 31.9753 39.7573C34.3791 40.2499 35.719 40.2499 35.719 40.2499C35.7781 40.2105 30.4187 38.713 24.1726 33.255C21.079 30.5753 17.7294 26.9301 14.892 22.4573C13.4931 20.2307 12.1926 17.7875 11.2665 15.2063C10.8133 13.9058 10.439 12.5856 10.2222 11.2655L10.1631 11.0882H10.1828C10.1828 11.0882 10.1828 11.0882 10.1828 11.0685V11.0487L10.5769 11.167C11.9167 11.5808 13.2566 12.0733 14.5374 12.6448C17.1383 13.7876 19.5618 15.1669 21.8081 16.6249C26.2809 19.5411 29.9458 22.812 32.5664 25.9449C35.2067 29.0581 36.7239 32.0728 37.3938 34.319C38.0638 36.5652 38.0244 37.9445 38.0638 37.9248C38.0244 37.9248 38.4973 36.6244 38.3987 34.1417C38.3593 31.6787 37.5121 28.0335 35.2855 24.0927Z" fill="#FCC889"/>
<path d="M40.9603 40.0134C37.788 40.0134 37.788 44.9394 40.9603 44.9394C44.1326 44.9394 44.1326 40.0134 40.9603 40.0134Z" fill="#FCC889"/>
<path d="M23.601 28.861C28.0344 28.861 28.0344 21.9646 23.601 21.9646C19.148 21.9646 19.148 28.861 23.601 28.861Z" fill="#FCC889"/>
<path d="M60.2702 56.9192C60.2308 56.7221 60.1913 56.4266 60.1519 56.3478C60.0928 56.1113 60.0337 55.8552 59.9746 55.6187C59.8367 55.1458 59.679 54.6729 59.5017 54.2197C59.1273 53.3134 58.6544 52.4661 58.0436 51.7371C57.4525 51.008 56.7235 50.4366 55.9747 50.1016C54.4772 49.412 53.2162 49.6484 52.4871 49.8258C51.7384 50.0425 51.3837 50.2593 51.364 50.2396C51.364 50.2396 51.7975 50.2987 52.4871 50.4957C53.1768 50.6928 54.1226 51.0671 54.7531 51.8553C55.423 52.6237 55.7974 53.7666 56.0141 55.2049C56.0732 55.5596 56.1126 55.9537 56.1323 56.3478L56.1718 56.9586C56.1915 57.0965 56.1718 57.0571 56.1718 57.0768L56.1521 57.0965C56.0929 57.1359 56.0535 57.0965 56.0535 57.0768C56.0535 57.0768 56.0929 57.1162 56.0338 57.1556C56.1126 57.195 55.758 57.0965 55.6003 57.0571L55.0092 56.8798C54.6151 56.7615 54.2605 56.6433 53.9058 56.5251C52.5265 56.0128 51.5216 55.4217 50.8517 54.5744C50.1818 53.7271 49.8862 52.7222 49.7089 52.0326C49.5513 51.3233 49.5119 50.8898 49.4921 50.8898C49.4921 50.8898 49.2754 51.2445 49.039 51.9932C48.8025 52.7223 48.507 53.8848 48.8813 55.4414C49.0784 56.2098 49.4724 57.0374 50.0439 57.7861C50.635 58.5152 51.3837 59.1851 52.1916 59.7171C52.6054 59.993 53.0388 60.2491 53.4723 60.4659C53.6891 60.5841 53.9255 60.7023 54.1423 60.8008C54.3984 60.9191 54.4969 60.9585 55.0092 61.1752C56.7038 61.8057 58.5756 62.4363 60.4475 63.0471L60.6051 63.0865C60.546 61.1949 60.546 59.3822 60.3096 57.5694L60.2702 56.9192Z" fill="#FCC889"/>
<path d="M59.1275 41.4125C58.9698 41.3336 58.7531 41.2351 58.694 41.2154C58.4969 41.1169 58.2999 41.0381 58.0832 40.979C57.6891 40.841 57.2753 40.7031 56.8812 40.6046C56.0734 40.4076 55.2261 40.3287 54.4379 40.3879C53.6301 40.447 52.8813 40.6637 52.2705 41.0184C51.0489 41.7277 50.5957 42.7129 50.3789 43.3237C50.1425 43.9542 50.1228 44.3089 50.1228 44.3089C50.1228 44.3089 50.3789 44.0331 50.8518 43.6587C51.3247 43.2843 52.0538 42.8114 52.9207 42.7523C53.7877 42.6735 54.7532 42.9691 55.8763 43.5405C56.1522 43.6784 56.428 43.836 56.7236 44.0134L57.1571 44.2892C57.2556 44.3483 57.2162 44.3286 57.2359 44.3483V44.368C57.2359 44.4271 57.1768 44.4271 57.1768 44.4271C57.1768 44.4271 57.2162 44.4271 57.2162 44.4863C57.295 44.4468 57.0388 44.6439 56.9403 44.7424L56.5265 45.0774C56.2507 45.2744 55.9945 45.4912 55.7384 45.6488C54.7138 46.3778 53.7877 46.7719 52.8813 46.8113C51.975 46.8704 51.108 46.5946 50.5366 46.3581C49.9652 46.1217 49.6499 45.9443 49.6499 45.9443C49.6499 45.9443 49.7878 46.2793 50.1819 46.8113C50.576 47.3236 51.2459 48.1118 52.507 48.6044C53.1178 48.8605 53.9059 48.9787 54.6941 48.9393C55.5019 48.8999 56.3295 48.7029 57.1177 48.4073C57.5117 48.2497 57.9058 48.0724 58.2802 47.8753C58.4575 47.7768 58.6546 47.6783 58.8319 47.5601C59.0486 47.4418 59.1275 47.4024 59.5215 47.1266C60.8023 46.2596 62.1422 45.2547 63.5214 44.2498L63.6199 44.171C62.2801 43.2843 61.019 42.3779 59.6201 41.6686L59.1275 41.4125Z" fill="#FCC889"/>
<path d="M46.3591 52.2299C45.8468 51.8161 45.5315 51.6584 45.5512 51.6584C45.5512 51.6584 45.7089 51.9934 45.9453 52.5648C46.162 53.1362 46.4182 53.9835 46.3591 54.9096C46.3197 55.816 45.9256 56.7223 45.2163 57.7075C45.0389 57.9637 44.8616 58.2198 44.6448 58.476L44.3296 58.8701C44.2508 58.9883 44.0537 59.2247 44.0931 59.1459C44.034 59.1459 44.034 59.0868 44.034 59.0868C44.034 59.0868 44.034 59.1459 43.9749 59.1459H43.9552C43.9355 59.1262 43.9552 59.1656 43.8961 59.0671L43.6399 58.6139C43.4823 58.3183 43.3444 58.0228 43.1868 57.7469C42.6548 56.6238 42.3789 55.6189 42.4577 54.7717C42.5168 53.9047 42.97 53.1953 43.3444 52.7422C43.7188 52.289 43.9749 52.0525 43.9749 52.0525C43.9749 52.0525 43.6399 52.0722 43.0291 52.2693C42.4577 52.486 41.5119 52.8998 40.8223 54.1017C40.4873 54.6731 40.2509 55.4219 40.1918 56.2297C40.1327 57.0179 40.2115 57.8652 40.3888 58.673C40.4873 59.0868 40.5858 59.5006 40.7238 59.8947C40.8026 60.0917 40.8617 60.3084 40.9405 60.4858C40.9602 60.5449 41.0587 60.7813 41.1376 60.939L41.3937 61.471C42.0833 62.8699 42.9306 64.1507 43.7779 65.5103L43.8567 65.4117C44.8222 64.0719 45.7877 62.7714 46.6152 61.5301C46.8714 61.1557 46.9108 61.0769 47.029 60.8602C47.1275 60.6828 47.2261 60.5055 47.3246 60.3084C47.5216 59.9341 47.6792 59.5597 47.8369 59.1656C48.1324 58.3972 48.3295 57.5696 48.3689 56.7617C48.4083 55.9539 48.2901 55.1854 48.0536 54.5549C47.5807 53.3333 46.832 52.6436 46.3591 52.2299Z" fill="#FCC889"/>
<path d="M75.5402 17.3144L75.0082 16.8021L74.5747 16.3883C72.9984 14.9696 71.3433 13.7283 69.6488 12.7234C66.2991 10.6742 62.8312 9.55108 59.8953 9.21611C56.9398 8.88115 54.5753 9.29493 53.0581 9.70871C51.5409 10.1422 50.7725 10.556 50.7725 10.5363C50.7725 10.556 51.6394 10.5166 53.1369 10.6939C54.6541 10.8712 56.7624 11.2653 59.1072 12.2899C61.452 13.2948 64.0135 14.8908 66.5158 17.0977C67.7769 18.2011 69.0182 19.4424 70.2596 20.7823C70.3581 20.9005 70.3581 20.9005 70.3581 20.9005V20.9202C70.3581 20.9399 70.3581 20.9596 70.3581 20.9596C70.3581 20.9793 70.3384 20.999 70.3187 20.999C70.299 21.0187 70.2596 21.0187 70.2399 20.999C70.2399 20.999 70.2596 21.0187 70.2596 21.0384C70.2596 21.0581 70.2596 21.0581 70.2399 21.0778C70.299 21.0975 69.6094 21.1369 69.2153 21.1764C67.4222 21.2749 65.708 21.2158 64.112 20.9793C60.92 20.4867 58.2402 19.1863 56.2501 17.5114C54.2403 15.8563 52.9202 14.0042 52.0532 12.7037C51.2059 11.3638 50.7725 10.556 50.7725 10.556C50.7922 10.556 50.7922 11.4624 51.1074 13.0781C51.4227 14.6741 52.0532 17.0582 53.8069 19.6789C55.5211 22.2798 58.6343 24.9792 62.7524 26.2994C64.7819 26.989 67.0084 27.3634 69.2744 27.4225C69.9049 27.4422 70.2399 27.4422 71.3236 27.3831C72.3482 27.324 73.3728 27.2057 74.3777 27.0481C75.3629 26.8905 76.3481 26.6737 77.2347 26.4373L79.8554 25.6294L81.6484 25.0777C80.545 23.5211 79.5992 22.0827 78.4367 20.5852C77.8456 19.8365 77.215 19.0877 76.5451 18.3784C76.2101 18.004 75.8752 17.6494 75.5402 17.3144Z" fill="#FCC889"/>
<path d="M60.1122 18.5754C63.2254 17.9055 62.1811 13.0978 59.0876 13.7677C55.9941 14.4179 57.0187 19.2257 60.1122 18.5754Z" fill="#FCC889"/>
<path d="M86.1805 9.84668C83.0082 9.84668 83.0082 14.7726 86.1805 14.7726C89.3528 14.7529 89.3528 9.84668 86.1805 9.84668Z" fill="#FCC889"/>
<path d="M94.1409 30.1022C98.5743 30.1022 98.5743 23.2058 94.1409 23.2058C89.7076 23.2058 89.7076 30.1022 94.1409 30.1022Z" fill="#FCC889"/>
<path d="M108.17 21.1372C108.209 21.1372 107.874 17.1767 107.323 15.3048C106.278 12.2901 104.86 9.0981 102.85 6.69423C102.042 5.82726 101.175 5.05881 100.229 4.42828C97.9043 2.81257 95.2443 2.06382 92.8798 1.9456C90.4956 1.82737 88.3282 2.20175 86.4761 2.93079C84.6239 3.65983 83.1461 4.80266 82.1412 6.0243C80.092 8.54639 79.895 11.1079 79.9344 12.6251C80.0132 14.2014 80.2693 14.9501 80.2496 14.9501C80.2693 14.9501 80.092 14.1423 80.2102 12.566C80.3482 11.0488 80.8802 8.6055 83.0279 6.576C85.1165 4.54651 88.8799 3.44309 93.0177 4.17213C95.0472 4.54651 97.1161 5.45288 98.8304 7.00949C99.1259 7.28534 99.4018 7.5809 99.6776 7.89616C99.6382 7.89616 104.091 13.1965 103.559 20.4672C103.559 20.6052 104.17 25.669 100.426 29.1566C97.6284 31.7575 93.0177 37.9446 76.4468 37.5505C76.23 37.2155 76.033 36.9002 75.7966 36.5653C75.5995 36.3091 75.3828 36.0333 75.166 35.7771C74.969 35.5801 74.8114 35.4028 74.634 35.2254C75.0872 35.2057 75.5404 35.186 75.9739 35.1466C78.1216 34.9299 79.9935 34.2205 81.6683 33.2747C83.3234 32.329 84.7421 31.1073 85.7273 29.6689C86.7322 28.2503 87.146 26.4572 86.9884 25.3341C86.8701 24.211 86.5549 23.7578 86.5746 23.7381C86.5549 23.7184 86.614 24.3489 86.3972 25.1962C86.1608 26.0434 85.3726 26.6739 84.5057 27.5015C82.3382 29.531 78.4369 30.8709 72.5454 30.9891L65.9643 30.4965C65.6688 30.4374 65.3535 30.3783 65.058 30.3389C62.4965 30.0433 58.3981 29.4325 58.3981 29.4128C58.3981 29.4325 62.4965 31.3832 64.6245 32.9004C66.0629 33.9053 67.8559 35.2648 69.7081 36.8608C66.6737 36.25 63.7378 35.1663 60.9399 33.7476C59.2059 32.8413 57.0385 32.2698 55.2651 31.2452C60.999 35.9545 67.2451 38.8903 73.373 40.3878C73.6094 40.6834 73.8656 40.9987 74.0823 41.3139C74.5946 42.043 75.0675 42.8311 75.4616 43.5996C76.2695 45.1562 76.8015 46.6734 76.9197 47.9738C77.0576 49.2546 76.6832 50.3777 76.3089 51.0673C75.9345 51.757 75.6192 52.0919 75.6192 52.1116C75.6192 52.0919 76.0133 52.1116 76.6832 51.757C77.3335 51.422 78.3975 50.4959 78.8507 48.5058C79.3039 46.5551 79.0674 44.0527 78.3384 41.708C78.299 41.5701 78.2398 41.4321 78.2004 41.2942C79.1068 41.3927 80.0329 41.4912 80.9393 41.5307C103.638 42.6932 108.15 24.6247 108.17 21.1372Z" fill="#FCC889"/>
<path d="M129.844 10.5562C136.051 12.2507 143.321 13.0192 150.769 12.1719C151.656 12.0734 152.503 11.9748 153.351 11.8369C152.74 12.2507 152.09 12.6448 151.321 12.9994C149.351 13.9452 146.927 14.6349 144.129 15.0092C138.553 15.7186 131.479 15.1669 123.815 12.96C121.884 12.428 120.051 11.7187 117.923 10.9108C115.815 10.1424 113.608 9.39364 111.263 8.74342C109.194 8.19171 107.066 7.67941 104.623 7.50207C105.864 9.43305 106.889 11.4625 107.638 13.5709C108.505 13.6891 109.391 13.827 110.239 14.0043C112.465 14.4378 114.633 14.9895 116.721 15.5807C118.79 16.1718 121.056 16.8023 123.145 17.1767C131.578 18.7727 139.026 18.5559 144.839 17.0979C147.735 16.3688 150.218 15.3048 152.149 14.0438C153.39 13.2359 154.375 12.3689 155.183 11.5217C160.917 10.4774 166.178 8.82223 170.986 7.54148C174 6.73362 176.877 6.08339 179.577 5.70902C182.296 5.31494 184.837 5.19672 187.163 5.29524C191.832 5.49228 195.576 6.49718 198.098 7.30503C200.64 8.11289 202 8.70401 202 8.70401C202 8.72371 200.738 7.91585 198.295 6.77303C195.852 5.66961 192.187 4.17212 187.32 3.50219C184.897 3.16722 182.197 3.049 179.32 3.24604C176.444 3.42337 173.409 3.91597 170.296 4.5859C166.316 5.43317 162.198 6.51688 157.922 7.38385C157.942 7.34444 157.961 7.28533 157.981 7.22622C157.902 7.24592 157.804 7.26563 157.725 7.28533C157.705 7.32474 157.686 7.38385 157.646 7.42326C155.282 7.89615 152.858 8.30993 150.395 8.58578C143.341 9.39364 136.583 8.88134 130.553 7.60059C124.504 6.33954 119.066 4.54649 114.337 3.50219C109.628 2.41848 105.687 2.12292 103.007 2.16233C100.308 2.20173 98.8498 2.45788 98.8498 2.45788C98.8104 2.517 104.899 2.22144 113.864 5.27554C118.357 6.67451 123.618 8.88134 129.844 10.5562Z" fill="#FCC889"/>
<path d="M133.017 20.546C132.051 21.0386 130.751 21.413 129.174 21.4918C127.598 21.5706 125.785 21.3933 123.756 20.9795C119.657 20.1914 114.85 18.418 108.82 16.9205C108.781 16.9008 108.722 16.9008 108.663 16.8811C108.84 17.551 108.978 18.2604 109.076 18.9697C109.076 18.9894 109.076 18.9894 109.096 19.0091C109.096 19.0682 109.096 19.1273 109.096 19.1668C109.175 19.8367 109.214 20.5263 109.214 21.2357C109.214 21.2554 109.214 21.2751 109.195 21.2948C114.653 22.0435 119.559 23.0484 123.677 23.1863C125.844 23.2849 127.815 23.1666 129.49 22.7726C131.145 22.3982 132.485 21.7283 133.391 21.0386C134.317 20.3293 134.829 19.6199 135.145 19.147C135.44 18.6742 135.578 18.3983 135.578 18.3983C135.578 18.3983 135.401 18.6347 134.987 19.0682C134.613 19.4623 133.982 20.0337 133.017 20.546Z" fill="#FCC889"/>
<path d="M92.1899 19.6592C91.3427 20.6641 90.7122 21.7675 90.2393 22.8906C90.9683 21.5113 92.3476 20.5064 94.3771 20.5064C96.0125 20.5064 97.2144 21.1567 98.0026 22.1221C98.4558 21.8069 99.0075 21.5507 99.638 21.3734C100.466 21.1173 101.392 20.9793 102.337 20.9202C102.771 18.6149 101.884 15.6199 101.884 15.6199C99.2045 16.2701 93.8057 17.7085 92.1899 19.6592Z" fill="#FCC889"/>
<path d="M98.1996 8.58564C97.1553 9.21616 96.2884 10.2014 95.8155 11.3442C95.5593 11.9353 95.4411 12.5461 95.382 13.1766C95.3032 13.8269 95.3426 15.0485 94.1406 16.1716L101.746 14.0042C101.727 13.8269 99.8942 9.66935 98.574 8.3689C98.4361 8.42801 98.3178 8.50682 98.1996 8.58564Z" fill="#FCC889"/>
<path d="M118.633 37.511C118.613 37.511 118.652 37.5307 118.534 37.511L118.002 37.4519C117.667 37.4125 117.332 37.373 117.017 37.3139C115.756 37.0972 114.771 36.7425 114.121 36.1317C113.451 35.5603 113.135 34.713 112.978 34.1022C112.82 33.4914 112.8 33.117 112.8 33.1367C112.8 33.1367 112.603 33.452 112.406 34.1022C112.229 34.7327 111.993 35.8361 112.564 37.1563C112.84 37.8065 113.313 38.4568 113.924 38.9888C114.534 39.5405 115.283 39.974 116.071 40.3089C116.465 40.4863 116.879 40.6242 117.293 40.7621C117.49 40.8409 117.707 40.9 117.923 40.9394C117.983 40.9592 118.239 40.9986 118.416 41.038L119.007 41.1365C120.583 41.3926 122.14 41.432 123.795 41.5306L123.756 41.4123C123.243 39.7375 122.751 38.1218 122.239 36.6046C122.081 36.1514 122.042 36.0726 121.943 35.8559C121.864 35.6588 121.766 35.4618 121.667 35.2647C121.49 34.8707 121.273 34.4963 121.056 34.1219C120.583 33.3929 120.032 32.7229 119.401 32.1909C118.771 31.6589 118.042 31.3043 117.391 31.1072C116.052 30.7328 115.027 30.989 114.377 31.1466C113.726 31.3437 113.411 31.521 113.411 31.521C113.411 31.521 113.786 31.5801 114.396 31.7377C115.007 31.8954 115.874 32.1909 116.584 32.7821C117.313 33.3929 117.805 34.2795 118.219 35.5012C118.317 35.7967 118.416 36.112 118.495 36.4667L118.633 36.979C118.672 37.1366 118.751 37.4322 118.712 37.3533C118.672 37.3928 118.633 37.3731 118.633 37.3731C118.652 37.3928 118.692 37.4322 118.633 37.511Z" fill="#FCC889"/>
<path d="M107.067 32.4863C107.421 32.0922 107.658 31.8755 107.658 31.8755C107.658 31.8755 107.343 31.8952 106.791 32.0725C106.259 32.2696 105.392 32.6439 104.742 33.6882C104.427 34.2005 104.21 34.8508 104.131 35.5601C104.052 36.2498 104.111 36.9788 104.269 37.7078C104.348 38.0625 104.446 38.4172 104.564 38.7915C104.624 38.9689 104.683 39.1462 104.742 39.3236C104.761 39.3827 104.84 39.5797 104.919 39.7176L105.136 40.1708C105.747 41.3925 106.476 42.5156 107.224 43.7175L107.284 43.619C108.21 42.4368 109.096 41.2939 109.884 40.1905C110.121 39.8556 110.16 39.7767 110.279 39.6191C110.377 39.4615 110.456 39.3038 110.554 39.1265C110.732 38.8113 110.889 38.4763 111.027 38.1413C111.323 37.4517 111.52 36.7423 111.559 36.033C111.618 35.3237 111.52 34.6537 111.323 34.102C110.909 32.9986 110.259 32.3878 109.806 32.0331C109.352 31.6785 109.077 31.5405 109.077 31.5405C109.077 31.5405 109.215 31.8361 109.412 32.3287C109.609 32.8213 109.825 33.57 109.747 34.3779C109.687 35.1857 109.313 35.9739 108.663 36.8409C108.505 37.0576 108.328 37.2941 108.131 37.5305L107.835 37.8852C107.756 37.9837 107.579 38.2004 107.599 38.1413C107.559 38.1413 107.54 38.1019 107.54 38.1019C107.54 38.1019 107.54 38.1413 107.481 38.1413H107.461C107.441 38.1216 107.461 38.161 107.402 38.0625L107.185 37.6684C107.047 37.4123 106.909 37.1561 106.791 36.9197C106.318 35.9345 106.101 35.0675 106.18 34.3188C106.298 33.5306 106.732 32.9001 107.067 32.4863Z" fill="#FCC889"/>
<path d="M126.298 26.8513C125.116 26.0828 124.032 25.3144 122.83 24.6839L122.377 24.4474C122.239 24.3883 122.042 24.2898 121.983 24.2701C121.805 24.1913 121.628 24.1322 121.47 24.0534C121.116 23.9351 120.761 23.8169 120.406 23.7184C119.697 23.5411 118.968 23.4622 118.278 23.5016C117.589 23.5411 116.939 23.7184 116.407 23.9942C115.362 24.5657 114.968 25.3735 114.771 25.8858C114.594 26.4178 114.574 26.6937 114.554 26.6937C114.554 26.6937 114.751 26.4769 115.165 26.1617C115.579 25.8464 116.21 25.472 116.978 25.4326C117.727 25.3735 118.574 25.6494 119.539 26.142C119.776 26.2602 120.032 26.3981 120.288 26.5557L120.663 26.7922C120.761 26.8513 120.722 26.8316 120.722 26.8513V26.871C120.722 26.9104 120.682 26.9104 120.682 26.9104C120.682 26.9104 120.722 26.9104 120.722 26.9695C120.781 26.9498 120.584 27.0877 120.466 27.1666L120.111 27.4227C119.874 27.6 119.658 27.7577 119.441 27.8956C118.554 28.4867 117.766 28.802 116.958 28.8217C116.17 28.8414 115.421 28.6049 114.929 28.4079C114.436 28.1912 114.141 28.0532 114.141 28.0532C114.141 28.0532 114.259 28.3291 114.614 28.7823C114.968 29.2355 115.54 29.8857 116.643 30.3192C117.175 30.5359 117.865 30.6541 118.554 30.6344C119.244 30.6147 119.973 30.4571 120.643 30.2207C120.978 30.1024 121.313 29.9645 121.648 29.8069C121.825 29.7281 121.983 29.6492 122.121 29.5507C122.298 29.4522 122.377 29.4325 122.712 29.2158C123.815 28.5064 124.978 27.6986 126.16 26.8907L126.298 26.8513Z" fill="#FCC889"/>
<path d="M110.771 30.5163C113.924 30.5163 113.924 25.5903 110.771 25.5903C107.599 25.5903 107.599 30.5163 110.771 30.5163Z" fill="#FCC889"/>
<path d="M23.4631 3.22629C26.4384 3.56126 29.8866 4.44793 33.2166 6.3395C34.7338 7.18677 36.2115 8.25078 37.6105 9.49212C38.7139 10.4576 39.7779 11.561 40.7631 12.7433C41.2754 13.3541 41.768 13.9846 42.2409 14.6545C43.5217 16.4476 44.6054 18.3392 45.4724 20.2307C46.3393 22.1026 46.9501 24.0533 47.4427 25.9645C48.4082 29.7674 48.7629 33.3535 48.6447 36.3682C48.5265 39.3829 47.9353 41.7867 47.3048 43.4025C46.694 45.0182 46.1226 45.826 46.1423 45.8457C46.1226 45.826 46.891 45.2152 47.9353 43.7374C48.9599 42.2793 50.2013 39.8755 50.9106 36.6637C51.62 33.4717 51.8564 29.5112 51.2456 25.2158C50.9303 23.0681 50.418 20.8021 49.5314 18.5362C48.6644 16.2702 47.4624 14.0634 45.965 11.9748C45.8467 11.7975 45.7285 11.6595 45.5906 11.5019C44.6448 10.2409 43.6202 9.05863 42.4971 7.99463C40.172 5.76809 37.5514 4.01445 34.8717 2.87162C30.7536 1.07857 26.6946 0.704197 23.4434 0.940643C20.2317 1.13768 17.7293 1.92584 16.0545 2.51695C14.3797 3.10807 13.5127 3.58096 13.5127 3.56126C13.5127 3.56126 14.4782 3.38392 16.2121 3.20659C17.9461 3.04896 20.4485 2.87162 23.4631 3.22629Z" fill="#FCC889"/>
<path d="M46.8909 10.4182C48.9598 9.68912 51.009 8.78274 53.0385 7.79754C54.0631 7.30495 55.0483 6.81235 56.0138 6.30005C56.5261 6.0439 56.9202 5.82716 57.3537 5.63012C57.7675 5.43308 58.201 5.25575 58.6344 5.07841C60.3684 4.42818 62.1614 4.07351 63.8954 3.91588C67.383 3.64003 70.5947 4.34937 72.9591 5.59071C75.363 6.81235 76.8802 8.6054 77.6684 9.96497C78.4762 11.3442 78.693 12.2703 78.7127 12.2506C78.693 12.2506 78.7521 11.3245 78.3186 9.66941C77.8851 8.05369 76.7423 5.64982 74.2202 3.65973C71.7572 1.64994 68.0726 0.17215 63.8166 0.014519C61.7082 -0.0642965 59.462 0.17215 57.2158 0.861785C56.6641 1.03912 56.0926 1.23616 55.5409 1.4529C54.9892 1.66964 54.4178 1.9455 53.9646 2.16224L51.0287 3.64003C49.0584 4.58581 47.1471 5.5119 45.3146 6.28035C44.6447 6.5562 43.9945 6.81235 43.3442 7.0488C44.4477 8.11281 45.492 9.27533 46.4377 10.5561C46.5954 10.5167 46.753 10.4576 46.8909 10.4182Z" fill="#FCC889"/>
<path d="M36.4479 9.827L35.2854 10.1423C34.4973 10.359 33.7288 10.4772 32.9604 10.5363C31.4235 10.6743 29.9457 10.5363 28.6452 10.2408C26.0049 9.62996 24.0936 8.32951 22.9902 7.20639C21.8671 6.08327 21.4533 5.236 21.4336 5.25571C21.4533 5.25571 21.5715 6.16209 22.4188 7.65958C23.2463 9.11766 24.9803 11.1275 27.8965 12.4476C29.3348 13.0978 31.0491 13.5904 32.9604 13.7284C33.9061 13.8072 34.8913 13.7875 35.9159 13.6693C36.9011 13.551 37.7878 13.4131 38.7927 13.2555C39.0488 13.2161 39.3444 13.157 39.6203 13.0978C38.6154 11.8762 37.5514 10.7925 36.4479 9.827Z" fill="#FCC889"/>
<path d="M17.5916 77.1156L17.0596 76.6033L16.6458 76.1895C15.1877 74.6329 13.9267 72.9975 12.8824 71.3424C10.7741 68.0321 9.55242 64.5839 9.17804 61.6481C8.76426 58.6925 9.13864 56.328 9.53271 54.7911C9.92679 53.2542 10.3406 52.4858 10.3209 52.4858C10.3406 52.4858 10.3209 53.3527 10.5179 54.8699C10.7149 56.3674 11.1681 58.4757 12.2321 60.8008C13.2764 63.1259 14.9513 65.6479 17.1975 68.1109C18.3206 69.3523 19.5817 70.5739 20.961 71.7561C21.0792 71.8744 21.0792 71.8547 21.0792 71.8547H21.0989C21.1186 71.8547 21.1186 71.8547 21.1383 71.8547C21.158 71.8547 21.1777 71.835 21.1777 71.8153C21.1974 71.7758 21.1777 71.7561 21.1777 71.7364C21.1777 71.7364 21.1974 71.7561 21.2171 71.7561C21.2368 71.7561 21.2368 71.7561 21.2565 71.7364C21.2762 71.7955 21.3156 71.1059 21.3353 70.7118C21.4141 68.9188 21.2959 67.1848 21.0201 65.6085C20.4684 62.4165 19.0891 59.7762 17.3946 57.8058C15.7 55.8354 13.8085 54.535 12.4883 53.7074C11.1484 52.8798 10.3209 52.4858 10.3406 52.4661C10.3406 52.4858 11.2272 52.4661 12.8627 52.7419C14.4587 53.0375 16.8625 53.6089 19.5226 55.3034C22.1629 56.9585 24.9214 60.0126 26.3401 64.0913C27.0494 66.1208 27.4829 68.3277 27.6012 70.6133C27.6209 71.2241 27.6603 71.5788 27.6209 72.6625C27.5815 73.6871 27.4829 74.7117 27.345 75.7166C27.2071 76.7018 27.01 77.687 26.7933 78.5934L26.0446 81.2337L25.5322 83.0465C23.9559 81.9825 22.4979 81.0564 20.961 79.9332C20.1925 79.3618 19.4438 78.7313 18.7147 78.1008C18.3009 77.8052 17.9266 77.4703 17.5916 77.1156Z" fill="#FCC889"/>
<path d="M18.4981 61.6873C17.907 64.8005 13.0795 63.8744 13.6707 60.7612C14.2618 57.6283 19.0892 58.5544 18.4981 61.6873Z" fill="#FCC889"/>
<path d="M10.3603 87.9724C10.2815 84.8001 15.2075 84.6818 15.2666 87.8542C15.3454 91.0265 10.4194 91.1447 10.3603 87.9724Z" fill="#FCC889"/>
<path d="M30.7537 95.4598C30.8522 99.8932 23.9755 100.051 23.877 95.6175C23.7785 91.1644 30.6749 91.0265 30.7537 95.4598Z" fill="#FCC889"/>
<path d="M22.1431 109.706C22.1431 109.745 18.1826 109.509 16.2713 108.997C13.2369 108.011 10.0252 106.671 7.58191 104.721C6.69524 103.933 5.90708 103.085 5.25685 102.159C3.58203 99.8539 2.77417 97.2333 2.61654 94.8492C2.45891 92.465 2.77417 90.2976 3.4638 88.4257C4.15344 86.5538 5.25685 85.0366 6.45879 84.012C8.92177 81.9037 11.4833 81.6673 13.0005 81.6673C14.5768 81.7067 15.3255 81.9628 15.3255 81.9431C15.3255 81.9628 14.5177 81.8052 12.9414 81.9628C11.4439 82.1402 9.00059 82.7116 7.0302 84.9184C5.04011 87.0464 4.03521 90.8493 4.86278 94.9674C5.27656 96.9969 6.22234 99.0461 7.81836 100.721C8.09421 101.016 8.40947 101.292 8.72473 101.548C8.72473 101.509 14.1039 105.864 21.3746 105.154C21.4928 105.154 26.5764 105.647 29.9655 101.805C32.5073 98.9476 38.5761 94.1989 37.8076 77.628C37.4727 77.4309 37.1574 77.2339 36.8224 76.9975C36.5466 76.8004 36.2904 76.6034 36.0343 76.3669C35.8372 76.1896 35.6402 76.032 35.4629 75.8546C35.4629 76.3078 35.4432 76.7413 35.4235 77.1945C35.2461 79.3619 34.5762 81.2535 33.6895 82.9283C32.7832 84.6031 31.6009 86.0612 30.1822 87.0661C28.803 88.1104 27.0099 88.5636 25.8868 88.4454C24.7637 88.3469 24.3105 88.0316 24.2908 88.0513C24.2711 88.0316 24.9016 88.0907 25.7292 87.8346C26.5764 87.5981 27.1873 86.7903 27.9951 85.8839C29.9458 83.6771 31.2068 79.7363 31.2068 73.8251L30.5763 67.244C30.5172 66.9485 30.4581 66.6332 30.399 66.3377C30.0443 63.7762 29.3547 59.6975 29.335 59.6975C29.3547 59.6975 31.4039 63.7565 32.9605 65.8648C34.0048 67.2835 35.4038 69.0371 37.0392 70.8499C36.3693 67.8352 35.2067 64.919 33.7289 62.1605C32.8029 60.4265 32.1723 58.2985 31.1083 56.5251C35.9555 62.1605 39.0293 68.3475 40.645 74.436C40.9405 74.6724 41.2755 74.9089 41.5908 75.1256C42.3395 75.6182 43.1277 76.0714 43.9158 76.4655C45.4921 77.2339 47.029 77.7265 48.3098 77.8053C49.6102 77.9038 50.694 77.5295 51.3836 77.1157C52.0732 76.7216 52.3885 76.4063 52.4082 76.4063C52.3885 76.4063 52.4082 76.8004 52.0732 77.4704C51.758 78.1403 50.8516 79.2043 48.8615 79.6969C46.9108 80.1895 44.4084 80.0121 42.044 79.3422C41.906 79.3028 41.7681 79.2634 41.6302 79.2043C41.7484 80.1304 41.8666 81.0368 41.9257 81.9431C43.5612 104.681 25.6306 109.607 22.1431 109.706Z" fill="#FCC889"/>
<path d="M12.0548 131.636C13.8873 137.823 14.8134 145.074 14.1237 152.562C14.0449 153.429 13.9464 154.296 13.8479 155.143C14.242 154.512 14.6163 153.862 14.971 153.094C15.8577 151.104 16.5079 148.66 16.8232 145.843C17.4143 140.247 16.6852 133.173 14.3208 125.548C13.7297 123.636 12.9809 121.804 12.1534 119.696C11.3455 117.607 10.5376 115.42 9.848 113.075C9.25689 111.026 8.70518 108.898 8.44903 106.455C10.3997 107.657 12.4489 108.622 14.5769 109.331C14.7346 110.198 14.8922 111.065 15.0695 111.932C15.5621 114.139 16.1532 116.287 16.7838 118.395C17.4143 120.444 18.1039 122.691 18.5177 124.779C20.291 133.173 20.2319 140.641 18.9315 146.493C18.2615 149.409 17.2567 151.931 16.035 153.882C15.2666 155.143 14.4193 156.148 13.572 156.975C12.6657 162.729 11.1288 168.049 9.96622 172.876C9.21748 175.911 8.64607 178.787 8.3111 181.507C7.97613 184.226 7.91702 186.768 8.07465 189.112C8.37021 193.782 9.47363 197.486 10.3209 200.009C11.1879 202.531 11.8184 203.89 11.7987 203.89C11.7987 203.89 10.9908 202.649 9.78889 200.225C8.62636 197.802 7.05005 194.156 6.2619 189.309C5.86782 186.886 5.71019 184.186 5.82841 181.31C5.94664 178.433 6.36042 175.379 6.95153 172.226C7.70028 168.246 8.68547 164.088 9.45392 159.793C9.41452 159.813 9.3554 159.832 9.316 159.852C9.3357 159.773 9.35541 159.694 9.37511 159.616C9.41452 159.596 9.45392 159.556 9.51304 159.537C9.92682 157.153 10.3012 154.729 10.4982 152.246C11.1485 145.192 10.4982 138.434 9.07955 132.405C7.68058 126.375 5.7693 120.976 4.62648 116.287C3.44425 111.597 3.05017 107.657 3.03046 104.977C3.01076 102.277 3.24721 100.819 3.2275 100.819C3.28661 100.78 3.12898 106.868 6.36042 115.794C7.91702 120.247 10.2618 125.429 12.0548 131.636Z" fill="#FCC889"/>
<path d="M22.0838 134.572C22.5764 133.607 22.8917 132.286 22.9311 130.73C22.9902 129.153 22.7537 127.341 22.3006 125.311C21.4336 121.233 19.542 116.444 17.9066 110.455C17.8869 110.415 17.8869 110.356 17.8672 110.297C18.5568 110.455 19.2465 110.573 19.9558 110.652C19.9755 110.652 19.9755 110.652 19.9952 110.671C20.0543 110.671 20.1134 110.671 20.1725 110.671C20.8425 110.75 21.5321 110.77 22.2414 110.77C22.2611 110.77 22.2809 110.77 22.3006 110.75C23.1675 116.208 24.2906 121.075 24.5074 125.213C24.6453 127.38 24.5665 129.37 24.2315 131.025C23.8966 132.7 23.266 134.04 22.5764 134.966C21.8868 135.892 21.1971 136.444 20.7242 136.759C20.2514 137.074 19.9952 137.212 19.9952 137.212C19.9952 137.212 20.2317 137.015 20.6454 136.621C21.0592 136.207 21.6306 135.557 22.0838 134.572Z" fill="#FCC889"/>
<path d="M20.3105 93.7456C21.276 92.8787 22.3794 92.2284 23.4828 91.7358C22.1233 92.4846 21.1381 93.9033 21.1775 95.9328C21.2169 97.5682 21.8868 98.7504 22.872 99.5189C22.5765 99.9918 22.34 100.543 22.1627 101.174C21.9262 102.002 21.808 102.947 21.7686 103.893C19.4632 104.366 16.4683 103.538 16.4683 103.538C17.0791 100.839 18.3992 95.4008 20.3105 93.7456Z" fill="#FCC889"/>
<path d="M9.37477 100.031C9.98559 98.9473 10.9314 98.0803 12.0742 97.5877C12.6456 97.3316 13.2761 97.174 13.9067 97.1148C14.5569 97.0163 15.7588 97.0163 16.8622 95.7947L14.8722 103.459C14.7145 103.44 10.4979 101.706 9.17773 100.425C9.23685 100.267 9.29596 100.13 9.37477 100.031Z" fill="#FCC889"/>
<path d="M38.7141 119.814C38.7141 119.774 38.7338 119.834 38.7141 119.696L38.6353 119.183C38.5959 118.848 38.5368 118.513 38.4777 118.198C38.2412 116.937 37.8668 115.952 37.2363 115.321C36.6452 114.671 35.7979 114.356 35.1871 114.218C34.5763 114.08 34.2019 114.06 34.2019 114.06C34.2019 114.06 34.4975 113.863 35.1477 113.647C35.7782 113.45 36.8619 113.193 38.2018 113.725C38.852 113.982 39.522 114.454 40.0737 115.046C40.6254 115.656 41.0786 116.366 41.4332 117.154C41.6106 117.548 41.7682 117.942 41.9061 118.356C41.985 118.573 42.0441 118.77 42.1032 118.986C42.1229 119.045 42.182 119.282 42.2214 119.459L42.3396 120.031C42.6155 121.607 42.6943 123.183 42.8322 124.838L42.6943 124.799C41.0195 124.326 39.384 123.853 37.8668 123.38C37.4137 123.242 37.3151 123.203 37.0984 123.104C36.9014 123.006 36.7043 122.927 36.4876 122.848C36.0935 122.671 35.6994 122.474 35.3448 122.257C34.596 121.804 33.9064 121.272 33.3744 120.641C32.8227 120.011 32.4483 119.302 32.2512 118.651C31.8572 117.311 32.0739 116.287 32.2315 115.637C32.4089 114.986 32.5862 114.651 32.5862 114.651C32.5862 114.651 32.6453 115.026 32.8227 115.637C33 116.228 33.3153 117.095 33.9261 117.804C34.5369 118.513 35.4433 119.006 36.6846 119.38C36.9999 119.479 37.3151 119.558 37.6501 119.637L38.1624 119.774C38.32 119.814 38.6156 119.873 38.5368 119.853C38.5762 119.814 38.5565 119.774 38.5565 119.774C38.6156 119.834 38.655 119.873 38.7141 119.814Z" fill="#FCC889"/>
<path d="M33.4531 108.346C33.059 108.701 32.8423 108.957 32.8423 108.937C32.8423 108.937 32.862 108.642 33.0196 108.07C33.197 107.538 33.5516 106.652 34.5762 105.982C35.0885 105.647 35.7191 105.43 36.4284 105.332C37.118 105.233 37.8471 105.272 38.5761 105.41C38.9308 105.47 39.3052 105.568 39.6598 105.667C39.8372 105.726 40.0145 105.785 40.1918 105.844C40.2509 105.864 40.448 105.942 40.5859 106.002L41.0391 106.218C42.2607 106.79 43.4036 107.519 44.6252 108.228L44.5464 108.307C43.3839 109.233 42.2607 110.159 41.177 110.967C40.8421 111.223 40.7829 111.262 40.6056 111.361C40.448 111.459 40.2904 111.558 40.1327 111.657C39.8175 111.834 39.4825 112.011 39.1475 112.169C38.4776 112.464 37.7486 112.681 37.0589 112.76C36.3496 112.839 35.6796 112.74 35.1279 112.563C34.0048 112.169 33.394 111.538 33.0196 111.085C32.6453 110.632 32.527 110.356 32.5073 110.356C32.5073 110.356 32.7832 110.494 33.3152 110.671C33.8078 110.849 34.5762 111.046 35.3644 110.967C36.1525 110.888 36.9407 110.494 37.8077 109.824C38.0244 109.666 38.2411 109.489 38.4776 109.272L38.8323 108.977C38.9308 108.898 39.1278 108.721 39.0687 108.76C39.0687 108.701 39.0293 108.701 39.0293 108.701C39.0293 108.701 39.0687 108.701 39.0687 108.642V108.622C39.049 108.602 39.0884 108.622 38.9899 108.563L38.5958 108.346C38.3397 108.208 38.0835 108.09 37.8274 107.972C36.8422 107.519 35.9752 107.302 35.2265 107.42C34.4777 107.558 33.8472 108.011 33.4531 108.346Z" fill="#FCC889"/>
<path d="M28.232 127.735C27.4438 126.572 26.6557 125.489 25.9857 124.287L25.7493 123.853C25.6902 123.715 25.5917 123.538 25.572 123.479C25.4931 123.321 25.4143 123.144 25.3552 122.967C25.2173 122.612 25.0991 122.257 25.0006 121.922C24.8035 121.213 24.705 120.484 24.7444 119.794C24.7641 119.105 24.9217 118.435 25.1976 117.922C25.7493 116.858 26.5572 116.445 27.0301 116.228C27.5621 116.031 27.8379 115.991 27.8379 115.991C27.8379 115.991 27.6212 116.208 27.3256 116.622C27.03 117.036 26.6557 117.686 26.636 118.435C26.5966 119.183 26.8921 120.031 27.4044 120.996C27.5424 121.233 27.6803 121.489 27.8379 121.725L28.0744 122.1C28.1335 122.178 28.1138 122.159 28.1335 122.159H28.1532C28.1926 122.159 28.1926 122.119 28.1926 122.119C28.1926 122.119 28.1926 122.159 28.2517 122.159C28.232 122.218 28.3896 122.021 28.4487 121.903L28.7049 121.548C28.8822 121.311 29.0201 121.075 29.1581 120.858C29.7295 119.952 30.025 119.164 30.025 118.356C30.0447 117.568 29.7689 116.819 29.5521 116.326C29.3354 115.834 29.1778 115.558 29.1778 115.558C29.1778 115.558 29.4536 115.696 29.9068 116.011C30.36 116.346 31.0299 116.937 31.5028 118.021C31.7393 118.553 31.8772 119.223 31.8772 119.932C31.8772 120.622 31.7393 121.351 31.5225 122.04C31.4043 122.375 31.2861 122.73 31.1285 123.045C31.0496 123.223 30.9708 123.38 30.9117 123.538C30.8132 123.715 30.7738 123.794 30.5767 124.129C29.8871 125.252 29.1187 126.434 28.3305 127.636L28.232 127.735Z" fill="#FCC889"/>
<path d="M31.542 112.11C31.6208 115.282 26.7145 115.4 26.6357 112.208C26.5569 109.036 31.4829 108.918 31.542 112.11Z" fill="#FCC889"/>
<path d="M2.34077 25.3141C2.73485 28.2894 3.70034 31.7376 5.67072 35.0084C6.5574 36.5059 7.64111 37.964 8.92186 39.3236C9.90705 40.4073 11.0302 41.4319 12.2321 42.3974C12.8429 42.9097 13.4932 43.3826 14.1631 43.8555C15.9955 45.0968 17.8871 46.1411 19.7984 46.9687C21.69 47.7963 23.6406 48.3677 25.5716 48.8209C29.3942 49.6878 33 49.9637 35.995 49.7863C38.99 49.6287 41.3938 48.9588 42.9898 48.3086C44.5858 47.6583 45.3937 47.0672 45.3937 47.0869C45.374 47.0672 44.7829 47.8751 43.3445 48.9391C41.9061 50.0228 39.5417 51.3035 36.3496 52.072C33.1773 52.8601 29.2365 53.1754 24.9017 52.6631C22.754 52.407 20.4683 51.9341 18.1827 51.0868C15.9167 50.2592 13.6705 49.1361 11.5622 47.678C11.3848 47.5795 11.2272 47.4613 11.0696 47.3234C9.78883 46.3973 8.58689 45.3924 7.48348 44.3087C5.21753 42.0427 3.40478 39.4418 2.20284 36.8015C0.311272 32.7228 -0.141917 28.6441 0.0354182 25.393C0.193049 22.1221 0.922092 19.6 1.4738 17.9055C2.04521 16.2307 2.4787 15.344 2.45899 15.344C2.45899 15.344 2.32107 16.3095 2.16344 18.0631C2.04521 19.8168 1.92699 22.3389 2.34077 25.3141Z" fill="#FCC889"/>
<path d="M10.0448 48.6238C9.35519 50.7321 8.50793 52.7813 7.56214 54.8305C7.08925 55.8551 6.61636 56.86 6.14346 57.8452C5.90702 58.3575 5.70998 58.7516 5.51294 59.1851C5.33561 59.6186 5.15827 60.0521 5.00064 60.4855C4.38982 62.2392 4.07456 64.0519 3.97604 65.7859C3.779 69.2735 4.54745 72.4655 5.8282 74.8299C7.10895 77.2141 8.92171 78.6722 10.301 79.4407C11.7 80.2091 12.626 80.4258 12.6063 80.4456C12.6063 80.4258 11.6802 80.5244 10.0251 80.1106C8.40941 79.7165 5.98583 78.6131 3.93663 76.1501C1.88743 73.7265 0.311121 70.0616 0.0549703 65.8253C-0.0632528 63.717 0.133786 61.451 0.764309 59.1851C0.92194 58.6137 1.09928 58.0423 1.31602 57.4906C1.53276 56.9388 1.78891 56.3477 2.00565 55.8945L3.34552 52.9193C4.25189 50.9095 5.11886 48.9785 5.86761 47.1263C6.14346 46.4564 6.36021 45.8062 6.59665 45.1362C7.68036 46.2199 8.8823 47.2248 10.1828 48.1509C10.1433 48.3283 10.1039 48.4662 10.0448 48.6238Z" fill="#FCC889"/>
<path d="M9.21714 38.1807L9.5127 37.0182C9.69004 36.23 9.80826 35.4616 9.84767 34.6931C9.94619 33.1562 9.76885 31.6784 9.45359 30.378C8.80336 27.7574 7.4438 25.8658 6.30097 24.7821C5.13845 23.6787 4.29118 23.2846 4.31088 23.2649C4.29118 23.2846 5.23697 23.3831 6.73446 24.191C8.21225 24.9988 10.2614 26.6934 11.621 29.5701C12.3107 31.0085 12.823 32.703 13.02 34.5946C13.1185 35.5404 13.1382 36.5256 13.0397 37.5502C12.9412 38.5354 12.8427 39.4221 12.7047 40.427C12.6653 40.6831 12.6062 40.9787 12.5668 41.2545C11.3255 40.289 10.222 39.2644 9.21714 38.1807Z" fill="#FCC889"/>
</svg>
