<svg width="151" height="70" viewBox="0 0 151 70" fill="none" xmlns="http://www.w3.org/2000/svg">
<path d="M75.5064 17.8361C74.3992 15.37 73.292 14.4943 73.7047 13.0952C73.8255 12.6322 74.5602 12.451 74.7615 11.998C75.5064 10.3272 70.2723 9.85409 71.0474 14.2024C71.2789 15.2794 72.0036 15.9437 70.8763 14.756C70.0509 13.8904 69.8395 13.3468 69.7389 12.6624C69.5677 9.87422 71.6513 10.1058 71.7922 10.0152C72.3659 9.60248 72.2351 8.50532 70.4434 8.29394C68.0277 8.22348 67.615 10.4882 68.0277 8.83749C68.9739 5.84803 71.3695 6.00907 71.4198 5.30448C71.601 3.02968 62.995 6.25065 67.5748 14.2125C67.9271 14.9774 66.9306 13.5079 66.4575 12.3906C66.1253 11.5954 65.5315 9.69304 64.7262 9.64271C63.5888 9.58232 62.4816 13.1656 66.2159 16.2759C64.082 15.1485 61.0724 12.29 61.2738 13.9004C61.9079 18.9131 72.839 17.7555 75.5164 23.352C78.2039 17.7153 89.115 18.9835 89.7591 13.9004C89.9605 12.29 86.9408 15.1485 84.817 16.2759C88.5513 13.1656 87.4441 9.58232 86.3067 9.64271C85.5014 9.68298 84.9076 11.5854 84.5754 12.3906C84.1023 13.5179 83.1059 14.9875 83.4581 14.2125C88.0279 6.27078 79.4319 3.01961 79.6131 5.30448C79.6634 6.00907 82.059 5.84803 83.0052 8.83749C83.4179 10.4882 83.0052 8.22348 80.5895 8.29394C78.8079 8.50532 78.667 9.60248 79.2407 10.0152C79.3816 10.1158 81.4652 9.87422 81.2941 12.6624C81.1934 13.3368 80.982 13.8904 80.1566 14.756C79.0293 15.9437 79.754 15.2794 79.9855 14.2024C80.7606 9.84402 75.5366 10.3473 76.2714 11.998C76.4727 12.451 77.2075 12.6322 77.3282 13.0952C77.751 14.4943 76.6337 15.37 75.5265 17.8361H75.5064Z" fill="#FCC889"/>
<path d="M66.7188 29.6631C42.3301 10.5387 23.5579 27.3581 23.729 42.5067C23.8599 53.5687 32.8786 59.0242 30.0703 62.2049C27.8358 65.2346 25.2892 60.5743 25.2489 60.5441C24.2625 59.7489 22.0783 61.4802 22.5816 63.9966C24.2122 71.8678 41.8168 67.0565 31.1675 54.6558C26.8896 49.7337 35.8177 60.4535 45.7725 54.6558C53.3619 50.2068 49.527 41.1076 46.7791 45.4157C42.8736 51.6261 31.8116 49.5626 29.9093 42.4866C32.7075 47.308 39.7131 48.8681 44.7257 42.5671C36.9853 48.546 27.4432 42.708 30.3924 35.1488C29.4161 40.2722 32.0834 44.3286 39.4715 41.9128C33.5228 41.8927 30.3018 39.6179 32.1237 33.0854C32.174 36.7593 34.3683 38.1282 37.5389 39.0744C34.2475 36.0849 31.8418 31.7467 35.1031 28.7975C47.7252 19.0641 62.7933 26.6334 74.5397 37.2022C77.1568 39.5877 70.745 32.8438 66.7188 29.6631Z" fill="#FCC889"/>
<path d="M61.4647 23.9659C27.0004 -8.73691 -4.86696 22.3957 0.618744 43.2917C2.18896 48.3044 -0.20663 41.5705 2.07824 33.3973C1.18241 40.4532 4.49396 46.2812 5.67162 42.9897C6.77883 39.9097 6.07425 32.9142 8.87246 26.5024C8.14774 31.5855 10.1105 35.8332 13.7643 30.0153C17.9918 23.2916 21.1624 16.4168 32.2848 15.7324C26.1952 16.9503 23.2359 20.9966 21.0014 23.664C26.9401 19.7586 31.389 16.5175 37.9819 16.2356C34.9925 16.8396 32.5163 18.289 30.4126 20.5135C28.2486 22.8889 30.0906 20.141 39.0589 17.7253C39.9648 17.4737 43.065 16.9704 44.4742 17.3932C40.8606 17.7354 39.0287 19.678 38.4852 20.0202C53.513 17.1012 56.6635 22.9292 69.2253 32.4612C72.7381 35.1689 70.9968 33.7697 69.4266 32.2297C67.041 29.9146 64.3737 26.7138 61.4748 23.9861L61.4647 23.9659Z" fill="#FCC889"/>
<path d="M84.283 29.6631C108.672 10.5387 127.444 27.3581 127.273 42.5067C127.142 53.5687 118.123 59.0242 120.932 62.2049C123.166 65.2346 125.713 60.5743 125.753 60.5441C126.739 59.7489 128.924 61.4802 128.42 63.9966C126.79 71.8678 109.185 67.0565 119.834 54.6558C124.112 49.7337 115.184 60.4535 105.229 54.6558C97.6399 50.2068 101.475 41.1076 104.223 45.4157C108.128 51.6261 119.19 49.5626 121.093 42.4866C118.294 47.308 111.289 48.8681 106.276 42.5671C114.017 48.546 123.559 42.708 120.609 35.1488C121.586 40.2722 118.918 44.3286 111.53 41.9128C117.479 41.8927 120.7 39.6179 118.878 33.0854C118.828 36.7593 116.634 38.1282 113.463 39.0744C116.754 36.0849 119.16 31.7467 115.899 28.7975C103.277 19.0641 88.2085 26.6334 76.4621 37.2022C73.8451 39.5877 80.2568 32.8438 84.283 29.6631Z" fill="#FCC889"/>
<path d="M89.5375 23.9659C124.002 -8.73691 155.869 22.3957 150.383 43.2917C148.813 48.3044 151.209 41.5705 148.924 33.3973C149.82 40.4532 146.508 46.2812 145.331 42.9897C144.223 39.9097 144.928 32.9142 142.13 26.5024C142.854 31.5855 140.892 35.8332 137.238 30.0153C133.01 23.2916 129.84 16.4168 118.717 15.7324C124.807 16.9503 127.766 20.9966 130.001 23.664C124.062 19.7586 119.613 16.5175 113.02 16.2356C116.01 16.8396 118.486 18.289 120.59 20.5135C122.754 22.8889 120.912 20.141 111.943 17.7253C111.037 17.4737 107.937 16.9704 106.528 17.3932C110.142 17.7354 111.973 19.678 112.517 20.0202C97.4892 17.1012 94.3387 22.9292 81.777 32.4612C78.2641 35.1689 80.0054 33.7697 81.5756 32.2297C83.9612 29.9146 86.6285 26.7138 89.5274 23.9861L89.5375 23.9659Z" fill="#FCC889"/>
<path d="M56.8849 20.896C61.515 24.6806 67.6852 31.193 71.6006 35.6722C60.7903 28.1532 52.5768 31.3339 50.5033 36.88C47.7454 44.1171 55.2341 49.784 60.3172 46.7241C63.971 44.5399 62.431 39.9701 61.0419 40.252C59.6831 40.5237 60.1461 43.7548 56.6836 42.7885C50.3222 41.0975 55.3952 27.1567 73.0501 38.6012C74.2781 39.3964 74.3485 38.3898 70.1814 43.4729C52.748 63.7549 65.8834 72.2804 75.8684 69.4822C84.3738 71.8677 98.8279 64.3891 80.8509 43.4729C76.6837 38.3898 76.7542 39.3964 77.9822 38.6012C95.6371 27.1668 100.7 41.1075 94.3487 42.7885C90.8862 43.7548 91.3492 40.5237 89.9903 40.252C88.5912 39.9701 87.0613 44.5399 90.7151 46.7241C95.7881 49.784 103.287 44.1171 100.529 36.88C98.4554 31.3339 90.2319 28.1532 79.4316 35.6722C83.3471 31.1829 89.5173 24.6806 94.1474 20.896C63.4979 43.2112 87.5444 43.2112 56.905 20.896H56.8849ZM75.5061 65.6875C70.2619 62.9296 72.9092 56.1454 75.5061 56.1454C78.103 56.1454 80.7502 62.9296 75.5061 65.6875ZM75.5061 40.0607C76.7039 40.9364 85.179 51.7468 86.6385 57.4237C87.8162 61.6311 85.5011 65.9593 80.5288 66.4525C84.6355 61.2587 81.5252 53.5686 75.496 53.5686C69.4668 53.5686 66.3565 61.2587 70.4633 66.4525C65.4909 65.9693 63.1758 61.6311 64.3535 57.4237C65.823 51.7468 74.2881 40.9364 75.4859 40.0607H75.5061Z" fill="#FCC889"/>
<path d="M74.6003 31.5252C72.9999 19.98 59.6027 23.0097 57.2273 12.1893C56.3012 8.32416 56.9656 3.22096 60.2469 0.976356C54.9021 1.34878 52.0838 5.29444 52.0536 9.92458C51.3993 6.99551 50.7551 2.86867 51.6208 0C49.0641 2.13389 47.4738 4.17717 47.1919 7.69003C45.9036 23.5935 64.4241 22.4964 70.1916 26.0596C75.0432 28.9383 74.862 35.3199 74.6104 31.5252H74.6003Z" fill="#FCC889"/>
<path d="M76.4021 31.5252C78.0025 19.98 91.3997 23.0097 93.7752 12.1893C94.7012 8.32416 94.0369 3.22096 90.7555 0.976356C96.1003 1.34878 98.9186 5.29444 98.9589 9.92458C99.6132 6.99551 100.257 2.86867 99.3917 0C101.948 2.13389 103.539 4.17717 103.821 7.69003C105.109 23.5935 86.5884 22.4964 80.8208 26.0596C75.9693 28.9383 76.1505 35.3199 76.4021 31.5252Z" fill="#FCC889"/>
</svg>
