<svg width="200" height="87" viewBox="0 0 200 87" fill="none" xmlns="http://www.w3.org/2000/svg">
<path d="M98.1414 58.1166C93.9725 41.2624 76.0984 51.9996 80.1109 62.188C83.3592 70.8795 92.3831 65.3113 91.0803 63.1958C90.5418 62.2478 87.1633 63.8843 85.1831 61.3597C82.2822 57.6875 87.5802 51.4508 92.1139 55.2227C103.326 64.533 84.1148 88.7216 73.9792 67.9756C72.5114 64.9321 71.1218 59.7431 70.9741 58.2463C69.8711 62.2179 70.3054 66.4988 74.7001 71.4682C68.3686 65.2115 67.3611 55.7017 70.1317 49.7045C64.2344 55.9312 68.5249 64.3334 67.6217 61.8486C63.5049 50.4229 72.6243 40.7036 77.7225 42.9388C79.5638 43.7471 79.1121 45.2739 79.0253 45.663C81.5961 44.8148 79.7027 38.149 73.1975 41.5119C69.3066 43.5176 65.9715 48.5968 65.4504 53.4764C65.2072 50.5527 64.9466 45.2539 64.5992 43.6373C63.4701 37.8995 58.6672 38.9274 59.8484 44.9047C60.2306 46.7009 61.4378 50.5626 60.7517 48.5369C53.074 25.2963 47.4894 33.5688 52.5529 40.6936C43.2337 31.2437 32.8809 32.3813 33.0373 35.8339C33.1154 37.5902 36.8674 38.2288 32.3077 37.2509C19.2626 34.5566 23.2664 23.8195 23.1535 23.6897C21.9897 22.2428 15.085 36.732 29.1637 38.7677C21.4686 39.7556 14.755 42.9887 10.6382 46.651C6.12189 50.6125 8.01527 51.7701 3.15157 50.6026C2.45675 50.4529 1.51875 50.7023 1.69246 51.311C-0.504895 50.9119 -0.522267 52.7081 1.40584 53.1571C0.997639 53.696 2.03117 54.3646 3.03865 54.2648C6.39982 54.175 5.80055 51.2013 4.51514 56.1508C1.17134 62.6769 4.48039 68.8538 9.52648 69.2529C11.9931 69.4824 13.6433 68.2151 14.3728 67.9457C13.4261 67.6164 12.0539 67.347 11.4459 66.4189C15.5887 64.3334 14.008 59.5535 9.76098 59.2342C7.33782 59.0945 10.1431 60.9705 10.8206 61.6192C10.4297 61.7189 10.6816 62.3276 10.6121 62.5871C8.519 68.275 -0.444101 59.4038 11.6717 48.1677C18.2898 41.9609 30.4925 37.4705 43.5724 40.4042C34.2184 39.4263 26.4626 44.9346 23.6312 52.6582C19.5492 63.7446 28.8684 74.6814 38.3439 74.392C51.1111 74.0926 54.316 56.2905 44.797 53.3367C39.9941 51.8998 36.9282 56.9391 37.6057 57.6676C37.8575 57.947 38.5437 57.5478 39.638 57.0888C42.3912 55.9013 44.4757 56.999 45.4137 59.1045C47.776 64.2835 41.1145 71.7177 33.3152 67.7162C24.3781 63.2357 25.1077 51.81 33.7321 46.5711C45.761 39.1369 54.7502 48.8263 62.4887 59.9427C69.1242 69.4226 59.4836 54.7438 53.3085 49.5747C47.7586 45.6132 44.2933 45.9524 39.5425 47.559C47.8629 46.9902 53.5256 51.2412 58.9017 57.2285C57.0084 55.8015 55.2974 54.7438 52.7439 54.3147C45.2226 52.9775 55.0542 55.2227 64.356 64.1438C65.3722 65.1417 65.3201 64.9022 64.2518 64.6028C55.3147 62.0482 43.6853 68.0156 46.3516 79.9003C47.472 83.4128 45.9521 79.8105 50.5987 72.526C51.9275 70.3207 51.1198 71.578 50.8158 73.2544C49.3393 81.1077 55.2626 87.594 61.1251 86.9453C67.5956 86.3366 66.4144 77.3258 63.9565 78.0343C62.3845 78.4334 63.4267 82.4549 58.7454 81.2175C47.8629 78.2638 57.6945 56.9291 70.7223 70.6899C87.5976 88.3723 101.398 71.7975 98.1414 58.1066V58.1166Z" fill="#FCC889"/>
<path d="M129.278 70.6995C142.306 56.9388 152.146 78.2734 141.255 81.2271C136.573 82.4645 137.616 78.4331 136.044 78.0439C133.586 77.3354 132.396 86.3463 138.875 86.955C144.737 87.6036 150.661 81.1174 149.184 73.2641C148.88 71.5876 148.073 70.3303 149.401 72.5356C154.048 79.8201 152.537 83.4225 153.648 79.9099C156.315 68.0252 144.685 62.0579 135.748 64.6125C134.68 64.9118 134.628 65.1513 135.644 64.1534C144.946 55.2324 154.786 52.9971 147.256 54.3243C144.703 54.7534 142.992 55.8211 141.098 57.2381C146.483 51.2409 152.146 46.9999 160.458 47.5687C155.707 45.9621 152.241 45.6228 146.692 49.5844C140.516 54.7534 130.867 69.4322 137.511 59.9523C145.259 48.836 154.239 39.1466 166.268 46.5808C174.901 51.8097 175.622 63.2454 166.685 67.7258C158.886 71.7174 152.224 64.2931 154.586 59.1141C155.524 57.0086 157.609 55.901 160.362 57.0984C161.448 57.5674 162.143 57.9666 162.394 57.6772C163.063 56.9487 159.997 51.9194 155.203 53.3464C145.684 56.3001 148.889 74.1023 161.656 74.4016C171.14 74.691 180.451 63.7543 176.369 52.6678C173.538 44.9443 165.782 39.436 156.428 40.4139C169.508 37.4801 181.71 41.9706 188.328 48.1774C200.436 59.4235 191.481 68.2846 189.388 62.5967C189.318 62.3472 189.562 61.7286 189.18 61.6288C189.866 60.9802 192.671 59.1042 190.239 59.2439C186.001 59.5632 184.411 64.343 188.554 66.4286C187.946 67.3566 186.574 67.6261 185.627 67.9554C186.348 68.2248 187.998 69.4921 190.474 69.2626C195.52 68.8634 198.829 62.6865 195.485 56.1604C194.2 51.2109 193.6 54.1846 196.961 54.2744C197.969 54.3742 199.011 53.7056 198.594 53.1668C200.522 52.7177 200.505 50.9215 198.308 51.3207C198.481 50.712 197.535 50.4525 196.849 50.6122C191.976 51.7797 193.878 50.6222 189.362 46.6606C185.245 42.9984 178.532 39.7553 170.836 38.7774C184.915 36.7317 178.01 22.2425 176.847 23.6994C176.742 23.8291 180.738 34.5663 167.692 37.2606C163.133 38.2385 166.876 37.5999 166.963 35.8436C167.128 32.3909 156.766 31.2533 147.447 40.7033C152.511 33.5884 146.926 25.316 139.248 48.5466C138.554 50.5723 139.77 46.7105 140.152 44.9143C141.324 38.937 136.53 37.9192 135.401 43.647C135.062 45.2636 134.793 50.5623 134.55 53.4861C134.029 48.6065 130.694 43.5273 126.803 41.5215C120.297 38.1587 118.404 44.8245 120.975 45.6727C120.888 45.2935 120.436 43.7568 122.278 42.9485C127.376 40.7133 136.495 50.4326 132.378 61.8583C131.475 64.343 135.774 55.9409 129.868 49.7141C132.639 55.7014 131.623 65.2112 125.3 71.4779C129.695 66.5084 130.12 62.2375 129.026 58.256C128.878 59.7528 127.489 64.9418 126.021 67.9853C115.885 88.7312 96.6737 64.5426 107.886 55.2324C112.42 51.4704 117.718 57.7071 114.817 61.3693C112.837 63.894 109.458 62.2575 108.92 63.2054C107.617 65.3209 116.641 70.8891 119.889 62.1976C123.893 52.0092 106.028 41.2721 101.859 58.1262C98.6018 71.8171 112.403 88.3919 129.278 70.7095V70.6995Z" fill="#FCC889"/>
<path d="M99.9997 0C99.0096 2.38493 96.6646 6.19682 96.3693 14.3794C94.5975 12.0244 93.1384 11.4557 92.3915 10.6773C92.4783 13.641 92.2612 15.8563 93.9548 21.5442C101.172 42.9288 94.7451 17.7622 84.5748 25.2164C83.0636 26.324 82.8812 25.6056 86.2771 27.751C97.2899 34.9258 92.2351 32.8202 91.1668 32.94C89.8554 33.0797 89.0216 33.6784 88.5005 33.7882C88.9261 34.3969 89.4211 35.275 90.0725 36.2629C93.26 41.2324 92.6694 37.1211 88.7697 39.4861C87.7796 40.1147 87.2238 40.8731 86.8156 41.1625C89.2822 46.7606 97.2812 41.8411 99.9997 50.7821C102.709 41.851 110.717 46.7706 113.184 41.1625C112.776 40.8731 112.22 40.1247 111.23 39.4861C107.33 37.1111 106.739 41.2224 109.927 36.2629C110.57 35.275 111.073 34.3869 111.499 33.7882C110.978 33.6784 110.135 33.0797 108.832 32.94C107.764 32.8202 102.709 34.9258 113.722 27.751C117.118 25.6056 116.936 26.324 115.425 25.2164C105.254 17.7622 98.8272 42.9387 106.045 21.5442C107.738 15.8563 107.521 13.651 107.608 10.6773C106.87 11.4457 105.411 12.0145 103.63 14.3794C103.343 6.2068 100.99 2.38493 99.9997 0Z" fill="#FCC889"/>
</svg>
