<svg width="454" height="352" viewBox="0 0 454 352" fill="none" xmlns="http://www.w3.org/2000/svg">
<path d="M2.93558 261.505C86.0263 185.108 148.788 303.553 79.3237 319.952C49.4664 326.821 56.1137 304.44 46.0874 302.279C30.4109 298.346 22.8219 348.372 64.1457 351.751C101.536 355.352 139.315 319.342 129.898 275.742C127.959 266.435 122.808 259.455 131.283 271.698C160.919 312.14 151.28 332.14 158.371 312.639C175.377 246.657 101.204 213.528 44.2039 227.711C37.3904 229.373 37.0581 230.702 43.5392 225.162C102.866 175.635 165.627 163.225 117.601 170.593C101.315 172.975 90.4023 178.903 78.3265 186.77C112.671 153.474 148.787 129.929 201.799 133.087C171.499 124.168 149.397 122.284 114 144.278C74.6151 172.975 13.0725 254.469 55.4488 201.839C104.86 140.123 162.137 86.3296 238.858 127.603C293.919 156.632 298.517 220.121 241.517 244.995C191.773 267.155 149.286 225.938 164.353 197.185C170.336 185.496 183.63 179.346 201.19 185.994C208.114 188.598 212.546 190.814 214.152 189.208C218.418 185.163 198.864 157.242 168.286 165.164C107.575 181.562 128.015 280.396 209.444 282.058C269.934 283.665 329.316 222.946 303.281 161.397C285.222 118.517 235.756 87.9362 176.097 93.3654C259.52 77.0778 337.348 102.008 379.558 136.467C456.777 198.903 399.666 248.098 386.316 216.52C385.873 215.135 387.424 211.7 384.987 211.146C389.363 207.545 407.255 197.13 391.745 197.905C364.713 199.678 354.576 226.215 380.998 237.794C377.121 242.946 368.369 244.442 362.331 246.27C366.928 247.766 377.453 254.801 393.24 253.527C425.424 251.311 446.529 217.018 425.203 180.787C417.004 153.308 413.182 169.817 434.62 170.316C441.045 170.87 447.693 167.158 445.034 164.167C457.331 161.674 457.22 151.702 443.206 153.918C444.313 150.538 438.276 149.098 433.899 149.984C402.823 156.466 414.955 150.04 386.15 128.046C359.893 107.714 317.074 89.709 267.995 84.2798C357.788 72.9228 313.75 -7.51815 306.327 0.570268C305.663 1.29047 331.144 60.901 247.942 75.859C218.861 81.2882 242.735 77.7426 243.289 67.9922C244.342 48.8237 178.257 42.5081 118.819 94.972C151.114 55.4717 115.496 9.54504 66.5276 138.516C62.0961 149.763 69.8512 128.323 72.2886 118.351C79.7667 85.1661 49.1893 79.5154 41.9881 111.315C39.8278 120.29 38.1107 149.707 36.5597 165.94C33.236 138.849 11.9647 110.65 -12.8517 99.5148C-54.3417 80.845 -66.4175 117.852 -50.0209 122.561C-50.5748 120.456 -53.4553 111.925 -41.7118 107.437C-9.19565 95.0275 48.9678 148.987 22.7111 212.42C16.9502 226.215 44.3701 179.568 6.70232 144.998C24.3729 178.238 17.8919 231.035 -22.4348 265.826C5.59448 238.237 8.30873 214.525 1.32912 192.421C0.387421 200.731 -8.47554 229.539 -17.8371 246.436C-82.4817 361.613 -205.013 227.323 -133.499 175.635C-104.584 154.749 -70.7936 189.374 -89.2952 209.706C-101.925 223.722 -123.473 214.636 -126.908 219.899C-135.217 231.644 -77.6624 262.557 -56.9451 214.304C-31.4086 157.74 -145.354 98.1298 -171.943 191.701C-192.715 267.71 -104.695 359.729 2.93558 261.56V261.505Z" fill="#FCC889" fill-opacity="0.6"/>
</svg>
