<svg width="459" height="352" viewBox="0 0 459 352" fill="none" xmlns="http://www.w3.org/2000/svg">
<path d="M451.064 261.505C367.974 185.108 305.212 303.553 374.676 319.952C404.534 326.821 397.886 304.44 407.913 302.279C423.589 298.346 431.178 348.372 389.854 351.751C352.464 355.352 314.685 319.342 324.102 275.742C326.041 266.435 331.192 259.455 322.717 271.698C293.081 312.14 302.72 332.14 295.629 312.639C278.623 246.657 352.796 213.528 409.796 227.711C416.61 229.373 416.942 230.702 410.461 225.162C351.134 175.635 288.373 163.225 336.399 170.593C352.685 172.975 363.598 178.903 375.674 186.77C341.329 153.474 305.213 129.929 252.201 133.087C282.501 124.168 304.603 122.284 340 144.278C379.385 172.975 440.927 254.469 398.551 201.839C349.14 140.123 291.863 86.3296 215.142 127.603C160.081 156.632 155.483 220.121 212.483 244.995C262.227 267.155 304.714 225.938 289.647 197.185C283.664 185.496 270.37 179.346 252.81 185.994C245.886 188.598 241.454 190.814 239.848 189.208C235.582 185.163 255.136 157.242 285.714 165.164C346.425 181.562 325.985 280.396 244.556 282.058C184.066 283.665 124.684 222.946 150.719 161.397C168.778 118.517 218.244 87.9362 277.903 93.3654C194.48 77.0778 116.652 102.008 74.4419 136.467C-2.7771 198.903 54.3339 248.098 67.6838 216.52C68.127 215.135 66.5759 211.7 69.0132 211.146C64.6371 207.545 46.7449 197.13 62.2552 197.905C89.2874 199.678 99.4244 226.215 73.0016 237.794C76.8792 242.946 85.6313 244.442 91.6693 246.27C87.0716 247.766 76.5469 254.801 60.7596 253.527C28.5758 251.311 7.47083 217.018 28.7974 180.787C36.9957 153.308 40.8178 169.817 19.3804 170.316C12.9548 170.87 6.30743 167.158 8.96637 164.167C-3.33105 161.674 -3.22015 151.702 10.7944 153.918C9.68658 150.538 15.7245 149.098 20.1006 149.984C51.1765 156.466 39.0452 150.04 67.85 128.046C94.1067 107.714 136.926 89.709 186.005 84.2798C96.2116 72.9228 140.25 -7.51815 147.673 0.570268C148.337 1.29047 122.856 60.901 206.058 75.859C235.139 81.2882 211.265 77.7426 210.711 67.9922C209.658 48.8237 275.743 42.5081 335.181 94.972C302.886 55.4717 338.504 9.54504 387.472 138.516C391.904 149.763 384.149 128.323 381.711 118.351C374.233 85.1661 404.811 79.5154 412.012 111.315C414.172 120.29 415.889 149.707 417.44 165.94C420.764 138.849 442.035 110.65 466.852 99.5148C508.342 80.845 520.417 117.852 504.021 122.561C504.575 120.456 507.455 111.925 495.712 107.437C463.196 95.0275 405.032 148.987 431.289 212.42C437.05 226.215 409.63 179.568 447.298 144.998C429.627 178.238 436.108 231.035 476.435 265.826C448.406 238.237 445.691 214.525 452.671 192.421C453.613 200.731 462.476 229.539 471.837 246.436C536.482 361.613 659.013 227.323 587.499 175.635C558.584 154.749 524.794 189.374 543.295 209.706C555.925 223.722 577.473 214.636 580.908 219.899C589.217 231.644 531.662 262.557 510.945 214.304C485.409 157.74 599.354 98.1298 625.943 191.701C646.715 267.71 558.695 359.729 451.064 261.56V261.505Z" fill="#FCC889" fill-opacity="0.6"/>
</svg>
