<svg width="16" height="16" viewBox="0 0 16 16" fill="none" xmlns="http://www.w3.org/2000/svg">
<path d="M3.33333 14.6667H12.6667C13.402 14.6667 14 14.0687 14 13.3334V4.00004C14 3.26471 13.402 2.66671 12.6667 2.66671H11.3333V1.33337H10V2.66671H6V1.33337H4.66667V2.66671H3.33333C2.598 2.66671 2 3.26471 2 4.00004V13.3334C2 14.0687 2.598 14.6667 3.33333 14.6667ZM7.33333 12.276L4.862 9.80471L5.80467 8.86204L7.33333 10.3907L10.1953 7.52871L11.138 8.47137L7.33333 12.276ZM3.33333 4.66671H12.6667V6.00004H3.33333V4.66671Z" fill="#3A3A3A"/>
</svg>
