<svg width="56" height="56" viewBox="0 0 56 56" fill="none" xmlns="http://www.w3.org/2000/svg">
<path d="M42 9.33332H39.6667V6.99999C39.6667 6.38115 39.4208 5.78766 38.9832 5.35007C38.5457 4.91249 37.9522 4.66666 37.3333 4.66666C36.7145 4.66666 36.121 4.91249 35.6834 5.35007C35.2458 5.78766 35 6.38115 35 6.99999V9.33332H21V6.99999C21 6.38115 20.7542 5.78766 20.3166 5.35007C19.879 4.91249 19.2855 4.66666 18.6667 4.66666C18.0478 4.66666 17.4543 4.91249 17.0168 5.35007C16.5792 5.78766 16.3333 6.38115 16.3333 6.99999V9.33332H14C12.1435 9.33332 10.363 10.0708 9.05025 11.3836C7.7375 12.6963 7 14.4768 7 16.3333V44.3333C7 46.1898 7.7375 47.9703 9.05025 49.2831C10.363 50.5958 12.1435 51.3333 14 51.3333H42C43.8565 51.3333 45.637 50.5958 46.9497 49.2831C48.2625 47.9703 49 46.1898 49 44.3333V16.3333C49 14.4768 48.2625 12.6963 46.9497 11.3836C45.637 10.0708 43.8565 9.33332 42 9.33332ZM14 14H16.3333V16.3333C16.3333 16.9522 16.5792 17.5457 17.0168 17.9832C17.4543 18.4208 18.0478 18.6667 18.6667 18.6667C19.2855 18.6667 19.879 18.4208 20.3166 17.9832C20.7542 17.5457 21 16.9522 21 16.3333V14H35V16.3333C35 16.9522 35.2458 17.5457 35.6834 17.9832C36.121 18.4208 36.7145 18.6667 37.3333 18.6667C37.9522 18.6667 38.5457 18.4208 38.9832 17.9832C39.4208 17.5457 39.6667 16.9522 39.6667 16.3333V14H42C42.6188 14 43.2123 14.2458 43.6499 14.6834C44.0875 15.121 44.3333 15.7145 44.3333 16.3333V25.6667H11.6667V16.3333C11.6667 15.7145 11.9125 15.121 12.3501 14.6834C12.7877 14.2458 13.3812 14 14 14ZM42 46.6667H14C13.3812 46.6667 12.7877 46.4208 12.3501 45.9832C11.9125 45.5457 11.6667 44.9522 11.6667 44.3333V30.3333H44.3333V44.3333C44.3333 44.9522 44.0875 45.5457 43.6499 45.9832C43.2123 46.4208 42.6188 46.6667 42 46.6667Z" fill="#FCC889"/>
<path d="M18.6666 39.6667C19.9553 39.6667 21 38.622 21 37.3333C21 36.0447 19.9553 35 18.6666 35C17.378 35 16.3333 36.0447 16.3333 37.3333C16.3333 38.622 17.378 39.6667 18.6666 39.6667Z" fill="#FCC889"/>
<path d="M37.3334 35H28C27.3812 35 26.7877 35.2458 26.3501 35.6834C25.9125 36.121 25.6667 36.7145 25.6667 37.3333C25.6667 37.9522 25.9125 38.5457 26.3501 38.9832C26.7877 39.4208 27.3812 39.6667 28 39.6667H37.3334C37.9522 39.6667 38.5457 39.4208 38.9833 38.9832C39.4209 38.5457 39.6667 37.9522 39.6667 37.3333C39.6667 36.7145 39.4209 36.121 38.9833 35.6834C38.5457 35.2458 37.9522 35 37.3334 35Z" fill="#FCC889"/>
</svg>
