<svg width="32" height="32" viewBox="0 0 32 32" fill="none" xmlns="http://www.w3.org/2000/svg">
<circle cx="16" cy="16" r="16" fill="#FCC889"/>
<path d="M24.947 12.305C24.9369 11.5476 24.7951 10.7977 24.528 10.089C24.2964 9.49111 23.9425 8.94816 23.4892 8.49479C23.0358 8.04142 22.4929 7.68761 21.895 7.45596C21.1953 7.19331 20.4562 7.0513 19.709 7.03596C18.747 6.99296 18.442 6.98096 16 6.98096C13.558 6.98096 13.245 6.98096 12.29 7.03596C11.5432 7.05141 10.8044 7.19343 10.105 7.45596C9.50707 7.68745 8.96403 8.0412 8.51064 8.49459C8.05725 8.94798 7.7035 9.49102 7.47201 10.089C7.20884 10.7881 7.06713 11.5271 7.05301 12.274C7.01001 13.237 6.99701 13.542 6.99701 15.984C6.99701 18.426 6.99701 18.738 7.05301 19.694C7.06801 20.442 7.20901 21.18 7.47201 21.881C7.70389 22.4787 8.05791 23.0215 8.51145 23.4747C8.96499 23.9279 9.50807 24.2815 10.106 24.513C10.8034 24.7862 11.5424 24.9383 12.291 24.963C13.254 25.006 13.559 25.019 16.001 25.019C18.443 25.019 18.756 25.019 19.711 24.963C20.4582 24.9482 21.1974 24.8066 21.897 24.544C22.4947 24.312 23.0375 23.9581 23.4909 23.5048C23.9442 23.0515 24.2981 22.5086 24.53 21.911C24.793 21.211 24.934 20.473 24.949 19.724C24.992 18.762 25.005 18.457 25.005 16.014C25.003 13.572 25.003 13.262 24.947 12.305ZM15.994 20.602C13.44 20.602 11.371 18.533 11.371 15.979C11.371 13.425 13.44 11.356 15.994 11.356C17.2201 11.356 18.396 11.843 19.263 12.71C20.1299 13.577 20.617 14.7529 20.617 15.979C20.617 17.2051 20.1299 18.3809 19.263 19.2479C18.396 20.1149 17.2201 20.602 15.994 20.602ZM20.801 12.263C20.6594 12.2631 20.5192 12.2353 20.3883 12.1812C20.2575 12.127 20.1386 12.0476 20.0385 11.9475C19.9383 11.8474 19.8589 11.7285 19.8048 11.5976C19.7507 11.4668 19.7229 11.3266 19.723 11.185C19.723 11.0435 19.7509 10.9033 19.805 10.7726C19.8592 10.6419 19.9385 10.5231 20.0386 10.423C20.1387 10.323 20.2574 10.2436 20.3882 10.1895C20.5189 10.1353 20.659 10.1075 20.8005 10.1075C20.942 10.1075 21.0821 10.1353 21.2129 10.1895C21.3436 10.2436 21.4624 10.323 21.5624 10.423C21.6625 10.5231 21.7418 10.6419 21.796 10.7726C21.8501 10.9033 21.878 11.0435 21.878 11.185C21.878 11.781 21.396 12.263 20.801 12.263Z" fill="#3A3A3A"/>
<path d="M15.994 18.9821C17.6525 18.9821 18.997 17.6376 18.997 15.9791C18.997 14.3206 17.6525 12.9761 15.994 12.9761C14.3355 12.9761 12.991 14.3206 12.991 15.9791C12.991 17.6376 14.3355 18.9821 15.994 18.9821Z" fill="#3A3A3A"/>
</svg>
