<svg width="12" height="14" viewBox="0 0 12 14" fill="none" xmlns="http://www.w3.org/2000/svg">
<path d="M6.00001 0C4.54184 0.00172024 3.1439 0.581735 2.11282 1.61281C1.08174 2.64389 0.501726 4.04184 0.500006 5.5C0.498259 6.69161 0.887496 7.85089 1.60801 8.8C1.60801 8.8 1.75801 8.9975 1.78251 9.026L6.00001 14L10.2195 9.0235C10.2415 8.997 10.392 8.8 10.392 8.8L10.3925 8.7985C11.1127 7.84981 11.5017 6.69107 11.5 5.5C11.4983 4.04184 10.9183 2.64389 9.88719 1.61281C8.85612 0.581735 7.45817 0.00172024 6.00001 0ZM8.10501 5.851L6.00151 8L3.89501 5.851C3.64208 5.58985 3.50065 5.24055 3.50065 4.877C3.50065 4.51345 3.64208 4.16415 3.89501 3.903C4.01904 3.77551 4.16736 3.67418 4.33122 3.60498C4.49508 3.53579 4.67114 3.50014 4.84901 3.50014C5.02687 3.50014 5.20294 3.53579 5.36679 3.60498C5.53065 3.67418 5.67898 3.77551 5.80301 3.903L6.00151 4.1055L6.19801 3.903C6.32204 3.77551 6.47036 3.67418 6.63422 3.60498C6.79808 3.53579 6.97414 3.50014 7.15201 3.50014C7.32987 3.50014 7.50594 3.53579 7.66979 3.60498C7.83365 3.67418 7.98198 3.77551 8.10601 3.903C8.35894 4.16415 8.50036 4.51345 8.50036 4.877C8.50036 5.24055 8.35894 5.58985 8.10601 5.851H8.10501Z" fill="#3A3A3A"/>
</svg>
