<svg width="57" height="56" viewBox="0 0 57 56" fill="none" xmlns="http://www.w3.org/2000/svg">
<path d="M44.8333 4.66667H21.5C18.9263 4.66667 16.8333 6.75967 16.8333 9.33334V22.3673L5.85034 33.3503C5.52412 33.6767 5.30197 34.0924 5.21198 34.5449C5.12199 34.9975 5.1682 35.4666 5.34476 35.8929C5.52133 36.3192 5.82032 36.6835 6.20394 36.9399C6.58756 37.1963 7.03859 37.3332 7.50001 37.3333V49C7.50001 49.6188 7.74584 50.2123 8.18343 50.6499C8.62101 51.0875 9.21451 51.3333 9.83334 51.3333H47.1667C47.7855 51.3333 48.379 51.0875 48.8166 50.6499C49.2542 50.2123 49.5 49.6188 49.5 49V9.33334C49.5 6.75967 47.407 4.66667 44.8333 4.66667ZM26.1667 46.6667H12.1667V33.6327L19.1667 26.6327L26.1667 33.6327V46.6667ZM44.8333 46.6667H30.8333V37.3333C31.2953 37.3344 31.7471 37.1981 32.1314 36.9419C32.5158 36.6857 32.8153 36.3211 32.9921 35.8943C33.1688 35.4676 33.2148 34.9979 33.1242 34.545C33.0335 34.092 32.8104 33.6762 32.483 33.3503L21.5 22.3673V9.33334H44.8333V46.6667Z" fill="#FCC889"/>
<path d="M26.1666 14H30.8333V18.6667H26.1666V14ZM35.5 14H40.1666V18.6667H35.5V14ZM35.5 23.4057H40.1666V28H35.5V23.4057ZM35.5 32.6667H40.1666V37.3333H35.5V32.6667ZM16.8333 35H21.5V39.6667H16.8333V35Z" fill="#FCC889"/>
</svg>
