<svg width="57" height="56" viewBox="0 0 57 56" fill="none" xmlns="http://www.w3.org/2000/svg">
<path d="M28.5 4.66667C23.8851 4.66667 19.3738 6.03515 15.5367 8.59905C11.6995 11.1629 8.70886 14.8071 6.94281 19.0707C5.17677 23.3343 4.71469 28.0259 5.61501 32.5521C6.51533 37.0783 8.73762 41.2359 12.0008 44.4992C15.2641 47.7624 19.4217 49.9847 23.9479 50.885C28.4741 51.7853 33.1657 51.3232 37.4293 49.5572C41.6929 47.7911 45.3371 44.8005 47.901 40.9633C50.4649 37.1262 51.8333 32.6149 51.8333 28C51.8333 24.9358 51.2298 21.9017 50.0572 19.0707C48.8846 16.2398 47.1659 13.6675 44.9992 11.5008C42.8325 9.33415 40.2602 7.61543 37.4293 6.44282C34.5984 5.27021 31.5642 4.66667 28.5 4.66667ZM28.5 46.6667C24.8081 46.6667 21.1991 45.5719 18.1294 43.5208C15.0596 41.4697 12.6671 38.5543 11.2542 35.1434C9.84141 31.7325 9.47175 27.9793 10.192 24.3583C10.9123 20.7373 12.6901 17.4113 15.3007 14.8007C17.9113 12.1901 21.2373 10.4123 24.8583 9.69201C28.4793 8.97176 32.2325 9.34142 35.6434 10.7543C39.0543 12.1671 41.9696 14.5596 44.0208 17.6294C46.0719 20.6991 47.1667 24.3081 47.1667 28C47.1667 32.9507 45.2 37.6987 41.6993 41.1993C38.1986 44.7 33.4507 46.6667 28.5 46.6667Z" fill="#FCC889"/>
<path d="M37.8333 25.6667H30.8333V18.6667C30.8333 18.0478 30.5875 17.4543 30.1499 17.0167C29.7123 16.5792 29.1188 16.3333 28.5 16.3333C27.8812 16.3333 27.2877 16.5792 26.8501 17.0167C26.4125 17.4543 26.1667 18.0478 26.1667 18.6667V28C26.1667 28.6188 26.4125 29.2123 26.8501 29.6499C27.2877 30.0875 27.8812 30.3333 28.5 30.3333H37.8333C38.4522 30.3333 39.0457 30.0875 39.4832 29.6499C39.9208 29.2123 40.1667 28.6188 40.1667 28C40.1667 27.3812 39.9208 26.7877 39.4832 26.3501C39.0457 25.9125 38.4522 25.6667 37.8333 25.6667Z" fill="#FCC889"/>
</svg>
