<svg width="32" height="32" viewBox="0 0 32 32" fill="none" xmlns="http://www.w3.org/2000/svg">
<circle cx="16" cy="16" r="16" fill="#FCC889"/>
<path d="M22.8 11.6999C20.4 7.99988 15.5 6.89988 11.7 9.19988C8.00002 11.4999 6.80002 16.4999 9.20002 20.1999L9.40002 20.4999L8.60002 23.4999L11.6 22.6999L11.9 22.8999C13.2 23.5999 14.6 23.9999 16 23.9999C17.5 23.9999 19 23.5999 20.3 22.7999C24 20.3999 25.1 15.4999 22.8 11.6999ZM20.7 19.3999C20.3 19.9999 19.8 20.3999 19.1 20.4999C18.7 20.4999 18.2 20.6999 16.2 19.8999C14.5 19.0999 13.1 17.7999 12.1 16.2999C11.5 15.5999 11.2 14.6999 11.1 13.7999C11.1 12.9999 11.4 12.2999 11.9 11.7999C12.1 11.5999 12.3 11.4999 12.5 11.4999H13C13.2 11.4999 13.4 11.4999 13.5 11.8999C13.7 12.3999 14.2 13.5999 14.2 13.6999C14.3 13.7999 14.3 13.9999 14.2 14.0999C14.3 14.2999 14.2 14.4999 14.1 14.5999C14 14.6999 13.9 14.8999 13.8 14.9999C13.6 15.0999 13.5 15.2999 13.6 15.4999C14 16.0999 14.5 16.6999 15 17.1999C15.6 17.6999 16.2 18.0999 16.9 18.3999C17.1 18.4999 17.3 18.4999 17.4 18.2999C17.5 18.0999 18 17.5999 18.2 17.3999C18.4 17.1999 18.5 17.1999 18.7 17.2999L20.3 18.0999C20.5 18.1999 20.7 18.2999 20.8 18.3999C20.9 18.6999 20.9 19.0999 20.7 19.3999Z" fill="#3A3A3A"/>
</svg>
